<svg width="104" height="89" viewBox="0 0 104 89" fill="none" xmlns="http://www.w3.org/2000/svg">
<path d="M35.4952 87.4337L39.4841 72.7402H65.0378L68.9116 87.4337M23.7012 87.4337H80.7056" stroke="#006CFA" stroke-width="3" stroke-linecap="round" stroke-linejoin="round"/>
<path d="M102 68.5426V6C102 3.79086 100.207 2 97.9979 2H89.9845H14.7907H6.00067C3.79153 2 2 3.79086 2 5.99999V68.5426C2 70.7518 3.79086 72.5426 6 72.5426H98C100.209 72.5426 102 70.7518 102 68.5426Z" stroke="#006CFA" stroke-width="3" stroke-linecap="round"/>
<line x1="2" y1="59.1772" x2="102" y2="59.1772" stroke="#006CFA" stroke-width="3"/>
<path d="M67.0352 21.6494L76.3685 31.5013L67.0352 41.3531" stroke="#006CFA" stroke-width="3" stroke-linecap="round" stroke-linejoin="round"/>
<path d="M38.0003 21.6494L28.667 31.5013L38.0003 41.3531" stroke="#006CFA" stroke-width="3" stroke-linecap="round" stroke-linejoin="round"/>
<path d="M57.7004 21.6494L47.3301 41.3531" stroke="#006CFA" stroke-width="3" stroke-linecap="round" stroke-linejoin="round"/>
</svg>