<svg width="88" height="98" viewBox="0 0 88 98" fill="none" xmlns="http://www.w3.org/2000/svg">
<path fill-rule="evenodd" clip-rule="evenodd" d="M14.5244 52.6897C11.8649 52.6897 9.70898 50.9318 9.70898 48.7633V5.87391C9.7178 3.54215 12.0339 1.65367 14.8936 1.64648H76.7811C79.6266 1.65367 81.9312 3.53277 81.94 5.85297V48.4623C81.9312 50.7941 79.6151 52.6825 76.7554 52.6897H14.5244Z" stroke="#006CFA" stroke-width="3" stroke-linecap="round" stroke-linejoin="round"/>
<path d="M81.9398 12.2402H10.6719" stroke="#006CFA" stroke-width="3" stroke-linecap="round" stroke-linejoin="round"/>
<path d="M58.375 24.1187L66.4649 32.658L58.375 41.1973" stroke="#006CFA" stroke-width="3" stroke-linecap="round" stroke-linejoin="round"/>
<path d="M33.208 24.1182L25.1182 32.6575L33.208 41.1968" stroke="#006CFA" stroke-width="3" stroke-linecap="round" stroke-linejoin="round"/>
<path d="M50.2846 24.1187L41.2959 41.1973" stroke="#006CFA" stroke-width="3" stroke-linecap="round" stroke-linejoin="round"/>
<path d="M58.8773 68.0616L78.6126 61.8195C80.0721 61.3569 81.6797 61.7966 82.821 62.9703C83.9622 64.1441 84.4609 65.8707 84.1265 67.4904C83.8901 68.6251 83.2659 69.6033 82.3783 70.2298L56.4033 84.6779C55.0589 85.6269 53.474 86.1026 51.8525 86.0545C51.3469 86.0395 50.8413 86.0011 50.3357 86.0152L32.6129 86.5102" stroke="#006CFA" stroke-width="3" stroke-linecap="round" stroke-linejoin="round"/>
<path d="M38.5222 74.0791L55.3375 70.2713C57.0057 69.8932 58.2383 68.4601 58.3983 66.7127C58.4989 65.5968 58.1472 64.4819 57.4256 63.6298C56.7041 62.7776 55.6763 62.2631 54.5834 62.207L36.2366 61.2748C34.2999 61.1746 32.3702 61.5044 30.5793 62.2417L20.7305 66.3194" stroke="#006CFA" stroke-width="3" stroke-linecap="round" stroke-linejoin="round"/>
<rect x="2.3584" y="66.6016" width="17.9775" height="30.5617" transform="rotate(-12.7594 2.3584 66.6016)" stroke="#006CFA" stroke-width="3" stroke-linejoin="round"/>
</svg>