<svg width="592" height="475" viewBox="0 0 592 475" fill="none" xmlns="http://www.w3.org/2000/svg">
<rect width="592" height="475" fill="white"/>
<path fill-rule="evenodd" clip-rule="evenodd" d="M105.423 126.044C159.02 106.097 158.962 169.302 233.524 175.423C316.377 182.225 302.959 57 432.972 57C509.941 57 562 142.307 562 234.853C562 364.82 404.062 428 292.5 428C185.312 428 105.423 406.588 57.2577 341.041C23.4349 295.012 3.89672 163.828 105.423 126.044Z" fill="#EBF4FF"/>
<path d="M490.4 301C495.355 282.841 498 263.73 498 244C498 124.706 401.294 28 282 28C221.707 28 167.184 52.7032 128 92.5404M466.12 357C428.113 418.795 359.869 460 282 460C244.704 460 209.616 450.547 179 433.907C167.495 427.654 156.622 420.386 146.5 412.223C97.4057 372.629 66 311.982 66 244C66 211.293 73.2695 180.284 86.281 152.5" stroke="#DCDFE3" stroke-width="3" stroke-linecap="round" stroke-linejoin="round" stroke-dasharray="15 30"/>
<path d="M492 215.243C501.941 215.243 510 207.184 510 197.243C510 187.302 501.941 179.243 492 179.243C482.059 179.243 474 187.302 474 197.243C474 207.184 482.059 215.243 492 215.243Z" fill="white" stroke="#4F5966" stroke-width="3" stroke-linecap="round" stroke-linejoin="round"/>
<path d="M487.361 194.374C487.361 193.404 486.425 192.618 485.271 192.618C484.116 192.618 483.18 193.404 483.18 194.374" fill="white"/>
<path d="M487.361 194.374C487.361 193.404 486.425 192.618 485.271 192.618C484.116 192.618 483.18 193.404 483.18 194.374" stroke="#DCDFE3" stroke-width="2" stroke-linecap="round" stroke-linejoin="round"/>
<path d="M500.741 194.374C500.741 193.404 499.805 192.618 498.651 192.618C497.496 192.618 496.56 193.404 496.56 194.374" fill="white"/>
<path d="M500.741 194.374C500.741 193.404 499.805 192.618 498.651 192.618C497.496 192.618 496.56 193.404 496.56 194.374" stroke="#DCDFE3" stroke-width="2" stroke-linecap="round" stroke-linejoin="round"/>
<path d="M486.293 205.069C487.742 206.6 489.732 207.544 491.927 207.544C494.197 207.544 496.248 206.534 497.708 204.91" fill="white"/>
<path d="M486.293 205.069C487.742 206.6 489.732 207.544 491.927 207.544C494.197 207.544 496.248 206.534 497.708 204.91" stroke="#006CFA" stroke-width="2" stroke-linecap="round" stroke-linejoin="round"/>
<path d="M517 199C518.105 199 519 198.105 519 197C519 195.895 518.105 195 517 195C515.895 195 515 195.895 515 197C515 198.105 515.895 199 517 199Z" fill="#F52C2F"/>
<path d="M509.5 174C510.328 174 511 173.328 511 172.5C511 171.672 510.328 171 509.5 171C508.672 171 508 171.672 508 172.5C508 173.328 508.672 174 509.5 174Z" fill="#25C286"/>
<path d="M464.5 203C465.881 203 467 201.881 467 200.5C467 199.119 465.881 198 464.5 198C463.119 198 462 199.119 462 200.5C462 201.881 463.119 203 464.5 203Z" fill="#006CFA"/>
<path fill-rule="evenodd" clip-rule="evenodd" d="M376.153 59.6976L372.965 61.5C370.613 63.0738 369 65.7317 369 68.8193V74.6943V80.5C369 83.7447 371.574 86.4443 374.75 86.4443C377.926 86.4443 380.5 83.7447 380.5 80.5H403.5C403.5 83.7447 406.074 86.4443 409.25 86.4443C412.426 86.4443 415 83.7447 415 80.5V74.6943V68.8193C415 65.7317 413.505 63.0738 411.152 61.5L407.847 59.6976C407.726 59.1915 407.605 58.5103 407.459 57.7307C406.849 54.4918 405.793 49.5531 402.419 48.4039C401.231 47.9992 399.987 47.793 398.734 47.793H385.266C384.013 47.793 382.769 47.9992 381.581 48.4039C377.996 49.625 377.028 53.7636 376.432 57.7307C376.332 58.396 376.242 59.0565 376.153 59.6976Z" fill="white"/>
<path d="M376.153 59.6976L376.891 61.0033C377.297 60.7735 377.574 60.3676 377.638 59.9053L376.153 59.6976ZM407.847 59.6976L406.388 60.0466C406.487 60.4595 406.756 60.8112 407.129 61.0145L407.847 59.6976ZM402.419 48.4039L402.902 46.984V46.984L402.419 48.4039ZM381.581 48.4039L381.098 46.984L381.581 48.4039ZM407.459 57.7307L405.985 58.0081L407.459 57.7307ZM411.152 60H372.965V63H411.152V60ZM370.5 68.8193C370.5 66.2752 371.826 64.0668 373.799 62.7467L372.131 60.2533C369.4 62.0808 367.5 65.1883 367.5 68.8193H370.5ZM370.5 74.6943V68.8193H367.5V74.6943H370.5ZM370.5 80.5V74.6943H367.5V80.5H370.5ZM374.75 84.9443C372.456 84.9443 370.5 82.97 370.5 80.5H367.5C367.5 84.5193 370.693 87.9443 374.75 87.9443V84.9443ZM379 80.5C379 82.97 377.044 84.9443 374.75 84.9443V87.9443C378.807 87.9443 382 84.5193 382 80.5H379ZM403.5 79H380.5V82H403.5V79ZM409.25 84.9443C406.956 84.9443 405 82.97 405 80.5H402C402 84.5193 405.193 87.9443 409.25 87.9443V84.9443ZM413.5 80.5C413.5 82.97 411.544 84.9443 409.25 84.9443V87.9443C413.307 87.9443 416.5 84.5193 416.5 80.5H413.5ZM413.5 74.6943V80.5H416.5V74.6943H413.5ZM413.5 68.8193V74.6943H416.5V68.8193H413.5ZM410.318 62.7467C412.257 64.0435 413.5 66.2348 413.5 68.8193H416.5C416.5 65.2286 414.753 62.1041 411.986 60.2533L410.318 62.7467ZM398.734 49.293C399.822 49.293 400.902 49.4721 401.935 49.8238L402.902 46.984C401.559 46.5264 400.151 46.293 398.734 46.293V49.293ZM385.266 49.293H398.734V46.293H385.266V49.293ZM382.065 49.8238C383.098 49.4721 384.178 49.293 385.266 49.293V46.293C383.849 46.293 382.441 46.5264 381.098 46.984L382.065 49.8238ZM407.129 61.0145L410.434 62.8169L411.87 60.1831L408.566 58.3807L407.129 61.0145ZM373.704 62.8057L376.891 61.0033L375.414 58.3919L372.227 60.1943L373.704 62.8057ZM403.5 82H404.096V79H403.5V82ZM380.5 79H379.904V82H380.5V79ZM411.659 60H411.152V63H411.659V60ZM372.965 60H372.53V63H372.965V60ZM405.985 58.0081C406.125 58.7551 406.256 59.4937 406.388 60.0466L409.306 59.3485C409.196 58.8893 409.086 58.2656 408.933 57.4533L405.985 58.0081ZM411.659 56.2307H407.459V59.2307H411.659V56.2307ZM377.638 59.9053C377.729 59.2559 377.817 58.6088 377.915 57.9536L374.948 57.5078C374.847 58.1832 374.756 58.8571 374.667 59.4899L377.638 59.9053ZM372.53 59.2307H376.432V56.2307H372.53V59.2307ZM377.915 57.9536C378.212 55.9809 378.58 54.1356 379.251 52.658C379.906 51.2168 380.785 50.2597 382.065 49.8238L381.098 46.984C378.792 47.7691 377.395 49.4919 376.52 51.4171C375.662 53.3058 375.248 55.5134 374.948 57.5078L377.915 57.9536ZM401.935 49.8238C403.019 50.1928 403.894 51.2306 404.596 52.8731C405.286 54.4882 405.679 56.3841 405.985 58.0081L408.933 57.4533C408.629 55.8384 408.189 53.6455 407.355 51.6943C406.533 49.7703 405.193 47.7642 402.902 46.984L401.935 49.8238ZM372.145 59.6213C372.142 59.4066 372.315 59.2307 372.53 59.2307V56.2307C370.64 56.2307 369.116 57.7784 369.145 59.6681L372.145 59.6213ZM372.53 60C372.319 60 372.148 59.8314 372.145 59.6213L369.145 59.6681C369.174 61.5166 370.681 63 372.53 63V60ZM412.044 59.6093C412.047 59.8241 411.874 60 411.659 60V63C413.549 63 415.073 61.4523 415.043 59.5626L412.044 59.6093ZM415.043 59.5626C415.014 57.7141 413.508 56.2307 411.659 56.2307V59.2307C411.869 59.2307 412.04 59.3993 412.044 59.6093L415.043 59.5626ZM379.904 79C376.029 79 372.408 77.072 370.244 73.8569L367.756 75.5317C370.476 79.5752 375.031 82 379.904 82V79ZM404.096 82C408.969 82 413.524 79.5752 416.244 75.5317L413.756 73.8569C411.592 77.072 407.971 79 404.096 79V82Z" fill="#4F5966"/>
<path d="M423.5 88.9443C424.328 88.9443 425 88.2728 425 87.4443C425 86.6159 424.328 85.9443 423.5 85.9443V88.9443ZM361 85.9443C360.172 85.9443 359.5 86.6159 359.5 87.4443C359.5 88.2728 360.172 88.9443 361 88.9443V85.9443ZM423.5 85.9443H361V88.9443H423.5V85.9443Z" fill="#4F5966"/>
<ellipse cx="406.651" cy="71.2632" rx="2.93617" ry="3" fill="#4F5966"/>
<path d="M385 63V79H390.022V73.9775C388.814 73.289 388 71.9896 388 70.5C388 69.0104 388.814 67.711 390.022 67.0225V63H385Z" fill="#006CFA"/>
<path d="M399 79V63H393.978V67.0228C395.186 67.7113 396 69.0106 396 70.5C396 71.9894 395.186 73.2887 393.978 73.9772V79H399Z" fill="#006CFA"/>
<ellipse cx="376.778" cy="71.2632" rx="2.93617" ry="3" fill="#4F5966"/>
<path d="M427 59C428.105 59 429 58.1046 429 57C429 55.8954 428.105 55 427 55C425.895 55 425 55.8954 425 57C425 58.1046 425.895 59 427 59Z" fill="#F52C2F"/>
<path d="M406.5 38.9326C407.328 38.9326 408 38.261 408 37.4326C408 36.6042 407.328 35.9326 406.5 35.9326C405.672 35.9326 405 36.6042 405 37.4326C405 38.261 405.672 38.9326 406.5 38.9326Z" fill="#25C286"/>
<path d="M358.966 68.9325C360.605 68.9325 361.933 67.6045 361.933 65.9663C361.933 64.328 360.605 63 358.966 63C357.328 63 356 64.328 356 65.9663C356 67.6045 357.328 68.9325 358.966 68.9325Z" fill="#006CFA"/>
<path d="M392.545 69V72.5H391.735V69.65H391.035V69H392.545Z" fill="#4F5966"/>
<path d="M369.024 418.504H377.148C378.697 418.504 380.021 419.648 380.285 421.214L383.191 438.454V440.754L367.603 436.489L349.505 440.754V438.454L352.896 421.128C353.194 419.602 354.5 418.504 356.017 418.504H369.024Z" fill="#80BBFF" stroke="#4F5966" stroke-width="3" stroke-linecap="round" stroke-linejoin="round"/>
<path d="M366.5 414H376.439C377.865 414 379.083 414.255 379.326 414.604L382 418.446L366.5 419L351 418.446L354.12 414.585C354.395 414.245 355.597 414 356.992 414H366.5Z" fill="white" stroke="#4F5966" stroke-width="3" stroke-linecap="round" stroke-linejoin="round"/>
<path d="M364.909 461.732C357.493 458.351 353.426 456.303 352.708 455.588C351.554 454.439 345.301 446.397 344.388 442.951C344.018 441.556 343.761 440.16 343.616 438.765C343.448 437.157 344.502 435.666 346.014 435.102C349.015 434.039 352.016 433.208 355.017 432.611C356.372 432.341 357.645 432.13 359 431.955C361.492 431.633 364.066 431.462 366.558 431.462C368.963 431.462 371.576 431.635 374 431.934C375.453 432.113 376.721 432.324 378.164 432.611C381.165 433.208 384.166 434.039 387.167 435.102C388.71 435.649 389.734 437.136 389.565 438.765C389.419 440.16 389.162 441.556 388.793 442.951C387.88 446.397 381.626 454.439 380.472 455.588C379.93 456.128 377.444 457.429 373.06 459.491C371.641 460.158 370.022 460.906 368.207 461.733C367.16 462.21 365.956 462.209 364.909 461.732Z" fill="white"/>
<path d="M359 431.955C358.458 431.111 358.188 430.732 358.188 429.799C358.188 428.866 358.458 427.933 359 427L345.811 428.875C345.27 429.897 345 430.95 345 432.031C345 433.021 345.561 434.113 346.014 435.102M359 431.955C357.645 432.13 356.372 432.341 355.017 432.611C352.016 433.208 349.015 434.039 346.014 435.102M359 431.955C361.492 431.633 364.066 431.462 366.558 431.462C368.963 431.462 371.576 431.635 374 431.934M346.014 435.102C344.502 435.666 343.448 437.157 343.616 438.765C343.761 440.16 344.018 441.556 344.388 442.951M374 431.934C374.541 431.09 374.811 430.732 374.811 429.799C374.811 428.866 374.541 427.933 374 427L387.188 428.875C387.729 429.897 388 430.95 388 432.031C388 433.021 387.62 434.113 387.167 435.102M374 431.934C375.453 432.113 376.721 432.324 378.164 432.611C381.165 433.208 384.166 434.039 387.167 435.102M387.167 435.102C388.71 435.649 389.734 437.136 389.565 438.765C389.419 440.16 389.162 441.556 388.793 442.951M344.388 442.951C345.301 446.397 351.554 454.439 352.708 455.588C353.426 456.303 357.493 458.351 364.909 461.732C365.956 462.209 367.16 462.21 368.207 461.733C370.022 460.906 371.641 460.158 373.06 459.491C377.444 457.429 379.93 456.128 380.472 455.588C381.626 454.439 387.88 446.397 388.793 442.951M344.388 442.951L365.88 439.247C366.329 439.17 366.788 439.169 367.237 439.247L388.793 442.951" stroke="#4F5966" stroke-width="3" stroke-linecap="round" stroke-linejoin="round"/>
<path d="M380.437 457.975H380.545L380.649 458.006C382.909 458.672 382.909 461.872 380.649 462.538L380.545 462.569H380.437C377.475 462.569 376.097 463.276 374.491 464.1L374.478 464.107L374.136 463.44L374.478 464.107L374.456 464.118L374.456 464.118C372.579 465.082 370.456 466.16 366.441 466.16C362.427 466.16 360.304 465.082 358.427 464.118L358.427 464.118L358.404 464.107L358.404 464.107L358.392 464.1C356.786 463.276 355.408 462.569 352.446 462.569H352.373L352.303 462.555C349.793 462.068 349.793 458.476 352.303 457.989L352.373 457.975H352.446C356.46 457.975 358.583 459.053 360.46 460.016L360.482 460.028L360.482 460.028L360.495 460.034C362.101 460.858 363.479 461.566 366.441 461.566C369.403 461.566 370.782 460.858 372.388 460.034L372.4 460.028L372.4 460.028L372.423 460.016L372.423 460.016C374.3 459.053 376.422 457.975 380.437 457.975Z" fill="#006CFA" stroke="white" stroke-width="1.5"/>
<path d="M372.421 454.345L372.421 454.345C374.298 453.381 376.421 452.303 380.436 452.303C382.389 452.303 383.904 452.758 385.235 453.157L385.257 453.164C385.402 453.207 385.545 453.25 385.686 453.292C387.104 453.71 388.605 454.098 390.932 454.098C392.197 454.098 393.189 455.145 393.189 456.395C393.189 457.646 392.197 458.692 390.932 458.692C388.011 458.692 386.053 458.183 384.428 457.704C384.284 457.661 384.143 457.619 384.007 457.579L384.006 457.578C382.639 457.171 381.707 456.897 380.436 456.897C377.473 456.897 376.095 457.604 374.489 458.428L374.477 458.435L374.477 458.435L374.454 458.446C372.577 459.41 370.455 460.488 366.44 460.488C362.425 460.488 360.303 459.41 358.425 458.446L358.425 458.446L358.403 458.435L358.39 458.428C356.784 457.604 355.406 456.897 352.444 456.897C351.007 456.897 350.036 457.189 348.679 457.602C348.574 457.634 348.467 457.667 348.357 457.7C346.767 458.18 344.875 458.692 341.947 458.692C340.682 458.692 339.689 457.646 339.689 456.395C339.689 455.145 340.682 454.098 341.947 454.098C344.267 454.098 345.691 453.713 347.072 453.296C347.185 453.262 347.3 453.227 347.416 453.191L347.417 453.191L347.433 453.186C348.786 452.772 350.321 452.303 352.444 452.303C356.459 452.303 358.581 453.381 360.458 454.345L360.116 455.012L360.458 454.345L360.481 454.356L360.493 454.363C362.099 455.187 363.478 455.894 366.44 455.894C369.402 455.894 370.78 455.187 372.386 454.363L372.399 454.356L372.399 454.356L372.421 454.345Z" fill="#006CFA" stroke="white" stroke-width="1.5"/>
<path d="M380.438 458.772C381.266 458.772 381.938 459.444 381.938 460.272C381.938 461.101 381.266 461.772 380.438 461.772V458.772ZM352.446 461.772C351.617 461.772 350.946 461.101 350.946 460.272C350.946 459.444 351.617 458.772 352.446 458.772V461.772ZM380.438 461.772C377.287 461.772 375.789 462.548 374.124 463.402C372.29 464.343 370.289 465.363 366.442 465.363V462.363C369.592 462.363 371.09 461.587 372.755 460.733C374.589 459.792 376.59 458.772 380.438 458.772V461.772ZM366.442 465.363C362.594 465.363 360.593 464.343 358.759 463.402C357.094 462.548 355.596 461.772 352.446 461.772V458.772C356.293 458.772 358.294 459.792 360.129 460.733C361.793 461.587 363.291 462.363 366.442 462.363V465.363Z" fill="#006CFA"/>
<path d="M390.932 454.895C391.76 454.895 392.432 455.567 392.432 456.395C392.432 457.224 391.76 457.895 390.932 457.895V454.895ZM341.947 457.895C341.118 457.895 340.447 457.224 340.447 456.395C340.447 455.567 341.118 454.895 341.947 454.895V457.895ZM390.932 457.895C388.107 457.895 386.223 457.406 384.633 456.936C383.053 456.47 381.964 456.1 380.435 456.1V453.1C382.484 453.1 384.02 453.628 385.482 454.059C386.933 454.487 388.509 454.895 390.932 454.895V457.895ZM380.435 456.1C377.285 456.1 375.787 456.876 374.122 457.73C372.288 458.671 370.287 459.691 366.44 459.691V456.691C369.59 456.691 371.088 455.915 372.753 455.061C374.587 454.12 376.588 453.1 380.435 453.1V456.1ZM366.44 459.691C362.592 459.691 360.591 458.671 358.757 457.73C357.092 456.876 355.594 456.1 352.444 456.1V453.1C356.291 453.1 358.292 454.12 360.126 455.061C361.791 455.915 363.289 456.691 366.44 456.691V459.691ZM352.444 456.1C350.769 456.1 349.667 456.475 348.148 456.934C346.592 457.404 344.777 457.895 341.947 457.895V454.895C344.365 454.895 345.866 454.489 347.28 454.062C348.731 453.623 350.254 453.1 352.444 453.1V456.1Z" fill="#006CFA"/>
<path d="M335 447C336.105 447 337 446.105 337 445C337 443.895 336.105 443 335 443C333.895 443 333 443.895 333 445C333 446.105 333.895 447 335 447Z" fill="#F52C2F"/>
<path d="M324 423C325.657 423 327 421.657 327 420C327 418.343 325.657 417 324 417C322.343 417 321 418.343 321 420C321 421.657 322.343 423 324 423Z" fill="#25C286"/>
<path d="M394.5 417C395.328 417 396 416.328 396 415.5C396 414.672 395.328 414 394.5 414C393.672 414 393 414.672 393 415.5C393 416.328 393.672 417 394.5 417Z" fill="#006CFA"/>
<path d="M116.317 414.381C117.274 414.381 118.05 413.605 118.05 412.648C118.05 411.69 117.274 410.915 116.317 410.915C115.36 410.915 114.584 411.69 114.584 412.648C114.584 413.605 115.36 414.381 116.317 414.381Z" fill="#006CFA"/>
<path d="M200.096 399.129C200.862 399.129 201.483 398.509 201.483 397.743C201.483 396.977 200.862 396.356 200.096 396.356C199.331 396.356 198.71 396.977 198.71 397.743C198.71 398.509 199.331 399.129 200.096 399.129Z" fill="#25C286"/>
<path d="M140.278 392.234C141.426 392.234 142.357 391.303 142.357 390.154C142.357 389.006 141.426 388.075 140.278 388.075C139.129 388.075 138.198 389.006 138.198 390.154C138.198 391.303 139.129 392.234 140.278 392.234Z" fill="#F52C2F"/>
<path d="M192 426C185.924 426 181 421.075 181 415C181 408.925 185.924 404 192 404C198.075 404 203 408.925 203 415C203 421.075 198.075 426 192 426ZM192 421C195.313 421 198 418.314 198 415C198 411.686 195.313 409 192 409C188.686 409 186 411.686 186 415C186 418.314 188.686 421 192 421Z" fill="white" stroke="#4F5966" stroke-width="3" stroke-linecap="round" stroke-linejoin="round"/>
<path d="M138 426C131.924 426 127 421.075 127 415C127 408.925 131.924 404 138 404C144.075 404 149 408.925 149 415C149 421.075 144.075 426 138 426ZM138 421C141.313 421 144 418.314 144 415C144 411.686 141.313 409 138 409C134.686 409 132 411.686 132 415C132 418.314 134.686 421 138 421Z" fill="white" stroke="#4F5966" stroke-width="3" stroke-linecap="round" stroke-linejoin="round"/>
<path d="M192 418C193.656 418 195 416.657 195 415C195 413.343 193.656 412 192 412C190.343 412 189 413.343 189 415C189 416.657 190.343 418 192 418Z" fill="#B9BEC5"/>
<path d="M138 418C139.656 418 141 416.657 141 415C141 413.343 139.656 412 138 412C136.343 412 135 413.343 135 415C135 416.657 136.343 418 138 418Z" fill="#B9BEC5"/>
<path d="M183.626 401.626L172.677 384.482L169.5 384.482" stroke="#4F5966" stroke-width="3" stroke-linecap="round" stroke-linejoin="round"/>
<path d="M169 384L165.499 387.649L169 384Z" fill="white"/>
<path d="M184.499 403L192 415M169 384L165.499 387.649" stroke="#4F5966" stroke-width="4" stroke-linecap="round" stroke-linejoin="round"/>
<path d="M184.369 393.921C185.279 393.921 189 394.415 189 392.932C189 388.977 188.79 387 187.263 387C185.003 387 181 388.84 181 390.77C181 392.7 183.211 393.921 184.369 393.921Z" fill="#006CFA"/>
<path d="M147 415.596L138 415.596" stroke="#B9BEC5" stroke-width="2" stroke-linecap="round" stroke-linejoin="round"/>
<path d="M146.447 405.837L137.85 415.316L146.447 405.837Z" fill="#EBF4FF"/>
<g filter="url(#filter0_ii)">
<path d="M146.447 405.837L137.85 415.316L146.447 405.837Z" fill="#151F2B"/>
</g>
<path d="M183 397.5L178.785 400.015L175.223 413.048C173.754 418.058 169.158 421.5 163.937 421.5H158.474C156 421.5 154 420.386 152.657 417.941L146 404.5L138 415" stroke="#4F5966" stroke-width="4" stroke-linecap="round" stroke-linejoin="round"/>
<path d="M164.305 410.926H169.439V414.555L169.239 414.924L168.637 415.097H164.305V410.926Z" fill="white"/>
<path d="M149.904 406.129C151.758 406.379 153 405.5 155.5 404.5H156.5V410.194L149.904 410.194V406.129Z" fill="white"/>
<path d="M164.305 410.926H169.439V414.555L169.239 414.924L168.637 415.097H164.305V410.926Z" stroke="#9AA1AA" stroke-width="2" stroke-linecap="round" stroke-linejoin="round"/>
<path d="M149.904 406.129C151.758 406.379 153 405.5 155.5 404.5H156.5V410.194L149.904 410.194V406.129Z" stroke="#9AA1AA" stroke-width="2" stroke-linecap="round" stroke-linejoin="round"/>
<path d="M161 415.5H165.798C169.708 415.5 174.93 412.906 176 409.145L177.423 404.142" stroke="#4F5966" stroke-width="3" stroke-linecap="round" stroke-linejoin="round"/>
<path d="M143.5 415.5C143.5 414.395 144.395 413.5 145.5 413.5H158.5C159.605 413.5 160.5 414.395 160.5 415.5C160.5 416.605 159.605 417.5 158.5 417.5H145.5C144.395 417.5 143.5 416.605 143.5 415.5Z" fill="white" stroke="#4F5966" stroke-width="3" stroke-linecap="round" stroke-linejoin="round"/>
<path d="M178.065 393.497L175 395L178.065 393.497Z" fill="white"/>
<path d="M178.065 393.497L175 395" stroke="#4F5966" stroke-width="3" stroke-linecap="round" stroke-linejoin="round"/>
<path d="M165.333 404.353C164.132 404.946 163.305 406.184 163.305 407.615C163.305 409.084 164.176 410.349 165.429 410.923C164.353 411.505 163.02 411.284 162.187 410.388L160.244 408.294C160.026 408.059 159.856 407.783 159.745 407.482C159.332 406.36 159.796 405.104 160.84 404.521L162.335 403.686C162.995 403.317 163.739 403.123 164.496 403.123H164.948L165.333 404.353ZM168.53 410.923C169.742 410.333 170.578 409.054 170.578 407.615C170.578 406.184 169.751 404.946 168.55 404.353L168.99 403.123H169.469C170.208 403.123 170.936 403.309 171.584 403.664L173.082 404.485C174.133 405.061 174.604 406.32 174.189 407.444C174.081 407.74 173.915 408.011 173.702 408.243L171.73 410.393C170.912 411.284 169.591 411.503 168.53 410.923Z" fill="white"/>
<path d="M163.305 407.615C163.305 409.084 164.176 410.349 165.429 410.923H168.53C169.742 410.333 170.578 409.054 170.578 407.615C170.578 406.184 169.751 404.946 168.55 404.353H165.333C164.132 404.946 163.305 406.184 163.305 407.615Z" fill="white"/>
<path d="M165.333 404.353L164.948 403.123M165.333 404.353C164.132 404.946 163.305 406.184 163.305 407.615C163.305 409.084 164.176 410.349 165.429 410.923M165.333 404.353H168.55M165.429 410.923V410.923C164.353 411.505 163.02 411.284 162.187 410.388L160.244 408.294C160.026 408.059 159.856 407.783 159.745 407.482V407.482C159.332 406.36 159.796 405.104 160.84 404.521L162.335 403.686C162.995 403.317 163.739 403.123 164.496 403.123H164.948M165.429 410.923H168.53M164.948 403.123H168.99M168.53 410.923C169.742 410.333 170.578 409.054 170.578 407.615C170.578 406.184 169.751 404.946 168.55 404.353M168.53 410.923V410.923C169.591 411.503 170.912 411.284 171.73 410.393L173.702 408.243C173.915 408.011 174.081 407.74 174.189 407.444V407.444C174.604 406.32 174.133 405.061 173.082 404.485L171.584 403.664C170.936 403.309 170.208 403.123 169.469 403.123H168.99M168.55 404.353L168.99 403.123" stroke="#9AA1AA" stroke-width="2" stroke-linecap="round" stroke-linejoin="round"/>
<path d="M170.913 400.443C174.097 399.867 174 398.709 174 396.777C174 394.845 172.838 392.532 169.782 393.083C166.726 393.633 159 398.059 159 399.991C159.012 401.503 167.73 401.019 170.913 400.443Z" fill="white" stroke="#4F5966" stroke-width="3" stroke-linecap="round" stroke-linejoin="round"/>
<path d="M148.075 401.976C156.23 402.457 155.208 395.678 154.6 395.066C153.992 394.454 151.989 398.294 147.637 398.294C143.285 398.294 142.383 395.344 140.6 396.468C138.817 397.592 140.925 401.783 148.075 401.976Z" fill="white" stroke="#4F5966" stroke-width="3" stroke-linecap="round" stroke-linejoin="round"/>
<path d="M207.525 427.494H124.499H207.525Z" fill="white"/>
<path d="M207.525 427.494H124.499" stroke="#4F5966" stroke-width="3" stroke-linecap="round" stroke-linejoin="round"/>
<circle cx="507" cy="336" r="11" fill="white" stroke="#4F5966" stroke-width="3"/>
<path d="M525 348H439H525Z" fill="white"/>
<path d="M525 348H439" stroke="#4F5966" stroke-width="3" stroke-linecap="round" stroke-linejoin="round"/>
<circle cx="456" cy="336" r="11" fill="white" stroke="#4F5966" stroke-width="3"/>
<circle cx="456" cy="336" r="4" fill="white" stroke="#DCDFE3" stroke-width="2"/>
<circle cx="507" cy="336" r="4" fill="white" stroke="#DCDFE3" stroke-width="2"/>
<path d="M500 302C501.105 302 502 301.105 502 300C502 298.895 501.105 298 500 298C498.895 298 498 298.895 498 300C498 301.105 498.895 302 500 302Z" fill="#006CFA"/>
<path d="M519.5 320C520.328 320 521 319.328 521 318.5C521 317.672 520.328 317 519.5 317C518.672 317 518 317.672 518 318.5C518 319.328 518.672 320 519.5 320Z" fill="#F52C2F"/>
<path d="M451.5 313C452.881 313 454 311.881 454 310.5C454 309.119 452.881 308 451.5 308C450.119 308 449 309.119 449 310.5C449 311.881 450.119 313 451.5 313Z" fill="#25C286"/>
<path d="M505.65 336.655C506.012 337.4 506.909 337.711 507.655 337.35C508.4 336.988 508.711 336.091 508.35 335.345L505.65 336.655ZM493.5 308V306.5C492.986 306.5 492.507 306.763 492.232 307.198C491.957 307.633 491.924 308.178 492.145 308.642L493.5 308ZM480.5 336V337.5C480.952 337.5 481.38 337.296 481.665 336.945L480.5 336ZM456 336L454.76 335.156C454.447 335.616 454.414 336.21 454.674 336.702C454.934 337.193 455.444 337.5 456 337.5V336ZM502.986 313.684C502.157 313.684 501.486 314.356 501.486 315.184C501.486 316.013 502.157 316.684 502.986 316.684V313.684ZM460.887 307.237C460.058 307.237 459.387 307.908 459.387 308.737C459.387 309.565 460.058 310.237 460.887 310.237V307.237ZM473.291 310.237C474.119 310.237 474.791 309.565 474.791 308.737C474.791 307.908 474.119 307.237 473.291 307.237V310.237ZM493.5 309.5H505.012V306.5H493.5V309.5ZM498.435 314.91L494.855 307.358L492.145 308.642L495.724 316.195L498.435 314.91ZM508.35 335.345L498.429 314.898L495.73 316.207L505.65 336.655L508.35 335.345ZM495.915 314.608L479.335 335.055L481.665 336.945L498.245 316.497L495.915 314.608ZM497.08 314.053H469.908V317.053H497.08V314.053ZM505.012 313.684H502.986V316.684H505.012V313.684ZM457.24 336.844L471.148 316.396L468.668 314.709L454.76 335.156L457.24 336.844ZM480.5 334.5H477V337.5H480.5V334.5ZM477 334.5H456V337.5H477V334.5ZM478.417 335.508L471.325 315.061L468.491 316.044L475.583 336.492L478.417 335.508ZM471.307 315.012L468.676 308.197L465.877 309.277L468.508 316.093L471.307 315.012ZM467.277 307.237H460.887V310.237H467.277V307.237ZM467.277 310.237H473.291V307.237H467.277V310.237ZM505.012 316.684C508.034 316.684 510.391 314.068 510.077 311.062L507.093 311.374C507.222 312.609 506.254 313.684 505.012 313.684V316.684ZM505.012 309.5C506.084 309.5 506.982 310.309 507.093 311.374L510.077 311.062C509.806 308.469 507.62 306.5 505.012 306.5V309.5Z" fill="#4F5966"/>
<path d="M483.177 335.769C483.177 337.987 481.38 339.784 479.162 339.784C478.693 339.784 478.242 339.704 477.823 339.556C476.264 339.005 475.146 337.517 475.146 335.769C475.146 333.551 476.944 331.754 479.162 331.754C481.38 331.754 483.177 333.551 483.177 335.769Z" fill="#3690FF"/>
<path d="M478.327 326.5C477.498 326.5 476.827 327.172 476.827 328C476.827 328.828 477.498 329.5 478.327 329.5V326.5ZM481.673 329.5C482.502 329.5 483.173 328.828 483.173 328C483.173 327.172 482.502 326.5 481.673 326.5V329.5ZM477.823 339.556L478.323 338.142L477.823 339.556ZM475.327 342C474.498 342 473.827 342.672 473.827 343.5C473.827 344.328 474.498 345 475.327 345V342ZM478.673 345C479.502 345 480.173 344.328 480.173 343.5C480.173 342.672 479.502 342 478.673 342V345ZM481.677 335.769C481.677 337.158 480.551 338.284 479.162 338.284V341.284C482.208 341.284 484.677 338.815 484.677 335.769H481.677ZM476.646 335.769C476.646 334.38 477.773 333.254 479.162 333.254V330.254C476.116 330.254 473.646 332.723 473.646 335.769H476.646ZM479.162 333.254C480.551 333.254 481.677 334.38 481.677 335.769H484.677C484.677 332.723 482.208 330.254 479.162 330.254V333.254ZM480.626 332.081L481.464 328.327L478.536 327.673L477.698 331.427L480.626 332.081ZM480 326.5H478.327V329.5H480V326.5ZM480 329.5H481.673V326.5H480V329.5ZM479.162 338.284C478.865 338.284 478.584 338.234 478.323 338.142L477.324 340.97C477.9 341.174 478.52 341.284 479.162 341.284V338.284ZM478.323 338.142C477.344 337.796 476.646 336.862 476.646 335.769H473.646C473.646 338.173 475.183 340.214 477.324 340.97L478.323 338.142ZM476.355 339.249L475.532 343.193L478.468 343.807L479.292 339.863L476.355 339.249ZM477 342H475.327V345H477V342ZM477 345H478.673V342H477V345Z" fill="#4F5966"/>
<path d="M202 162C202 158.686 204.686 156 208 156H397C400.314 156 403 158.686 403 162V331H202V162Z" fill="white" stroke="#4F5966" stroke-width="4"/>
<path d="M202 162C202 158.686 204.686 156 208 156H397C400.314 156 403 158.686 403 162V192H202V162Z" fill="#DCDFE3" stroke="#4F5966" stroke-width="4"/>
<rect x="239" y="140" width="127" height="34" rx="17" fill="#25C286" stroke="#4F5966" stroke-width="4"/>
<path d="M263.849 160.021H259.059L257.529 163H255.191L262.1 150.203H264.051L266.529 163H264.35L263.849 160.021ZM259.973 158.228H263.559L262.688 152.937L259.973 158.228ZM273.622 162.06C272.901 162.827 271.999 163.199 270.915 163.176C270.3 163.164 269.787 163.012 269.377 162.719C268.973 162.426 268.683 162.019 268.507 161.497C268.337 160.97 268.287 160.352 268.357 159.643L269.386 153.49H271.469L270.432 159.669C270.408 159.886 270.405 160.097 270.423 160.302C270.481 161.028 270.848 161.406 271.521 161.436C272.441 161.471 273.186 161.102 273.754 160.328L274.949 153.49H277.032L275.389 163H273.438L273.622 162.06ZM282.2 151.179L281.796 153.49H283.422L283.149 155.072H281.515L280.618 160.398C280.601 160.545 280.598 160.677 280.609 160.794C280.645 161.175 280.879 161.374 281.312 161.392C281.529 161.392 281.775 161.365 282.051 161.312L281.91 162.982C281.477 163.105 281.04 163.167 280.601 163.167C279.874 163.155 279.329 162.909 278.966 162.429C278.608 161.942 278.468 161.301 278.544 160.504L279.432 155.072H277.911L278.192 153.49H279.704L280.108 151.179H282.2ZM283.677 158.21C283.776 157.278 284.049 156.432 284.494 155.67C284.945 154.908 285.522 154.319 286.226 153.903C286.929 153.487 287.708 153.291 288.563 153.314C289.378 153.326 290.081 153.543 290.673 153.965C291.265 154.387 291.695 154.964 291.965 155.696C292.24 156.429 292.337 157.243 292.255 158.14C292.161 159.147 291.886 160.038 291.429 160.812C290.978 161.585 290.397 162.18 289.688 162.596C288.985 163.006 288.203 163.199 287.342 163.176C286.533 163.164 285.833 162.95 285.241 162.534C284.655 162.112 284.225 161.538 283.949 160.812C283.674 160.079 283.574 159.273 283.65 158.395L283.677 158.21ZM285.725 159.414C285.754 160.029 285.915 160.524 286.208 160.899C286.507 161.269 286.92 161.462 287.447 161.479C288.162 161.497 288.76 161.222 289.24 160.653C289.727 160.085 290.031 159.309 290.154 158.324L290.207 157.463C290.207 156.713 290.058 156.124 289.759 155.696C289.46 155.269 289.026 155.043 288.458 155.02C287.567 154.996 286.864 155.433 286.349 156.329C286.038 156.874 285.842 157.501 285.76 158.21C285.713 158.702 285.701 159.104 285.725 159.414ZM303.338 158.069H300.895L300.033 163H297.862L300.086 150.203L304.12 150.212C305.509 150.212 306.572 150.546 307.311 151.214C308.049 151.882 308.368 152.811 308.269 154C308.204 154.826 307.929 155.544 307.442 156.153C306.956 156.757 306.273 157.231 305.395 157.577L307.284 162.868L307.275 163H304.973L303.338 158.069ZM301.193 156.285L303.294 156.303C304.05 156.303 304.68 156.106 305.184 155.714C305.693 155.315 305.992 154.776 306.08 154.097C306.168 153.435 306.051 152.928 305.729 152.576C305.406 152.219 304.917 152.028 304.261 152.005L301.94 151.996L301.193 156.285ZM312.953 163.176C312.127 163.158 311.409 162.95 310.8 162.552C310.196 162.153 309.748 161.608 309.455 160.917C309.168 160.226 309.06 159.455 309.13 158.605L309.156 158.245C309.262 157.278 309.543 156.411 310 155.644C310.463 154.87 311.037 154.284 311.723 153.886C312.408 153.487 313.152 153.297 313.955 153.314C315.145 153.338 316.035 153.78 316.627 154.642C317.225 155.503 317.45 156.625 317.304 158.008L317.181 158.922H311.195C311.143 159.678 311.295 160.287 311.652 160.75C312.01 161.213 312.502 161.45 313.129 161.462C314.025 161.491 314.852 161.102 315.607 160.293L316.662 161.4C316.264 161.969 315.739 162.411 315.089 162.728C314.438 163.038 313.727 163.188 312.953 163.176ZM313.841 155.02C312.739 154.984 311.913 155.764 311.362 157.357L315.309 157.366L315.344 157.182C315.385 156.912 315.388 156.648 315.353 156.391C315.288 155.975 315.124 155.646 314.86 155.406C314.597 155.166 314.257 155.037 313.841 155.02ZM327.007 158.28C326.89 159.229 326.635 160.091 326.242 160.864C325.855 161.638 325.36 162.224 324.757 162.622C324.159 163.015 323.488 163.202 322.744 163.185C321.754 163.161 320.975 162.81 320.406 162.13L319.554 166.656H317.462L319.747 153.49L321.654 153.481L321.496 154.466C322.223 153.675 323.087 153.291 324.089 153.314C324.692 153.32 325.217 153.476 325.662 153.78C326.107 154.079 326.447 154.516 326.682 155.09C326.922 155.664 327.051 156.303 327.068 157.006C327.074 157.363 327.054 157.788 327.007 158.28ZM324.95 158.096L324.994 157.454C325.012 156.698 324.886 156.112 324.616 155.696C324.353 155.28 323.954 155.066 323.421 155.055C322.636 155.031 321.956 155.392 321.382 156.136L320.644 160.381C320.907 161.09 321.443 161.456 322.252 161.479C322.943 161.497 323.523 161.228 323.992 160.671C324.467 160.114 324.786 159.256 324.95 158.096ZM333.669 163C333.599 162.766 333.569 162.47 333.581 162.112C332.796 162.845 331.949 163.199 331.041 163.176C330.215 163.164 329.529 162.9 328.984 162.385C328.445 161.863 328.193 161.204 328.229 160.407C328.275 159.405 328.709 158.617 329.529 158.043C330.35 157.469 331.451 157.182 332.834 157.182L334.188 157.199L334.311 156.549C334.346 156.32 334.346 156.106 334.311 155.907C334.193 155.274 333.774 154.949 333.054 154.932C332.608 154.92 332.216 155.034 331.876 155.274C331.542 155.509 331.337 155.825 331.261 156.224L329.178 156.241C329.219 155.655 329.427 155.143 329.802 154.703C330.177 154.258 330.675 153.912 331.296 153.666C331.917 153.42 332.573 153.303 333.265 153.314C334.302 153.338 335.11 153.651 335.69 154.255C336.271 154.853 336.511 155.629 336.411 156.584L335.682 161.04L335.611 161.831C335.594 162.177 335.638 162.514 335.743 162.842L335.734 163H333.669ZM331.524 161.471C331.964 161.482 332.371 161.383 332.746 161.172C333.121 160.955 333.44 160.677 333.704 160.337L334.029 158.535L333.036 158.526C332.251 158.526 331.624 158.676 331.155 158.975C330.687 159.268 330.42 159.672 330.355 160.188C330.309 160.58 330.394 160.891 330.61 161.119C330.833 161.342 331.138 161.459 331.524 161.471ZM339.777 163H337.694L339.347 153.49H341.43L339.777 163ZM339.646 151.056C339.646 150.733 339.751 150.458 339.962 150.229C340.173 150.001 340.457 149.881 340.814 149.869C341.154 149.857 341.436 149.963 341.658 150.186C341.887 150.402 342.001 150.669 342.001 150.985C342.001 151.319 341.89 151.595 341.667 151.812C341.45 152.028 341.172 152.143 340.832 152.154C340.498 152.166 340.217 152.066 339.988 151.855C339.76 151.639 339.646 151.372 339.646 151.056ZM348.338 155.441C348.068 155.383 347.796 155.354 347.521 155.354C346.606 155.33 345.88 155.708 345.341 156.487L344.198 163H342.115L343.759 153.49L345.736 153.481L345.525 154.562C346.176 153.701 346.926 153.279 347.775 153.297C347.969 153.297 348.235 153.341 348.575 153.429L348.338 155.441Z" fill="white"/>
<path d="M123 231C123 227.686 125.686 225 129 225H202V331H123V231Z" fill="#F0F2F5" stroke="#4F5966" stroke-width="4"/>
<path d="M123 231C123 227.686 125.686 225 129 225H202V251H123V231Z" fill="#DCDFE3" stroke="#4F5966" stroke-width="4"/>
<path d="M238 211H362C365.314 211 368 213.686 368 217V331H232V217C232 213.686 234.686 211 238 211Z" fill="#DCDFE3" stroke="#B9BEC5" stroke-width="4"/>
<path d="M221 209H383C384.105 209 385 209.895 385 211V223C385 224.105 384.105 225 383 225H221C219.895 225 219 224.105 219 223V211C219 209.895 219.895 209 221 209Z" fill="white" stroke="#B9BEC5" stroke-width="4"/>
<path d="M151 274H174C177.314 274 180 276.686 180 280V331H145V280C145 276.686 147.686 274 151 274Z" fill="white" stroke="#B9BEC5" stroke-width="4"/>
<path d="M356 301C357.105 301 358 300.105 358 299C358 297.895 357.105 297 356 297V301ZM244 297C242.895 297 242 297.895 242 299C242 300.105 242.895 301 244 301V297ZM252 301H348V297H252V301ZM346 299V333H350V299H346ZM254 333V299H250V333H254ZM348 301H356V297H348V301ZM252 297H244V301H252V297Z" fill="#4F5966"/>
<path fill-rule="evenodd" clip-rule="evenodd" d="M273.818 269L268.454 271.819C264.568 274.364 262 278.757 262 283.75V293.25V302.75C262 307.997 266.253 312.25 271.5 312.25C276.747 312.25 281 307.997 281 302.75H319C319 307.997 323.253 312.25 328.5 312.25C333.747 312.25 338 307.997 338 302.75V293.25V283.75C338 278.757 335.432 274.364 331.546 271.819L326.182 269C325.982 268.182 325.783 267.08 325.54 265.819C324.533 260.582 322.789 252.596 317.214 250.738C315.251 250.084 313.195 249.75 311.126 249.75H288.874C286.805 249.75 284.749 250.084 282.786 250.738C276.863 252.712 275.263 259.405 274.279 265.819C274.113 266.895 273.966 267.963 273.818 269Z" fill="white"/>
<path d="M326.182 269L331.546 271.819H332.546C334.202 271.819 335.546 270.476 335.546 268.819C335.546 267.163 334.202 265.819 332.546 265.819H325.54C325.783 267.08 325.982 268.182 326.182 269Z" fill="white"/>
<path d="M268.454 271.819L273.818 269C273.966 267.963 274.113 266.895 274.279 265.819H267.669C266.012 265.819 264.669 267.163 264.669 268.819C264.669 270.476 266.012 271.819 267.669 271.819H268.454Z" fill="white"/>
<path d="M268.454 271.819H331.546M268.454 271.819C264.568 274.364 262 278.757 262 283.75V293.25M268.454 271.819L273.818 269C273.966 267.963 274.113 266.895 274.279 265.819M268.454 271.819H267.669C266.012 271.819 264.669 270.476 264.669 268.819V268.819C264.669 267.163 266.012 265.819 267.669 265.819H274.279M331.546 271.819C335.432 274.364 338 278.757 338 283.75V293.25M331.546 271.819L326.182 269C325.982 268.182 325.783 267.08 325.54 265.819M331.546 271.819H332.546C334.202 271.819 335.546 270.476 335.546 268.819V268.819C335.546 267.163 334.202 265.819 332.546 265.819H325.54M262 293.25V302.75C262 307.997 266.253 312.25 271.5 312.25C276.747 312.25 281 307.997 281 302.75M262 293.25L263.395 295.304C266.56 299.961 271.826 302.75 277.457 302.75H281M281 302.75H319M319 302.75C319 307.997 323.253 312.25 328.5 312.25C333.747 312.25 338 307.997 338 302.75V293.25M319 302.75H322.543C328.174 302.75 333.44 299.961 336.605 295.304L338 293.25M325.54 265.819C324.533 260.582 322.789 252.596 317.214 250.738C315.251 250.084 313.195 249.75 311.126 249.75H288.874C286.805 249.75 284.749 250.084 282.786 250.738C276.863 252.712 275.263 259.405 274.279 265.819" stroke="#4F5966" stroke-width="4"/>
<circle cx="324" cy="284" r="5" fill="#006CFA"/>
<circle cx="276" cy="284" r="5" fill="#006CFA"/>
<mask id="path-86-inside-1" fill="white">
<path d="M96 331C96 329.895 96.8954 329 98 329H427C428.105 329 429 329.895 429 331C429 332.105 428.105 333 427 333H98C96.8954 333 96 332.105 96 331Z"/>
</mask>
<path d="M96 331C96 329.895 96.8954 329 98 329H427C428.105 329 429 329.895 429 331C429 332.105 428.105 333 427 333H98C96.8954 333 96 332.105 96 331Z" fill="white"/>
<path d="M98 333H427V325H98V333ZM427 329H98V337H427V329ZM98 329C99.1046 329 100 329.895 100 331H92C92 334.314 94.6863 337 98 337V329ZM427 337C430.314 337 433 334.314 433 331H425C425 329.895 425.895 329 427 329V337ZM427 333C425.895 333 425 332.105 425 331H433C433 327.686 430.314 325 427 325V333ZM98 325C94.6863 325 92 327.686 92 331H100C100 332.105 99.1046 333 98 333V325Z" fill="#4F5966" mask="url(#path-86-inside-1)"/>
<g clip-path="url(#clip0)">
<path fill-rule="evenodd" clip-rule="evenodd" d="M241.647 49.7596C250.333 49.3044 257.006 41.8935 256.551 33.2069C256.095 24.5204 248.685 17.8476 239.998 18.3028C231.311 18.758 224.639 26.1689 225.094 34.8555C225.549 43.5421 232.96 50.2149 241.647 49.7596ZM241.224 23.3315C241.186 22.6076 240.568 22.0515 239.844 22.0895C239.12 22.1274 238.564 22.745 238.602 23.4689L238.66 24.5727C237.711 24.8177 236.818 25.271 236.091 25.9001C235.023 26.8238 234.272 28.175 234.357 29.7934C234.465 31.8589 235.619 32.8972 236.433 33.6291L236.47 33.6631C236.701 33.8709 236.986 34.0323 237.214 34.1495C237.464 34.2778 237.75 34.4052 238.046 34.5281C238.632 34.7714 239.333 35.0293 240.001 35.275L240.018 35.2814C240.706 35.5345 241.359 35.7749 241.889 35.9952C242.154 36.1051 242.368 36.2018 242.528 36.2844C242.643 36.3436 242.7 36.3799 242.718 36.3917C242.723 36.3946 242.725 36.3959 242.725 36.3959L242.715 36.3869C243.501 37.0946 243.914 37.4981 243.964 38.4432C244.008 39.2794 243.769 39.856 243.363 40.2505C242.935 40.6663 242.158 41.0373 240.841 41.1063C239.094 41.1979 238.039 40.2445 237.212 39.4965L237.104 39.3988C236.566 38.9138 235.736 38.9573 235.251 39.496C234.766 40.0347 234.809 40.8645 235.348 41.3496C235.392 41.389 235.439 41.4324 235.49 41.4791C236.186 42.1158 237.553 43.3672 239.661 43.6702L239.719 44.7678C239.757 45.4916 240.374 46.0477 241.098 46.0098C241.822 45.9718 242.378 45.3542 242.34 44.6304L242.284 43.5679C243.445 43.3353 244.439 42.8659 245.193 42.1329C246.238 41.1165 246.661 39.7516 246.585 38.3058C246.477 36.2403 245.323 35.202 244.51 34.4701L244.472 34.4361C244.241 34.2283 243.956 34.067 243.728 33.9498C243.479 33.8214 243.192 33.694 242.896 33.5711C242.311 33.3279 241.61 33.0699 240.942 32.8242L240.924 32.8178C240.236 32.5647 239.583 32.3243 239.053 32.104C238.789 31.9941 238.575 31.8974 238.414 31.8148C238.299 31.7556 238.242 31.7193 238.224 31.7075C238.219 31.7046 238.217 31.7033 238.217 31.7033L238.227 31.7123C237.441 31.0046 237.028 30.6011 236.979 29.6561C236.944 28.9925 237.234 28.3822 237.809 27.885C238.397 27.376 239.235 27.0383 240.101 26.9929C241.786 26.9046 243.017 27.9612 243.838 28.7004C244.377 29.1854 245.207 29.1419 245.692 28.6033C246.177 28.0646 246.133 27.2347 245.595 26.7496L245.552 26.7113C244.877 26.1023 243.401 24.772 241.282 24.4393L241.224 23.3315Z" fill="white"/>
<path fill-rule="evenodd" clip-rule="evenodd" d="M255.944 32.6923C256.666 40.945 250.561 48.2205 242.308 48.9425C234.055 49.6646 226.78 43.5597 226.058 35.307C225.336 27.0542 231.441 19.7787 239.693 19.0567C247.946 18.3347 255.221 24.4395 255.944 32.6923ZM242.569 51.9311C252.473 51.0647 259.799 42.3341 258.932 32.4308C258.066 22.5275 249.335 15.2017 239.432 16.0681C229.528 16.9345 222.203 25.6651 223.069 35.5684C223.936 45.4717 232.666 52.7976 242.569 51.9311ZM241.24 23.4627C241.168 22.6374 240.44 22.0269 239.615 22.0991C238.789 22.1713 238.179 22.8989 238.251 23.7241L238.33 24.6306C237.443 24.9184 236.616 25.3895 235.943 26.0145C234.891 26.9915 234.166 28.4017 234.311 30.061C234.496 32.1682 235.72 33.1948 236.546 33.887L236.588 33.9226C236.843 34.1366 237.148 34.2943 237.379 34.4031C237.636 34.5237 237.926 34.6409 238.223 34.7521C238.809 34.9717 239.507 35.2015 240.168 35.4185L240.187 35.425C240.871 35.6498 241.514 35.8613 242.035 36.057C242.296 36.1546 242.502 36.2396 242.655 36.3115C242.761 36.3613 242.809 36.3903 242.82 36.3963C243.594 37.0466 243.94 37.3796 244.012 38.2006C244.079 38.9682 243.878 39.476 243.544 39.8235C243.187 40.1963 242.495 40.5727 241.241 40.6825C239.623 40.824 238.62 39.9794 237.782 39.2738L237.68 39.1879C237.046 38.6554 236.1 38.7382 235.567 39.3728C235.035 40.0074 235.117 40.9535 235.752 41.486C235.796 41.5232 235.845 41.5645 235.897 41.6092C236.582 42.194 237.948 43.3606 239.993 43.6379L240.072 44.5375C240.144 45.3628 240.872 45.9732 241.697 45.901C242.522 45.8288 243.133 45.1013 243.061 44.276L242.986 43.42C244.069 43.1361 245 42.6393 245.709 41.9005C246.749 40.8172 247.128 39.4016 247 37.9391C246.816 35.8319 245.592 34.8054 244.766 34.1132L244.724 34.0775C244.468 33.8635 244.163 33.7058 243.932 33.5971C243.676 33.4765 243.385 33.3593 243.089 33.2481C242.503 33.0284 241.804 32.7987 241.144 32.5816L241.124 32.5751C240.441 32.3504 239.798 32.1388 239.276 31.9431C239.016 31.8456 238.81 31.7605 238.657 31.6887C238.562 31.6438 238.513 31.6158 238.496 31.6064C238.495 31.6053 238.493 31.6045 238.492 31.6039C237.718 30.9536 237.372 30.6206 237.3 29.7995C237.25 29.2288 237.478 28.6832 237.984 28.213C238.506 27.7288 239.27 27.3878 240.071 27.3177C241.62 27.1822 242.799 28.1138 243.631 28.8123C244.266 29.3448 245.212 29.262 245.745 28.6274C246.277 27.9928 246.194 27.0466 245.56 26.5141L245.512 26.4737C244.847 25.9146 243.379 24.6813 241.32 24.3745L241.24 23.4627Z" fill="#25C286"/>
<path d="M253.822 63.0312C254.927 63.0312 255.822 62.1358 255.822 61.0312C255.822 59.9267 254.927 59.0312 253.822 59.0312C252.718 59.0312 251.822 59.9267 251.822 61.0312C251.822 62.1358 252.718 63.0312 253.822 63.0312Z" fill="#F52C2F"/>
<path d="M263.322 21.9639C264.151 21.9639 264.822 21.2923 264.822 20.4639C264.822 19.6354 264.151 18.9639 263.322 18.9639C262.494 18.9639 261.822 19.6354 261.822 20.4639C261.822 21.2923 262.494 21.9639 263.322 21.9639Z" fill="#25C286"/>
<path d="M215.5 51C216.881 51 218 49.8807 218 48.5C218 47.1193 216.881 46 215.5 46C214.119 46 213 47.1193 213 48.5C213 49.8807 214.119 51 215.5 51Z" fill="#006CFA"/>
</g>
<rect x="365" y="125" width="20" height="20" rx="10" fill="#006CFA"/>
<path fill-rule="evenodd" clip-rule="evenodd" d="M380.247 130.784C380.712 131.197 380.754 131.908 380.341 132.372L374.341 139.122C374.135 139.354 373.843 139.49 373.533 139.5C373.223 139.509 372.924 139.39 372.705 139.171L369.705 136.171C369.265 135.731 369.265 135.019 369.705 134.58C370.144 134.14 370.856 134.14 371.295 134.58L373.452 136.736L378.659 130.878C379.072 130.413 379.783 130.371 380.247 130.784Z" fill="white"/>
<path d="M391 148C392.105 148 393 147.105 393 146C393 144.895 392.105 144 391 144C389.895 144 389 144.895 389 146C389 147.105 389.895 148 391 148Z" fill="#F52C2F"/>
<path d="M342.5 123C343.328 123 344 122.328 344 121.5C344 120.672 343.328 120 342.5 120C341.672 120 341 120.672 341 121.5C341 122.328 341.672 123 342.5 123Z" fill="#006CFA"/>
<path d="M402.5 126C403.881 126 405 124.881 405 123.5C405 122.119 403.881 121 402.5 121C401.119 121 400 122.119 400 123.5C400 124.881 401.119 126 402.5 126Z" fill="#25C286"/>
<path d="M77.293 233.277L71.2416 239.329C71.2416 239.329 71.2416 239.329 71.2415 239.329C71.2409 239.33 69.5918 240.98 72.3419 243.73C75.092 246.48 76.7422 244.831 76.7429 244.83C76.7429 244.83 76.7429 244.83 76.7429 244.83L82.7944 238.779C82.7944 238.779 86.6734 243.702 79.4936 250.882C76.6431 253.732 72.9042 253.256 70.8718 252.692C69.987 252.446 68.9939 252.668 68.4075 253.375C65.7279 256.604 58.2082 265.565 53.0871 270.687C49.7863 273.987 46.8614 271.613 45.6604 270.412C44.4594 269.211 42.0845 266.286 45.3853 262.985C49.8772 258.493 59.377 250.46 62.7119 247.664C63.4116 247.077 63.6282 246.091 63.3833 245.211C62.8181 243.181 62.3347 239.434 65.1902 236.578C72.3701 229.398 77.293 233.277 77.293 233.277Z" fill="white"/>
<path d="M77.293 233.277L78.1769 234.161C78.4295 233.909 78.5619 233.56 78.5408 233.204C78.5198 232.847 78.3472 232.517 78.0666 232.296L77.293 233.277ZM82.7944 238.779L83.7762 238.005C83.5551 237.725 83.2246 237.552 82.8681 237.531C82.5116 237.51 82.163 237.642 81.9105 237.895L82.7944 238.779ZM71.2415 239.329L70.3575 238.445L71.2415 239.329ZM63.3833 245.211L62.1791 245.546L63.3833 245.211ZM76.7429 244.83L77.6267 245.714L76.7429 244.83ZM67.4456 252.577C64.7594 255.814 57.2764 264.729 52.2032 269.803L53.971 271.57C59.1401 266.401 66.6964 257.394 69.3694 254.173L67.4456 252.577ZM46.2692 263.869C50.7141 259.424 60.1665 251.429 63.5151 248.621L61.9087 246.706C58.5875 249.491 49.0404 257.562 44.5014 262.101L46.2692 263.869ZM64.5875 244.876C64.0556 242.965 63.7155 239.821 66.0741 237.462L64.3063 235.694C60.9538 239.047 61.5805 243.396 62.1791 245.546L64.5875 244.876ZM66.0741 237.462C69.4702 234.066 72.1755 233.426 73.8917 233.485C74.7721 233.515 75.4561 233.729 75.9098 233.928C76.1369 234.028 76.3052 234.123 76.4094 234.187C76.4614 234.22 76.497 234.244 76.5157 234.257C76.525 234.264 76.5301 234.268 76.5307 234.268C76.531 234.268 76.5303 234.268 76.5284 234.266C76.5274 234.266 76.5262 234.265 76.5247 234.263C76.524 234.263 76.5232 234.262 76.5223 234.261C76.5218 234.261 76.5211 234.261 76.5209 234.26C76.5202 234.26 76.5194 234.259 77.293 233.277C78.0666 232.296 78.0659 232.295 78.065 232.294C78.0648 232.294 78.0639 232.293 78.0633 232.293C78.0621 232.292 78.0609 232.291 78.0595 232.29C78.0568 232.288 78.0538 232.286 78.0505 232.283C78.0438 232.278 78.0359 232.272 78.0267 232.265C78.0082 232.251 77.9848 232.234 77.9563 232.214C77.8993 232.174 77.8222 232.122 77.7256 232.062C77.5325 231.942 77.2601 231.791 76.9134 231.639C76.2198 231.335 75.2243 231.028 73.9765 230.986C71.4362 230.9 68.0901 231.911 64.3063 235.694L66.0741 237.462ZM82.7944 238.779C81.8125 239.552 81.8119 239.552 81.8114 239.551C81.8112 239.551 81.8106 239.55 81.8103 239.549C81.8096 239.549 81.8089 239.548 81.8084 239.547C81.8072 239.546 81.8063 239.544 81.8055 239.543C81.8041 239.542 81.8035 239.541 81.8038 239.541C81.8043 239.542 81.808 239.547 81.8146 239.556C81.8277 239.575 81.8521 239.61 81.8843 239.662C81.9488 239.767 82.0439 239.935 82.1434 240.162C82.3423 240.616 82.5572 241.3 82.5871 242.18C82.6454 243.896 82.0058 246.602 78.6097 249.998L80.3774 251.766C84.1612 247.982 85.172 244.636 85.0857 242.095C85.0433 240.847 84.7372 239.852 84.4331 239.158C84.2812 238.812 84.1293 238.539 84.0098 238.346C83.9499 238.25 83.8979 238.172 83.8578 238.115C83.8377 238.087 83.8205 238.064 83.8068 238.045C83.7999 238.036 83.7939 238.028 83.7888 238.021C83.7862 238.018 83.7839 238.015 83.7818 238.012C83.7807 238.011 83.7797 238.01 83.7788 238.008C83.7783 238.008 83.7777 238.007 83.7775 238.007C83.7768 238.006 83.7762 238.005 82.7944 238.779ZM78.6097 249.998C76.2553 252.352 73.1178 252.018 71.206 251.487L70.5376 253.896C72.6907 254.494 77.0308 255.112 80.3774 251.766L78.6097 249.998ZM71.458 244.614C73.0159 246.172 74.4617 246.668 75.6864 246.557C76.8546 246.451 77.5253 245.816 77.6267 245.714L75.8591 243.946C75.9598 243.846 75.8051 244.036 75.4605 244.067C75.1724 244.093 74.418 244.038 73.2258 242.846L71.458 244.614ZM77.6268 245.714L83.6782 239.663L81.9105 237.895L75.859 243.946L77.6268 245.714ZM76.4091 232.394L70.3577 238.445L72.1255 240.213L78.1769 234.161L76.4091 232.394ZM70.3575 238.445C70.2562 238.547 69.6212 239.217 69.5153 240.385C69.4042 241.61 69.9001 243.056 71.458 244.614L73.2258 242.846C72.0336 241.654 71.9789 240.899 72.0051 240.611C72.0363 240.267 72.2263 240.112 72.1256 240.213L70.3575 238.445ZM52.2032 269.803C50.8392 271.167 49.7282 271.239 48.8963 271.026C47.9386 270.781 47.1047 270.088 46.5443 269.528L44.7765 271.295C45.4171 271.936 46.6462 273.031 48.2764 273.448C50.0324 273.898 52.0342 273.507 53.971 271.57L52.2032 269.803ZM46.5443 269.528C45.9839 268.967 45.2908 268.133 45.0456 267.176C44.8327 266.344 44.9052 265.233 46.2692 263.869L44.5014 262.101C42.5646 264.038 42.1742 266.04 42.6237 267.796C43.041 269.426 44.1359 270.655 44.7765 271.295L46.5443 269.528ZM70.3577 238.445L70.3575 238.445L72.1256 240.213L72.1255 240.213L70.3577 238.445ZM63.5151 248.621C64.6607 247.661 64.9375 246.133 64.5875 244.876L62.1791 245.546C62.319 246.049 62.1625 246.493 61.9087 246.706L63.5151 248.621ZM77.6267 245.714L77.6268 245.714L75.859 243.946L75.8591 243.946L77.6267 245.714ZM69.3694 254.173C69.5834 253.915 70.0328 253.756 70.5376 253.896L71.206 251.487C69.9411 251.136 68.4044 251.421 67.4456 252.577L69.3694 254.173Z" fill="#4F5966"/>
<rect x="49.5107" y="265.468" width="1.55601" height="1.55601" rx="0.778007" transform="rotate(45 49.5107 265.468)" fill="#006CFA" stroke="#006CFA" stroke-width="1.55601"/>
<rect x="36" y="234" width="12" height="12" rx="6" fill="#25C286"/>
<g clip-path="url(#clip1)">
<path fill-rule="evenodd" clip-rule="evenodd" d="M45.2796 237.365C45.5699 237.623 45.596 238.068 45.338 238.358L41.588 242.577C41.4594 242.721 41.2767 242.807 41.0832 242.812C40.8896 242.818 40.7022 242.743 40.5653 242.607L38.6903 240.732C38.4157 240.457 38.4157 240.012 38.6903 239.737C38.9649 239.463 39.4101 239.463 39.6847 239.737L41.0324 241.085L44.287 237.424C44.545 237.133 44.9894 237.107 45.2796 237.365Z" fill="white"/>
</g>
<circle cx="72.923" cy="222.845" r="2" transform="rotate(-5 72.923 222.845)" fill="#006CFA"/>
<circle cx="89.25" cy="265.25" r="3" fill="#25C286"/>
<circle cx="50.6718" cy="215.485" r="2.5" transform="rotate(-5 50.6718 215.485)" fill="#F52C2F"/>
<path d="M58.4146 141.823H172.56H58.4146Z" fill="white"/>
<path d="M58.4146 141.823H172.56" stroke="#4F5966" stroke-width="3" stroke-linecap="round" stroke-linejoin="round"/>
<path d="M52 126C53.1046 126 54 125.105 54 124C54 122.895 53.1046 122 52 122C50.8954 122 50 122.895 50 124C50 125.105 50.8954 126 52 126Z" fill="#006CFA"/>
<path d="M148.5 104C149.328 104 150 103.328 150 102.5C150 101.672 149.328 101 148.5 101C147.672 101 147 101.672 147 102.5C147 103.328 147.672 104 148.5 104Z" fill="#F52C2F"/>
<path d="M100.5 90C101.881 90 103 88.8807 103 87.5C103 86.1193 101.881 85 100.5 85C99.1193 85 98 86.1193 98 87.5C98 88.8807 99.1193 90 100.5 90Z" fill="#25C286"/>
<path d="M145.582 109.014H153.542L157.391 118.802H145.582V109.014Z" fill="#80BBFF"/>
<path d="M101.597 126.944V134.519V126.944Z" fill="white"/>
<path d="M105.602 126.944V134.519V126.944Z" fill="white"/>
<path d="M98.5928 129.947H108.606H98.5928Z" fill="white"/>
<path d="M98.5928 134.519H108.606H98.5928Z" fill="white"/>
<path d="M135.395 130.97H129.697C128.396 130.97 127.342 132.033 127.342 133.345V135.295C127.342 136.607 128.396 137.671 129.697 137.671H135.395C136.696 137.671 137.751 136.607 137.751 135.295V133.345C137.751 132.033 136.696 130.97 135.395 130.97Z" fill="white"/>
<path d="M101.597 126.944V134.519M105.602 126.944V134.519M98.5928 129.947H108.606M98.5928 134.519H108.606M135.395 130.97H129.697C128.396 130.97 127.342 132.033 127.342 133.345V135.295C127.342 136.607 128.396 137.671 129.697 137.671H135.395C136.696 137.671 137.751 136.607 137.751 135.295V133.345C137.751 132.033 136.696 130.97 135.395 130.97Z" stroke="#9AA1AA" stroke-width="3" stroke-linecap="round" stroke-linejoin="round"/>
<path fill-rule="evenodd" clip-rule="evenodd" d="M138.619 118.478V123.465L141.717 130.137H146.043L151.436 131.043L152.839 135.436H164.311L165.536 132.92L163.309 118.478H156.753H146.043V108.335H138.619V118.478Z" fill="white"/>
<path d="M66.9629 102.482H131.537C132.621 102.482 133.5 103.454 133.5 104.652V125.5H65V104.652C65 103.454 65.8788 102.482 66.9629 102.482Z" fill="white"/>
<path d="M156.753 118.478L154.148 108.335H146.043M156.753 118.478H163.309L165.536 132.92L164.311 135.436H152.839L151.436 131.043L146.043 130.137M156.753 118.478H146.043M146.043 130.137H141.717L138.619 123.465V118.478M146.043 130.137V118.478M138.619 118.478V108.335H146.043M138.619 118.478H146.043M146.043 108.335V118.478M66.9629 102.482H131.537C132.621 102.482 133.5 103.454 133.5 104.652V125.5H65V104.652C65 103.454 65.8788 102.482 66.9629 102.482Z" stroke="#4F5966" stroke-width="3" stroke-linecap="round" stroke-linejoin="round"/>
<path d="M151 124H153H151Z" fill="white"/>
<path d="M151 124H153" stroke="#B9BEC5" stroke-width="3" stroke-linecap="round" stroke-linejoin="round"/>
<path d="M147.929 140.239C144.634 140.239 141.963 137.545 141.963 134.222C141.963 130.899 144.634 128.205 147.929 128.205C151.223 128.205 153.894 130.899 153.894 134.222C153.894 137.545 151.223 140.239 147.929 140.239Z" fill="white"/>
<path d="M117.503 140.239C114.208 140.239 111.538 137.545 111.538 134.222C111.538 130.899 114.208 128.205 117.503 128.205C120.798 128.205 123.469 130.899 123.469 134.222C123.469 137.545 120.798 140.239 117.503 140.239Z" fill="white"/>
<path d="M88.4486 140.239C85.1539 140.239 82.483 137.545 82.483 134.222C82.483 130.899 85.1539 128.205 88.4486 128.205C91.7432 128.205 94.4141 130.899 94.4141 134.222C94.4141 137.545 91.7432 140.239 88.4486 140.239Z" fill="white"/>
<path d="M72.988 140.239C69.6933 140.239 67.0225 137.545 67.0225 134.222C67.0225 130.899 69.6933 128.205 72.988 128.205C76.2827 128.205 78.9536 130.899 78.9536 134.222C78.9536 137.545 76.2827 140.239 72.988 140.239Z" fill="white"/>
<path d="M147.929 140.239C144.634 140.239 141.963 137.545 141.963 134.222C141.963 130.899 144.634 128.205 147.929 128.205C151.223 128.205 153.894 130.899 153.894 134.222C153.894 137.545 151.223 140.239 147.929 140.239Z" stroke="#4F5966" stroke-width="3" stroke-linecap="round" stroke-linejoin="round"/>
<path d="M117.503 140.239C114.208 140.239 111.538 137.545 111.538 134.222C111.538 130.899 114.208 128.205 117.503 128.205C120.798 128.205 123.469 130.899 123.469 134.222C123.469 137.545 120.798 140.239 117.503 140.239Z" stroke="#4F5966" stroke-width="3" stroke-linecap="round" stroke-linejoin="round"/>
<path d="M88.4486 140.239C85.1539 140.239 82.483 137.545 82.483 134.222C82.483 130.899 85.1539 128.205 88.4486 128.205C91.7432 128.205 94.4141 130.899 94.4141 134.222C94.4141 137.545 91.7432 140.239 88.4486 140.239Z" stroke="#4F5966" stroke-width="3" stroke-linecap="round" stroke-linejoin="round"/>
<path d="M72.988 140.239C69.6933 140.239 67.0225 137.545 67.0225 134.222C67.0225 130.899 69.6933 128.205 72.988 128.205C76.2827 128.205 78.9536 130.899 78.9536 134.222C78.9536 137.545 76.2827 140.239 72.988 140.239Z" stroke="#4F5966" stroke-width="3" stroke-linecap="round" stroke-linejoin="round"/>
<path d="M147.928 135.559C148.66 135.559 149.254 134.961 149.254 134.222C149.254 133.484 148.66 132.885 147.928 132.885C147.196 132.885 146.603 133.484 146.603 134.222C146.603 134.961 147.196 135.559 147.928 135.559Z" fill="#4F5966"/>
<path d="M117.503 135.559C118.235 135.559 118.829 134.961 118.829 134.222C118.829 133.484 118.235 132.885 117.503 132.885C116.771 132.885 116.177 133.484 116.177 134.222C116.177 134.961 116.771 135.559 117.503 135.559Z" fill="#4F5966"/>
<path d="M88.4483 135.56C89.1805 135.56 89.774 134.961 89.774 134.222C89.774 133.484 89.1805 132.885 88.4483 132.885C87.7162 132.885 87.1226 133.484 87.1226 134.222C87.1226 134.961 87.7162 135.56 88.4483 135.56Z" fill="#4F5966"/>
<path d="M72.9878 135.56C73.7199 135.56 74.3135 134.961 74.3135 134.222C74.3135 133.484 73.7199 132.885 72.9878 132.885C72.2556 132.885 71.6621 133.484 71.6621 134.222C71.6621 134.961 72.2556 135.56 72.9878 135.56Z" fill="#4F5966"/>
<defs>
<filter id="filter0_ii" x="137.85" y="403.837" width="8.59707" height="13.4785" filterUnits="userSpaceOnUse" color-interpolation-filters="sRGB">
<feFlood flood-opacity="0" result="BackgroundImageFix"/>
<feBlend mode="normal" in="SourceGraphic" in2="BackgroundImageFix" result="shape"/>
<feColorMatrix in="SourceAlpha" type="matrix" values="0 0 0 0 0 0 0 0 0 0 0 0 0 0 0 0 0 0 127 0" result="hardAlpha"/>
<feOffset dy="2"/>
<feGaussianBlur stdDeviation="2"/>
<feComposite in2="hardAlpha" operator="arithmetic" k2="-1" k3="1"/>
<feColorMatrix type="matrix" values="0 0 0 0 1 0 0 0 0 1 0 0 0 0 1 0 0 0 1 0"/>
<feBlend mode="normal" in2="shape" result="effect1_innerShadow"/>
<feColorMatrix in="SourceAlpha" type="matrix" values="0 0 0 0 0 0 0 0 0 0 0 0 0 0 0 0 0 0 127 0" result="hardAlpha"/>
<feOffset dy="-2"/>
<feGaussianBlur stdDeviation="2"/>
<feComposite in2="hardAlpha" operator="arithmetic" k2="-1" k3="1"/>
<feColorMatrix type="matrix" values="0 0 0 0 1 0 0 0 0 1 0 0 0 0 1 0 0 0 1 0"/>
<feBlend mode="normal" in2="effect1_innerShadow" result="effect2_innerShadow"/>
</filter>
<clipPath id="clip0">
<rect width="54.4409" height="50.6557" fill="white" transform="translate(210.313 15.1626) rotate(-3)"/>
</clipPath>
<clipPath id="clip1">
<rect width="7.5" height="7.5" fill="white" transform="translate(38.25 236.25)"/>
</clipPath>
</defs>
</svg>
