<svg id="Layer_1" data-name="Layer 1" xmlns="http://www.w3.org/2000/svg" viewBox="0 0 70 70"><defs><style>.cls-1,.cls-3{fill:none;}.cls-1{stroke:#dcdfe3;stroke-linecap:round;stroke-linejoin:round;stroke-width:2px;stroke-dasharray:6 10;}.cls-2,.cls-7{fill:#25c286;}.cls-2,.cls-3,.cls-4{stroke:#4f5966;stroke-width:2.5px;}.cls-4,.cls-5{fill:#fff;}.cls-6{fill:#4f5966;}.cls-8{fill:#006cfa;}.cls-9{fill:#f52c2f;}</style></defs><path class="cls-1" d="M23.72,49.74a22.16,22.16,0,1,1,22.58,0"/><rect class="cls-2" x="20.06" y="28.15" width="30.19" height="9.9" rx="2.97"/><path class="cls-3" d="M49,28.35a13.71,13.71,0,1,0-27.42,0"/><rect class="cls-4" x="24.81" y="17.96" width="20.49" height="26.82" rx="10.1"/><path class="cls-3" d="M24.76,29.44h9.46a15.82,15.82,0,0,0,8.55-2.52L45,25.53"/><line class="cls-3" x1="37.13" y1="39.43" x2="43.52" y2="39.43"/><rect class="cls-2" x="32.28" y="37.55" width="5.64" height="4.11" rx="1.58"/><path class="cls-5" d="M34.45,62.42,30.68,48.54a.76.76,0,0,1,0-.21L22.5,50.41a10.28,10.28,0,0,0-7.64,9.94v2.94H55.05V60.35a10.29,10.29,0,0,0-7.64-9.94L40,48.33a.83.83,0,0,1,0,.22L36,62.43A.8.8,0,0,1,34.45,62.42Z"/><path class="cls-6" d="M30.68,48.54l.95-.26h0Zm3.77,13.88-1,.26Zm1.53,0L35,62.16h0Zm3.94-13.88-1-.28h0ZM22.5,50.41l-.25-1h0Zm24.91,0-.26,1h0ZM11.55,62.3a1,1,0,1,0,0,2Zm47.31,2a1,1,0,1,0,0-2ZM29.66,43.89v4.44h2V43.89Zm.06,4.91L33.5,62.68l1.91-.52L31.63,48.28Zm7.21,13.9,3.94-13.88L39,48.27,35,62.16Zm4-14.37V43.89H39v4.44Zm-.07.49a1.66,1.66,0,0,0,.07-.49H39s0,0,0-.06ZM33.5,62.68a1.78,1.78,0,0,0,3.43,0L35,62.16a.19.19,0,0,1,.08-.11.17.17,0,0,1,.22,0,.23.23,0,0,1,.08.11ZM29.66,48.33a1.84,1.84,0,0,0,.06.47l1.91-.52a.11.11,0,0,1,0,0Zm-13.81,15V60.35h-2v2.94Zm6.89-11.93,8.15-2.07-.48-1.92-8.16,2.08Zm-6.89,9a9.31,9.31,0,0,1,6.9-9l-.51-1.91a11.29,11.29,0,0,0-8.37,10.9ZM56,63.29V60.35h-2v2.94ZM47.68,49.45l-7.46-2.07-.53,1.9,7.46,2.08ZM56,60.35a11.29,11.29,0,0,0-8.37-10.9l-.51,1.91a9.31,9.31,0,0,1,6.9,9ZM11.55,64.28h3.31v-2H11.55Zm3.31,0H55.05v-2H14.86Zm40.19,0h3.81v-2H55.05Z"/><circle class="cls-7" cx="9.37" cy="14.83" r="2.18"/><circle class="cls-8" cx="60.2" cy="14.39" r="2.62"/><circle class="cls-9" cx="48.4" cy="4.91" r="1.19"/></svg>