<svg width="470" height="291" viewBox="0 0 470 291" fill="none" xmlns="http://www.w3.org/2000/svg">
<path d="M91.6435 26H68.5371C35.9523 26 9.53711 52.4152 9.53711 85V85C9.53711 117.585 35.9523 144 68.5371 144H404.037C436.898 144 463.537 170.639 463.537 203.5V203.5C463.537 236.361 436.898 263 404.037 263H388.192" stroke="#B9BEC5" stroke-width="2" stroke-linecap="round" stroke-dasharray="8 10"/>
<rect x="75.0371" y="56" width="316.5" height="51.5" rx="4" fill="#F0F2F5"/>
<path fill-rule="evenodd" clip-rule="evenodd" d="M101.037 78.625C101.037 73.7031 98.7871 73 96.5371 73C94.2871 73 92.0371 73.7031 92.0371 78.625C92.0371 83.5469 94.2871 84.25 96.5371 84.25C98.7871 84.25 101.037 83.5469 101.037 78.625ZM92.0371 91H101.037C102.28 91 103.287 89.9926 103.287 88.75C103.287 86.886 101.776 85.375 99.9121 85.375H93.1621C91.2981 85.375 89.7871 86.886 89.7871 88.75C89.7871 89.9926 90.7945 91 92.0371 91Z" fill="#B9BEC5"/>
<path d="M116.161 82.0002C116.161 79.531 118.163 77.5293 120.632 77.5293H226.066C228.535 77.5293 230.537 79.531 230.537 82.0002C230.537 84.4695 228.535 86.4712 226.066 86.4712H120.632C118.163 86.4712 116.161 84.4695 116.161 82.0002Z" fill="#DCDFE3"/>
<rect x="328.287" y="72" width="49.75" height="23" rx="4" fill="#DCDFE3"/>
<path d="M340.823 84.8018V88.5H339.094V78.5469H342.901C344.013 78.5469 344.895 78.8363 345.547 79.415C346.203 79.9938 346.531 80.7594 346.531 81.7119C346.531 82.6872 346.21 83.446 345.567 83.9883C344.929 84.5306 344.034 84.8018 342.881 84.8018H340.823ZM340.823 83.4141H342.901C343.517 83.4141 343.986 83.2705 344.31 82.9834C344.633 82.6917 344.795 82.2725 344.795 81.7256C344.795 81.1878 344.631 80.7594 344.303 80.4404C343.975 80.1169 343.523 79.9505 342.949 79.9414H340.823V83.4141ZM352.403 86.1826H348.548L347.741 88.5H345.943L349.703 78.5469H351.255L355.021 88.5H353.217L352.403 86.1826ZM349.033 84.7881H351.918L350.476 80.6592L349.033 84.7881ZM357.981 88.5H356.259V78.5469H357.981V88.5ZM360.107 88.5V78.5469H363.047C363.926 78.5469 364.706 78.7428 365.385 79.1348C366.068 79.5267 366.597 80.0827 366.971 80.8027C367.344 81.5228 367.531 82.3477 367.531 83.2773V83.7764C367.531 84.7197 367.342 85.5492 366.964 86.2646C366.59 86.9801 366.055 87.5316 365.357 87.9189C364.665 88.3063 363.869 88.5 362.972 88.5H360.107ZM361.837 79.9414V87.1191H362.965C363.872 87.1191 364.567 86.8366 365.05 86.2715C365.537 85.7018 365.786 84.8861 365.795 83.8242V83.2705C365.795 82.1904 365.56 81.3656 365.091 80.7959C364.621 80.2262 363.94 79.9414 363.047 79.9414H361.837Z" fill="white"/>
<rect x="75.0371" width="316.5" height="51.5" rx="4" fill="#F0F2F5"/>
<path fill-rule="evenodd" clip-rule="evenodd" d="M101.037 22.625C101.037 17.7031 98.7871 17 96.5371 17C94.2871 17 92.0371 17.7031 92.0371 22.625C92.0371 27.5469 94.2871 28.25 96.5371 28.25C98.7871 28.25 101.037 27.5469 101.037 22.625ZM92.0371 35H101.037C102.28 35 103.287 33.9926 103.287 32.75C103.287 30.886 101.776 29.375 99.9121 29.375H93.1621C91.2981 29.375 89.7871 30.886 89.7871 32.75C89.7871 33.9926 90.7945 35 92.0371 35Z" fill="#B9BEC5"/>
<path d="M116.161 26.0002C116.161 23.531 118.163 21.5293 120.632 21.5293H226.066C228.535 21.5293 230.537 23.531 230.537 26.0002C230.537 28.4695 228.535 30.4712 226.066 30.4712H120.632C118.163 30.4712 116.161 28.4695 116.161 26.0002Z" fill="#DCDFE3"/>
<rect x="328.287" y="16" width="49.75" height="23" rx="4" fill="#DCDFE3"/>
<path d="M340.823 28.8018V32.5H339.094V22.5469H342.901C344.013 22.5469 344.895 22.8363 345.547 23.415C346.203 23.9938 346.531 24.7594 346.531 25.7119C346.531 26.6872 346.21 27.446 345.567 27.9883C344.929 28.5306 344.034 28.8018 342.881 28.8018H340.823ZM340.823 27.4141H342.901C343.517 27.4141 343.986 27.2705 344.31 26.9834C344.633 26.6917 344.795 26.2725 344.795 25.7256C344.795 25.1878 344.631 24.7594 344.303 24.4404C343.975 24.1169 343.523 23.9505 342.949 23.9414H340.823V27.4141ZM352.403 30.1826H348.548L347.741 32.5H345.943L349.703 22.5469H351.255L355.021 32.5H353.217L352.403 30.1826ZM349.033 28.7881H351.918L350.476 24.6592L349.033 28.7881ZM357.981 32.5H356.259V22.5469H357.981V32.5ZM360.107 32.5V22.5469H363.047C363.926 22.5469 364.706 22.7428 365.385 23.1348C366.068 23.5267 366.597 24.0827 366.971 24.8027C367.344 25.5228 367.531 26.3477 367.531 27.2773V27.7764C367.531 28.7197 367.342 29.5492 366.964 30.2646C366.59 30.9801 366.055 31.5316 365.357 31.9189C364.665 32.3063 363.869 32.5 362.972 32.5H360.107ZM361.837 23.9414V31.1191H362.965C363.872 31.1191 364.567 30.8366 365.05 30.2715C365.537 29.7018 365.786 28.8861 365.795 27.8242V27.2705C365.795 26.1904 365.56 25.3656 365.091 24.7959C364.621 24.2262 363.94 23.9414 363.047 23.9414H361.837Z" fill="white"/>
<rect x="75.0371" y="182.5" width="316.5" height="51.5" rx="4" fill="#F0F2F5"/>
<g clip-path="url(#clip0)">
<path fill-rule="evenodd" clip-rule="evenodd" d="M101.037 205.125C101.037 200.203 98.7871 199.5 96.5371 199.5C94.2871 199.5 92.0371 200.203 92.0371 205.125C92.0371 210.047 94.2871 210.75 96.5371 210.75C98.7871 210.75 101.037 210.047 101.037 205.125ZM92.0371 217.5H101.037C102.28 217.5 103.287 216.493 103.287 215.25C103.287 213.386 101.776 211.875 99.9121 211.875H93.1621C91.2981 211.875 89.7871 213.386 89.7871 215.25C89.7871 216.493 90.7945 217.5 92.0371 217.5Z" fill="#B9BEC5"/>
</g>
<path d="M116.161 208.5C116.161 206.031 118.163 204.029 120.632 204.029H226.066C228.535 204.029 230.537 206.031 230.537 208.5C230.537 210.969 228.535 212.971 226.066 212.971H120.632C118.163 212.971 116.161 210.969 116.161 208.5Z" fill="#DCDFE3"/>
<rect x="328.287" y="198.5" width="49.75" height="23" rx="4" fill="#DCDFE3"/>
<path d="M340.823 211.302V215H339.094V205.047H342.901C344.013 205.047 344.895 205.336 345.547 205.915C346.203 206.494 346.531 207.259 346.531 208.212C346.531 209.187 346.21 209.946 345.567 210.488C344.929 211.031 344.034 211.302 342.881 211.302H340.823ZM340.823 209.914H342.901C343.517 209.914 343.986 209.771 344.31 209.483C344.633 209.192 344.795 208.772 344.795 208.226C344.795 207.688 344.631 207.259 344.303 206.94C343.975 206.617 343.523 206.451 342.949 206.441H340.823V209.914ZM352.403 212.683H348.548L347.741 215H345.943L349.703 205.047H351.255L355.021 215H353.217L352.403 212.683ZM349.033 211.288H351.918L350.476 207.159L349.033 211.288ZM357.981 215H356.259V205.047H357.981V215ZM360.107 215V205.047H363.047C363.926 205.047 364.706 205.243 365.385 205.635C366.068 206.027 366.597 206.583 366.971 207.303C367.344 208.023 367.531 208.848 367.531 209.777V210.276C367.531 211.22 367.342 212.049 366.964 212.765C366.59 213.48 366.055 214.032 365.357 214.419C364.665 214.806 363.869 215 362.972 215H360.107ZM361.837 206.441V213.619H362.965C363.872 213.619 364.567 213.337 365.05 212.771C365.537 212.202 365.786 211.386 365.795 210.324V209.771C365.795 208.69 365.56 207.866 365.091 207.296C364.621 206.726 363.94 206.441 363.047 206.441H361.837Z" fill="white"/>
<rect x="75.0371" y="239" width="316.5" height="51.5" rx="4" fill="#F0F2F5"/>
<path fill-rule="evenodd" clip-rule="evenodd" d="M101.037 261.625C101.037 256.703 98.7871 256 96.5371 256C94.2871 256 92.0371 256.703 92.0371 261.625C92.0371 266.547 94.2871 267.25 96.5371 267.25C98.7871 267.25 101.037 266.547 101.037 261.625ZM92.0371 274H101.037C102.28 274 103.287 272.993 103.287 271.75C103.287 269.886 101.776 268.375 99.9121 268.375H93.1621C91.2981 268.375 89.7871 269.886 89.7871 271.75C89.7871 272.993 90.7945 274 92.0371 274Z" fill="#B9BEC5"/>
<path d="M116.161 265C116.161 262.531 118.163 260.529 120.632 260.529H226.066C228.535 260.529 230.537 262.531 230.537 265C230.537 267.469 228.535 269.471 226.066 269.471H120.632C118.163 269.471 116.161 267.469 116.161 265Z" fill="#DCDFE3"/>
<rect x="328.287" y="255" width="49.75" height="23" rx="4" fill="#DCDFE3"/>
<path d="M340.823 267.802V271.5H339.094V261.547H342.901C344.013 261.547 344.895 261.836 345.547 262.415C346.203 262.994 346.531 263.759 346.531 264.712C346.531 265.687 346.21 266.446 345.567 266.988C344.929 267.531 344.034 267.802 342.881 267.802H340.823ZM340.823 266.414H342.901C343.517 266.414 343.986 266.271 344.31 265.983C344.633 265.692 344.795 265.272 344.795 264.726C344.795 264.188 344.631 263.759 344.303 263.44C343.975 263.117 343.523 262.951 342.949 262.941H340.823V266.414ZM352.403 269.183H348.548L347.741 271.5H345.943L349.703 261.547H351.255L355.021 271.5H353.217L352.403 269.183ZM349.033 267.788H351.918L350.476 263.659L349.033 267.788ZM357.981 271.5H356.259V261.547H357.981V271.5ZM360.107 271.5V261.547H363.047C363.926 261.547 364.706 261.743 365.385 262.135C366.068 262.527 366.597 263.083 366.971 263.803C367.344 264.523 367.531 265.348 367.531 266.277V266.776C367.531 267.72 367.342 268.549 366.964 269.265C366.59 269.98 366.055 270.532 365.357 270.919C364.665 271.306 363.869 271.5 362.972 271.5H360.107ZM361.837 262.941V270.119H362.965C363.872 270.119 364.567 269.837 365.05 269.271C365.537 268.702 365.786 267.886 365.795 266.824V266.271C365.795 265.19 365.56 264.366 365.091 263.796C364.621 263.226 363.94 262.941 363.047 262.941H361.837Z" fill="white"/>
<g filter="url(#filter0_d)">
<rect x="45.5371" y="102" width="373.5" height="81.5" rx="4" fill="white"/>
</g>
<path d="M101.482 138.75V124.531H106.355C107.964 124.531 109.188 124.854 110.027 125.498C110.867 126.143 111.287 127.103 111.287 128.379C111.287 129.03 111.111 129.616 110.76 130.137C110.408 130.658 109.894 131.061 109.217 131.348C109.985 131.556 110.577 131.95 110.994 132.529C111.417 133.102 111.629 133.792 111.629 134.6C111.629 135.934 111.199 136.96 110.34 137.676C109.487 138.392 108.263 138.75 106.668 138.75H101.482ZM103.953 132.334V136.777H106.697C107.472 136.777 108.077 136.585 108.514 136.201C108.95 135.817 109.168 135.283 109.168 134.6C109.168 133.122 108.413 132.367 106.902 132.334H103.953ZM103.953 130.518H106.375C107.143 130.518 107.742 130.345 108.172 130C108.608 129.648 108.826 129.154 108.826 128.516C108.826 127.812 108.624 127.305 108.221 126.992C107.824 126.68 107.202 126.523 106.355 126.523H103.953V130.518ZM116.395 138.75H114.021V128.184H116.395V138.75ZM113.875 125.439C113.875 125.075 113.989 124.772 114.217 124.531C114.451 124.29 114.783 124.17 115.213 124.17C115.643 124.17 115.975 124.29 116.209 124.531C116.443 124.772 116.561 125.075 116.561 125.439C116.561 125.798 116.443 126.097 116.209 126.338C115.975 126.572 115.643 126.689 115.213 126.689C114.783 126.689 114.451 126.572 114.217 126.338C113.989 126.097 113.875 125.798 113.875 125.439ZM121.512 138.75H119.139V123.75H121.512V138.75ZM126.629 138.75H124.256V123.75H126.629V138.75ZM141.863 135.088C141.863 134.463 141.642 133.981 141.199 133.643C140.763 133.304 139.972 132.962 138.826 132.617C137.68 132.272 136.769 131.888 136.092 131.465C134.796 130.651 134.148 129.59 134.148 128.281C134.148 127.135 134.614 126.191 135.545 125.449C136.482 124.707 137.697 124.336 139.188 124.336C140.177 124.336 141.059 124.518 141.834 124.883C142.609 125.247 143.217 125.768 143.66 126.445C144.103 127.116 144.324 127.861 144.324 128.682H141.863C141.863 127.939 141.629 127.36 141.16 126.943C140.698 126.52 140.034 126.309 139.168 126.309C138.361 126.309 137.732 126.481 137.283 126.826C136.84 127.171 136.619 127.653 136.619 128.271C136.619 128.792 136.86 129.229 137.342 129.58C137.824 129.925 138.618 130.264 139.725 130.596C140.831 130.921 141.72 131.296 142.391 131.719C143.061 132.135 143.553 132.617 143.865 133.164C144.178 133.704 144.334 134.339 144.334 135.068C144.334 136.253 143.878 137.197 142.967 137.9C142.062 138.597 140.831 138.945 139.275 138.945C138.247 138.945 137.299 138.757 136.434 138.379C135.574 137.995 134.904 137.467 134.422 136.797C133.947 136.126 133.709 135.345 133.709 134.453H136.18C136.18 135.26 136.447 135.885 136.98 136.328C137.514 136.771 138.279 136.992 139.275 136.992C140.135 136.992 140.779 136.82 141.209 136.475C141.645 136.123 141.863 135.661 141.863 135.088ZM148.504 128.184L148.572 129.287C149.314 128.421 150.33 127.988 151.619 127.988C153.032 127.988 153.999 128.529 154.52 129.609C155.288 128.529 156.368 127.988 157.762 127.988C158.927 127.988 159.793 128.311 160.359 128.955C160.932 129.6 161.225 130.55 161.238 131.807V138.75H158.865V131.875C158.865 131.204 158.719 130.713 158.426 130.4C158.133 130.088 157.648 129.932 156.971 129.932C156.43 129.932 155.988 130.078 155.643 130.371C155.304 130.658 155.066 131.035 154.93 131.504L154.939 138.75H152.566V131.797C152.534 130.553 151.899 129.932 150.662 129.932C149.712 129.932 149.038 130.319 148.641 131.094V138.75H146.268V128.184H148.504ZM166.199 138.75H163.826V128.184H166.199V138.75ZM163.68 125.439C163.68 125.075 163.794 124.772 164.021 124.531C164.256 124.29 164.588 124.17 165.018 124.17C165.447 124.17 165.779 124.29 166.014 124.531C166.248 124.772 166.365 125.075 166.365 125.439C166.365 125.798 166.248 126.097 166.014 126.338C165.779 126.572 165.447 126.689 165.018 126.689C164.588 126.689 164.256 126.572 164.021 126.338C163.794 126.097 163.68 125.798 163.68 125.439ZM171.766 125.615V128.184H173.631V129.941H171.766V135.84C171.766 136.243 171.844 136.536 172 136.719C172.163 136.895 172.449 136.982 172.859 136.982C173.133 136.982 173.41 136.95 173.689 136.885V138.721C173.149 138.87 172.628 138.945 172.127 138.945C170.304 138.945 169.393 137.939 169.393 135.928V129.941H167.654V128.184H169.393V125.615H171.766ZM177.791 129.336C178.566 128.438 179.546 127.988 180.73 127.988C182.983 127.988 184.126 129.274 184.158 131.846V138.75H181.785V131.934C181.785 131.204 181.626 130.69 181.307 130.391C180.994 130.085 180.532 129.932 179.92 129.932C178.969 129.932 178.26 130.355 177.791 131.201V138.75H175.418V123.75H177.791V129.336Z" fill="#2C3641"/>
<path d="M69.2666 160.822H67.4619L66.915 163.625H65.9375L66.4844 160.822H64.8506V159.886H66.6621L67.1338 157.466H65.3701V156.516H67.3184L67.8789 153.672H68.8564L68.2959 156.516H70.1006L70.6611 153.672H71.6455L71.085 156.516H72.4795V157.466H70.9004L70.4287 159.886H71.9668V160.822H70.251L69.7041 163.625H68.7197L69.2666 160.822ZM67.6396 159.886H69.4443L69.916 157.466H68.1113L67.6396 159.886ZM80.0127 163.625H73.4912V162.716L76.9365 158.888C77.4469 158.309 77.7979 157.84 77.9893 157.479C78.1852 157.115 78.2832 156.739 78.2832 156.352C78.2832 155.832 78.126 155.406 77.8115 155.073C77.4971 154.741 77.0778 154.574 76.5537 154.574C75.9248 154.574 75.4349 154.754 75.084 155.114C74.7376 155.47 74.5645 155.966 74.5645 156.604H73.2998C73.2998 155.688 73.5938 154.948 74.1816 154.383C74.7741 153.818 75.5648 153.535 76.5537 153.535C77.4788 153.535 78.2103 153.779 78.748 154.267C79.2858 154.75 79.5547 155.395 79.5547 156.201C79.5547 157.181 78.9303 158.348 77.6816 159.701L75.0156 162.593H80.0127V163.625ZM81.9336 158.635L82.4395 153.672H87.5391V154.841H83.5127L83.2119 157.555C83.6995 157.268 84.2533 157.124 84.873 157.124C85.7799 157.124 86.5 157.425 87.0332 158.026C87.5664 158.623 87.833 159.432 87.833 160.453C87.833 161.479 87.555 162.287 86.999 162.88C86.4476 163.468 85.6751 163.762 84.6816 163.762C83.8021 163.762 83.0843 163.518 82.5283 163.03C81.9723 162.543 81.6556 161.868 81.5781 161.007H82.7744C82.8519 161.576 83.0547 162.007 83.3828 162.299C83.7109 162.586 84.1439 162.729 84.6816 162.729C85.2695 162.729 85.7298 162.529 86.0625 162.128C86.3997 161.727 86.5684 161.173 86.5684 160.467C86.5684 159.801 86.3861 159.268 86.0215 158.867C85.6615 158.462 85.1807 158.259 84.5791 158.259C84.0277 158.259 83.5947 158.38 83.2803 158.621L82.9453 158.895L81.9336 158.635ZM95.7354 163.625H89.2139V162.716L92.6592 158.888C93.1696 158.309 93.5205 157.84 93.7119 157.479C93.9079 157.115 94.0059 156.739 94.0059 156.352C94.0059 155.832 93.8486 155.406 93.5342 155.073C93.2197 154.741 92.8005 154.574 92.2764 154.574C91.6475 154.574 91.1576 154.754 90.8066 155.114C90.4603 155.47 90.2871 155.966 90.2871 156.604H89.0225C89.0225 155.688 89.3164 154.948 89.9043 154.383C90.4967 153.818 91.2874 153.535 92.2764 153.535C93.2015 153.535 93.9329 153.779 94.4707 154.267C95.0085 154.75 95.2773 155.395 95.2773 156.201C95.2773 157.181 94.653 158.348 93.4043 159.701L90.7383 162.593H95.7354V163.625ZM98.9141 158.033H99.8643C100.461 158.024 100.931 157.867 101.272 157.562C101.614 157.256 101.785 156.844 101.785 156.324C101.785 155.158 101.204 154.574 100.042 154.574C99.4951 154.574 99.0576 154.731 98.7295 155.046C98.4059 155.356 98.2441 155.768 98.2441 156.283H96.9795C96.9795 155.495 97.2666 154.841 97.8408 154.321C98.4196 153.797 99.1533 153.535 100.042 153.535C100.981 153.535 101.717 153.784 102.25 154.28C102.783 154.777 103.05 155.467 103.05 156.352C103.05 156.785 102.909 157.204 102.626 157.609C102.348 158.015 101.967 158.318 101.484 158.519C102.031 158.692 102.453 158.979 102.749 159.38C103.05 159.781 103.2 160.271 103.2 160.85C103.2 161.743 102.909 162.451 102.325 162.976C101.742 163.5 100.983 163.762 100.049 163.762C99.1146 163.762 98.3535 163.509 97.7656 163.003C97.1823 162.497 96.8906 161.829 96.8906 161H98.1621C98.1621 161.524 98.333 161.943 98.6748 162.258C99.0166 162.572 99.4746 162.729 100.049 162.729C100.66 162.729 101.127 162.57 101.45 162.251C101.774 161.932 101.936 161.474 101.936 160.877C101.936 160.298 101.758 159.854 101.402 159.544C101.047 159.234 100.534 159.075 99.8643 159.065H98.9141V158.033ZM110.884 160.487L111.075 161.8L111.355 160.617L113.324 153.672H114.432L116.353 160.617L116.626 161.82L116.838 160.48L118.383 153.672H119.702L117.289 163.625H116.093L114.042 156.372L113.885 155.613L113.728 156.372L111.602 163.625H110.405L107.999 153.672H109.312L110.884 160.487ZM125.301 163.625C125.228 163.479 125.169 163.219 125.123 162.846C124.535 163.456 123.833 163.762 123.018 163.762C122.288 163.762 121.689 163.557 121.22 163.146C120.755 162.732 120.522 162.208 120.522 161.574C120.522 160.804 120.814 160.207 121.397 159.783C121.985 159.355 122.81 159.141 123.872 159.141H125.103V158.56C125.103 158.118 124.97 157.767 124.706 157.507C124.442 157.243 124.052 157.11 123.537 157.11C123.086 157.11 122.708 157.224 122.402 157.452C122.097 157.68 121.944 157.956 121.944 158.279H120.673C120.673 157.91 120.803 157.555 121.062 157.213C121.327 156.867 121.682 156.593 122.129 156.393C122.58 156.192 123.075 156.092 123.612 156.092C124.465 156.092 125.132 156.306 125.615 156.734C126.098 157.158 126.349 157.744 126.367 158.491V161.896C126.367 162.575 126.454 163.115 126.627 163.516V163.625H125.301ZM123.202 162.661C123.599 162.661 123.975 162.559 124.33 162.354C124.686 162.148 124.943 161.882 125.103 161.554V160.036H124.111C122.562 160.036 121.787 160.49 121.787 161.396C121.787 161.793 121.919 162.103 122.184 162.326C122.448 162.549 122.787 162.661 123.202 162.661ZM130.065 154.438V156.229H131.446V157.206H130.065V161.793C130.065 162.089 130.127 162.312 130.25 162.463C130.373 162.609 130.583 162.682 130.879 162.682C131.025 162.682 131.225 162.654 131.48 162.6V163.625C131.148 163.716 130.824 163.762 130.51 163.762C129.945 163.762 129.519 163.591 129.231 163.249C128.944 162.907 128.801 162.422 128.801 161.793V157.206H127.454V156.229H128.801V154.438H130.065ZM135.999 163.762C134.996 163.762 134.181 163.434 133.552 162.777C132.923 162.117 132.608 161.235 132.608 160.132V159.899C132.608 159.166 132.747 158.512 133.025 157.938C133.308 157.359 133.7 156.908 134.201 156.584C134.707 156.256 135.254 156.092 135.842 156.092C136.803 156.092 137.551 156.409 138.084 157.042C138.617 157.675 138.884 158.582 138.884 159.763V160.289H133.873C133.891 161.018 134.103 161.608 134.509 162.06C134.919 162.506 135.438 162.729 136.067 162.729C136.514 162.729 136.892 162.638 137.202 162.456C137.512 162.274 137.783 162.032 138.016 161.731L138.788 162.333C138.168 163.285 137.239 163.762 135.999 163.762ZM135.842 157.131C135.331 157.131 134.903 157.318 134.557 157.691C134.21 158.061 133.996 158.58 133.914 159.25H137.619V159.154C137.583 158.512 137.41 158.015 137.1 157.664C136.79 157.309 136.37 157.131 135.842 157.131ZM143.929 157.363C143.737 157.331 143.53 157.315 143.307 157.315C142.477 157.315 141.914 157.669 141.618 158.375V163.625H140.354V156.229H141.584L141.604 157.083C142.019 156.422 142.607 156.092 143.368 156.092C143.614 156.092 143.801 156.124 143.929 156.188V157.363ZM150.081 159.729V163.625H148.769V153.672H152.439C153.529 153.672 154.381 153.95 154.996 154.506C155.616 155.062 155.926 155.798 155.926 156.714C155.926 157.68 155.623 158.425 155.017 158.949C154.415 159.469 153.551 159.729 152.426 159.729H150.081ZM150.081 158.655H152.439C153.141 158.655 153.679 158.491 154.053 158.163C154.426 157.83 154.613 157.352 154.613 156.728C154.613 156.135 154.426 155.661 154.053 155.306C153.679 154.95 153.166 154.766 152.515 154.752H150.081V158.655ZM161.969 162.894C161.477 163.472 160.754 163.762 159.802 163.762C159.013 163.762 158.412 163.534 157.997 163.078C157.587 162.618 157.38 161.939 157.375 161.041V156.229H158.64V161.007C158.64 162.128 159.095 162.688 160.007 162.688C160.973 162.688 161.616 162.328 161.935 161.608V156.229H163.199V163.625H161.996L161.969 162.894ZM166.316 156.229L166.351 157.049C166.893 156.411 167.624 156.092 168.545 156.092C169.579 156.092 170.284 156.488 170.657 157.281C170.903 156.926 171.222 156.639 171.614 156.42C172.011 156.201 172.478 156.092 173.016 156.092C174.638 156.092 175.463 156.951 175.49 158.669V163.625H174.226V158.744C174.226 158.215 174.105 157.821 173.863 157.562C173.622 157.297 173.216 157.165 172.646 157.165C172.177 157.165 171.787 157.306 171.478 157.589C171.168 157.867 170.988 158.243 170.938 158.717V163.625H169.666V158.778C169.666 157.703 169.14 157.165 168.087 157.165C167.257 157.165 166.69 157.518 166.385 158.225V163.625H165.12V156.229H166.316ZM183.652 160.009C183.652 161.134 183.395 162.041 182.88 162.729C182.365 163.418 181.668 163.762 180.788 163.762C179.89 163.762 179.184 163.477 178.669 162.907V166.469H177.404V156.229H178.56L178.621 157.049C179.136 156.411 179.852 156.092 180.768 156.092C181.656 156.092 182.358 156.427 182.873 157.097C183.393 157.767 183.652 158.699 183.652 159.893V160.009ZM182.388 159.865C182.388 159.031 182.21 158.373 181.854 157.89C181.499 157.407 181.011 157.165 180.392 157.165C179.626 157.165 179.052 157.505 178.669 158.184V161.718C179.047 162.392 179.626 162.729 180.405 162.729C181.011 162.729 181.492 162.49 181.848 162.012C182.208 161.529 182.388 160.813 182.388 159.865ZM188.403 159.858C188.403 159.134 188.545 158.482 188.827 157.903C189.114 157.325 189.511 156.878 190.017 156.563C190.527 156.249 191.108 156.092 191.76 156.092C192.767 156.092 193.58 156.44 194.2 157.138C194.825 157.835 195.137 158.762 195.137 159.92V160.009C195.137 160.729 194.998 161.376 194.72 161.95C194.446 162.52 194.052 162.964 193.537 163.283C193.027 163.602 192.439 163.762 191.773 163.762C190.771 163.762 189.957 163.413 189.333 162.716C188.713 162.019 188.403 161.096 188.403 159.947V159.858ZM189.675 160.009C189.675 160.829 189.864 161.488 190.242 161.984C190.625 162.481 191.135 162.729 191.773 162.729C192.416 162.729 192.926 162.479 193.305 161.978C193.683 161.472 193.872 160.765 193.872 159.858C193.872 159.047 193.678 158.391 193.291 157.89C192.908 157.384 192.398 157.131 191.76 157.131C191.135 157.131 190.632 157.379 190.249 157.876C189.866 158.373 189.675 159.084 189.675 160.009ZM197.919 156.229L197.96 157.158C198.525 156.447 199.263 156.092 200.175 156.092C201.738 156.092 202.526 156.974 202.54 158.737V163.625H201.275V158.73C201.271 158.197 201.148 157.803 200.906 157.548C200.669 157.293 200.298 157.165 199.792 157.165C199.382 157.165 199.022 157.274 198.712 157.493C198.402 157.712 198.16 157.999 197.987 158.354V163.625H196.723V156.229H197.919ZM208.118 163.625V153.672H211.372C212.452 153.672 213.263 153.895 213.806 154.342C214.353 154.788 214.626 155.449 214.626 156.324C214.626 156.789 214.494 157.201 214.229 157.562C213.965 157.917 213.605 158.193 213.149 158.389C213.687 158.539 214.111 158.826 214.421 159.25C214.735 159.669 214.893 160.171 214.893 160.754C214.893 161.647 214.603 162.349 214.024 162.859C213.446 163.37 212.628 163.625 211.57 163.625H208.118ZM209.431 158.97V162.552H211.598C212.208 162.552 212.689 162.395 213.04 162.08C213.396 161.761 213.573 161.324 213.573 160.768C213.573 159.569 212.922 158.97 211.618 158.97H209.431ZM209.431 157.917H211.413C211.987 157.917 212.445 157.773 212.787 157.486C213.133 157.199 213.307 156.81 213.307 156.317C213.307 155.771 213.147 155.374 212.828 155.128C212.509 154.877 212.024 154.752 211.372 154.752H209.431V157.917ZM218.536 153.672L221.79 161.793L225.044 153.672H226.746V163.625H225.434V159.749L225.557 155.565L222.289 163.625H221.284L218.023 155.586L218.153 159.749V163.625H216.841V153.672H218.536ZM231.21 160.487L231.401 161.8L231.682 160.617L233.65 153.672H234.758L236.679 160.617L236.952 161.82L237.164 160.48L238.709 153.672H240.028L237.615 163.625H236.419L234.368 156.372L234.211 155.613L234.054 156.372L231.928 163.625H230.731L228.325 153.672H229.638L231.21 160.487ZM246.475 158.033H247.425C248.022 158.024 248.491 157.867 248.833 157.562C249.175 157.256 249.346 156.844 249.346 156.324C249.346 155.158 248.765 154.574 247.603 154.574C247.056 154.574 246.618 154.731 246.29 155.046C245.966 155.356 245.805 155.768 245.805 156.283H244.54C244.54 155.495 244.827 154.841 245.401 154.321C245.98 153.797 246.714 153.535 247.603 153.535C248.541 153.535 249.277 153.784 249.811 154.28C250.344 154.777 250.61 155.467 250.61 156.352C250.61 156.785 250.469 157.204 250.187 157.609C249.909 158.015 249.528 158.318 249.045 158.519C249.592 158.692 250.013 158.979 250.31 159.38C250.61 159.781 250.761 160.271 250.761 160.85C250.761 161.743 250.469 162.451 249.886 162.976C249.302 163.5 248.544 163.762 247.609 163.762C246.675 163.762 245.914 163.509 245.326 163.003C244.743 162.497 244.451 161.829 244.451 161H245.723C245.723 161.524 245.894 161.943 246.235 162.258C246.577 162.572 247.035 162.729 247.609 162.729C248.22 162.729 248.687 162.57 249.011 162.251C249.334 161.932 249.496 161.474 249.496 160.877C249.496 160.298 249.318 159.854 248.963 159.544C248.607 159.234 248.095 159.075 247.425 159.065H246.475V158.033ZM259.019 163.625H252.497V162.716L255.942 158.888C256.453 158.309 256.804 157.84 256.995 157.479C257.191 157.115 257.289 156.739 257.289 156.352C257.289 155.832 257.132 155.406 256.817 155.073C256.503 154.741 256.084 154.574 255.56 154.574C254.931 154.574 254.441 154.754 254.09 155.114C253.743 155.47 253.57 155.966 253.57 156.604H252.306C252.306 155.688 252.6 154.948 253.188 154.383C253.78 153.818 254.571 153.535 255.56 153.535C256.485 153.535 257.216 153.779 257.754 154.267C258.292 154.75 258.561 155.395 258.561 156.201C258.561 157.181 257.936 158.348 256.688 159.701L254.021 162.593H259.019V163.625ZM262.197 158.033H263.147C263.744 158.024 264.214 157.867 264.556 157.562C264.897 157.256 265.068 156.844 265.068 156.324C265.068 155.158 264.487 154.574 263.325 154.574C262.778 154.574 262.341 154.731 262.013 155.046C261.689 155.356 261.527 155.768 261.527 156.283H260.263C260.263 155.495 260.55 154.841 261.124 154.321C261.703 153.797 262.437 153.535 263.325 153.535C264.264 153.535 265 153.784 265.533 154.28C266.066 154.777 266.333 155.467 266.333 156.352C266.333 156.785 266.192 157.204 265.909 157.609C265.631 158.015 265.251 158.318 264.768 158.519C265.314 158.692 265.736 158.979 266.032 159.38C266.333 159.781 266.483 160.271 266.483 160.85C266.483 161.743 266.192 162.451 265.608 162.976C265.025 163.5 264.266 163.762 263.332 163.762C262.398 163.762 261.637 163.509 261.049 163.003C260.465 162.497 260.174 161.829 260.174 161H261.445C261.445 161.524 261.616 161.943 261.958 162.258C262.3 162.572 262.758 162.729 263.332 162.729C263.943 162.729 264.41 162.57 264.733 162.251C265.057 161.932 265.219 161.474 265.219 160.877C265.219 160.298 265.041 159.854 264.686 159.544C264.33 159.234 263.817 159.075 263.147 159.065H262.197V158.033ZM274.741 163.625H268.22V162.716L271.665 158.888C272.175 158.309 272.526 157.84 272.718 157.479C272.914 157.115 273.012 156.739 273.012 156.352C273.012 155.832 272.854 155.406 272.54 155.073C272.226 154.741 271.806 154.574 271.282 154.574C270.653 154.574 270.163 154.754 269.812 155.114C269.466 155.47 269.293 155.966 269.293 156.604H268.028C268.028 155.688 268.322 154.948 268.91 154.383C269.503 153.818 270.293 153.535 271.282 153.535C272.207 153.535 272.939 153.779 273.477 154.267C274.014 154.75 274.283 155.395 274.283 156.201C274.283 157.181 273.659 158.348 272.41 159.701L269.744 162.593H274.741V163.625ZM277.585 163.625H276.32V156.229H277.585V163.625ZM276.218 154.267C276.218 154.062 276.279 153.888 276.402 153.747C276.53 153.606 276.717 153.535 276.963 153.535C277.209 153.535 277.396 153.606 277.523 153.747C277.651 153.888 277.715 154.062 277.715 154.267C277.715 154.472 277.651 154.643 277.523 154.779C277.396 154.916 277.209 154.984 276.963 154.984C276.717 154.984 276.53 154.916 276.402 154.779C276.279 154.643 276.218 154.472 276.218 154.267Z" fill="#2C3641"/>
<rect x="319.146" y="123.5" width="80.0326" height="37" rx="4" fill="#25C286"/>
<path d="M339.313 143.964V149.913H336.53V133.902H342.656C344.444 133.902 345.863 134.367 346.911 135.298C347.967 136.229 348.495 137.461 348.495 138.993C348.495 140.562 347.978 141.783 346.944 142.655C345.918 143.528 344.477 143.964 342.623 143.964H339.313ZM339.313 141.731H342.656C343.645 141.731 344.4 141.5 344.921 141.039C345.442 140.569 345.702 139.895 345.702 139.015C345.702 138.15 345.438 137.461 344.91 136.948C344.382 136.427 343.656 136.16 342.733 136.145H339.313V141.731ZM357.941 146.185H351.739L350.441 149.913H347.549L353.598 133.902H356.094L362.153 149.913H359.25L357.941 146.185ZM352.52 143.942H357.161L354.84 137.3L352.52 143.942ZM366.915 149.913H364.144V133.902H366.915V149.913ZM370.335 149.913V133.902H375.064C376.479 133.902 377.732 134.217 378.825 134.847C379.924 135.478 380.775 136.372 381.376 137.531C381.977 138.689 382.278 140.016 382.278 141.511V142.314C382.278 143.832 381.973 145.166 381.365 146.317C380.764 147.468 379.902 148.355 378.781 148.978C377.666 149.602 376.387 149.913 374.943 149.913H370.335ZM373.117 136.145V147.692H374.932C376.391 147.692 377.509 147.237 378.286 146.328C379.07 145.412 379.47 144.099 379.484 142.391V141.5C379.484 139.763 379.107 138.436 378.352 137.52C377.597 136.603 376.501 136.145 375.064 136.145H373.117Z" fill="white"/>
<circle cx="32.5371" cy="59" r="4" fill="#25C286"/>
<circle cx="26.5371" cy="100" r="2" fill="#F52C2F"/>
<circle cx="442.537" cy="228" r="3" fill="#F52C2F"/>
<circle cx="422.514" cy="221.636" r="7" transform="rotate(-15 422.514 221.636)" stroke="#006CFA" stroke-width="4"/>
<rect x="0.537109" y="68.75" width="24" height="24" rx="12" fill="#006CFA"/>
<g clip-path="url(#clip1)">
<path fill-rule="evenodd" clip-rule="evenodd" d="M18.834 75.6906C19.3913 76.186 19.4415 77.0393 18.9461 77.5965L11.7461 85.6965C11.4991 85.9744 11.1484 86.1381 10.7768 86.149C10.4051 86.16 10.0454 86.0171 9.78252 85.7542L6.18252 82.1542C5.65531 81.627 5.65531 80.7722 6.18252 80.245C6.70972 79.7178 7.5645 79.7178 8.0917 80.245L10.6793 82.8326L16.9281 75.8027C17.4234 75.2455 18.2767 75.1953 18.834 75.6906Z" fill="white"/>
</g>
<circle cx="78.4121" cy="131.25" r="13.125" fill="#FFB65D"/>
<g clip-path="url(#clip2)">
<rect width="14.2188" height="14.2188" transform="translate(71.3469 123.476)" fill="#FFB65D"/>
<path fill-rule="evenodd" clip-rule="evenodd" d="M82.011 127.919C82.011 124.031 80.2336 123.476 78.4563 123.476C76.679 123.476 74.9016 124.031 74.9016 127.919C74.9016 131.807 76.679 132.362 78.4563 132.362C80.2336 132.362 82.011 131.807 82.011 127.919ZM74.9016 137.694H82.011C82.9926 137.694 83.7883 136.899 83.7883 135.917C83.7883 134.445 82.5947 133.251 81.1223 133.251H75.7903C74.3179 133.251 73.1243 134.445 73.1243 135.917C73.1243 136.899 73.92 137.694 74.9016 137.694Z" fill="white"/>
</g>
<g clip-path="url(#clip3)">
<path fill-rule="evenodd" clip-rule="evenodd" d="M441.537 181C439.328 181 437.537 182.791 437.537 185V201C437.537 203.209 439.328 205 441.537 205H465.537C467.746 205 469.537 203.209 469.537 201V185C469.537 182.791 467.746 181 465.537 181H441.537ZM454.662 186.5C454.662 185.879 454.158 185.375 453.537 185.375C452.916 185.375 452.412 185.879 452.412 186.5V186.901C451.835 187.038 451.286 187.28 450.816 187.619C450.036 188.182 449.412 189.072 449.412 190.214C449.412 190.828 449.645 191.356 449.864 191.725C450.425 192.67 451.371 193.175 452.025 193.502L454.043 194.511C454.705 194.842 455.084 195.102 455.275 195.423C455.387 195.611 455.412 195.733 455.412 195.786C455.412 196.192 455.279 196.432 455.078 196.596C454.845 196.785 454.38 196.982 453.537 196.982C452.474 196.982 451.877 196.425 451.368 195.951L451.302 195.89C450.847 195.467 450.135 195.493 449.713 195.949C449.29 196.404 449.316 197.116 449.771 197.539C449.799 197.564 449.829 197.592 449.861 197.622C450.279 198.018 451.106 198.798 452.412 199.104V199.5C452.412 200.121 452.916 200.625 453.537 200.625C454.158 200.625 454.662 200.121 454.662 199.5V199.137C455.363 199.011 455.988 198.755 456.496 198.342C457.295 197.693 457.662 196.773 457.662 195.786C457.662 195.172 457.429 194.644 457.21 194.275C456.649 193.33 455.703 192.825 455.049 192.498L453.031 191.489C452.369 191.158 451.99 190.898 451.799 190.577C451.687 190.389 451.662 190.267 451.662 190.214C451.662 189.963 451.788 189.693 452.133 189.443C452.488 189.187 453.003 189.018 453.537 189.018C454.557 189.018 455.267 189.641 455.771 190.11C456.227 190.533 456.939 190.507 457.361 190.051C457.784 189.596 457.758 188.884 457.302 188.461L457.275 188.435C456.867 188.056 455.98 187.231 454.662 186.905V186.5Z" fill="#25C286"/>
</g>
<defs>
<filter id="filter0_d" x="20.5371" y="77" width="423.5" height="131.5" filterUnits="userSpaceOnUse" color-interpolation-filters="sRGB">
<feFlood flood-opacity="0" result="BackgroundImageFix"/>
<feColorMatrix in="SourceAlpha" type="matrix" values="0 0 0 0 0 0 0 0 0 0 0 0 0 0 0 0 0 0 127 0"/>
<feOffset/>
<feGaussianBlur stdDeviation="12.5"/>
<feColorMatrix type="matrix" values="0 0 0 0 0 0 0 0 0 0 0 0 0 0 0 0 0 0 0.2 0"/>
<feBlend mode="normal" in2="BackgroundImageFix" result="effect1_dropShadow"/>
<feBlend mode="normal" in="SourceGraphic" in2="effect1_dropShadow" result="shape"/>
</filter>
<clipPath id="clip0">
<path d="M87.5371 203.5C87.5371 201.291 89.328 199.5 91.5371 199.5H101.537C103.746 199.5 105.537 201.291 105.537 203.5V213.5C105.537 215.709 103.746 217.5 101.537 217.5H91.5371C89.328 217.5 87.5371 215.709 87.5371 213.5V203.5Z" fill="white"/>
</clipPath>
<clipPath id="clip1">
<rect width="14.4" height="14.4" fill="white" transform="translate(5.33716 73.5498)"/>
</clipPath>
<clipPath id="clip2">
<rect width="14.2188" height="14.2188" fill="white" transform="translate(71.3469 123.476)"/>
</clipPath>
<clipPath id="clip3">
<rect width="32" height="32" fill="white" transform="translate(437.537 177)"/>
</clipPath>
</defs>
</svg>
