<svg width="458" height="351" viewBox="0 0 458 351" fill="none" xmlns="http://www.w3.org/2000/svg">
<rect width="458" height="350" transform="translate(0 0.592773)" fill="white"/>
<g clip-path="url(#clip0)">
<path opacity="0.75" fill-rule="evenodd" clip-rule="evenodd" d="M219.43 337.379C331.665 351.705 424.58 294.898 441.716 213.277C458.851 131.656 437.235 61.0626 333.506 27.0745C229.777 -6.9136 222.903 102.899 172.596 122.11C114 144.486 29.0735 83.7039 15.5663 145.347C-6.22527 244.799 73.0942 318.7 219.43 337.379Z" fill="#EBF4FF"/>
<path d="M92 209.093C92 208.541 91.5523 208.093 91 208.093C90.4477 208.093 90 208.541 90 209.093H92ZM116.5 39.2563C115.948 39.2563 115.5 39.7041 115.5 40.2563C115.5 40.8086 115.948 41.2563 116.5 41.2563V39.2563ZM224 127.343C224 127.895 224.448 128.343 225 128.343C225.552 128.343 226 127.895 226 127.343H224ZM400.75 327.093C400.198 327.093 399.75 327.541 399.75 328.093C399.75 328.645 400.198 329.093 400.75 329.093V327.093ZM400.75 329.093C401.302 329.093 401.75 328.645 401.75 328.093C401.75 327.541 401.302 327.093 400.75 327.093V329.093ZM226 127.343C226 126.791 225.552 126.343 225 126.343C224.448 126.343 224 126.791 224 127.343H226ZM90 212.648C90 213.201 90.4477 213.648 91 213.648C91.5523 213.648 92 213.201 92 212.648H90ZM92 221.537C92 220.985 91.5523 220.537 91 220.537C90.4477 220.537 90 220.985 90 221.537H92ZM90.1838 229.366C90.2313 229.916 90.7159 230.324 91.2662 230.276C91.8164 230.228 92.2239 229.744 92.1764 229.194L90.1838 229.366ZM94.1633 239.231C93.9974 238.704 93.4358 238.411 92.909 238.577C92.3823 238.743 92.0898 239.305 92.2557 239.832L94.1633 239.231ZM95.5281 247.724C95.7835 248.214 96.3876 248.403 96.8772 248.148C97.3669 247.893 97.5568 247.289 97.3014 246.799L95.5281 247.724ZM102.994 255.304C102.639 254.881 102.008 254.826 101.586 255.181C101.163 255.537 101.108 256.167 101.463 256.59L102.994 255.304ZM107.503 262.63C107.926 262.985 108.556 262.93 108.912 262.507C109.267 262.084 109.212 261.454 108.789 261.098L107.503 262.63ZM117.294 266.792C116.804 266.536 116.2 266.726 115.945 267.216C115.689 267.705 115.879 268.309 116.369 268.565L117.294 266.792ZM124.261 271.837C124.788 272.003 125.35 271.711 125.516 271.184C125.681 270.657 125.389 270.096 124.862 269.93L124.261 271.837ZM134.899 271.917C134.349 271.869 133.864 272.277 133.817 272.827C133.769 273.377 134.177 273.862 134.727 273.909L134.899 271.917ZM142.867 274.093C143.419 274.093 143.867 273.645 143.867 273.093C143.867 272.541 143.419 272.093 142.867 272.093V274.093ZM152.533 272.093C151.981 272.093 151.533 272.541 151.533 273.093C151.533 273.645 151.981 274.093 152.533 274.093V272.093ZM160.267 274.093C160.819 274.093 161.267 273.645 161.267 273.093C161.267 272.541 160.819 272.093 160.267 272.093V274.093ZM169.933 272.093C169.381 272.093 168.933 272.541 168.933 273.093C168.933 273.645 169.381 274.093 169.933 274.093V272.093ZM177.667 274.093C178.219 274.093 178.667 273.645 178.667 273.093C178.667 272.541 178.219 272.093 177.667 272.093V274.093ZM187.333 272.093C186.781 272.093 186.333 272.541 186.333 273.093C186.333 273.645 186.781 274.093 187.333 274.093V272.093ZM195.067 274.093C195.619 274.093 196.067 273.645 196.067 273.093C196.067 272.541 195.619 272.093 195.067 272.093V274.093ZM204.733 272.093C204.181 272.093 203.733 272.541 203.733 273.093C203.733 273.645 204.181 274.093 204.733 274.093V272.093ZM212.467 274.093C213.019 274.093 213.467 273.645 213.467 273.093C213.467 272.541 213.019 272.093 212.467 272.093V274.093ZM222.133 272.093C221.581 272.093 221.133 272.541 221.133 273.093C221.133 273.645 221.581 274.093 222.133 274.093V272.093ZM229.867 274.093C230.419 274.093 230.867 273.645 230.867 273.093C230.867 272.541 230.419 272.093 229.867 272.093V274.093ZM239.533 272.093C238.981 272.093 238.533 272.541 238.533 273.093C238.533 273.645 238.981 274.093 239.533 274.093V272.093ZM247.267 274.093C247.819 274.093 248.267 273.645 248.267 273.093C248.267 272.541 247.819 272.093 247.267 272.093V274.093ZM256.933 272.093C256.381 272.093 255.933 272.541 255.933 273.093C255.933 273.645 256.381 274.093 256.933 274.093V272.093ZM264.667 274.093C265.219 274.093 265.667 273.645 265.667 273.093C265.667 272.541 265.219 272.093 264.667 272.093V274.093ZM274.333 272.093C273.781 272.093 273.333 272.541 273.333 273.093C273.333 273.645 273.781 274.093 274.333 274.093V272.093ZM282.067 274.093C282.619 274.093 283.067 273.645 283.067 273.093C283.067 272.541 282.619 272.093 282.067 272.093V274.093ZM291.733 272.093C291.181 272.093 290.733 272.541 290.733 273.093C290.733 273.645 291.181 274.093 291.733 274.093V272.093ZM299.467 274.093C300.019 274.093 300.467 273.645 300.467 273.093C300.467 272.541 300.019 272.093 299.467 272.093V274.093ZM309.133 272.093C308.581 272.093 308.133 272.541 308.133 273.093C308.133 273.645 308.581 274.093 309.133 274.093V272.093ZM316.867 274.093C317.419 274.093 317.867 273.645 317.867 273.093C317.867 272.541 317.419 272.093 316.867 272.093V274.093ZM326.533 272.093C325.981 272.093 325.533 272.541 325.533 273.093C325.533 273.645 325.981 274.093 326.533 274.093V272.093ZM334.267 274.093C334.819 274.093 335.267 273.645 335.267 273.093C335.267 272.541 334.819 272.093 334.267 272.093V274.093ZM343.933 272.093C343.381 272.093 342.933 272.541 342.933 273.093C342.933 273.645 343.381 274.093 343.933 274.093V272.093ZM351.667 274.093C352.219 274.093 352.667 273.645 352.667 273.093C352.667 272.541 352.219 272.093 351.667 272.093V274.093ZM361.333 272.093C360.781 272.093 360.333 272.541 360.333 273.093C360.333 273.645 360.781 274.093 361.333 274.093V272.093ZM369.067 274.093C369.619 274.093 370.067 273.645 370.067 273.093C370.067 272.541 369.619 272.093 369.067 272.093V274.093ZM378.733 272.093C378.181 272.093 377.733 272.541 377.733 273.093C377.733 273.645 378.181 274.093 378.733 274.093V272.093ZM386.467 274.093C387.019 274.093 387.467 273.645 387.467 273.093C387.467 272.541 387.019 272.093 386.467 272.093V274.093ZM396.133 272.093C395.581 272.093 395.133 272.541 395.133 273.093C395.133 273.645 395.581 274.093 396.133 274.093V272.093ZM404.605 274.491C405.149 274.587 405.668 274.223 405.763 273.679C405.858 273.135 405.494 272.617 404.95 272.521L404.605 274.491ZM416.349 277.245C415.897 276.928 415.273 277.038 414.956 277.49C414.639 277.942 414.748 278.566 415.2 278.883L416.349 277.245ZM421.71 285.393C422.027 285.845 422.651 285.954 423.103 285.637C423.555 285.32 423.665 284.696 423.347 284.244L421.71 285.393ZM428.071 295.643C427.976 295.099 427.458 294.735 426.914 294.83C426.37 294.925 426.006 295.444 426.101 295.988L428.071 295.643ZM426.5 300.76C426.5 301.312 426.948 301.76 427.5 301.76C428.052 301.76 428.5 301.312 428.5 300.76H426.5ZM428.5 301.176C428.5 300.624 428.052 300.176 427.5 300.176C426.948 300.176 426.5 300.624 426.5 301.176H428.5ZM426.113 305.818C426.017 306.362 426.381 306.88 426.925 306.975C427.469 307.071 427.987 306.707 428.083 306.163L426.113 305.818ZM423.483 317.261C423.8 316.809 423.691 316.186 423.239 315.868C422.786 315.551 422.163 315.661 421.846 316.113L423.483 317.261ZM415.52 322.439C415.068 322.756 414.958 323.379 415.276 323.832C415.593 324.284 416.216 324.393 416.669 324.076L415.52 322.439ZM405.57 328.676C406.114 328.58 406.478 328.062 406.383 327.518C406.287 326.974 405.769 326.61 405.225 326.706L405.57 328.676ZM396.275 326.706C395.731 326.61 395.213 326.974 395.117 327.518C395.022 328.062 395.386 328.58 395.93 328.676L396.275 326.706ZM384.831 324.076C385.284 324.393 385.907 324.284 386.224 323.832C386.542 323.379 386.432 322.756 385.98 322.439L384.831 324.076ZM379.654 316.113C379.337 315.661 378.714 315.551 378.261 315.868C377.809 316.186 377.7 316.809 378.017 317.261L379.654 316.113ZM373.417 306.163C373.513 306.707 374.031 307.071 374.575 306.975C375.119 306.88 375.483 306.362 375.387 305.818L373.417 306.163ZM375 297.605C375 297.053 374.552 296.605 374 296.605C373.448 296.605 373 297.053 373 297.605H375ZM373 288.26C373 288.812 373.448 289.26 374 289.26C374.552 289.26 375 288.812 375 288.26H373ZM375 280.783C375 280.231 374.552 279.783 374 279.783C373.448 279.783 373 280.231 373 280.783H375ZM373 271.438C373 271.99 373.448 272.438 374 272.438C374.552 272.438 375 271.99 375 271.438H373ZM375 263.962C375 263.41 374.552 262.962 374 262.962C373.448 262.962 373 263.41 373 263.962H375ZM373 254.617C373 255.169 373.448 255.617 374 255.617C374.552 255.617 375 255.169 375 254.617H373ZM375 247.141C375 246.588 374.552 246.141 374 246.141C373.448 246.141 373 246.588 373 247.141H375ZM373 237.795C373 238.348 373.448 238.795 374 238.795C374.552 238.795 375 238.348 375 237.795H373ZM375 230.319C375 229.767 374.552 229.319 374 229.319C373.448 229.319 373 229.767 373 230.319H375ZM373 220.974C373 221.526 373.448 221.974 374 221.974C374.552 221.974 375 221.526 375 220.974H373ZM375 213.498C375 212.945 374.552 212.498 374 212.498C373.448 212.498 373 212.945 373 213.498H375ZM373 204.152C373 204.705 373.448 205.152 374 205.152C374.552 205.152 375 204.705 375 204.152H373ZM375 196.676C375 196.124 374.552 195.676 374 195.676C373.448 195.676 373 196.124 373 196.676H375ZM373 187.331C373 187.883 373.448 188.331 374 188.331C374.552 188.331 375 187.883 375 187.331H373ZM374.594 178.903C374.499 178.359 373.98 177.995 373.436 178.091C372.892 178.186 372.529 178.704 372.624 179.248L374.594 178.903ZM368.481 169.253C368.798 169.705 369.422 169.815 369.874 169.497C370.326 169.18 370.436 168.557 370.119 168.105L368.481 169.253ZM363.488 161.474C363.036 161.157 362.413 161.267 362.095 161.719C361.778 162.171 361.888 162.794 362.34 163.112L363.488 161.474ZM352.345 158.969C352.889 159.064 353.407 158.7 353.502 158.156C353.598 157.612 353.234 157.094 352.69 156.999L352.345 158.969ZM343.878 156.593C343.325 156.593 342.878 157.041 342.878 157.593C342.878 158.145 343.325 158.593 343.878 158.593V156.593ZM333.572 158.593C334.124 158.593 334.572 158.145 334.572 157.593C334.572 157.041 334.124 156.593 333.572 156.593V158.593ZM325.328 156.593C324.775 156.593 324.328 157.041 324.328 157.593C324.328 158.145 324.775 158.593 325.328 158.593V156.593ZM315.022 158.593C315.574 158.593 316.022 158.145 316.022 157.593C316.022 157.041 315.574 156.593 315.022 156.593V158.593ZM306.778 156.593C306.225 156.593 305.778 157.041 305.778 157.593C305.778 158.145 306.225 158.593 306.778 158.593V156.593ZM296.472 158.593C297.024 158.593 297.472 158.145 297.472 157.593C297.472 157.041 297.024 156.593 296.472 156.593V158.593ZM288.228 156.593C287.675 156.593 287.228 157.041 287.228 157.593C287.228 158.145 287.675 158.593 288.228 158.593V156.593ZM277.922 158.593C278.474 158.593 278.922 158.145 278.922 157.593C278.922 157.041 278.474 156.593 277.922 156.593V158.593ZM269.678 156.593C269.125 156.593 268.678 157.041 268.678 157.593C268.678 158.145 269.125 158.593 269.678 158.593V156.593ZM259.372 158.593C259.924 158.593 260.372 158.145 260.372 157.593C260.372 157.041 259.924 156.593 259.372 156.593V158.593ZM251.851 156.398C251.302 156.334 250.806 156.727 250.743 157.276C250.679 157.825 251.073 158.321 251.621 158.384L251.851 156.398ZM242.869 156.044C243.376 156.263 243.964 156.029 244.183 155.522C244.402 155.015 244.169 154.427 243.662 154.208L242.869 156.044ZM237.783 150.807C237.34 150.477 236.714 150.568 236.384 151.011C236.053 151.454 236.145 152.08 236.587 152.411L237.783 150.807ZM230.182 146.005C230.512 146.448 231.139 146.539 231.582 146.209C232.025 145.879 232.116 145.253 231.786 144.81L230.182 146.005ZM228.385 138.931C228.166 138.424 227.577 138.19 227.07 138.409C226.563 138.628 226.33 139.217 226.549 139.724L228.385 138.931ZM224.209 130.972C224.272 131.52 224.768 131.914 225.317 131.85C225.865 131.787 226.259 131.29 226.195 130.742L224.209 130.972ZM226.195 123.944C226.259 123.395 225.865 122.899 225.317 122.836C224.768 122.772 224.272 123.165 224.209 123.714L226.195 123.944ZM226.549 114.962C226.33 115.469 226.563 116.057 227.07 116.276C227.577 116.495 228.166 116.262 228.385 115.755L226.549 114.962ZM231.786 109.876C232.116 109.433 232.025 108.807 231.582 108.476C231.139 108.146 230.512 108.238 230.182 108.68L231.786 109.876ZM236.587 102.275C236.145 102.605 236.053 103.232 236.384 103.675C236.714 104.117 237.34 104.209 237.783 103.879L236.587 102.275ZM243.662 100.478C244.169 100.259 244.402 99.6703 244.183 99.1633C243.964 98.6562 243.376 98.4228 242.869 98.6418L243.662 100.478ZM251.621 96.3014C251.073 96.3649 250.679 96.8611 250.743 97.4097C250.806 97.9583 251.302 98.3516 251.851 98.2882L251.621 96.3014ZM259.713 98.0929C260.265 98.0929 260.713 97.6452 260.713 97.0929C260.713 96.5406 260.265 96.0929 259.713 96.0929V98.0929ZM270.87 96.0929C270.318 96.0929 269.87 96.5406 269.87 97.0929C269.87 97.6452 270.318 98.0929 270.87 98.0929V96.0929ZM279.796 98.0929C280.349 98.0929 280.796 97.6452 280.796 97.0929C280.796 96.5406 280.349 96.0929 279.796 96.0929V98.0929ZM290.954 96.0929C290.401 96.0929 289.954 96.5406 289.954 97.0929C289.954 97.6452 290.401 98.0929 290.954 98.0929V96.0929ZM299.88 98.0929C300.432 98.0929 300.88 97.6452 300.88 97.0929C300.88 96.5406 300.432 96.0929 299.88 96.0929V98.0929ZM311.037 96.0929C310.485 96.0929 310.037 96.5406 310.037 97.0929C310.037 97.6452 310.485 98.0929 311.037 98.0929V96.0929ZM319.842 97.717C320.386 97.6217 320.75 97.1034 320.655 96.5594C320.559 96.0154 320.041 95.6517 319.497 95.747L319.842 97.717ZM328.693 91.9357C328.24 92.2529 328.131 92.8765 328.448 93.3286C328.765 93.7808 329.389 93.8902 329.841 93.573L328.693 91.9357ZM335.98 87.434C336.297 86.9819 336.188 86.3582 335.736 86.0411C335.284 85.7239 334.66 85.8333 334.343 86.2854L335.98 87.434ZM338.154 77.0901C338.059 77.6341 338.423 78.1523 338.966 78.2476C339.51 78.3429 340.029 77.9792 340.124 77.4352L338.154 77.0901ZM340.5 71.1292C340.5 70.5769 340.052 70.1292 339.5 70.1292C338.948 70.1292 338.5 70.5769 338.5 71.1292H340.5ZM338.5 66.22C338.5 66.7723 338.948 67.22 339.5 67.22C340.052 67.22 340.5 66.7723 340.5 66.22H338.5ZM340.124 59.9141C340.029 59.3701 339.51 59.0063 338.966 59.1016C338.423 59.1969 338.059 59.7152 338.154 60.2592L340.124 59.9141ZM334.343 51.0638C334.66 51.5159 335.284 51.6254 335.736 51.3082C336.188 50.991 336.297 50.3674 335.98 49.9152L334.343 51.0638ZM329.841 43.7762C329.389 43.4591 328.765 43.5685 328.448 44.0206C328.131 44.4727 328.24 45.0964 328.693 45.4135L329.841 43.7762ZM319.497 41.6023C320.041 41.6976 320.559 41.3338 320.655 40.7898C320.75 40.2458 320.386 39.7276 319.842 39.6323L319.497 41.6023ZM311.48 39.2563C310.927 39.2563 310.48 39.7041 310.48 40.2563C310.48 40.8086 310.927 41.2563 311.48 41.2563V39.2563ZM301.429 41.2563C301.982 41.2563 302.429 40.8086 302.429 40.2563C302.429 39.7041 301.982 39.2563 301.429 39.2563V41.2563ZM293.389 39.2563C292.837 39.2563 292.389 39.7041 292.389 40.2563C292.389 40.8086 292.837 41.2563 293.389 41.2563V39.2563ZM283.338 41.2563C283.891 41.2563 284.338 40.8086 284.338 40.2563C284.338 39.7041 283.891 39.2563 283.338 39.2563V41.2563ZM275.298 39.2563C274.746 39.2563 274.298 39.7041 274.298 40.2563C274.298 40.8086 274.746 41.2563 275.298 41.2563V39.2563ZM265.247 41.2563C265.8 41.2563 266.247 40.8086 266.247 40.2563C266.247 39.7041 265.8 39.2563 265.247 39.2563V41.2563ZM257.207 39.2563C256.655 39.2563 256.207 39.7041 256.207 40.2563C256.207 40.8086 256.655 41.2563 257.207 41.2563V39.2563ZM247.157 41.2563C247.709 41.2563 248.157 40.8086 248.157 40.2563C248.157 39.7041 247.709 39.2563 247.157 39.2563V41.2563ZM239.116 39.2563C238.564 39.2563 238.116 39.7041 238.116 40.2563C238.116 40.8086 238.564 41.2563 239.116 41.2563V39.2563ZM229.066 41.2563C229.618 41.2563 230.066 40.8086 230.066 40.2563C230.066 39.7041 229.618 39.2563 229.066 39.2563V41.2563ZM221.025 39.2563C220.473 39.2563 220.025 39.7041 220.025 40.2563C220.025 40.8086 220.473 41.2563 221.025 41.2563V39.2563ZM210.975 41.2563C211.527 41.2563 211.975 40.8086 211.975 40.2563C211.975 39.7041 211.527 39.2563 210.975 39.2563V41.2563ZM202.934 39.2563C202.382 39.2563 201.934 39.7041 201.934 40.2563C201.934 40.8086 202.382 41.2563 202.934 41.2563V39.2563ZM192.884 41.2563C193.436 41.2563 193.884 40.8086 193.884 40.2563C193.884 39.7041 193.436 39.2563 192.884 39.2563V41.2563ZM184.843 39.2563C184.291 39.2563 183.843 39.7041 183.843 40.2563C183.843 40.8086 184.291 41.2563 184.843 41.2563V39.2563ZM174.793 41.2563C175.345 41.2563 175.793 40.8086 175.793 40.2563C175.793 39.7041 175.345 39.2563 174.793 39.2563V41.2563ZM166.753 39.2563C166.2 39.2563 165.753 39.7041 165.753 40.2563C165.753 40.8086 166.2 41.2563 166.753 41.2563V39.2563ZM156.702 41.2563C157.254 41.2563 157.702 40.8086 157.702 40.2563C157.702 39.7041 157.254 39.2563 156.702 39.2563V41.2563ZM148.662 39.2563C148.109 39.2563 147.662 39.7041 147.662 40.2563C147.662 40.8086 148.109 41.2563 148.662 41.2563V39.2563ZM138.611 41.2563C139.163 41.2563 139.611 40.8086 139.611 40.2563C139.611 39.7041 139.163 39.2563 138.611 39.2563V41.2563ZM130.571 39.2563C130.018 39.2563 129.571 39.7041 129.571 40.2563C129.571 40.8086 130.018 41.2563 130.571 41.2563V39.2563ZM120.52 41.2563C121.072 41.2563 121.52 40.8086 121.52 40.2563C121.52 39.7041 121.072 39.2563 120.52 39.2563V41.2563ZM90 209.093V212.648H92V209.093H90ZM90 221.537V225.093H92V221.537H90ZM90 225.093C90 226.532 90.0621 227.957 90.1838 229.366L92.1764 229.194C92.0596 227.842 92 226.475 92 225.093H90ZM92.2557 239.832C93.1197 242.574 94.2184 245.213 95.5281 247.724L97.3014 246.799C96.0453 244.391 94.9917 241.861 94.1633 239.231L92.2557 239.832ZM101.463 256.59C103.297 258.774 105.319 260.796 107.503 262.63L108.789 261.098C106.694 259.339 104.754 257.399 102.994 255.304L101.463 256.59ZM116.369 268.565C118.88 269.875 121.518 270.973 124.261 271.837L124.862 269.93C122.232 269.101 119.702 268.048 117.294 266.792L116.369 268.565ZM134.727 273.909C136.135 274.031 137.561 274.093 139 274.093V272.093C137.618 272.093 136.25 272.033 134.899 271.917L134.727 273.909ZM139 274.093H142.867V272.093H139V274.093ZM152.533 274.093H160.267V272.093H152.533V274.093ZM169.933 274.093H177.667V272.093H169.933V274.093ZM187.333 274.093H195.067V272.093H187.333V274.093ZM204.733 274.093H212.467V272.093H204.733V274.093ZM222.133 274.093H229.867V272.093H222.133V274.093ZM239.533 274.093H247.267V272.093H239.533V274.093ZM256.933 274.093H264.667V272.093H256.933V274.093ZM274.333 274.093H282.067V272.093H274.333V274.093ZM291.733 274.093H299.467V272.093H291.733V274.093ZM309.133 274.093H316.867V272.093H309.133V274.093ZM326.533 274.093H334.267V272.093H326.533V274.093ZM343.933 274.093H351.667V272.093H343.933V274.093ZM361.333 274.093H369.067V272.093H361.333V274.093ZM378.733 274.093H386.467V272.093H378.733V274.093ZM396.133 274.093H400V272.093H396.133V274.093ZM400 274.093C401.572 274.093 403.11 274.23 404.605 274.491L404.95 272.521C403.342 272.24 401.688 272.093 400 272.093V274.093ZM415.2 278.883C417.73 280.657 419.936 282.863 421.71 285.393L423.347 284.244C421.44 281.524 419.069 279.153 416.349 277.245L415.2 278.883ZM426.101 295.988C426.363 297.483 426.5 299.021 426.5 300.593H428.5C428.5 298.905 428.353 297.251 428.071 295.643L426.101 295.988ZM426.5 300.593V300.76H428.5V300.593H426.5ZM426.5 301.176V301.343H428.5V301.176H426.5ZM426.5 301.343C426.5 302.87 426.367 304.365 426.113 305.818L428.083 306.163C428.357 304.597 428.5 302.986 428.5 301.343H426.5ZM421.846 316.113C420.121 318.571 417.978 320.714 415.52 322.439L416.669 324.076C419.317 322.218 421.625 319.91 423.483 317.261L421.846 316.113ZM405.225 326.706C403.772 326.96 402.277 327.093 400.75 327.093V329.093C402.393 329.093 404.004 328.95 405.57 328.676L405.225 326.706ZM400.75 327.093C399.223 327.093 397.728 326.96 396.275 326.706L395.93 328.676C397.496 328.95 399.107 329.093 400.75 329.093V327.093ZM385.98 322.439C383.522 320.714 381.379 318.571 379.654 316.113L378.017 317.261C379.875 319.91 382.183 322.218 384.831 324.076L385.98 322.439ZM375.387 305.818C375.133 304.365 375 302.87 375 301.343H373C373 302.986 373.143 304.597 373.417 306.163L375.387 305.818ZM375 301.343V297.605H373V301.343H375ZM375 288.26V280.783H373V288.26H375ZM375 271.438V263.962H373V271.438H375ZM375 254.617V247.141H373V254.617H375ZM375 237.795V230.319H373V237.795H375ZM375 220.974V213.498H373V220.974H375ZM375 204.152V196.676H373V204.152H375ZM375 187.331V183.593H373V187.331H375ZM375 183.593C375 181.994 374.861 180.427 374.594 178.903L372.624 179.248C372.871 180.659 373 182.11 373 183.593H375ZM370.119 168.105C368.311 165.528 366.065 163.282 363.488 161.474L362.34 163.112C364.726 164.786 366.807 166.867 368.481 169.253L370.119 168.105ZM352.69 156.999C351.166 156.732 349.599 156.593 348 156.593V158.593C349.483 158.593 350.934 158.722 352.345 158.969L352.69 156.999ZM348 156.593H343.878V158.593H348V156.593ZM333.572 156.593H325.328V158.593H333.572V156.593ZM315.022 156.593H306.778V158.593H315.022V156.593ZM296.472 156.593H288.228V158.593H296.472V156.593ZM277.922 156.593H269.678V158.593H277.922V156.593ZM259.372 156.593H255.25V158.593H259.372V156.593ZM255.25 156.593C254.1 156.593 252.966 156.527 251.851 156.398L251.621 158.384C252.812 158.522 254.023 158.593 255.25 158.593V156.593ZM243.662 154.208C241.564 153.302 239.593 152.157 237.783 150.807L236.587 152.411C238.521 153.852 240.627 155.075 242.869 156.044L243.662 154.208ZM231.786 144.81C230.436 143 229.291 141.029 228.385 138.931L226.549 139.724C227.517 141.966 228.741 144.072 230.182 146.005L231.786 144.81ZM226.195 130.742C226.066 129.627 226 128.493 226 127.343H224C224 128.57 224.071 129.781 224.209 130.972L226.195 130.742ZM226 127.343C226 126.193 226.066 125.059 226.195 123.944L224.209 123.714C224.071 124.905 224 126.116 224 127.343H226ZM228.385 115.755C229.291 113.657 230.436 111.686 231.786 109.876L230.182 108.68C228.741 110.614 227.517 112.72 226.549 114.962L228.385 115.755ZM237.783 103.879C239.593 102.529 241.564 101.384 243.662 100.478L242.869 98.6418C240.627 99.6103 238.521 100.834 236.587 102.275L237.783 103.879ZM251.851 98.2882C252.966 98.1592 254.1 98.0929 255.25 98.0929V96.0929C254.023 96.0929 252.812 96.1637 251.621 96.3014L251.851 98.2882ZM255.25 98.0929H259.713V96.0929H255.25V98.0929ZM270.87 98.0929H279.796V96.0929H270.87V98.0929ZM290.954 98.0929H299.88V96.0929H290.954V98.0929ZM311.037 98.0929H315.5V96.0929H311.037V98.0929ZM315.5 98.0929C316.98 98.0929 318.431 97.9641 319.842 97.717L319.497 95.747C318.2 95.9743 316.864 96.0929 315.5 96.0929V98.0929ZM329.841 93.573C332.227 91.8995 334.307 89.8197 335.98 87.434L334.343 86.2854C332.803 88.4811 330.888 90.3955 328.693 91.9357L329.841 93.573ZM340.124 77.4352C340.371 76.0242 340.5 74.5732 340.5 73.0929H338.5C338.5 74.457 338.381 75.7926 338.154 77.0901L340.124 77.4352ZM340.5 73.0929V71.1292H338.5V73.0929H340.5ZM340.5 66.22V64.2563H338.5V66.22H340.5ZM340.5 64.2563C340.5 62.7761 340.371 61.325 340.124 59.9141L338.154 60.2592C338.381 61.5567 338.5 62.8923 338.5 64.2563H340.5ZM335.98 49.9152C334.307 47.5295 332.227 45.4498 329.841 43.7762L328.693 45.4135C330.888 46.9538 332.803 48.8681 334.343 51.0638L335.98 49.9152ZM319.842 39.6323C318.431 39.3851 316.98 39.2563 315.5 39.2563V41.2563C316.864 41.2563 318.2 41.375 319.497 41.6023L319.842 39.6323ZM315.5 39.2563H311.48V41.2563H315.5V39.2563ZM301.429 39.2563H293.389V41.2563H301.429V39.2563ZM283.338 39.2563H275.298V41.2563H283.338V39.2563ZM265.247 39.2563H257.207V41.2563H265.247V39.2563ZM247.157 39.2563H239.116V41.2563H247.157V39.2563ZM229.066 39.2563H221.025V41.2563H229.066V39.2563ZM210.975 39.2563H202.934V41.2563H210.975V39.2563ZM192.884 39.2563H184.843V41.2563H192.884V39.2563ZM174.793 39.2563H166.753V41.2563H174.793V39.2563ZM156.702 39.2563H148.662V41.2563H156.702V39.2563ZM138.611 39.2563H130.571V41.2563H138.611V39.2563ZM120.52 39.2563H116.5V41.2563H120.52V39.2563Z" fill="#B9BEC5"/>
</g>
<path d="M156.252 18.7683C158.461 18.7683 160.252 20.5592 160.252 22.7683L160.252 32.8184L160.252 63.5493C160.252 65.7584 158.461 67.5493 156.252 67.5493L103.244 67.5493C101.035 67.5493 99.244 65.7584 99.244 63.5493L99.244 32.8184L99.244 22.7683C99.244 20.5592 101.035 18.7683 103.244 18.7683L111.954 18.7683L129.889 18.7683L147.825 18.7683L156.252 18.7683Z" fill="white"/>
<path d="M113.454 12.2017C113.454 11.3732 112.783 10.7017 111.954 10.7017C111.126 10.7017 110.454 11.3732 110.454 12.2017L113.454 12.2017ZM110.454 25.6477C110.454 26.4761 111.126 27.1477 111.954 27.1477C112.783 27.1477 113.454 26.4761 113.454 25.6477L110.454 25.6477ZM149.325 12.2017C149.325 11.3732 148.653 10.7017 147.825 10.7017C146.996 10.7017 146.325 11.3732 146.325 12.2017L149.325 12.2017ZM146.325 25.6477C146.325 26.4761 146.996 27.1477 147.825 27.1477C148.653 27.1477 149.325 26.4761 149.325 25.6477L146.325 25.6477ZM156.252 66.0493L103.244 66.0493L103.244 69.0493L156.252 69.0493L156.252 66.0493ZM147.825 20.2683L156.252 20.2683L156.252 17.2683L147.825 17.2683L147.825 20.2683ZM103.244 20.2683L111.954 20.2683L111.954 17.2683L103.244 17.2683L103.244 20.2683ZM113.454 18.7683L113.454 12.2017L110.454 12.2017L110.454 18.7683L113.454 18.7683ZM110.454 18.7683L110.454 25.6477L113.454 25.6477L113.454 18.7683L110.454 18.7683ZM149.325 18.7683L149.325 12.2017L146.325 12.2017L146.325 18.7683L149.325 18.7683ZM146.325 18.7683L146.325 25.6477L149.325 25.6477L149.325 18.7683L146.325 18.7683ZM111.954 20.2683L129.889 20.2683L129.889 17.2683L111.954 17.2683L111.954 20.2683ZM129.889 20.2683L147.825 20.2683L147.825 17.2683L129.889 17.2683L129.889 20.2683ZM158.752 22.7683L158.752 32.8184L161.752 32.8184L161.752 22.7683L158.752 22.7683ZM158.752 32.8184L158.752 63.5493L161.752 63.5493L161.752 32.8184L158.752 32.8184ZM100.744 63.5493L100.744 32.8184L97.744 32.8184L97.744 63.5493L100.744 63.5493ZM100.744 32.8184L100.744 22.7683L97.744 22.7683L97.744 32.8184L100.744 32.8184ZM160.252 31.3184L99.244 31.3184L99.244 34.3184L160.252 34.3184L160.252 31.3184ZM103.244 17.2683C100.206 17.2683 97.744 19.7308 97.744 22.7683L100.744 22.7683C100.744 21.3876 101.863 20.2683 103.244 20.2683L103.244 17.2683ZM103.244 66.0493C101.863 66.0493 100.744 64.93 100.744 63.5493L97.744 63.5493C97.744 66.5868 100.206 69.0493 103.244 69.0493L103.244 66.0493ZM156.252 69.0493C159.29 69.0493 161.752 66.5868 161.752 63.5493L158.752 63.5493C158.752 64.93 157.633 66.0493 156.252 66.0493L156.252 69.0493ZM156.252 20.2683C157.633 20.2683 158.752 21.3876 158.752 22.7683L161.752 22.7683C161.752 19.7308 159.29 17.2683 156.252 17.2683L156.252 20.2683Z" fill="#4F5966"/>
<path fill-rule="evenodd" clip-rule="evenodd" d="M107.618 39.9102H112.067V43.9102H107.618V39.9102ZM117.058 39.9102H121.957V43.9102H117.058V39.9102ZM126.948 39.9102H131.848V43.9102H126.948V39.9102ZM136.838 39.9102H141.738V43.9102H136.838V39.9102ZM146.728 39.9102H151.618V43.9102H146.728V39.9102Z" fill="#B9BEC5"/>
<path fill-rule="evenodd" clip-rule="evenodd" d="M107.618 55.1489H112.067V59.1489H107.618V55.1489ZM117.058 55.1489H121.957V59.1489H117.058V55.1489ZM126.948 55.1489H131.848V59.1489H126.948V55.1489ZM136.838 55.1489H141.738V59.1489H136.838V55.1489ZM146.728 55.1489H151.618V59.1489H146.728V55.1489Z" fill="#B9BEC5"/>
<path fill-rule="evenodd" clip-rule="evenodd" d="M112.067 47.5293H107.618V51.5293H112.067V47.5293ZM121.957 47.5293H117.058V51.5293H121.957V47.5293ZM131.848 47.5293H126.948V51.5293H131.848V47.5293ZM151.618 47.5293H146.728V51.5293H151.618V47.5293Z" fill="#B9BEC5"/>
<path d="M141.738 51.5293V47.5293H136.838V51.5293H141.738Z" fill="#B9BEC5"/>
<path d="M141.738 51.5293V47.5293H136.838V51.5293H141.738Z" fill="#3690FF"/>
<path fill-rule="evenodd" clip-rule="evenodd" d="M131.848 47.5293H126.948V51.5293H131.848V47.5293ZM151.618 47.5293H146.728V51.5293H151.618V47.5293Z" fill="#3690FF"/>
<path fill-rule="evenodd" clip-rule="evenodd" d="M107.618 55.1489H112.067V59.1489H107.618V55.1489Z" fill="#3690FF"/>
<circle cx="160.384" cy="65.735" r="12.7833" transform="rotate(30 160.384 65.735)" fill="white" stroke="#4F5966" stroke-width="3"/>
<path fill-rule="evenodd" clip-rule="evenodd" d="M167.114 47.7309C166.397 47.3167 165.479 47.5625 165.065 48.2799C164.651 48.9974 164.897 49.9148 165.614 50.329L167.064 51.166L166.227 52.6158C166.214 52.6383 166.201 52.661 166.19 52.6839C159.593 49.7402 151.706 52.2003 148.015 58.5938C144.07 65.4254 146.411 74.1609 153.243 78.1051C160.074 82.0493 168.81 79.7087 172.754 72.8771C174.523 69.8123 175.028 66.3643 174.43 63.1377L176.935 62.4664C177.735 62.252 178.21 61.4295 177.996 60.6293C177.781 59.8291 176.959 59.3542 176.158 59.5686L173.577 60.2603C172.596 57.8909 170.973 55.7689 168.784 54.1819C168.798 54.1604 168.812 54.1383 168.825 54.1158L169.662 52.666L171.112 53.503C171.829 53.9172 172.747 53.6714 173.161 52.954C173.575 52.2366 173.329 51.3192 172.612 50.905L169.863 49.3179L167.114 47.7309ZM170.156 71.3771C167.04 76.7738 160.139 78.6228 154.743 75.507C149.346 72.3912 147.497 65.4905 150.613 60.0938C153.728 54.697 160.629 52.848 166.026 55.9638C171.423 59.0796 173.272 65.9803 170.156 71.3771ZM164.643 61.4163C165.061 60.7008 164.819 59.7823 164.104 59.3648C163.388 58.9473 162.469 59.189 162.052 59.9045L158.824 65.4377C158.612 65.8006 158.562 66.2356 158.687 66.637L160.147 71.3568C160.392 72.1482 161.232 72.5913 162.023 72.3464C162.815 72.1015 163.258 71.2615 163.013 70.4701L161.747 66.38L164.643 61.4163Z" fill="#4F5966"/>
<circle cx="172.498" cy="12.097" r="2" transform="rotate(15 172.498 12.097)" fill="#006CFA"/>
<circle cx="130.87" cy="78.5883" r="3" transform="rotate(15 130.87 78.5883)" fill="#25C286"/>
<circle cx="184.343" cy="72.2107" r="2" transform="rotate(15 184.343 72.2107)" fill="#F52C2F"/>
<rect x="218.5" y="137.633" width="39.8948" height="51.9053" rx="1.5" fill="white" stroke="#4F5966" stroke-width="3"/>
<g clip-path="url(#clip1)">
<path fill-rule="evenodd" clip-rule="evenodd" d="M224.692 178.395C224.382 178.395 224.075 178.456 223.789 178.574C223.503 178.693 223.243 178.866 223.024 179.086C222.805 179.305 222.631 179.565 222.512 179.851C222.394 180.137 222.333 180.444 222.333 180.754C222.333 181.064 222.394 181.37 222.512 181.657C222.631 181.943 222.805 182.203 223.024 182.422C223.243 182.641 223.503 182.815 223.789 182.933C224.075 183.052 224.382 183.113 224.692 183.113C225.002 183.113 225.309 183.052 225.595 182.933C225.881 182.815 226.141 182.641 226.36 182.422C226.579 182.203 226.753 181.943 226.872 181.657C226.99 181.37 227.051 181.064 227.051 180.754C227.051 180.444 226.99 180.137 226.872 179.851C226.753 179.565 226.579 179.305 226.36 179.086C226.141 178.866 225.881 178.693 225.595 178.574C225.309 178.456 225.002 178.395 224.692 178.395ZM223.461 177.782C223.851 177.62 224.269 177.537 224.692 177.537C225.114 177.537 225.533 177.62 225.923 177.782C226.313 177.943 226.668 178.18 226.967 178.479C227.266 178.778 227.503 179.132 227.664 179.523C227.826 179.913 227.909 180.331 227.909 180.754C227.909 181.176 227.826 181.595 227.664 181.985C227.503 182.375 227.266 182.73 226.967 183.029C226.668 183.327 226.313 183.564 225.923 183.726C225.533 183.888 225.114 183.971 224.692 183.971C224.269 183.971 223.851 183.888 223.461 183.726C223.071 183.564 222.716 183.327 222.417 183.029C222.118 182.73 221.881 182.375 221.72 181.985C221.558 181.595 221.475 181.176 221.475 180.754C221.475 180.331 221.558 179.913 221.72 179.523C221.881 179.132 222.118 178.778 222.417 178.479C222.716 178.18 223.071 177.943 223.461 177.782Z" fill="#4F5966"/>
<path fill-rule="evenodd" clip-rule="evenodd" d="M225.026 179.29C224.834 179.246 224.635 179.241 224.441 179.274C224.246 179.307 224.06 179.378 223.893 179.482C223.726 179.587 223.582 179.724 223.468 179.885C223.354 180.046 223.272 180.227 223.228 180.419C223.184 180.612 223.179 180.811 223.212 181.005C223.245 181.199 223.316 181.385 223.421 181.552C223.526 181.719 223.662 181.864 223.823 181.978C223.984 182.092 224.165 182.173 224.358 182.217C224.55 182.261 224.749 182.267 224.943 182.234C225.138 182.201 225.324 182.13 225.491 182.025C225.657 181.92 225.802 181.783 225.916 181.623C226.03 181.462 226.112 181.28 226.156 181.088C226.199 180.896 226.205 180.697 226.172 180.502C226.139 180.308 226.068 180.122 225.963 179.955C225.858 179.788 225.722 179.644 225.561 179.529C225.4 179.415 225.218 179.334 225.026 179.29ZM224.369 178.851C224.619 178.808 224.875 178.815 225.122 178.872C225.369 178.928 225.602 179.033 225.809 179.18C226.016 179.326 226.192 179.512 226.327 179.727C226.461 179.942 226.553 180.181 226.595 180.431C226.637 180.681 226.63 180.936 226.574 181.184C226.517 181.431 226.413 181.664 226.266 181.871C226.119 182.078 225.933 182.253 225.719 182.388C225.504 182.523 225.265 182.614 225.015 182.657C224.765 182.699 224.509 182.692 224.262 182.636C224.015 182.579 223.781 182.475 223.575 182.328C223.368 182.181 223.192 181.995 223.057 181.78C222.923 181.566 222.831 181.327 222.789 181.077C222.746 180.827 222.754 180.571 222.81 180.324C222.867 180.077 222.971 179.843 223.118 179.636C223.265 179.43 223.451 179.254 223.665 179.119C223.88 178.984 224.119 178.893 224.369 178.851Z" fill="#4F5966"/>
<path fill-rule="evenodd" clip-rule="evenodd" d="M224.424 179.896C224.424 179.748 224.544 179.628 224.692 179.628C224.84 179.628 224.96 179.748 224.96 179.896C224.96 180.044 224.84 180.164 224.692 180.164C224.544 180.164 224.424 180.044 224.424 179.896ZM223.566 180.754C223.566 180.606 223.686 180.486 223.834 180.486C223.982 180.486 224.102 180.606 224.102 180.754C224.102 180.902 223.982 181.022 223.834 181.022C223.686 181.022 223.566 180.902 223.566 180.754ZM225.282 180.754C225.282 180.606 225.402 180.486 225.55 180.486C225.698 180.486 225.818 180.606 225.818 180.754C225.818 180.902 225.698 181.022 225.55 181.022C225.402 181.022 225.282 180.902 225.282 180.754ZM224.424 181.612C224.424 181.464 224.544 181.344 224.692 181.344C224.84 181.344 224.96 181.464 224.96 181.612C224.96 181.76 224.84 181.88 224.692 181.88C224.544 181.88 224.424 181.76 224.424 181.612Z" fill="#4F5966"/>
</g>
<rect width="13.7263" height="5.14738" rx="1" transform="matrix(1 0 0 -1 240.163 183.317)" fill="#FFB65D"/>
<rect x="232.013" y="180.314" width="4.28948" height="0.857896" rx="0.428948" fill="#F0F2F5" stroke="#B9BEC5" stroke-width="0.857896"/>
<rect x="232.013" y="164.872" width="4.28948" height="0.857896" rx="0.428948" fill="#F0F2F5" stroke="#B9BEC5" stroke-width="0.857896"/>
<path fill-rule="evenodd" clip-rule="evenodd" d="M226.984 162.039C226.898 161.953 226.758 161.953 226.672 162.039L226.594 162.118L228.469 163.993L228.547 163.915C228.633 163.828 228.633 163.688 228.547 163.602L228 163.055L227.531 162.586L226.984 162.039ZM228.313 164.149L226.438 162.274L226.282 162.431L228.157 164.306L228.313 164.149ZM228.001 164.462L226.126 162.587L225.424 163.291C225.338 163.378 225.338 163.518 225.424 163.604L225.815 163.995L224.723 165.091C224.723 165.091 224.528 165.286 224.176 165.326C223.951 165.351 223.694 165.28 223.538 165.225C223.451 165.195 223.352 165.213 223.287 165.278L222.537 166.031C222.451 166.117 222.451 166.257 222.538 166.343L222.807 166.613C222.816 166.912 222.935 167.209 223.163 167.438C223.391 167.666 223.688 167.784 223.987 167.793L224.257 168.062C224.343 168.149 224.483 168.149 224.569 168.062L225.319 167.31C225.384 167.244 225.402 167.146 225.371 167.059C225.317 166.903 225.245 166.645 225.27 166.419C225.309 166.068 225.504 165.872 225.504 165.872L226.596 164.776L226.987 165.167C227.073 165.253 227.213 165.253 227.299 165.167L228.001 164.462ZM224.49 167.046C224.231 167.305 223.812 167.305 223.553 167.046C223.294 166.787 223.294 166.367 223.552 166.108C223.811 165.849 224.23 165.848 224.489 166.107C224.748 166.366 224.748 166.786 224.49 167.046Z" fill="#4F5966"/>
<rect width="13.7263" height="5.14738" rx="1" transform="matrix(1 0 0 -1 240.163 167.875)" fill="#25C286"/>
<rect x="222.576" y="147.714" width="13.7263" height="0.857896" rx="0.428948" fill="#F0F2F5" stroke="#B9BEC5" stroke-width="0.857896"/>
<rect x="222.577" y="151.146" width="6.00527" height="0.857896" rx="0.428948" fill="#F0F2F5" stroke="#B9BEC5" stroke-width="0.857896"/>
<rect width="13.7263" height="5.14738" rx="1" transform="matrix(1 0 0 -1 240.163 152.433)" fill="#FF8789"/>
<rect x="226.221" y="135.059" width="24.4527" height="4.72106" rx="2.36053" stroke="#4F5966" stroke-width="3"/>
<circle cx="259.141" cy="120.309" r="1.71579" fill="#25C286"/>
<circle cx="246.669" cy="127.824" r="2.57369" fill="#006CFA"/>
<circle cx="266.848" cy="144.578" r="1.71579" fill="#F52C2F"/>
<ellipse opacity="0.5" cx="258.179" cy="165.73" rx="9.43685" ry="9.00791" fill="white"/>
<path fill-rule="evenodd" clip-rule="evenodd" d="M265.9 165.718C265.9 169.982 262.443 173.439 258.179 173.439C253.915 173.439 250.458 169.982 250.458 165.718C250.458 161.453 253.915 157.997 258.179 157.997C262.443 157.997 265.9 161.453 265.9 165.718ZM266.394 171.924C267.699 170.198 268.474 168.048 268.474 165.718C268.474 160.032 263.865 155.423 258.179 155.423C252.493 155.423 247.884 160.032 247.884 165.718C247.884 171.403 252.493 176.012 258.179 176.012C260.606 176.012 262.837 175.172 264.597 173.767L270.15 179.32C270.653 179.822 271.467 179.822 271.97 179.32C272.473 178.817 272.473 178.002 271.97 177.5L266.394 171.924Z" fill="#4F5966"/>
<path d="M395.982 207.026L352.971 207.026L352.971 176.173L395.982 176.173L395.982 207.026Z" fill="#F5F9FF"/>
<path d="M363 158.593C363 156.384 364.791 154.593 367 154.593L380 154.593C382.209 154.593 384 156.384 384 158.593L384 171.593C384 173.802 382.209 175.593 380 175.593L367 175.593C364.791 175.593 363 173.802 363 171.593L363 158.593Z" fill="white" stroke="#4F5966" stroke-width="3"/>
<path d="M370 156.093L377 156.093L377 160.093C377 160.645 376.552 161.093 376 161.093L371 161.093C370.448 161.093 370 160.645 370 160.093L370 156.093Z" fill="#3690FF"/>
<path d="M349 185.593C349 183.384 350.791 181.593 353 181.593L366 181.593C368.209 181.593 370 183.384 370 185.593L370 198.593C370 200.802 368.209 202.593 366 202.593L353 202.593C350.791 202.593 349 200.802 349 198.593L349 185.593Z" fill="white" stroke="#4F5966" stroke-width="3"/>
<path d="M356 183.093L363 183.093L363 187.093C363 187.645 362.552 188.093 362 188.093L357 188.093C356.448 188.093 356 187.645 356 187.093L356 183.093Z" fill="#3690FF"/>
<path d="M377 185.593C377 183.384 378.791 181.593 381 181.593L394 181.593C396.209 181.593 398 183.384 398 185.593L398 198.593C398 200.802 396.209 202.593 394 202.593L381 202.593C378.791 202.593 377 200.802 377 198.593L377 185.593Z" fill="white" stroke="#4F5966" stroke-width="3"/>
<path d="M384 183.093L391 183.093L391 187.093C391 187.645 390.552 188.093 390 188.093L385 188.093C384.448 188.093 384 187.645 384 187.093L384 183.093Z" fill="#3690FF"/>
<circle cx="401.291" cy="160.834" r="1.53435" fill="#25C286"/>
<circle cx="388.103" cy="133.651" r="2.30152" fill="#006CFA"/>
<circle cx="353.667" cy="148.866" r="1.53435" fill="#F52C2F"/>
<g clip-path="url(#clip2)">
<path d="M412.943 307.716C412.943 307.164 412.495 306.716 411.943 306.716H373.829C373.276 306.716 372.829 307.164 372.829 307.716V334.463C372.829 335.015 373.276 335.463 373.829 335.463H405.011C405.213 335.463 405.41 335.524 405.577 335.638L411.377 339.616C412.041 340.071 412.943 339.596 412.943 338.791V307.716Z" fill="white"/>
<path d="M405.577 335.638L406.425 334.401L405.577 335.638ZM411.377 339.616L412.226 338.379L411.377 339.616ZM411.943 308.216H373.829V305.216H411.943V308.216ZM374.329 307.716V334.463H371.329V307.716H374.329ZM411.443 338.791V307.716H414.443V338.791H411.443ZM373.829 333.963H405.011V336.963H373.829V333.963ZM406.425 334.401L412.226 338.379L410.529 340.853L404.728 336.875L406.425 334.401ZM405.011 333.963C405.516 333.963 406.009 334.116 406.425 334.401L404.728 336.875C404.812 336.932 404.91 336.963 405.011 336.963V333.963ZM414.443 338.791C414.443 340.803 412.188 341.991 410.529 340.853L412.226 338.379C411.894 338.151 411.443 338.389 411.443 338.791H414.443ZM374.329 334.463C374.329 334.187 374.105 333.963 373.829 333.963V336.963C372.448 336.963 371.329 335.844 371.329 334.463H374.329ZM373.829 308.216C374.105 308.216 374.329 307.992 374.329 307.716H371.329C371.329 306.336 372.448 305.216 373.829 305.216V308.216ZM411.943 305.216C413.324 305.216 414.443 306.336 414.443 307.716H411.443C411.443 307.992 411.667 308.216 411.943 308.216V305.216Z" fill="#C2DEFF"/>
<rect x="407.743" y="299.155" width="11.8857" height="11.9467" rx="5.94286" fill="#25C286"/>
<g clip-path="url(#clip3)">
<path fill-rule="evenodd" clip-rule="evenodd" d="M416.934 302.505C417.222 302.762 417.248 303.204 416.992 303.493L413.278 307.693C413.15 307.837 412.969 307.922 412.778 307.928C412.586 307.933 412.4 307.859 412.265 307.723L410.408 305.856C410.136 305.583 410.136 305.14 410.408 304.866C410.68 304.593 411.121 304.593 411.392 304.866L412.727 306.208L415.951 302.563C416.206 302.274 416.647 302.248 416.934 302.505Z" fill="white"/>
</g>
<path d="M356.486 299.155L401.057 299.155V326.408H363.543L356.486 331.635V299.155Z" fill="white"/>
<path d="M356.486 299.155L356.486 297.655C355.657 297.655 354.986 298.326 354.986 299.155H356.486ZM401.057 299.155H402.557C402.557 298.757 402.399 298.375 402.118 298.094C401.836 297.813 401.455 297.655 401.057 297.655V299.155ZM401.057 326.408V327.908C401.885 327.908 402.557 327.237 402.557 326.408H401.057ZM356.486 331.635H354.986C354.986 332.201 355.305 332.72 355.811 332.974C356.317 333.229 356.923 333.177 357.378 332.84L356.486 331.635ZM363.543 326.408V324.908C363.221 324.908 362.908 325.011 362.65 325.203L363.543 326.408ZM356.486 300.655H401.057V297.655H356.486L356.486 300.655ZM399.557 299.155V326.408H402.557V299.155H399.557ZM357.986 331.635V299.155H354.986V331.635H357.986ZM401.057 324.908H363.543V327.908H401.057V324.908ZM362.65 325.203L355.593 330.429L357.378 332.84L364.435 327.614L362.65 325.203Z" fill="#4F5966"/>
<ellipse cx="409.228" cy="287.208" rx="1.48571" ry="1.49333" fill="#006CFA"/>
<ellipse cx="425.571" cy="329.768" rx="1.48571" ry="1.49333" fill="#F52C2F"/>
<ellipse cx="361.228" cy="291.141" rx="2.22857" ry="2.24" fill="#25C286"/>
<path d="M375.8 312.968C375.8 314.617 377.13 315.955 378.771 315.955C380.412 315.955 381.743 314.617 381.743 312.968C381.743 311.318 380.412 309.981 378.771 309.981C377.13 309.981 375.8 311.318 375.8 312.968Z" fill="#3690FF"/>
<path d="M386.943 312.968C386.943 314.617 388.273 315.955 389.914 315.955C391.555 315.955 392.885 314.617 392.885 312.968C392.885 311.318 391.555 309.981 389.914 309.981C388.273 309.981 386.943 311.318 386.943 312.968Z" fill="#25C286"/>
<path d="M364.657 312.968C364.657 314.617 365.987 315.955 367.628 315.955C369.269 315.955 370.6 314.617 370.6 312.968C370.6 311.318 369.269 309.981 367.628 309.981C365.987 309.981 364.657 311.318 364.657 312.968Z" fill="#FF8C00"/>
</g>
<path d="M322.004 56.0709C322.11 55.6755 322.516 55.4409 322.911 55.5468L342.813 60.8795L340.323 70.1723C340.218 70.5677 340.452 70.9741 340.848 71.08L349.581 73.4203L340.708 106.536C340.559 107.092 339.861 107.273 339.46 106.86L336.053 103.349C335.83 103.12 335.486 103.059 335.198 103.198L331.386 105.04C331.106 105.175 330.772 105.122 330.548 104.906L326.121 100.627C325.924 100.437 325.638 100.37 325.378 100.455L320.229 102.119C319.941 102.212 319.625 102.12 319.432 101.888L316.256 98.0727C316.055 97.8316 315.725 97.743 315.43 97.8514L311.645 99.2461C311.081 99.4539 310.517 98.9394 310.673 98.3589L322.004 56.0709Z" fill="white"/>
<path d="M322.003 56.0709C322.109 55.6755 322.516 55.4409 322.911 55.5468L342.813 60.8795L340.323 70.1723C340.217 70.5677 340.452 70.9741 340.847 71.08L349.581 73.4203L340.708 106.536C340.559 107.092 339.861 107.273 339.46 106.86L336.052 103.349C335.83 103.12 335.485 103.059 335.198 103.198L331.385 105.04C331.106 105.175 330.771 105.122 330.548 104.906L326.12 100.627C325.923 100.437 325.638 100.37 325.377 100.455L320.229 102.119C319.941 102.212 319.625 102.12 319.431 101.888L316.256 98.0727C316.055 97.8316 315.724 97.743 315.43 97.8514L311.644 99.2461C311.08 99.4539 310.517 98.9394 310.672 98.3589L322.003 56.0709Z" fill="white"/>
<path d="M342.813 60.8795L340.323 70.1723C340.217 70.5677 340.452 70.9741 340.847 71.08L349.581 73.4203L342.813 60.8795Z" fill="white"/>
<path d="M342.813 60.8795L322.911 55.5468C322.516 55.4409 322.109 55.6755 322.003 56.0709L310.672 98.3589C310.517 98.9394 311.08 99.4539 311.644 99.2461L315.43 97.8514C315.724 97.743 316.055 97.8316 316.256 98.0727L319.431 101.888C319.625 102.12 319.941 102.212 320.229 102.119L325.377 100.454C325.638 100.37 325.923 100.437 326.12 100.627L330.548 104.906C330.771 105.122 331.106 105.175 331.385 105.04L335.198 103.198C335.485 103.059 335.83 103.12 336.052 103.349L339.46 106.86C339.861 107.273 340.559 107.092 340.708 106.536L349.581 73.4203M342.813 60.8795L340.323 70.1723C340.217 70.5677 340.452 70.9741 340.847 71.08L349.581 73.4203M342.813 60.8795L349.581 73.4203" stroke="#4F5966" stroke-width="3"/>
<circle cx="355.041" cy="87.3549" r="2.22346" transform="rotate(-15 355.041 87.3549)" fill="#006CFA"/>
<circle cx="355.84" cy="62.8958" r="1.48231" transform="rotate(-15 355.84 62.8958)" fill="#F52C2F"/>
<circle cx="304.625" cy="80.6717" r="1.48231" transform="rotate(-15 304.625 80.6717)" fill="#25C286"/>
<g clip-path="url(#clip4)">
<path fill-rule="evenodd" clip-rule="evenodd" d="M332.137 75.5228C332.78 75.6949 333.161 76.3553 332.989 76.9978L332.841 77.551C334.27 78.2099 335.21 79.2736 335.596 80.5004C335.796 81.1349 335.443 81.8111 334.809 82.0108C334.174 82.2105 333.498 81.858 333.299 81.2236C333.106 80.6112 332.497 79.8496 331.08 79.4698C330.431 79.296 329.746 79.332 329.222 79.5318C328.708 79.7272 328.435 80.0343 328.341 80.3836C328.18 80.9855 328.31 81.3923 328.635 81.8104C329.023 82.3107 329.645 82.7638 330.467 83.3358C330.504 83.3617 330.542 83.3879 330.58 83.4144C331.304 83.9176 332.193 84.5353 332.818 85.2996C333.543 86.1868 333.962 87.328 333.585 88.7354C333.287 89.846 332.6 90.7626 331.516 91.2473C330.789 91.5721 329.964 91.6678 329.083 91.5765L328.937 92.1212C328.765 92.7637 328.104 93.145 327.462 92.9728C326.819 92.8007 326.438 92.1403 326.61 91.4978L326.756 90.9519C325.26 90.2807 324.389 89.2223 324.003 87.9952C323.803 87.3607 324.156 86.6845 324.79 86.4848C325.425 86.2851 326.101 86.6376 326.301 87.272C326.499 87.9012 327.005 88.6199 328.519 89.0258C329.52 89.2939 330.16 89.2147 330.532 89.0484C330.865 88.8995 331.121 88.6217 331.258 88.1119C331.398 87.5891 331.284 87.2291 330.953 86.8236C330.554 86.3353 329.924 85.893 329.091 85.3127L329.065 85.2945C328.315 84.7723 327.379 84.1208 326.732 83.287C326.013 82.3614 325.631 81.1907 326.015 79.7602C326.355 78.4892 327.316 77.6798 328.365 77.2806C329.033 77.0261 329.772 76.9205 330.506 76.9564L330.662 76.3744C330.834 75.7319 331.495 75.3506 332.137 75.5228Z" fill="#25C286"/>
</g>
<path d="M329.687 58.897C328.627 62.8508 324.563 65.1972 320.609 64.1378C316.656 63.0784 314.309 59.0144 315.369 55.0606C316.428 51.1068 320.492 48.7604 324.446 49.8198C328.4 50.8792 330.746 54.9432 329.687 58.897Z" fill="#006CFA"/>
<path d="M321.331 58.5929L319.899 58.2093C319.899 58.2093 319.733 57.3975 320.378 56.4195C321.024 55.4416 322.028 54.5596 322.028 54.5596C321.336 55.5753 321.103 56.1865 320.902 57.3273L321.618 57.5191L321.331 58.5929Z" fill="white"/>
<path d="M324.353 59.4028L322.921 59.0192C322.921 59.0192 322.755 58.2074 323.401 57.2294C324.047 56.2515 325.05 55.3695 325.05 55.3695C324.359 56.3852 324.126 56.9965 323.925 58.1372L324.641 58.329L324.353 59.4028Z" fill="white"/>
<path d="M321.331 58.5929L321.201 59.0759C321.468 59.1474 321.742 58.9891 321.814 58.7223L321.331 58.5929ZM319.899 58.2093L319.409 58.3095C319.447 58.495 319.586 58.6432 319.769 58.6922L319.899 58.2093ZM322.028 54.5596L322.441 54.8409C322.583 54.6327 322.547 54.3517 322.359 54.1849C322.17 54.0181 321.887 54.0177 321.698 54.184L322.028 54.5596ZM320.902 57.3273L320.41 57.2405C320.365 57.4958 320.523 57.7431 320.773 57.8102L320.902 57.3273ZM321.618 57.5191L322.101 57.6485C322.136 57.5204 322.118 57.3839 322.051 57.2691C321.985 57.1542 321.876 57.0704 321.748 57.0361L321.618 57.5191ZM324.353 59.4028L324.224 59.8858C324.491 59.9573 324.765 59.799 324.836 59.5323L324.353 59.4028ZM322.921 59.0192L322.432 59.1194C322.47 59.305 322.609 59.4531 322.792 59.5022L322.921 59.0192ZM325.05 55.3695L325.464 55.6508C325.605 55.4427 325.57 55.1616 325.381 54.9948C325.193 54.8281 324.909 54.8277 324.72 54.9939L325.05 55.3695ZM323.925 58.1372L323.433 58.0504C323.388 58.3057 323.545 58.553 323.796 58.6201L323.925 58.1372ZM324.641 58.329L325.124 58.4584C325.195 58.1917 325.037 57.9175 324.77 57.846L324.641 58.329ZM321.46 58.11L320.028 57.7263L319.769 58.6922L321.201 59.0759L321.46 58.11ZM319.899 58.2093C320.389 58.1091 320.389 58.1093 320.389 58.1095C320.389 58.1096 320.389 58.1098 320.389 58.11C320.389 58.1103 320.389 58.1106 320.389 58.1108C320.389 58.1114 320.389 58.1119 320.389 58.1123C320.389 58.1132 320.39 58.114 320.39 58.1145C320.39 58.1156 320.39 58.1159 320.39 58.1156C320.39 58.1148 320.389 58.1113 320.388 58.1051C320.387 58.0926 320.384 58.0696 320.382 58.0372C320.378 57.9723 320.377 57.8705 320.393 57.741C320.424 57.4836 320.52 57.1119 320.796 56.695L319.961 56.1441C319.591 56.7051 319.447 57.2283 319.4 57.6213C319.376 57.8169 319.377 57.9792 319.384 58.0971C319.387 58.1561 319.393 58.2041 319.397 58.2399C319.4 58.2578 319.402 58.2726 319.404 58.2843C319.405 58.2901 319.406 58.2951 319.407 58.2993C319.407 58.3015 319.408 58.3033 319.408 58.305C319.408 58.3059 319.408 58.3067 319.409 58.3074C319.409 58.3078 319.409 58.3082 319.409 58.3085C319.409 58.3087 319.409 58.3089 319.409 58.309C319.409 58.3093 319.409 58.3095 319.899 58.2093ZM320.796 56.695C321.094 56.2428 321.483 55.803 321.804 55.4705C321.964 55.3058 322.104 55.1705 322.203 55.0769C322.253 55.0302 322.293 54.9939 322.319 54.9698C322.332 54.9577 322.343 54.9487 322.349 54.9428C322.352 54.9399 322.355 54.9378 322.356 54.9365C322.357 54.9359 322.357 54.9354 322.358 54.9352C322.358 54.9351 322.358 54.935 322.358 54.935C322.358 54.935 322.358 54.935 322.358 54.935C322.358 54.9351 322.358 54.9351 322.358 54.9351C322.358 54.9351 322.358 54.9352 322.028 54.5596C321.698 54.184 321.698 54.184 321.698 54.1841C321.698 54.1841 321.697 54.1841 321.697 54.1842C321.697 54.1843 321.697 54.1843 321.697 54.1844C321.697 54.1847 321.697 54.1849 321.696 54.1852C321.696 54.1859 321.695 54.1867 321.693 54.1878C321.691 54.1899 321.688 54.1928 321.683 54.1966C321.675 54.2042 321.663 54.215 321.647 54.229C321.617 54.2569 321.573 54.2972 321.518 54.3484C321.409 54.4508 321.258 54.5971 321.086 54.7751C320.744 55.1282 320.308 55.6183 319.961 56.1441L320.796 56.695ZM321.614 54.2782C321.257 54.803 321.005 55.2425 320.817 55.71C320.629 56.1774 320.513 56.6531 320.41 57.2405L321.395 57.414C321.492 56.8607 321.593 56.4604 321.745 56.083C321.897 55.7058 322.107 55.3319 322.441 54.8409L321.614 54.2782ZM320.773 57.8102L321.489 58.002L321.748 57.0361L321.032 56.8443L320.773 57.8102ZM321.135 57.3897L320.848 58.4635L321.814 58.7223L322.101 57.6485L321.135 57.3897ZM324.483 58.9199L323.051 58.5362L322.792 59.5022L324.224 59.8858L324.483 58.9199ZM322.921 59.0192C323.411 58.919 323.411 58.9192 323.411 58.9194C323.411 58.9195 323.411 58.9198 323.411 58.9199C323.412 58.9202 323.412 58.9205 323.412 58.9208C323.412 58.9213 323.412 58.9218 323.412 58.9222C323.412 58.9231 323.412 58.9239 323.412 58.9244C323.413 58.9255 323.413 58.9258 323.413 58.9255C323.412 58.9247 323.412 58.9212 323.411 58.915C323.409 58.9025 323.407 58.8795 323.405 58.8471C323.401 58.7822 323.4 58.6804 323.416 58.5509C323.447 58.2935 323.543 57.9218 323.818 57.5049L322.984 56.954C322.613 57.515 322.47 58.0382 322.423 58.4312C322.399 58.6269 322.399 58.7891 322.406 58.907C322.41 58.966 322.415 59.014 322.42 59.0498C322.423 59.0677 322.425 59.0826 322.427 59.0942C322.428 59.1 322.429 59.1051 322.43 59.1093C322.43 59.1114 322.43 59.1133 322.431 59.115C322.431 59.1158 322.431 59.1166 322.431 59.1173C322.431 59.1177 322.431 59.1181 322.431 59.1184C322.431 59.1186 322.431 59.1188 322.431 59.1189C322.432 59.1192 322.432 59.1194 322.921 59.0192ZM323.818 57.5049C324.117 57.0527 324.505 56.6129 324.827 56.2804C324.987 56.1157 325.126 55.9804 325.226 55.8868C325.276 55.8401 325.315 55.8039 325.342 55.7797C325.355 55.7676 325.365 55.7586 325.372 55.7527C325.375 55.7498 325.377 55.7477 325.379 55.7464C325.38 55.7458 325.38 55.7453 325.38 55.7451C325.38 55.745 325.381 55.7449 325.381 55.7449C325.381 55.7449 325.381 55.7449 325.381 55.745C325.38 55.745 325.38 55.745 325.38 55.745C325.38 55.745 325.38 55.7451 325.05 55.3695C324.72 54.9939 324.72 54.9939 324.72 54.994C324.72 54.994 324.72 54.9941 324.72 54.9941C324.72 54.9942 324.72 54.9943 324.72 54.9944C324.72 54.9946 324.719 54.9948 324.719 54.9951C324.718 54.9958 324.717 54.9966 324.716 54.9977C324.714 54.9998 324.71 55.0027 324.706 55.0065C324.698 55.0141 324.685 55.0249 324.67 55.0389C324.639 55.0668 324.595 55.1071 324.541 55.1583C324.432 55.2607 324.281 55.4071 324.108 55.5851C323.767 55.9381 323.331 56.4283 322.984 56.954L323.818 57.5049ZM324.637 55.0881C324.28 55.6129 324.028 56.0524 323.84 56.52C323.652 56.9874 323.536 57.463 323.433 58.0504L324.418 58.2239C324.515 57.6706 324.616 57.2703 324.768 56.8929C324.919 56.5157 325.129 56.1418 325.464 55.6508L324.637 55.0881ZM323.796 58.6201L324.512 58.812L324.77 57.846L324.054 57.6542L323.796 58.6201ZM324.158 58.1996L323.87 59.2734L324.836 59.5323L325.124 58.4584L324.158 58.1996Z" fill="white"/>
<g clip-path="url(#clip5)">
<path fill-rule="evenodd" clip-rule="evenodd" d="M73.3682 176.24H121.413H73.3682Z" fill="white"/>
<path fill-rule="evenodd" clip-rule="evenodd" d="M110.732 176.243L123.043 150.135C123.795 148.628 123.5 146.809 122.309 145.618C121.118 144.428 119.299 144.132 117.792 144.884L107.874 155.895C106.108 156.776 103.962 156.206 102.867 154.564L100.242 144.518C99.5155 143.429 98.2932 142.775 96.9843 142.775C95.6754 142.775 94.4531 143.429 93.7269 144.518L91.0698 154.564C89.9766 156.208 87.8292 156.779 86.0637 155.895L76.1611 144.884C74.6539 144.135 72.8371 144.432 71.6466 145.622C70.456 146.811 70.1573 148.627 70.9044 150.135L84.4632 176.243" fill="white"/>
<path d="M73.3682 176.24H121.413M110.732 176.243L123.043 150.135C123.795 148.628 123.5 146.809 122.309 145.618C121.118 144.428 119.299 144.132 117.792 144.884L107.874 155.895C106.108 156.776 103.962 156.206 102.867 154.564L100.242 144.518C99.5155 143.429 98.2932 142.775 96.9843 142.775C95.6754 142.775 94.4531 143.429 93.7269 144.518L91.0698 154.564C89.9766 156.208 87.8292 156.779 86.0637 155.895L76.1611 144.884C74.6539 144.135 72.8371 144.432 71.6466 145.622C70.456 146.811 70.1573 148.627 70.9044 150.135L84.4632 176.243H110.732Z" stroke="#4F5966" stroke-width="3" stroke-linecap="round" stroke-linejoin="round"/>
<path d="M57.4129 204.933C57.4129 204.933 65.853 197.261 71.7987 191.059C80.4835 182 75.2396 176.593 96.827 176.593C118.414 176.593 113.775 182 122.201 191.059C128.053 197.349 136.587 204.933 136.587 204.933C143.769 214.247 145.023 226.823 139.822 237.366C134.62 247.91 123.867 254.589 112.089 254.593H81.9105C70.1326 254.589 59.3796 247.91 54.1784 237.366C48.9772 226.823 50.2314 214.247 57.4129 204.933Z" fill="white" stroke="#4F5966" stroke-width="3" stroke-linecap="round" stroke-linejoin="round"/>
<path fill-rule="evenodd" clip-rule="evenodd" d="M96.5872 192.216C97.9473 192.216 99.0499 193.319 99.0499 194.679V196.946C103.422 197.518 106.678 199.616 108.516 202.504C109.246 203.652 108.908 205.174 107.76 205.904C106.613 206.634 105.091 206.296 104.36 205.149C103.245 203.396 100.819 201.715 96.5872 201.715C94.5979 201.715 92.6494 202.339 91.2566 203.345C89.8845 204.336 89.199 205.564 89.199 206.875C89.199 208.866 89.9795 210.075 91.3033 211.08C92.7965 212.213 94.8815 213.005 97.4231 213.922C97.5297 213.961 97.6372 213.999 97.7456 214.038C100.035 214.863 102.712 215.827 104.798 217.329C107.162 219.03 108.901 221.51 108.901 225.17C108.901 228.093 107.823 230.743 105.528 232.608C103.825 233.992 101.618 234.808 99.0499 235.115V237.366C99.0499 238.727 97.9473 239.829 96.5872 239.829C95.227 239.829 94.1244 238.727 94.1244 237.366V235.113C89.5367 234.557 86.4967 232.43 84.6585 229.541C83.9283 228.394 84.2666 226.872 85.4141 226.141C86.5615 225.411 88.0837 225.749 88.814 226.897C89.9485 228.68 92.0671 230.33 96.5872 230.33C99.5267 230.33 101.365 229.644 102.422 228.785C103.411 227.982 103.975 226.821 103.975 225.17C103.975 223.382 103.252 222.284 101.921 221.326C100.413 220.241 98.3202 219.482 95.7512 218.555L95.7212 218.544C93.3436 217.686 90.5176 216.667 88.326 215.003C85.9557 213.205 84.2735 210.621 84.2735 206.875C84.2735 203.613 86.0507 201.03 88.3727 199.352C90.029 198.156 92.0353 197.355 94.1244 196.999V194.679C94.1244 193.319 95.227 192.216 96.5872 192.216Z" fill="#25C286"/>
<circle cx="132" cy="136.756" r="2" fill="#006CFA"/>
<circle cx="147" cy="175.756" r="2" fill="#F52C2F"/>
<circle cx="38" cy="198.756" r="3" fill="#25C286"/>
<circle cx="16" cy="224.756" r="3" fill="#F52C2F"/>
<circle cx="150.573" cy="152.706" r="5.5" transform="rotate(-15 150.573 152.706)" stroke="#25C286" stroke-width="3"/>
<circle cx="44.1237" cy="247.879" r="3.5" transform="rotate(-15 44.1237 247.879)" stroke="#006CFA" stroke-width="3"/>
</g>
<path d="M227.69 253.426L221.029 260.087C221.029 260.087 221.029 260.087 221.029 260.087C221.029 260.088 219.213 261.904 222.24 264.931C225.267 267.959 227.084 266.143 227.085 266.142C227.085 266.142 227.085 266.142 227.085 266.142L233.745 259.482C233.745 259.482 238.015 264.9 230.112 272.803C226.902 276.014 222.668 275.39 220.47 274.752C219.588 274.496 218.598 274.717 218.012 275.424C215.157 278.868 206.75 288.899 201.046 294.603C197.413 298.236 194.194 295.622 192.872 294.3C191.55 292.978 188.936 289.758 192.569 286.125C197.57 281.124 208.211 272.136 211.764 269.157C212.464 268.571 212.678 267.589 212.423 266.712C211.784 264.517 211.153 260.275 214.368 257.06C222.271 249.157 227.69 253.426 227.69 253.426Z" fill="white"/>
<path d="M227.69 253.426L228.751 254.487C229.054 254.184 229.213 253.766 229.187 253.338C229.162 252.91 228.955 252.513 228.618 252.248L227.69 253.426ZM233.745 259.482L234.924 258.553C234.658 258.217 234.262 258.009 233.834 257.984C233.406 257.959 232.988 258.118 232.685 258.421L233.745 259.482ZM221.029 260.087L222.09 261.148L221.029 260.087ZM212.423 266.712L213.863 266.293L212.423 266.712ZM227.085 266.142L226.024 265.082L227.085 266.142ZM218.012 275.424L216.858 274.467L218.012 275.424ZM220.47 274.752L220.888 273.312L220.47 274.752ZM216.858 274.467C213.994 277.92 205.631 287.896 199.986 293.542L202.107 295.663C207.869 289.902 216.319 279.815 219.167 276.382L216.858 274.467ZM193.63 287.186C198.574 282.241 209.158 273.299 212.728 270.307L210.801 268.008C207.264 270.972 196.566 280.007 191.508 285.065L193.63 287.186ZM213.863 266.293C213.262 264.229 212.823 260.726 215.429 258.12L213.308 255.999C209.483 259.824 210.305 264.805 210.982 267.131L213.863 266.293ZM215.429 258.12C219.148 254.401 222.094 253.716 223.942 253.778C224.893 253.811 225.63 254.043 226.118 254.256C226.362 254.363 226.542 254.465 226.652 254.533C226.707 254.568 226.744 254.593 226.763 254.606C226.772 254.613 226.777 254.616 226.777 254.616C226.777 254.616 226.775 254.615 226.773 254.613C226.772 254.612 226.77 254.611 226.768 254.609C226.767 254.609 226.766 254.608 226.765 254.607C226.765 254.607 226.764 254.606 226.764 254.606C226.763 254.605 226.762 254.604 227.69 253.426C228.618 252.248 228.617 252.247 228.617 252.246C228.616 252.246 228.615 252.245 228.614 252.245C228.613 252.244 228.612 252.243 228.61 252.241C228.607 252.239 228.603 252.236 228.599 252.233C228.592 252.227 228.582 252.22 228.572 252.212C228.551 252.197 228.524 252.177 228.492 252.154C228.427 252.109 228.34 252.05 228.232 251.983C228.015 251.849 227.71 251.679 227.322 251.509C226.547 251.169 225.435 250.827 224.044 250.78C221.207 250.684 217.492 251.815 213.308 255.999L215.429 258.12ZM233.745 259.482C232.567 260.41 232.567 260.409 232.566 260.408C232.566 260.408 232.565 260.407 232.565 260.406C232.564 260.405 232.563 260.404 232.562 260.403C232.561 260.402 232.56 260.4 232.559 260.399C232.557 260.396 232.556 260.395 232.556 260.395C232.556 260.395 232.559 260.399 232.566 260.409C232.579 260.427 232.604 260.465 232.638 260.52C232.707 260.63 232.808 260.81 232.915 261.054C233.129 261.541 233.361 262.279 233.393 263.23C233.456 265.078 232.77 268.024 229.052 271.743L231.173 273.864C235.357 269.68 236.488 265.965 236.392 263.128C236.344 261.736 236.003 260.625 235.663 259.85C235.493 259.462 235.323 259.157 235.189 258.94C235.122 258.832 235.063 258.745 235.017 258.68C234.995 258.648 234.975 258.621 234.959 258.6C234.951 258.589 234.944 258.58 234.938 258.572C234.935 258.568 234.933 258.565 234.93 258.562C234.929 258.56 234.928 258.559 234.927 258.557C234.926 258.556 234.925 258.555 234.925 258.555C234.924 258.554 234.924 258.553 233.745 259.482ZM229.052 271.743C226.45 274.344 222.954 273.911 220.888 273.312L220.052 276.193C222.382 276.869 227.354 277.683 231.173 273.864L229.052 271.743ZM221.18 265.992C222.913 267.725 224.538 268.293 225.933 268.166C227.26 268.046 228.024 267.325 228.145 267.203L226.024 265.082C226.145 264.961 226 265.148 225.662 265.179C225.391 265.203 224.595 265.165 223.301 263.871L221.18 265.992ZM228.145 267.203L234.806 260.542L232.685 258.421L226.024 265.082L228.145 267.203ZM226.629 252.366L219.969 259.026L222.09 261.148L228.751 254.487L226.629 252.366ZM219.968 259.027C219.847 259.148 219.126 259.912 219.005 261.239C218.879 262.633 219.447 264.259 221.18 265.992L223.301 263.871C222.007 262.577 221.969 261.781 221.993 261.51C222.024 261.171 222.211 261.027 222.09 261.148L219.968 259.027ZM199.986 293.542C198.513 295.015 197.334 295.079 196.464 294.856C195.444 294.595 194.545 293.852 193.932 293.239L191.811 295.361C192.52 296.07 193.893 297.295 195.72 297.763C197.699 298.269 199.947 297.824 202.107 295.663L199.986 293.542ZM193.932 293.239C193.32 292.626 192.577 291.728 192.315 290.707C192.093 289.837 192.157 288.659 193.63 287.186L191.508 285.065C189.348 287.225 188.903 289.473 189.409 291.451C189.877 293.279 191.102 294.651 191.811 295.361L193.932 293.239ZM219.969 259.026L219.968 259.027L222.09 261.148L222.09 261.148L219.969 259.026ZM212.728 270.307C213.965 269.27 214.252 267.632 213.863 266.293L210.982 267.131C211.103 267.546 210.964 267.871 210.801 268.008L212.728 270.307ZM228.145 267.203L228.145 267.203L226.024 265.082L226.024 265.082L228.145 267.203ZM219.167 276.382C219.306 276.214 219.638 276.073 220.052 276.193L220.888 273.312C219.538 272.92 217.891 273.221 216.858 274.467L219.167 276.382Z" fill="#4F5966"/>
<rect x="197.11" y="288.858" width="1.71271" height="1.71271" rx="0.856357" transform="rotate(45 197.11 288.858)" fill="#006CFA" stroke="#006CFA" stroke-width="1.71271"/>
<path d="M189.711 259.046C189.119 258.25 189.2 257.14 189.902 256.439L192 254.34C192.702 253.638 193.812 253.557 194.608 254.149L198.778 257.25C199.007 257.42 199.197 257.638 199.335 257.888L201.79 262.333C201.88 262.497 201.994 262.647 202.126 262.78L215.901 276.555C216.682 277.336 216.682 278.602 215.901 279.383L214.945 280.34C214.164 281.121 212.898 281.121 212.117 280.34L198.342 266.565C198.209 266.432 198.058 266.319 197.894 266.228L193.45 263.774C193.2 263.635 192.982 263.445 192.812 263.216L189.711 259.046Z" fill="white"/>
<path d="M198.778 257.25L199.673 256.046L198.778 257.25ZM199.335 257.888L198.022 258.613L199.335 257.888ZM201.79 262.333L200.477 263.058L201.79 262.333ZM190.962 257.499L193.061 255.401L190.94 253.279L188.841 255.378L190.962 257.499ZM214.841 278.323L213.885 279.279L216.006 281.4L216.962 280.444L214.841 278.323ZM201.066 263.841L214.841 277.616L216.962 275.494L203.187 261.719L201.066 263.841ZM213.177 279.279L199.402 265.504L197.281 267.625L211.056 281.4L213.177 279.279ZM198.619 264.915L194.175 262.461L192.725 265.087L197.169 267.541L198.619 264.915ZM194.015 262.321L190.915 258.151L188.507 259.941L191.608 264.111L194.015 262.321ZM193.713 255.353L197.883 258.454L199.673 256.046L195.503 252.946L193.713 255.353ZM198.022 258.613L200.477 263.058L203.103 261.607L200.648 257.163L198.022 258.613ZM197.883 258.454C197.94 258.496 197.988 258.551 198.022 258.613L200.648 257.163C200.407 256.725 200.074 256.345 199.673 256.046L197.883 258.454ZM194.175 262.461C194.112 262.426 194.058 262.378 194.015 262.321L191.608 264.111C191.906 264.512 192.287 264.845 192.725 265.087L194.175 262.461ZM199.402 265.504C199.17 265.272 198.907 265.074 198.619 264.915L197.169 267.541C197.21 267.564 197.248 267.592 197.281 267.625L199.402 265.504ZM203.187 261.719C203.154 261.686 203.125 261.648 203.103 261.607L200.477 263.058C200.635 263.345 200.834 263.609 201.066 263.841L203.187 261.719ZM213.885 279.279C213.689 279.474 213.373 279.474 213.177 279.279L211.056 281.4C212.423 282.767 214.639 282.767 216.006 281.4L213.885 279.279ZM216.962 280.444C218.329 279.077 218.329 276.861 216.962 275.494L214.841 277.616C215.036 277.811 215.036 278.128 214.841 278.323L216.962 280.444ZM193.061 255.401C193.236 255.225 193.514 255.205 193.713 255.353L195.503 252.946C194.11 251.91 192.167 252.052 190.94 253.279L193.061 255.401ZM188.841 255.378C187.613 256.606 187.471 258.548 188.507 259.941L190.915 258.151C190.767 257.952 190.787 257.675 190.962 257.499L188.841 255.378Z" fill="#4F5966"/>
<rect x="210.83" y="283.746" width="11.989" height="21.4089" rx="2" transform="rotate(-45 210.83 283.746)" fill="white" stroke="#4F5966" stroke-width="3"/>
<rect x="216.634" y="284.1" width="0.856357" height="11.989" rx="0.428179" transform="rotate(-45 216.634 284.1)" fill="white" stroke="#006CFA" stroke-width="0.856357"/>
<rect x="219.057" y="281.678" width="0.856357" height="11.989" rx="0.428179" transform="rotate(-45 219.057 281.678)" fill="white" stroke="#006CFA" stroke-width="0.856357"/>
<circle cx="220.967" cy="238.305" r="1.71271" fill="#006CFA"/>
<circle cx="190.138" cy="246.013" r="2.56907" fill="#25C286"/>
<circle cx="241.52" cy="258.858" r="1.71271" fill="#F52C2F"/>
<defs>
<clipPath id="clip0">
<rect width="435" height="319" fill="white" transform="translate(12 20.5928)"/>
</clipPath>
<clipPath id="clip1">
<rect width="6.86317" height="6.86317" fill="white" transform="translate(221.26 177.322)"/>
</clipPath>
<clipPath id="clip2">
<rect width="78" height="56" fill="white" transform="translate(355 285.593)"/>
</clipPath>
<clipPath id="clip3">
<rect width="7.42857" height="7.46667" fill="white" transform="translate(409.971 301.395)"/>
</clipPath>
<clipPath id="clip4">
<rect width="19.27" height="19.27" fill="white" transform="translate(322.987 72.4473) rotate(15)"/>
</clipPath>
<clipPath id="clip5">
<rect width="147" height="122" fill="white" transform="translate(13 134.593)"/>
</clipPath>
</defs>
</svg>
