<?xml version="1.0" encoding="UTF-8"?>
<svg width="88px" height="80px" viewBox="0 0 88 80" version="1.1" xmlns="http://www.w3.org/2000/svg" xmlns:xlink="http://www.w3.org/1999/xlink">
    <!-- Generator: Sketch 52.5 (67469) - http://www.bohemiancoding.com/sketch -->
    <title>Group 18</title>
    <desc>Created with Sketch.</desc>
    <g id="illustration---2019" stroke="none" stroke-width="1" fill="none" fill-rule="evenodd">
        <g id="Artboard" transform="translate(-1026.000000, -775.000000)">
            <g id="Group-18" transform="translate(1026.043003, 775.762831)">
                <g id="Group-8" fill-rule="nonzero">
                    <circle id="Oval" stroke="#666E78" stroke-width="3" fill="#FFFFFF" cx="49.0999991" cy="42.0999991" r="35.0999991"></circle>
                    <circle id="Oval-2-Copy-9" fill="#25C286" cx="3.37646903" cy="29.1634691" r="3"></circle>
                    <circle id="Oval-2-Copy-6" fill="#006CFA" cx="85" cy="9" r="2"></circle>
                    <circle id="Oval-2-Copy-7" fill="#F82722" cx="32.6034995" cy="1.5" r="1.5"></circle>
                    <path d="M40.1209295,37.2023248 C40.1209295,34.9482324 38.2936266,33.1209295 36.0395343,33.1209295 C33.785442,33.1209295 31.9581391,34.9482324 31.9581391,37.2023248" id="Oval-30" stroke="#666E78" stroke-width="2" stroke-linecap="round" stroke-linejoin="round"></path>
                    <path d="M66.2418591,37.2023248 C66.2418591,34.9482324 64.4145562,33.1209295 62.1604638,33.1209295 C59.9063715,33.1209295 58.0790686,34.9482324 58.0790686,37.2023248" id="Oval-30-Copy" stroke="#666E78" stroke-width="2" stroke-linecap="round" stroke-linejoin="round"></path>
                    <path d="M38.2120496,57.2263515 C41.0122353,59.9869782 44.8571548,61.6906962 49.0999991,61.6906962 C53.4877453,61.6906962 57.4499229,59.86862 60.2711638,56.9398355" id="Oval-31" stroke="#006CFA" stroke-width="2" stroke-linecap="round" stroke-linejoin="round"></path>
                </g>
                <g id="Group-16" transform="translate(31.958139, 33.120930)"></g>
            </g>
        </g>
    </g>
</svg>