<svg id="Layer_1" data-name="Layer 1" xmlns="http://www.w3.org/2000/svg" viewBox="0 0 70 70"><defs><style>.cls-1{fill:none;stroke:#dcdfe3;stroke-width:2px;stroke-dasharray:6 10;}.cls-1,.cls-5{stroke-linecap:round;stroke-linejoin:round;}.cls-2,.cls-6{fill:#25c286;}.cls-3{fill:#006cfa;}.cls-4{fill:#f52c2f;}.cls-5{fill:#fff;stroke:#4f5966;stroke-width:3px;}.cls-6{stroke:#25c286;stroke-width:0.5px;fill-rule:evenodd;}</style></defs><path class="cls-1" d="M58.51,25.94A25.61,25.61,0,1,1,24.59,13.25,25.6,25.6,0,0,1,58.51,25.94Z"/><circle class="cls-2" cx="3.71" cy="43.52" r="2.25"/><circle class="cls-3" cx="58.16" cy="61.15" r="2.7"/><circle class="cls-4" cx="67.31" cy="43.31" r="1.23"/><path class="cls-5" d="M34.66,6.27a2.4,2.4,0,0,1,1.5,0L54,12.48a2.29,2.29,0,0,1,1.54,2.16V26.77a29.75,29.75,0,0,1-17.35,27l-1.86.85a2.25,2.25,0,0,1-1.9,0l-1.86-.85a29.75,29.75,0,0,1-17.35-27V14.64a2.29,2.29,0,0,1,1.54-2.16Z"/><path class="cls-6" d="M31.79,21.32a3.38,3.38,0,0,1,3.62-3.18A3.38,3.38,0,0,1,39,21.32V25.2H31.79ZM29.38,25.2V21.32a5.76,5.76,0,0,1,6-5.54,5.76,5.76,0,0,1,6,5.54V25.2h.4a3.17,3.17,0,0,1,3.21,3.14v7.84a3.17,3.17,0,0,1-3.21,3.14H29a3.17,3.17,0,0,1-3.21-3.14V28.34A3.17,3.17,0,0,1,29,25.2Zm-1.2,3.14a.79.79,0,0,1,.8-.79H41.84a.79.79,0,0,1,.8.79v7.84a.79.79,0,0,1-.8.79H29a.79.79,0,0,1-.8-.79Z"/></svg>