<svg width="373" height="373" viewBox="0 0 373 373" fill="none" xmlns="http://www.w3.org/2000/svg">
<path opacity="0.75" d="M286.585 97.5998C232.381 65.1539 187.549 68.071 143.323 77.9351C99.0978 87.7992 1.85365 138.511 8.26943 227.27C14.6852 316.029 86.9915 352.254 142.431 298.732C197.87 245.211 194.098 253.936 267.535 256.461C340.971 258.986 363.211 228.876 367.665 197.314C372.118 165.752 340.79 130.046 286.585 97.5998Z" fill="#EBF4FF"/>
<circle cx="254.5" cy="111.5" r="39.5" stroke="#B9BEC5" stroke-width="2" stroke-linecap="round" stroke-dasharray="8 10"/>
<circle cx="110" cy="203" r="71" stroke="#B9BEC5" stroke-width="2" stroke-linecap="round" stroke-dasharray="8 10"/>
<path d="M231.5 214.5L255.742 206.978C281.851 198.878 296.614 171.311 288.886 145.09L286.176 135.893" stroke="#B9BEC5" stroke-width="2" stroke-linecap="round" stroke-dasharray="8 10"/>
<mask id="path-5-outside-1" maskUnits="userSpaceOnUse" x="52.127" y="3.33496" width="251" height="366" fill="black">
<rect fill="white" x="52.127" y="3.33496" width="251" height="366"/>
<path fill-rule="evenodd" clip-rule="evenodd" d="M68.8636 39.8174C59.7439 42.2151 54.2946 51.5517 56.6923 60.6714L133.445 352.603C135.843 361.722 145.179 367.172 154.299 364.774L275.697 332.857C284.792 330.466 290.237 321.172 287.887 312.075L292.722 310.804C297.529 309.54 300.402 304.618 299.138 299.811L226.416 23.211C225.152 18.4038 220.231 15.5314 215.423 16.7953L210.588 18.0666C210.548 18.0772 210.508 18.088 210.468 18.0991C207.33 10.1846 198.702 5.68099 190.261 7.90032L68.8636 39.8174Z"/>
</mask>
<path fill-rule="evenodd" clip-rule="evenodd" d="M68.8636 39.8174C59.7439 42.2151 54.2946 51.5517 56.6923 60.6714L133.445 352.603C135.843 361.722 145.179 367.172 154.299 364.774L275.697 332.857C284.792 330.466 290.237 321.172 287.887 312.075L292.722 310.804C297.529 309.54 300.402 304.618 299.138 299.811L226.416 23.211C225.152 18.4038 220.231 15.5314 215.423 16.7953L210.588 18.0666C210.548 18.0772 210.508 18.088 210.468 18.0991C207.33 10.1846 198.702 5.68099 190.261 7.90032L68.8636 39.8174Z" fill="#DCDFE3"/>
<path d="M56.6923 60.6714L53.7909 61.4342L53.7909 61.4342L56.6923 60.6714ZM68.8636 39.8174L69.6264 42.7188L68.8636 39.8174ZM133.445 352.603L136.346 351.84L133.445 352.603ZM154.299 364.774L155.062 367.675L154.299 364.774ZM275.697 332.857L276.459 335.758L275.697 332.857ZM287.887 312.075L287.124 309.174L284.235 309.933L284.982 312.825L287.887 312.075ZM292.722 310.804L293.485 313.705L292.722 310.804ZM299.138 299.811L302.039 299.048L299.138 299.811ZM226.416 23.211L223.515 23.9738V23.9738L226.416 23.211ZM215.423 16.7953L216.186 19.6967L215.423 16.7953ZM210.588 18.0666L211.351 20.968L211.351 20.968L210.588 18.0666ZM210.468 18.0991L207.679 19.2049L208.673 21.7105L211.27 20.9899L210.468 18.0991ZM190.261 7.90032L189.498 4.99892L190.261 7.90032ZM59.5937 59.9086C57.6173 52.3913 62.1091 44.6952 69.6264 42.7188L68.1007 36.916C57.3787 39.735 50.9719 50.7122 53.7909 61.4342L59.5937 59.9086ZM136.346 351.84L59.5937 59.9086L53.7909 61.4342L130.544 353.366L136.346 351.84ZM153.536 361.873C146.019 363.849 138.323 359.357 136.346 351.84L130.544 353.366C133.363 364.088 144.34 370.494 155.062 367.675L153.536 361.873ZM274.934 329.956L153.536 361.873L155.062 367.675L276.459 335.758L274.934 329.956ZM284.982 312.825C286.919 320.323 282.431 327.984 274.934 329.956L276.459 335.758C287.153 332.947 293.554 322.02 290.791 311.325L284.982 312.825ZM291.959 307.902L287.124 309.174L288.649 314.976L293.485 313.705L291.959 307.902ZM296.237 300.574C297.079 303.779 295.164 307.06 291.959 307.902L293.485 313.705C299.895 312.02 303.725 305.458 302.039 299.048L296.237 300.574ZM223.515 23.9738L296.237 300.574L302.039 299.048L229.318 22.4482L223.515 23.9738ZM216.186 19.6967C219.391 18.8541 222.672 20.769 223.515 23.9738L229.318 22.4482C227.632 16.0386 221.07 12.2087 214.661 13.8939L216.186 19.6967ZM211.351 20.968L216.186 19.6967L214.661 13.8939L209.825 15.1652L211.351 20.968ZM211.27 20.9899C211.297 20.9824 211.324 20.9751 211.351 20.968L209.825 15.1652C209.772 15.1792 209.719 15.1936 209.666 15.2083L211.27 20.9899ZM191.024 10.8017C197.98 8.9729 205.093 12.6839 207.679 19.2049L213.257 16.9933C209.566 7.68526 199.425 2.38907 189.498 4.99892L191.024 10.8017ZM69.6264 42.7188L191.024 10.8017L189.498 4.99892L68.1007 36.916L69.6264 42.7188Z" fill="#4F5966" mask="url(#path-5-outside-1)"/>
<rect x="63.1719" y="49.1016" width="140.859" height="185.678" rx="11.7383" transform="rotate(-14.7305 63.1719 49.1016)" fill="#B9BEC5"/>
<rect x="85.8711" y="64.0977" width="103.51" height="144.06" rx="3.20134" transform="rotate(-14.7305 85.8711 64.0977)" fill="#0D4FA6"/>
<rect x="123.199" y="239.651" width="36.2819" height="19.2081" rx="9.60403" transform="rotate(-14.7305 123.199 239.651)" fill="#B9BEC5"/>
<rect x="129.982" y="265.452" width="36.2819" height="19.2081" rx="9.60403" transform="rotate(-14.7305 129.982 265.452)" fill="#B9BEC5"/>
<rect x="136.766" y="291.253" width="36.2819" height="19.2081" rx="9.60403" transform="rotate(-14.7305 136.766 291.253)" fill="#B9BEC5"/>
<rect x="143.551" y="317.055" width="36.2819" height="19.2081" rx="9.60403" transform="rotate(-14.7305 143.551 317.055)" fill="#F95D5F"/>
<rect x="164.48" y="228.798" width="36.2819" height="19.2081" rx="9.60403" transform="rotate(-14.7305 164.48 228.798)" fill="#B9BEC5"/>
<rect x="171.266" y="254.599" width="36.2819" height="19.2081" rx="9.60403" transform="rotate(-14.7305 171.266 254.599)" fill="#B9BEC5"/>
<rect x="178.049" y="280.399" width="36.2819" height="19.2081" rx="9.60403" transform="rotate(-14.7305 178.049 280.399)" fill="#B9BEC5"/>
<rect x="184.832" y="306.201" width="36.2819" height="19.2081" rx="9.60403" transform="rotate(-14.7305 184.832 306.201)" fill="#FFB65D"/>
<rect x="205.762" y="217.944" width="36.2819" height="19.2081" rx="9.60403" transform="rotate(-14.7305 205.762 217.944)" fill="#B9BEC5"/>
<rect x="212.547" y="243.745" width="36.2819" height="19.2081" rx="9.60403" transform="rotate(-14.7305 212.547 243.745)" fill="#B9BEC5"/>
<rect x="219.33" y="269.546" width="36.2819" height="19.2081" rx="9.60403" transform="rotate(-14.7305 219.33 269.546)" fill="#B9BEC5"/>
<rect x="226.113" y="295.348" width="36.2819" height="19.2081" rx="9.60403" transform="rotate(-14.7305 226.113 295.348)" fill="#25C286"/>
<rect x="211.605" y="21.9355" width="4" height="295" rx="2" transform="rotate(-14.7305 211.605 21.9355)" fill="#9AA1AA"/>
<rect x="97.4336" y="47.8164" width="71" height="6" rx="3" transform="rotate(-14.7305 97.4336 47.8164)" fill="#DCDFE3"/>
<circle cx="245.897" cy="299.85" r="4.5" transform="rotate(-14.7305 245.897 299.85)" stroke="white" stroke-width="2"/>
<circle cx="254.5" cy="111.5" r="30.5" fill="#25C286"/>
<g clip-path="url(#clip0)">
<path fill-rule="evenodd" clip-rule="evenodd" d="M240.93 100.191H268.069C269.318 100.191 270.331 101.204 270.331 102.453V120.546C270.331 121.795 269.318 122.808 268.069 122.808H240.93C239.68 122.808 238.668 121.795 238.668 120.546V102.453C238.668 101.204 239.68 100.191 240.93 100.191ZM236.406 102.453C236.406 99.9548 238.431 97.9297 240.93 97.9297H268.069C270.568 97.9297 272.593 99.9548 272.593 102.453V120.546C272.593 123.044 270.568 125.07 268.069 125.07H240.93C238.431 125.07 236.406 123.044 236.406 120.546V102.453ZM243.191 106.976C241.942 106.976 240.93 107.989 240.93 109.238C240.93 110.487 241.942 111.5 243.191 111.5H245.453C246.702 111.5 247.715 110.487 247.715 109.238C247.715 107.989 246.702 106.976 245.453 106.976H243.191ZM240.93 117.154C240.93 116.529 241.436 116.023 242.06 116.023H246.584C247.208 116.023 247.715 116.529 247.715 117.154C247.715 117.778 247.208 118.285 246.584 118.285H242.06C241.436 118.285 240.93 117.778 240.93 117.154ZM249.976 117.154C249.976 116.529 250.482 116.023 251.107 116.023H266.939C267.563 116.023 268.069 116.529 268.069 117.154C268.069 117.778 267.563 118.285 266.939 118.285H251.107C250.482 118.285 249.976 117.778 249.976 117.154Z" fill="white"/>
</g>
<circle cx="303" cy="177" r="2" fill="#25C286"/>
<circle cx="60" cy="135" r="3" fill="#25C286"/>
<circle cx="66" cy="236" r="3" fill="#F52C2F"/>
<circle cx="307.573" cy="157.573" r="5.5" transform="rotate(-15 307.573 157.573)" stroke="#006CFA" stroke-width="3"/>
<circle cx="51.1237" cy="205.123" r="3.5" transform="rotate(-15 51.1237 205.123)" stroke="#006CFA" stroke-width="3"/>
<path fill-rule="evenodd" clip-rule="evenodd" d="M58.5 230C58.5 235.799 53.799 240.5 48 240.5C42.201 240.5 37.5 235.799 37.5 230C37.5 224.201 42.201 219.5 48 219.5C53.799 219.5 58.5 224.201 58.5 230ZM49.3594 223.953C49.3594 223.332 48.8557 222.828 48.2344 222.828C47.6131 222.828 47.1094 223.332 47.1094 223.953V224.392C46.5877 224.538 46.0873 224.782 45.6579 225.108C44.9145 225.673 44.2969 226.562 44.2969 227.703C44.2969 227.963 44.3368 228.206 44.3951 228.424C44.6312 229.307 45.2134 229.912 45.8235 230.318C46.4224 230.715 47.1068 230.962 47.6909 231.129C48.1828 231.269 48.6129 231.439 48.9318 231.651C49.2395 231.855 49.3783 232.053 49.4312 232.251C49.4484 232.315 49.4531 232.361 49.4531 232.391C49.4531 233.103 48.9784 233.609 48.2344 233.609C47.0949 233.609 46.6397 233.248 46.4281 232.825C46.1502 232.269 45.4745 232.044 44.9188 232.322C44.363 232.6 44.1378 233.276 44.4156 233.831C44.9703 234.941 45.9457 235.539 47.1094 235.759V236.04C47.1094 236.661 47.6131 237.165 48.2344 237.165C48.8557 237.165 49.3594 236.661 49.3594 236.04V235.687C50.7813 235.231 51.7031 233.917 51.7031 232.391C51.7031 232.131 51.6632 231.888 51.6049 231.67C51.3688 230.786 50.7866 230.181 50.1765 229.776C49.5776 229.378 48.8932 229.132 48.3091 228.965C47.8172 228.825 47.3871 228.655 47.0682 228.443C46.7605 228.239 46.6217 228.041 46.5688 227.843C46.5516 227.779 46.5469 227.733 46.5469 227.703C46.5469 227.438 46.6826 227.155 47.019 226.9C47.3648 226.637 47.8292 226.484 48.2344 226.484C48.6224 226.484 48.9888 226.627 49.2551 226.811C49.363 226.886 49.436 226.955 49.4782 227.003C49.5872 227.51 50.0382 227.891 50.5781 227.891C51.1994 227.891 51.7031 227.387 51.7031 226.766C51.7031 226.281 51.4626 225.891 51.2889 225.664C51.0884 225.402 50.8271 225.163 50.5368 224.962C50.2097 224.735 49.8104 224.533 49.3594 224.399V223.953Z" fill="#25C286"/>
<g clip-path="url(#clip1)">
<path d="M139.889 123.511L140.725 126.632C140.797 126.901 141.014 127.117 141.296 127.2L143.848 127.886L141.973 120.89L140.107 122.76C139.896 122.946 139.817 123.241 139.889 123.511ZM168.906 115.029L166.354 114.343L168.229 121.339L170.096 119.469C170.302 119.269 170.382 118.974 170.306 118.691L169.47 115.57C169.402 115.314 169.185 115.098 168.906 115.029ZM170.582 110.989L167.442 110.157L166.977 110.037L165.171 103.296C164.839 102.058 163.558 101.32 162.319 101.652C161.928 101.757 161.566 101.969 161.28 102.248L159.682 103.829L158.657 104.854L158.282 103.455L157.691 101.248C157.529 100.643 157.114 100.119 156.571 99.8176C156.045 99.5259 155.432 99.4451 154.839 99.604C154.475 99.7014 154.137 99.8931 153.86 100.155L139.988 113.101C139.065 113.968 138.7 115.249 139.028 116.473L139.292 117.455L138.949 117.792L136.632 120.086C135.63 121.09 135.228 122.553 135.596 123.925L136.858 128.635C137.226 130.007 138.305 131.073 139.675 131.442L142.818 132.287L143.283 132.407L143.406 132.865C143.748 134.085 144.711 135.039 145.941 135.372L157.396 138.461C158.157 138.661 158.952 138.664 159.72 138.458C160.474 138.256 161.161 137.856 161.72 137.302L170.15 128.886C171.052 127.995 171.406 126.674 171.091 125.446L170.969 124.989L171.312 124.652L173.611 122.348C174.613 121.345 175.015 119.881 174.647 118.509L173.385 113.8C173.018 112.427 171.951 111.358 170.582 110.989ZM173.004 118.949C173.213 119.73 172.99 120.568 172.407 121.142L169.069 124.474L169.433 125.833C169.61 126.492 169.422 127.192 168.943 127.666L160.513 136.083C159.817 136.774 158.793 137.048 157.845 136.797L146.39 133.709C145.738 133.538 145.225 133.026 145.049 132.367L144.685 131.008L140.128 129.792C139.35 129.582 138.724 128.971 138.515 128.191L137.253 123.481C137.044 122.701 137.267 121.863 137.836 121.292L141.17 117.947L140.651 116.009C140.489 115.404 140.674 114.749 141.138 114.322L155.01 101.375C155.357 101.052 155.921 101.218 156.027 101.665L157.505 107.182C157.616 107.599 158.13 107.735 158.439 107.436L162.463 103.43C162.806 103.093 163.38 103.242 163.506 103.713L165.568 111.409L170.125 112.626C170.917 112.832 171.529 113.446 171.738 114.227L173.004 118.949ZM159.915 112.621C158.859 112.342 157.727 112.645 156.951 113.415L153.866 116.506L149.65 115.372C148.593 115.093 147.461 115.396 146.686 116.166L144.11 118.731L145.887 125.364L149.02 126.226L150.61 132.16L156.641 133.76C157.868 134.08 159.161 133.734 160.063 132.843L164.446 128.453L162.856 122.519L165.229 120.167L163.425 113.541L159.915 112.621ZM149.011 121.34C148.755 120.385 149.317 119.412 150.274 119.156C151.23 118.9 152.204 119.461 152.459 120.416C152.715 121.372 152.153 122.344 151.197 122.601C150.24 122.857 149.263 122.282 149.011 121.34ZM161.442 127.21L160.863 127.798C158.933 129.757 156.091 130.519 153.443 129.8L152.662 129.577L152.279 128.151C152.157 127.693 152.58 127.277 153.032 127.401C155.526 128.088 158.207 127.37 160.02 125.514L160.03 125.497C160.359 125.164 160.933 125.313 161.056 125.77L161.442 127.21ZM159.226 120.449C158.269 120.705 157.296 120.144 157.04 119.189C156.784 118.234 157.346 117.261 158.303 117.005C159.26 116.748 160.233 117.31 160.489 118.265C160.741 119.207 160.182 120.193 159.226 120.449Z" fill="white"/>
</g>
<defs>
<clipPath id="clip0">
<rect width="36.1864" height="36.1864" fill="white" transform="translate(236.406 93.4062)"/>
</clipPath>
<clipPath id="clip1">
<rect width="39.1224" height="39.1224" fill="white" transform="translate(130.762 105.887) rotate(-15)"/>
</clipPath>
</defs>
</svg>
