<svg width="180" height="29" viewBox="0 0 180 29" fill="none" xmlns="http://www.w3.org/2000/svg">
<g clip-path="url(#clip0)">
<g clip-path="url(#clip1)">
<path d="M26.1803 12.354L23.0914 10.5724V4.54222C23.0914 4.27867 22.8805 4.06782 22.617 4.06782C22.5327 4.06782 22.4589 4.08891 22.3851 4.13108L18.6637 6.27114C18.4634 6.38711 18.1998 6.31331 18.0838 6.11301C18.0417 6.04976 18.0311 5.97596 18.0311 5.90217V1.57987C18.0311 1.31631 17.8203 1.10547 17.5673 1.10547C17.4935 1.10547 17.4091 1.12655 17.3459 1.15818L4.69522 7.90518C4.27353 8.12657 4.00997 8.56934 4.00997 9.04374V10.5618L0.921103 12.354C0.393992 12.6597 0.0566406 13.229 0.0566406 13.8404V17.5302C0.0566406 18.1416 0.38345 18.7109 0.921103 19.0167L4.00997 20.7983V21.863C4.00997 22.3796 4.28407 22.854 4.72684 23.107L12.4859 27.6085C13.129 27.9881 13.9302 27.9881 14.5733 27.6085L22.3745 23.107C22.8173 22.854 23.0914 22.3796 23.0914 21.863V20.7983L26.1803 19.0167C26.7074 18.7109 27.0342 18.1416 27.0342 17.5302V13.8404C27.0342 13.229 26.7074 12.6597 26.1803 12.354ZM3.99943 18.342L2.27051 17.351C2.08075 17.2456 1.96478 17.0453 1.96478 16.8239V14.3781C1.96478 14.1567 2.08075 13.9564 2.27051 13.851L3.99943 12.8495V18.342ZM18.9167 18.1627V22.8013L14.8579 25.1522C14.0356 25.6266 13.013 25.6266 12.1802 25.1522L8.08981 22.8013V18.1627L5.97083 16.9082V11.7109L8.35337 10.3404C9.07024 9.92928 9.95578 9.92928 10.6727 10.3404L13.5296 11.9956L16.3865 10.3404C17.1034 9.92928 17.989 9.92928 18.7058 10.3404L21.0884 11.7109L21.1095 16.9082L18.9167 18.1627ZM25.1155 16.8239C25.1155 17.0453 24.9995 17.2456 24.8098 17.351L23.0809 18.3525V12.86L24.8098 13.8615C24.9995 13.9669 25.1155 14.1672 25.1155 14.3886V16.8239ZM11.748 14.5784C11.748 15.3269 11.1471 15.9278 10.3986 15.9278C9.65006 15.9278 9.04915 15.3269 9.04915 14.5784C9.04915 13.8299 9.65006 13.229 10.3986 13.229C11.1471 13.229 11.748 13.8299 11.748 14.5784ZM16.6817 13.229C15.9332 13.229 15.3323 13.8299 15.3323 14.5784C15.3323 15.3269 15.9332 15.9278 16.6817 15.9278C17.4302 15.9278 18.0311 15.3269 18.0311 14.5784C18.0311 13.8299 17.4302 13.229 16.6817 13.229ZM16.2811 19.7757L16.2706 19.7862C14.5838 20.7772 12.4859 20.7877 10.7992 19.7968C10.5778 19.6703 10.2931 19.7441 10.1666 19.9654C10.1245 20.0392 10.1034 20.113 10.1034 20.1974V21.3254L10.6305 21.6417C12.4227 22.6959 14.6471 22.6853 16.4393 21.6311L16.9769 21.3148V20.1868C16.9769 19.9338 16.7766 19.723 16.513 19.723C16.4287 19.7124 16.3549 19.7335 16.2811 19.7757Z" fill="#1C3FFF"/>
</g>
<g clip-path="url(#clip2)">
<path d="M42.239 22.5505C38.8511 22.5505 36.8884 20.8842 36.7949 18.4903C36.7949 18.3729 36.8417 18.2556 36.9117 18.1852C36.9818 18.1147 37.0987 18.0678 37.2155 18.0678H39.8558C39.9726 18.0678 40.066 18.1147 40.1595 18.1852V18.2086C40.2296 18.279 40.2763 18.3729 40.2763 18.4668C40.3464 19.3586 41.0707 19.5699 42.2624 19.5699C43.5007 19.5699 44.2484 19.3117 44.2484 18.5841C44.2484 17.5984 43.2671 17.5984 41.7717 17.3403C40.2763 17.0821 37.0753 16.3545 37.0753 13.3504C37.0753 11.3555 38.5707 9.61876 42.2857 9.61876C45.183 9.61876 47.3793 10.8157 47.4728 13.1627C47.4728 13.28 47.4261 13.3974 47.356 13.4678C47.2859 13.5382 47.1691 13.5851 47.0522 13.5851H44.412C44.2951 13.5851 44.2017 13.5382 44.1082 13.4678L44.0849 13.4443C44.0148 13.3739 43.9914 13.3035 43.968 13.2331C43.8979 12.8106 43.3839 12.5994 42.239 12.5994C41.0007 12.5994 40.51 12.8576 40.51 13.5851C40.51 14.5708 42.0054 14.5708 43.4774 14.829C44.9494 15.0872 47.6831 15.58 47.6831 18.5607C47.7065 20.5556 46.2111 22.5505 42.239 22.5505ZM61.1414 22.3158H58.5245C58.4077 22.3158 58.3142 22.2689 58.2442 22.175C58.1741 22.1046 58.1273 21.9872 58.1273 21.8699V14.829C58.1273 13.5851 57.6367 12.5994 56.1413 12.5994C54.4123 12.5994 53.4076 13.5851 53.4076 15.8382V21.8934C53.4076 22.0107 53.3608 22.1046 53.2907 22.1985C53.2206 22.2689 53.1038 22.3158 52.987 22.3158H50.3467C50.2299 22.3158 50.1364 22.2689 50.043 22.1985C49.9729 22.128 49.9261 22.0107 49.9261 21.8934V5.32382C49.9261 5.20647 49.9729 5.11259 50.043 5.01872C50.1131 4.94831 50.2299 4.90137 50.3467 4.90137H52.9636C53.0804 4.90137 53.1739 4.94831 53.2674 5.01872C53.3375 5.08912 53.3842 5.20647 53.3842 5.32382V10.8626H53.6412C54.1319 10.3698 55.1599 9.59529 56.9357 9.61876C59.5292 9.68917 61.5854 11.8249 61.5854 14.43V21.8934C61.5854 22.0107 61.5386 22.1046 61.4685 22.1985C61.3517 22.2689 61.2349 22.3158 61.1414 22.3158ZM69.9735 22.574C66.2584 22.574 63.7817 20.0862 63.7817 16.0964C63.7817 12.1065 66.2584 9.61876 69.9735 9.61876C73.6885 9.61876 76.1652 12.1065 76.1652 16.0964C76.1652 20.0862 73.6885 22.5505 69.9735 22.574ZM69.9735 12.6229C68.2445 12.6229 67.2397 13.8668 67.2397 16.0964C67.2397 18.326 68.2211 19.5699 69.9735 19.5699C71.7259 19.5699 72.7072 18.326 72.7072 16.0729C72.7072 13.8198 71.7025 12.5994 69.9735 12.6229ZM85.3244 22.5505C83.1047 22.5505 82.1 21.3066 82.1 21.3066H81.843V26.8689C81.843 26.9863 81.7963 27.0801 81.7262 27.174C81.6561 27.2444 81.5392 27.2914 81.4224 27.2914H78.8055C78.6887 27.2914 78.5952 27.2444 78.5018 27.174C78.4317 27.1036 78.3849 26.9863 78.3849 26.8689V10.2994C78.3849 10.182 78.4317 10.0881 78.5018 9.99427C78.5719 9.92386 78.6887 9.87692 78.8055 9.87692H81.1888C81.3056 9.87692 81.399 9.92386 81.4925 9.99427L81.5392 10.0412C81.586 10.0881 81.6327 10.1351 81.6327 10.2055L81.843 10.8626H82.1C82.1 10.8626 83.0813 9.61876 85.3244 9.61876C88.2918 9.61876 90.7685 12.1065 90.7685 16.0964C90.7685 20.0862 88.3151 22.5505 85.3244 22.5505ZM84.5767 12.5994C82.5907 12.5994 81.843 14.1014 81.843 16.0729C81.843 18.0443 82.5907 19.5464 84.5767 19.5464C86.5628 19.5464 87.3104 18.0443 87.3104 16.0729C87.3104 14.1014 86.5628 12.5994 84.5767 12.5994ZM111.4 22.3158H108.783C108.666 22.3158 108.573 22.2689 108.479 22.1985C108.409 22.128 108.362 22.0107 108.362 21.8934V14.8525C108.362 13.6086 107.872 12.6229 106.376 12.6229C104.881 12.6229 104.157 13.6086 104.157 15.3688V21.9168C104.157 22.0342 104.11 22.128 104.04 22.2219C103.97 22.2923 103.853 22.3393 103.736 22.3393H101.119C101.002 22.3393 100.909 22.2923 100.816 22.2219C100.745 22.1515 100.699 22.0342 100.699 21.9168V14.8759C100.699 13.6321 100.208 12.6463 98.7127 12.6463C97.2173 12.6463 96.493 13.6321 96.493 15.3923V21.9403C96.493 22.0576 96.4462 22.1515 96.3761 22.2454C96.306 22.3158 96.1892 22.3627 96.0724 22.3627H93.4555C93.3387 22.3627 93.2452 22.3158 93.1517 22.2454C93.0816 22.175 93.0349 22.0576 93.0349 21.9403V10.3463C93.0349 10.229 93.0816 10.1351 93.1517 10.0412C93.2218 9.9708 93.3387 9.92386 93.4555 9.92386H95.8387C95.9556 9.92386 96.049 9.9708 96.1425 10.0412L96.1892 10.0881C96.2359 10.1351 96.2827 10.182 96.2827 10.2524L96.493 10.9096H96.75C96.75 10.9096 97.4977 9.66569 99.7174 9.66569C101.703 9.66569 102.685 10.6514 103.175 11.4024H103.432C103.432 11.4024 104.414 9.66569 107.147 9.66569C110.115 9.66569 111.844 11.4024 111.844 14.6412V21.9168C111.844 22.0342 111.797 22.128 111.727 22.2219C111.634 22.2454 111.517 22.3158 111.4 22.3158ZM119.998 22.5505C116.283 22.5505 113.807 20.0627 113.807 16.0729C113.807 12.0831 116.283 9.59529 119.998 9.59529C123.713 9.59529 126.19 12.0831 126.19 16.0729C126.19 20.0627 123.713 22.5505 119.998 22.5505ZM119.998 12.5994C118.269 12.5994 117.265 13.8433 117.265 16.0729C117.265 18.3025 118.246 19.5464 119.998 19.5464C121.751 19.5464 122.732 18.3025 122.732 16.0729C122.732 13.8433 121.751 12.5994 119.998 12.5994ZM139.625 22.3158H137.032C136.915 22.3158 136.821 22.2689 136.728 22.1985C136.658 22.128 136.611 22.0107 136.611 21.8934V14.8525C136.611 13.6086 136.12 12.6229 134.625 12.6229C132.896 12.6229 131.891 13.6086 131.891 15.8617V21.9168C131.891 22.0342 131.844 22.128 131.774 22.2219C131.704 22.2923 131.587 22.3393 131.471 22.3393H128.854C128.737 22.3393 128.62 22.2923 128.55 22.1985C128.48 22.128 128.433 22.0107 128.433 21.8934V10.3228C128.433 10.2055 128.48 10.1116 128.55 10.0177C128.62 9.94733 128.737 9.90039 128.854 9.90039H131.237C131.354 9.90039 131.447 9.94733 131.541 10.0177L131.587 10.0647C131.634 10.1116 131.658 10.1586 131.681 10.229L131.891 10.8861H132.148C132.639 10.3933 133.667 9.61876 135.419 9.64223C138.013 9.68917 140.092 11.8484 140.069 14.4535V21.9168C140.069 22.0342 140.022 22.128 139.952 22.2219C139.859 22.2689 139.765 22.3158 139.625 22.3158ZM166.775 17.1994C166.705 17.2698 166.589 17.3168 166.472 17.3168H159.158C159.065 17.3168 158.948 17.3637 158.878 17.4341C158.785 17.528 158.738 17.6688 158.761 17.7862C158.878 18.3964 159.462 19.5464 161.215 19.5464C161.915 19.5464 162.616 19.3352 162.897 18.8658C162.92 18.8188 162.967 18.7719 162.99 18.725C163.107 18.6076 163.271 18.5372 163.434 18.5372H165.981C166.074 18.5372 166.168 18.5841 166.238 18.6545C166.331 18.7484 166.378 18.8658 166.331 19.0066C166.004 20.4852 164.719 22.527 161.168 22.527C156.962 22.527 154.976 19.5464 154.976 16.0494C154.976 12.5525 156.962 9.57182 160.934 9.57182C164.906 9.57182 166.869 12.5525 166.869 16.0494V16.8709C166.916 17.0117 166.869 17.129 166.775 17.1994ZM163.037 14.7351C163.13 14.6412 163.177 14.5239 163.154 14.3831C163.06 13.8433 162.616 12.5994 160.957 12.5994C159.299 12.5994 158.855 13.8433 158.761 14.3831C158.738 14.5004 158.785 14.6412 158.878 14.7351C158.948 14.8055 159.042 14.8525 159.158 14.8525H162.803C162.873 14.8525 162.967 14.8055 163.037 14.7351ZM175.678 22.5505C174.673 25.0383 173.692 26.5403 170.233 26.5403H169.112C168.902 26.5403 168.715 26.376 168.715 26.1413V23.9352C168.715 23.724 168.878 23.5362 169.112 23.5362H170.21C171.448 23.5362 171.705 23.2781 171.939 22.527V22.2689L167.336 10.3698C167.266 10.1586 167.36 9.94733 167.546 9.85345C167.593 9.82998 167.64 9.82998 167.687 9.82998H170.631C170.794 9.82998 170.934 9.94733 171.005 10.0881L173.808 18.1617L176.238 10.1116C176.285 9.94733 176.449 9.82998 176.612 9.82998H179.556C179.766 9.82998 179.953 9.99427 179.953 10.229C179.953 10.2759 179.953 10.3228 179.93 10.3698L175.678 22.5505ZM154.719 21.7056L150.326 15.3453L154.579 10.5575C154.719 10.3933 154.719 10.1586 154.555 10.0177C154.485 9.94733 154.392 9.92386 154.298 9.92386H150.887C150.77 9.92386 150.677 9.9708 150.607 10.0647L146.261 15.1341V5.4177C146.261 5.13607 146.027 4.90137 145.747 4.90137H143.317C143.036 4.90137 142.803 5.13607 142.803 5.4177V21.7995C142.803 22.0811 143.036 22.3158 143.317 22.3158H145.747C146.027 22.3158 146.261 22.0811 146.261 21.7995V19.8984L148.13 17.7862L150.77 22.1515C150.84 22.2689 150.957 22.3393 151.074 22.3393H154.369C154.579 22.3393 154.766 22.1515 154.742 21.9403C154.789 21.8464 154.766 21.776 154.719 21.7056Z" fill="#1A1A1A"/>
</g>
</g>
<defs>
<clipPath id="clip0">
<rect width="180" height="27.0934" fill="white" transform="translate(0 0.953125)"/>
</clipPath>
<clipPath id="clip1">
<rect width="27.0935" height="27.0934" fill="white" transform="translate(0 0.953125)"/>
</clipPath>
<clipPath id="clip2">
<rect width="143.229" height="22.6642" fill="white" transform="translate(36.748 4.68994)"/>
</clipPath>
</defs>
</svg>
