<svg width="235" height="36" viewBox="0 0 235 36" fill="none" xmlns="http://www.w3.org/2000/svg">
<g clip-path="url(#clip0)">
<path d="M3.84616 17.5273V20.4492C3.84616 20.701 3.98488 20.9403 4.21186 21.0789L6.27996 22.2753V15.7264L4.21186 16.9228C3.98488 17.0362 3.84616 17.2754 3.84616 17.5273ZM31.1728 16.9102L29.1047 15.7138V22.2627L31.1728 21.0663C31.3998 20.9403 31.5385 20.701 31.5385 20.4366V17.5147C31.5385 17.2754 31.3998 17.0362 31.1728 16.9102ZM33.5814 13.7743L31.0341 12.3134L30.6558 12.0993V5.78962C30.6558 4.63096 29.71 3.68641 28.5499 3.68641C28.1842 3.68641 27.8185 3.78716 27.5032 3.96348L25.7378 4.971L24.6028 5.6259V4.31611V2.25068C24.6028 1.68394 24.3632 1.1298 23.9597 0.739384C23.5688 0.361561 23.0518 0.147461 22.4969 0.147461C22.1564 0.147461 21.8159 0.23562 21.5133 0.399343L6.36824 8.45957C5.35941 9.00112 4.7415 10.0338 4.7415 11.1799V12.0993L4.36319 12.3134L1.80328 13.7743C0.69357 14.4166 0 15.6004 0 16.885V21.293C0 22.5776 0.69357 23.7614 1.80328 24.4037L4.35058 25.8772L4.72889 26.0913V26.5195C4.7415 27.6656 5.35941 28.7235 6.35563 29.3028L15.6369 34.6805C16.2548 35.0331 16.9483 35.222 17.6671 35.222C18.3733 35.222 19.0669 35.0331 19.6848 34.6805L29.0165 29.3028C30.0127 28.7361 30.6306 27.6656 30.6432 26.5195V26.0913L31.0215 25.8772L33.5688 24.4037C34.6785 23.7614 35.3721 22.5776 35.3721 21.293V16.885C35.3721 15.6004 34.6911 14.4166 33.5814 13.7743ZM33.8336 21.293C33.8336 22.0234 33.4427 22.7035 32.7996 23.0687L29.1047 25.1971V26.4691C29.1047 27.0863 28.7769 27.653 28.2472 27.9552L18.9156 33.3329C18.1463 33.7737 17.1879 33.7737 16.4187 33.3329L7.13747 27.9552C6.60783 27.653 6.27996 27.0863 6.27996 26.4691V25.1971L2.58512 23.0687C1.95461 22.7035 1.55108 22.0234 1.55108 21.293V16.885C1.55108 16.1546 1.942 15.4745 2.57251 15.1093L6.26735 12.9683V11.1547C6.26735 10.588 6.58261 10.059 7.08703 9.79455L22.2321 1.73432C22.6104 1.53281 23.0644 1.80988 23.0518 2.22549V7.38907C23.0518 7.77949 23.4679 8.01878 23.8084 7.82987L28.2598 5.27326C28.6381 5.05916 29.1047 5.32364 29.1047 5.76443V12.9683L32.7996 15.0967C33.4427 15.4619 33.8336 16.142 33.8336 16.8724V21.293ZM23.884 12.7038C23.0265 12.2126 21.9673 12.2126 21.1098 12.7038L17.6923 14.6811L14.2749 12.7038C13.4174 12.2126 12.3582 12.2126 11.5007 12.7038L8.65071 14.341V20.5499L11.1854 22.036V27.59L16.0782 30.3985C17.0744 30.9652 18.285 30.9652 19.2813 30.3985L24.1362 27.59V22.036L26.7592 20.5373L26.734 14.3284L23.884 12.7038ZM12.3203 17.7666C12.3203 16.8724 13.0391 16.1546 13.9345 16.1546C14.8298 16.1546 15.5486 16.8724 15.5486 17.7666C15.5486 18.6608 14.8298 19.3787 13.9345 19.3787C13.0391 19.3787 12.3203 18.6482 12.3203 17.7666ZM21.8033 25.8017L21.1602 26.1795C19.0164 27.4389 16.3556 27.4389 14.2119 26.1921L13.5814 25.8143V24.4793C13.5814 24.0511 14.0479 23.7866 14.4137 24.0007C16.4313 25.1845 18.9408 25.1845 20.9584 23.9881L20.971 23.9755C21.3367 23.7614 21.8033 24.0259 21.8033 24.4541V25.8017ZM21.4502 19.3787C20.5549 19.3787 19.8361 18.6608 19.8361 17.7666C19.8361 16.8724 20.5549 16.1546 21.4502 16.1546C22.3456 16.1546 23.0644 16.8724 23.0644 17.7666C23.0644 18.6482 22.3456 19.3787 21.4502 19.3787Z" fill="white"/>
</g>
<g clip-path="url(#clip1)">
<path d="M74.3321 11.3121C72.0137 11.2815 70.6715 12.2926 70.0309 12.9361H69.6954V5.70486C69.6954 5.55165 69.6344 5.39845 69.5428 5.30652C69.4208 5.2146 69.2988 5.15332 69.1463 5.15332H65.7298C65.5772 5.15332 65.4247 5.2146 65.3332 5.30652C65.2417 5.42909 65.1807 5.55165 65.1807 5.70486V27.3373C65.1807 27.4905 65.2417 27.6437 65.3332 27.7356C65.4552 27.8276 65.5772 27.8888 65.7298 27.8888H69.1768C69.3293 27.8888 69.4818 27.8276 69.5733 27.7356C69.6649 27.6131 69.7259 27.4905 69.7259 27.3373V19.432C69.7259 16.4904 71.0376 15.2035 73.2949 15.2035C75.2472 15.2035 75.8878 16.4904 75.8878 18.1144V27.3067C75.8878 27.4599 75.9488 27.6131 76.0403 27.705C76.1318 27.8276 76.2538 27.8888 76.4064 27.8888H79.8229C79.9449 27.8888 80.0974 27.8276 80.2499 27.7356C80.3414 27.6131 80.4025 27.4905 80.4025 27.3373V17.5935C80.4025 14.1924 77.7181 11.4041 74.3321 11.3121Z" fill="white"/>
<path d="M56.7614 18.1144C54.8396 17.7774 52.8873 17.7774 52.8873 16.4904C52.8873 15.5406 53.5279 15.2035 55.1447 15.2035C56.6394 15.2035 57.3105 15.4793 57.402 16.0308C57.4325 16.1228 57.463 16.2147 57.5545 16.3066L57.585 16.3372C57.7071 16.4292 57.8291 16.4904 57.9816 16.4904H61.4286C61.5811 16.4904 61.7337 16.4292 61.8252 16.3372C61.9167 16.2453 61.9777 16.0921 61.9777 15.9389C61.8557 12.8748 58.9882 11.3121 55.2057 11.3121C50.3555 11.3121 48.4032 13.5796 48.4032 16.184C48.4032 20.1061 52.5823 21.0559 54.5346 21.393C56.4869 21.73 57.7681 21.73 57.7681 23.0169C57.7681 23.9668 56.7919 24.3039 55.1752 24.3039C53.6194 24.3039 52.6738 24.0281 52.5823 22.8637C52.5823 22.7412 52.5213 22.6186 52.4298 22.5267V22.4961C52.3078 22.4041 52.1857 22.3429 52.0332 22.3429H48.5862C48.4337 22.3429 48.2811 22.4041 48.1896 22.4961C48.0981 22.588 48.0371 22.7412 48.0371 22.8944C48.1591 26.0198 50.7215 28.1953 55.1447 28.1953C60.3304 28.1953 62.2827 25.5908 62.2522 22.9863C62.2522 19.0949 58.6832 18.4515 56.7614 18.1144Z" fill="white"/>
<path d="M139.886 11.3734C136.317 11.3734 135.036 13.6408 135.036 13.6408H134.701C134.06 12.6603 132.779 11.3734 130.186 11.3734C127.288 11.3734 126.312 12.9974 126.312 12.9974H125.976L125.702 12.1394C125.702 12.0475 125.641 11.9862 125.58 11.9249L125.519 11.8636C125.397 11.7717 125.275 11.7104 125.122 11.7104H122.011C121.858 11.7104 121.706 11.7717 121.614 11.8636C121.523 11.9862 121.462 12.1088 121.462 12.262V27.3986C121.462 27.5518 121.523 27.705 121.614 27.7969C121.736 27.8888 121.858 27.9501 122.011 27.9501H125.427C125.58 27.9501 125.732 27.8888 125.824 27.7969C125.915 27.6743 125.976 27.5518 125.976 27.3986V18.8498C125.976 16.5517 126.922 15.2648 128.874 15.2648C130.826 15.2648 131.467 16.5517 131.467 18.1757V27.3679C131.467 27.5211 131.528 27.6743 131.62 27.7662C131.742 27.8582 131.864 27.9194 132.016 27.9194H135.433C135.585 27.9194 135.738 27.8582 135.829 27.7662C135.921 27.6437 135.982 27.5211 135.982 27.3679V18.8191C135.982 16.5211 136.927 15.2341 138.88 15.2341C140.832 15.2341 141.473 16.5211 141.473 18.145V27.3373C141.473 27.4905 141.534 27.6437 141.625 27.7356C141.747 27.8275 141.869 27.8888 142.022 27.8888H145.438C145.591 27.8888 145.743 27.7969 145.865 27.7662C145.957 27.6437 146.018 27.5211 146.018 27.3679V17.8693C146.018 13.6408 143.76 11.3734 139.886 11.3734Z" fill="white"/>
<path d="M196.259 18.7885L201.811 12.5378C201.994 12.3233 201.994 12.0169 201.78 11.833C201.689 11.7411 201.566 11.7105 201.444 11.7105H196.991C196.838 11.7105 196.716 11.7717 196.625 11.8943L190.951 18.5127V5.82742C190.951 5.45973 190.646 5.15332 190.28 5.15332H187.107C186.741 5.15332 186.436 5.45973 186.436 5.82742V27.2147C186.436 27.5824 186.741 27.8888 187.107 27.8888H190.28C190.646 27.8888 190.951 27.5824 190.951 27.2147V24.7328L193.391 21.9751L196.838 27.6743C196.93 27.8275 197.082 27.9195 197.235 27.9195H201.536C201.811 27.9195 202.055 27.6743 202.024 27.3986C202.085 27.276 202.055 27.1841 201.994 27.0922L196.259 18.7885Z" fill="white"/>
<path d="M217.856 19.7077C217.856 15.1422 215.293 11.2509 210.108 11.2509C204.922 11.2509 202.329 15.1422 202.329 19.7077C202.329 24.2732 204.922 28.1646 210.413 28.1646C215.049 28.1646 216.727 25.4988 217.154 23.5685C217.215 23.3846 217.154 23.2314 217.032 23.1089C216.941 23.0169 216.819 22.9557 216.697 22.9557H213.372C213.158 22.9557 212.945 23.0476 212.792 23.2008C212.762 23.2621 212.701 23.3233 212.67 23.3846C212.304 23.9974 211.389 24.2732 210.474 24.2732C208.186 24.2732 207.423 22.7718 207.271 21.9751C207.24 21.8219 207.301 21.6381 207.423 21.5155C207.515 21.4236 207.667 21.3623 207.789 21.3623H217.337C217.49 21.3623 217.642 21.3011 217.734 21.2091C217.856 21.1172 217.917 20.964 217.856 20.7802V19.7077ZM212.853 17.9918C212.762 18.0838 212.64 18.145 212.548 18.145H207.789C207.637 18.145 207.515 18.0838 207.423 17.9918C207.301 17.8693 207.24 17.6854 207.271 17.5322C207.393 16.8275 207.972 15.2035 210.138 15.2035C212.304 15.2035 212.884 16.8275 213.006 17.5322C213.036 17.7161 212.975 17.8693 212.853 17.9918Z" fill="white"/>
<path d="M91.3535 11.3121C86.5033 11.3121 83.2698 14.5601 83.2698 19.769C83.2698 24.978 86.5033 28.2259 91.3535 28.2259C96.2038 28.1953 99.4372 24.978 99.4372 19.769C99.4372 14.5601 96.2038 11.3121 91.3535 11.3121ZM91.3535 24.3039C89.0657 24.3039 87.7845 22.6799 87.7845 19.769C87.7845 16.8581 89.0962 15.2342 91.3535 15.2342C93.6109 15.2035 94.9226 16.7969 94.9226 19.7384C94.9226 22.6799 93.6414 24.3039 91.3535 24.3039Z" fill="white"/>
<path d="M234.42 11.5879H230.576C230.363 11.5879 230.149 11.7411 230.088 11.9556L226.916 22.4654L223.255 11.925C223.164 11.7411 222.981 11.5879 222.767 11.5879H218.924C218.863 11.5879 218.802 11.5879 218.741 11.6185C218.497 11.7411 218.375 12.0169 218.466 12.2926L224.475 27.8276V28.1646C224.17 29.1451 223.835 29.4822 222.218 29.4822H220.784C220.479 29.4822 220.266 29.7273 220.266 30.0031V32.8833C220.266 33.1897 220.51 33.4042 220.784 33.4042H222.249C226.763 33.4042 228.044 31.4432 229.356 28.1952L234.908 12.2926C234.938 12.2314 234.938 12.1701 234.938 12.1088C234.938 11.8024 234.694 11.5879 234.42 11.5879Z" fill="white"/>
<path d="M111.395 11.3121C108.467 11.3121 107.185 12.9361 107.185 12.9361H106.85L106.575 12.0782C106.575 11.9862 106.514 11.925 106.453 11.8637L106.392 11.8024C106.27 11.7105 106.148 11.6492 105.996 11.6492H102.884C102.732 11.6492 102.579 11.7105 102.488 11.8024C102.396 11.925 102.335 12.0475 102.335 12.2007V33.8332C102.335 33.9864 102.396 34.1396 102.488 34.2315C102.61 34.3234 102.732 34.3847 102.884 34.3847H106.301C106.453 34.3847 106.606 34.3234 106.697 34.2315C106.789 34.1089 106.85 33.9864 106.85 33.8332V26.5713H107.185C107.185 26.5713 108.497 28.1953 111.395 28.1953C115.3 28.1953 118.503 24.978 118.503 19.769C118.503 14.5601 115.269 11.3121 111.395 11.3121ZM110.419 24.2732C107.826 24.2732 106.85 22.3122 106.85 19.7384C106.85 17.1645 107.826 15.2035 110.419 15.2035C113.012 15.2035 113.988 17.1645 113.988 19.7384C113.988 22.3122 113.012 24.2732 110.419 24.2732Z" fill="white"/>
<path d="M176.797 11.3428C174.509 11.3121 173.167 12.3233 172.526 12.9667H172.191L171.916 12.1088C171.886 12.0169 171.855 11.9556 171.794 11.8943L171.733 11.833C171.611 11.7411 171.489 11.6798 171.337 11.6798H168.225C168.073 11.6798 167.92 11.7411 167.828 11.833C167.737 11.9556 167.676 12.0782 167.676 12.2314V27.3373C167.676 27.4905 167.737 27.6437 167.828 27.7356C167.92 27.8582 168.073 27.9195 168.225 27.9195H171.642C171.794 27.9195 171.947 27.8582 172.038 27.7663C172.13 27.6437 172.191 27.5212 172.191 27.3679V19.4626C172.191 16.5211 173.502 15.2342 175.76 15.2342C177.712 15.2342 178.353 16.5211 178.353 18.1451V27.3373C178.353 27.4905 178.414 27.6437 178.505 27.7356C178.627 27.8276 178.749 27.8888 178.902 27.8888H182.288C182.471 27.8888 182.593 27.8276 182.715 27.7663C182.806 27.6437 182.867 27.5212 182.867 27.3679V17.6242C182.898 14.223 180.183 11.4041 176.797 11.3428Z" fill="white"/>
<path d="M156.664 11.2815C151.814 11.2815 148.58 14.5294 148.58 19.7384C148.58 24.9473 151.814 28.1952 156.664 28.1952C161.514 28.1952 164.747 24.9473 164.747 19.7384C164.747 14.5294 161.514 11.2815 156.664 11.2815ZM156.664 24.2732C154.376 24.2732 153.095 22.6493 153.095 19.7384C153.095 16.8275 154.406 15.2035 156.664 15.2035C158.952 15.2035 160.233 16.8275 160.233 19.7384C160.233 22.6493 158.952 24.2732 156.664 24.2732Z" fill="white"/>
</g>
<defs>
<clipPath id="clip0">
<rect width="35.3721" height="35.372" fill="white"/>
</clipPath>
<clipPath id="clip1">
<rect width="186.993" height="29.5894" fill="white" transform="translate(47.9766 4.87891)"/>
</clipPath>
</defs>
</svg>
