<svg width="206" height="368" viewBox="0 0 206 368" fill="none" xmlns="http://www.w3.org/2000/svg">
<g filter="url(#filter0_d)">
<path fill-rule="evenodd" clip-rule="evenodd" d="M33.0738 8C23.6442 8 16 15.6442 16 25.0738V326.926C16 336.356 23.6442 344 33.0738 344H158.926C168.331 344 175.96 336.396 176 327H181C185.971 327 190 322.971 190 318V32C190 27.0294 185.971 23 181 23H176C175.958 23 175.917 23.0003 175.875 23.0008C174.852 14.5489 167.654 8 158.926 8H33.0738Z" fill="#DCDFE3"/>
<rect x="25.5371" y="15.5303" width="140.859" height="185.678" rx="11.7383" fill="#B9BEC5"/>
<rect x="43.6777" y="35.8057" width="103.51" height="144.06" rx="3.20134" fill="#0D4FA6"/>
<path d="M83.4795 107.856V110.5C83.4795 110.728 83.605 110.944 83.8103 111.069L85.6813 112.152V106.227L83.8103 107.309C83.605 107.412 83.4795 107.628 83.4795 107.856ZM108.201 107.298L106.33 106.216V112.14L108.201 111.058C108.406 110.944 108.532 110.728 108.532 110.488V107.845C108.532 107.628 108.406 107.412 108.201 107.298ZM110.38 104.461L108.076 103.139L107.733 102.946V97.2376C107.733 96.1894 106.878 95.3349 105.828 95.3349C105.497 95.3349 105.166 95.426 104.881 95.5855L103.284 96.497L102.257 97.0895V95.9046V94.036C102.257 93.5233 102.041 93.022 101.676 92.6688C101.322 92.327 100.854 92.1333 100.352 92.1333C100.044 92.1333 99.7362 92.2131 99.4624 92.3612L85.7611 99.653C84.8485 100.143 84.2895 101.077 84.2895 102.114V102.946L83.9472 103.139L81.6314 104.461C80.6275 105.042 80 106.113 80 107.275V111.263C80 112.425 80.6275 113.496 81.6314 114.077L83.9358 115.41L84.2781 115.604V115.991C84.2895 117.028 84.8485 117.985 85.7497 118.509L94.1462 123.374C94.7052 123.693 95.3326 123.864 95.9829 123.864C96.6217 123.864 97.2492 123.693 97.8082 123.374L106.25 118.509C107.152 117.997 107.711 117.028 107.722 115.991V115.604L108.064 115.41L110.369 114.077C111.373 113.496 112 112.425 112 111.263V107.275C112 106.113 111.384 105.042 110.38 104.461ZM110.608 111.263C110.608 111.924 110.255 112.539 109.673 112.87L106.33 114.795V115.946C106.33 116.504 106.034 117.017 105.554 117.29L97.1123 122.155C96.4164 122.554 95.5494 122.554 94.8535 122.155L86.457 117.29C85.9779 117.017 85.6813 116.504 85.6813 115.946V114.795L82.3387 112.87C81.7683 112.539 81.4032 111.924 81.4032 111.263V107.275C81.4032 106.614 81.7569 105.999 82.3273 105.669L85.6699 103.732V102.091C85.6699 101.579 85.9551 101.1 86.4114 100.861L100.113 93.5689C100.455 93.3866 100.866 93.6372 100.854 94.0132V98.6846C100.854 99.0378 101.231 99.2543 101.539 99.0834L105.566 96.7705C105.908 96.5768 106.33 96.816 106.33 97.2148V103.732L109.673 105.657C110.255 105.988 110.608 106.603 110.608 107.264V111.263ZM101.607 103.493C100.831 103.048 99.8731 103.048 99.0973 103.493L96.0057 105.281L92.9141 103.493C92.1383 103.048 91.18 103.048 90.4043 103.493L87.826 104.974V110.591L90.1191 111.935V116.96L94.5455 119.501C95.4467 120.013 96.5419 120.013 97.4431 119.501L101.835 116.96V111.935L104.208 110.579L104.185 104.962L101.607 103.493ZM91.1458 108.073C91.1458 107.264 91.7961 106.614 92.6061 106.614C93.416 106.614 94.0663 107.264 94.0663 108.073C94.0663 108.882 93.416 109.531 92.6061 109.531C91.7961 109.531 91.1458 108.87 91.1458 108.073ZM99.7248 115.342L99.143 115.684C97.2036 116.823 94.7964 116.823 92.857 115.695L92.2866 115.353V114.146C92.2866 113.758 92.7087 113.519 93.0396 113.713C94.8649 114.784 97.1351 114.784 98.9604 113.701L98.9718 113.69C99.3027 113.496 99.7248 113.735 99.7248 114.123V115.342ZM99.4053 109.531C98.5954 109.531 97.9451 108.882 97.9451 108.073C97.9451 107.264 98.5954 106.614 99.4053 106.614C100.215 106.614 100.866 107.264 100.866 108.073C100.866 108.87 100.215 109.531 99.4053 109.531Z" fill="white"/>
<rect x="35.1406" y="215.081" width="36.2819" height="19.2081" rx="9.60403" fill="#B9BEC5"/>
<rect x="35.1406" y="241.758" width="36.2819" height="19.2081" rx="9.60403" fill="#B9BEC5"/>
<rect x="35.1406" y="268.437" width="36.2819" height="19.2081" rx="9.60403" fill="#B9BEC5"/>
<rect x="35.1406" y="295.114" width="36.2819" height="19.2081" rx="9.60403" fill="#F95D5F"/>
<rect x="77.8262" y="215.081" width="36.2819" height="19.2081" rx="9.60403" fill="#B9BEC5"/>
<rect x="77.8262" y="241.758" width="36.2819" height="19.2081" rx="9.60403" fill="#B9BEC5"/>
<rect x="77.8262" y="268.437" width="36.2819" height="19.2081" rx="9.60403" fill="#B9BEC5"/>
<rect x="77.8262" y="295.114" width="36.2819" height="19.2081" rx="9.60403" fill="#FFB65D"/>
<rect x="120.51" y="215.081" width="36.2819" height="19.2081" rx="9.60403" fill="#B9BEC5"/>
<rect x="120.51" y="241.758" width="36.2819" height="19.2081" rx="9.60403" fill="#B9BEC5"/>
<rect x="120.51" y="268.437" width="36.2819" height="19.2081" rx="9.60403" fill="#B9BEC5"/>
<rect x="120.51" y="295.114" width="36.2819" height="19.2081" rx="9.60403" fill="#25C286"/>
<rect x="176" y="27" width="4" height="295" rx="2" fill="#9AA1AA"/>
<rect x="59" y="23" width="71" height="6" rx="3" fill="#DCDFE3"/>
</g>
<defs>
<filter id="filter0_d" x="0" y="0" width="206" height="368" filterUnits="userSpaceOnUse" color-interpolation-filters="sRGB">
<feFlood flood-opacity="0" result="BackgroundImageFix"/>
<feColorMatrix in="SourceAlpha" type="matrix" values="0 0 0 0 0 0 0 0 0 0 0 0 0 0 0 0 0 0 127 0"/>
<feOffset dy="8"/>
<feGaussianBlur stdDeviation="8"/>
<feColorMatrix type="matrix" values="0 0 0 0 0 0 0 0 0 0 0 0 0 0 0 0 0 0 0.1 0"/>
<feBlend mode="normal" in2="BackgroundImageFix" result="effect1_dropShadow"/>
<feBlend mode="normal" in="SourceGraphic" in2="effect1_dropShadow" result="shape"/>
</filter>
</defs>
</svg>
