<?xml version="1.0" encoding="UTF-8"?>
<svg width="579px" height="455px" viewBox="0 0 579 455" version="1.1" xmlns="http://www.w3.org/2000/svg" xmlns:xlink="http://www.w3.org/1999/xlink">
    <!-- Generator: Sketch 52.5 (67469) - http://www.bohemiancoding.com/sketch -->
    <title>1</title>
    <desc>Created with Sketch.</desc>
    <defs>
        <path d="M7.20011539,0.235594046 L2.59010759,5.06512602" id="path-1"></path>
        <filter x="-50.3%" y="-48.0%" width="200.7%" height="196.1%" filterUnits="objectBoundingBox" id="filter-2">
            <feOffset dx="0" dy="2" in="SourceAlpha" result="shadowOffsetInner1"></feOffset>
            <feComposite in="shadowOffsetInner1" in2="SourceAlpha" operator="arithmetic" k2="-1" k3="1" result="shadowInnerInner1"></feComposite>
            <feColorMatrix values="0 0 0 0 1   0 0 0 0 1   0 0 0 0 1  0 0 0 1 0" type="matrix" in="shadowInnerInner1" result="shadowMatrixInner1"></feColorMatrix>
            <feOffset dx="0" dy="-2" in="SourceAlpha" result="shadowOffsetInner2"></feOffset>
            <feComposite in="shadowOffsetInner2" in2="SourceAlpha" operator="arithmetic" k2="-1" k3="1" result="shadowInnerInner2"></feComposite>
            <feColorMatrix values="0 0 0 0 1   0 0 0 0 1   0 0 0 0 1  0 0 0 1 0" type="matrix" in="shadowInnerInner2" result="shadowMatrixInner2"></feColorMatrix>
            <feMerge>
                <feMergeNode in="shadowMatrixInner1"></feMergeNode>
                <feMergeNode in="shadowMatrixInner2"></feMergeNode>
            </feMerge>
        </filter>
        <path d="M2.48857905,2.96326555 L0.23846407,5.06512602" id="path-3"></path>
        <filter x="-73.6%" y="-104.4%" width="243.6%" height="303.4%" filterUnits="objectBoundingBox" id="filter-4">
            <feOffset dx="0" dy="2" in="SourceAlpha" result="shadowOffsetInner1"></feOffset>
            <feComposite in="shadowOffsetInner1" in2="SourceAlpha" operator="arithmetic" k2="-1" k3="1" result="shadowInnerInner1"></feComposite>
            <feColorMatrix values="0 0 0 0 1   0 0 0 0 1   0 0 0 0 1  0 0 0 1 0" type="matrix" in="shadowInnerInner1" result="shadowMatrixInner1"></feColorMatrix>
            <feOffset dx="0" dy="-2" in="SourceAlpha" result="shadowOffsetInner2"></feOffset>
            <feComposite in="shadowOffsetInner2" in2="SourceAlpha" operator="arithmetic" k2="-1" k3="1" result="shadowInnerInner2"></feComposite>
            <feColorMatrix values="0 0 0 0 1   0 0 0 0 1   0 0 0 0 1  0 0 0 1 0" type="matrix" in="shadowInnerInner2" result="shadowMatrixInner2"></feColorMatrix>
            <feMerge>
                <feMergeNode in="shadowMatrixInner1"></feMergeNode>
                <feMergeNode in="shadowMatrixInner2"></feMergeNode>
            </feMerge>
        </filter>
        <path d="M7.20011539,0.235594046 L2.59010759,5.06512602" id="path-5"></path>
        <filter x="-50.3%" y="-48.0%" width="200.7%" height="196.1%" filterUnits="objectBoundingBox" id="filter-6">
            <feOffset dx="0" dy="2" in="SourceAlpha" result="shadowOffsetInner1"></feOffset>
            <feComposite in="shadowOffsetInner1" in2="SourceAlpha" operator="arithmetic" k2="-1" k3="1" result="shadowInnerInner1"></feComposite>
            <feColorMatrix values="0 0 0 0 1   0 0 0 0 1   0 0 0 0 1  0 0 0 1 0" type="matrix" in="shadowInnerInner1" result="shadowMatrixInner1"></feColorMatrix>
            <feOffset dx="0" dy="-2" in="SourceAlpha" result="shadowOffsetInner2"></feOffset>
            <feComposite in="shadowOffsetInner2" in2="SourceAlpha" operator="arithmetic" k2="-1" k3="1" result="shadowInnerInner2"></feComposite>
            <feColorMatrix values="0 0 0 0 1   0 0 0 0 1   0 0 0 0 1  0 0 0 1 0" type="matrix" in="shadowInnerInner2" result="shadowMatrixInner2"></feColorMatrix>
            <feMerge>
                <feMergeNode in="shadowMatrixInner1"></feMergeNode>
                <feMergeNode in="shadowMatrixInner2"></feMergeNode>
            </feMerge>
        </filter>
        <path d="M2.48857905,2.96326555 L0.23846407,5.06512602" id="path-7"></path>
        <filter x="-73.6%" y="-104.4%" width="243.6%" height="303.4%" filterUnits="objectBoundingBox" id="filter-8">
            <feOffset dx="0" dy="2" in="SourceAlpha" result="shadowOffsetInner1"></feOffset>
            <feComposite in="shadowOffsetInner1" in2="SourceAlpha" operator="arithmetic" k2="-1" k3="1" result="shadowInnerInner1"></feComposite>
            <feColorMatrix values="0 0 0 0 1   0 0 0 0 1   0 0 0 0 1  0 0 0 1 0" type="matrix" in="shadowInnerInner1" result="shadowMatrixInner1"></feColorMatrix>
            <feOffset dx="0" dy="-2" in="SourceAlpha" result="shadowOffsetInner2"></feOffset>
            <feComposite in="shadowOffsetInner2" in2="SourceAlpha" operator="arithmetic" k2="-1" k3="1" result="shadowInnerInner2"></feComposite>
            <feColorMatrix values="0 0 0 0 1   0 0 0 0 1   0 0 0 0 1  0 0 0 1 0" type="matrix" in="shadowInnerInner2" result="shadowMatrixInner2"></feColorMatrix>
            <feMerge>
                <feMergeNode in="shadowMatrixInner1"></feMergeNode>
                <feMergeNode in="shadowMatrixInner2"></feMergeNode>
            </feMerge>
        </filter>
        <path d="M0.081259105,0.329812888 L30.1619788,0.329812888 L30.1619788,249.718325 L10.1602596,249.718325 C4.59378132,249.718325 0.081259105,245.205803 0.081259105,239.639325 L0.081259105,0.329812888 Z" id="path-9"></path>
    </defs>
    <g id="illustration---2019" stroke="none" stroke-width="1" fill="none" fill-rule="evenodd">
        <g id="Artboard" transform="translate(-723.000000, -1337.000000)">
            <g id="1" transform="translate(723.203116, 1335.861164)">
                <path d="M257.355768,78.9959962 C222.524799,108.600948 191.46201,125.714598 164.167401,130.336946 C123.225488,137.270468 -5.93369019,141.860084 19.3000605,237.541231 C44.5338112,333.222378 148.777861,306.557933 208.986557,326.745512 C269.195252,346.93309 379.565099,430.991356 432.73847,400.740954 C485.911841,370.490552 502.642134,302.427149 437.334229,237.541231 C372.026324,172.655313 416.559372,73.5986077 364.06027,49.6578751 C329.060869,33.6973867 293.492702,43.4767604 257.355768,78.9959962 Z" id="Path-8" fill-opacity="0.041311" fill="#006CFA" fill-rule="nonzero"></path>
                <g id="Business-insight" transform="translate(0.827092, 0.159995)">
                    <path d="M284.9777,53.5198679 L517.163447,53.5198679 C540.533348,53.5198679 559.478396,72.4649158 559.478396,95.8348169 L559.478396,95.8348169 C559.478396,119.204718 540.533348,138.149766 517.163447,138.149766 L42.6081537,138.149766 C19.5623312,138.149766 0.88000073,156.832096 0.88000073,179.877919 L0.88000073,179.877919 C0.88000073,202.923741 19.5623312,221.606072 42.6081537,221.606072 L507.777852,221.606072 C531.049326,221.606072 549.914584,240.471329 549.914584,263.742803 L549.914584,263.742803 C549.914584,287.014278 531.049326,305.879535 507.777852,305.879535 L83.2211833,305.879535 C51.929282,305.879535 26.5621839,331.246633 26.5621839,362.538534 L26.5621839,362.538534 C26.5621839,393.830436 51.929282,419.197534 83.2211833,419.197534 L284.9777,419.197534" id="Path-30" stroke="#DADADC" stroke-width="2.6" stroke-linecap="round" stroke-linejoin="round" stroke-dasharray="10.56000064849854"></path>
                    <circle id="Oval-2-Copy-23" fill="#F82722" fill-rule="nonzero" cx="143.876983" cy="394.477534" r="2.64000016"></circle>
                    <circle id="Oval-2-Copy-26" fill="#25C286" fill-rule="nonzero" cx="181.826007" cy="370.403149" r="1.98000012"></circle>
                    <circle id="Oval-2-Copy-19" fill="#006CFA" fill-rule="nonzero" cx="257.771133" cy="398.393019" r="3.91548471"></circle>
                    <g id="Group-76" transform="translate(339.186730, 44.156467) rotate(7.000000) translate(-339.186730, -44.156467) translate(309.186730, 3.656467)">
                        <polygon id="Rectangle-49" stroke="#666E78" stroke-width="3" fill="#FFFFFF" fill-rule="nonzero" stroke-linecap="round" stroke-linejoin="round" points="59.0617659 80.5046027 50.9527257 75.0350931 44.2576568 80.5046027 36.4642271 75.0350931 27.9911588 80.5046027 20.0318543 75.0350931 11.3184916 80.5046027 11.3184916 10.2775772 44.2576568 10.2775772 59.0617659 25.0887359"></polygon>
                        <g id="Group-21" transform="translate(0.784805, 0.135992)">
                            <path d="M10.0225842,19.1692508 C15.1632391,19.1692508 19.3305633,15.0519345 19.3305633,9.97296744 C19.3305633,7.20051562 18.0888123,4.71460996 16.1248274,3.02853338 C14.4909087,1.62581784 12.3571138,0.776684121 10.0225842,0.776684121 C4.8819293,0.776684121 0.714605126,4.89400041 0.714605126,9.97296744 C0.714605126,15.0519345 4.8819293,19.1692508 10.0225842,19.1692508 Z" id="Oval-3-Copy-3" stroke="#006CFA" stroke-width="3" fill="#006CFA" fill-rule="nonzero" stroke-linecap="round" stroke-linejoin="round"></path>
                            <path d="M9.35140484,8.07019828 C8.85343057,8.16924181 8.50341043,8.55017277 8.30133391,9.21300258 C8.20029565,9.54060812 8.14977728,9.86439943 8.14977728,10.1843862 C8.14977728,10.2224799 8.15158151,10.254859 8.15519002,10.2815246 C8.15879853,10.3081902 8.16421121,10.3672345 8.17142823,10.4586593 L9.35140484,10.4586593 L9.35140484,12.9499726 L7.04557899,12.9499726 L7.04557899,10.652936 C7.04557899,9.52536345 7.25847784,8.65684087 7.68428192,8.04734219 C8.11008601,7.43784352 8.66578809,7.08738704 9.35140484,6.99596224 L9.35140484,8.07019828 Z M12.9995894,8.07019828 C12.6026534,8.13876688 12.3013474,8.37494407 12.0956624,8.77873695 C11.8899773,9.18252982 11.7871364,9.64726559 11.7871364,10.1729582 C11.7871364,10.2186706 11.7889406,10.2643823 11.7925491,10.3100947 C11.7961576,10.3558071 11.8051788,10.4053281 11.8196128,10.4586593 L12.9995894,10.4586593 L12.9995894,12.9499726 L10.6829381,12.9499726 L10.6829381,10.652936 C10.6829381,9.74630672 10.8633608,8.93682844 11.2242118,8.22447686 C11.5850627,7.51212528 12.1768493,7.1026245 12.9995894,6.99596224 L12.9995894,8.07019828 Z" id="“" fill="#FFFFFF"></path>
                        </g>
                        <polygon id="Rectangle-50" stroke="#666E78" stroke-width="3" fill="#FFFFFF" fill-rule="nonzero" stroke-linecap="round" stroke-linejoin="round" points="44.6277527 10.2775772 59.0617659 24.7115903 44.6277527 24.7115903"></polygon>
                        <path d="M20.4833576,32.7111498 L48.180764,32.7111498" id="Line-9" stroke="#DADADC" stroke-width="2.64000016" fill="#FFFFFF" fill-rule="nonzero" stroke-linecap="round" stroke-linejoin="round"></path>
                        <path d="M20.4833576,38.2953414 L28.501904,38.2953414" id="Line-9" stroke="#DADADC" stroke-width="2.64000016" fill="#FFFFFF" fill-rule="nonzero" stroke-linecap="round" stroke-linejoin="round"></path>
                        <path d="M37.6388963,67.1824656 L34.8008349,67.1824656 L34.8008349,64.5418346 C33.188479,64.2785928 31.9380992,63.6410636 31.0496581,62.629228 C30.1612171,61.6173924 29.6676461,60.5356493 29.5689305,59.3839665 L32.9746041,58.6189239 C33.0404146,59.3921966 33.3447833,60.037952 33.8877195,60.5562092 C34.4306557,61.0744665 35.2039169,61.3335913 36.2075262,61.3335913 C36.8327255,61.3335913 37.3427488,61.1937462 37.7376115,60.9140518 C38.1324742,60.6343574 38.3299026,60.255953 38.3299026,59.7788272 C38.3299026,59.0713649 37.8198792,58.6024725 36.7998173,58.3721359 L34.6034046,57.8538812 C33.2049326,57.524829 32.1108503,56.9489962 31.3211249,56.1263656 C30.5313995,55.303735 30.1365427,54.3165931 30.1365427,53.1649102 C30.1365427,51.8322487 30.5766435,50.7052617 31.4568583,49.7839154 C32.337073,48.8625691 33.4517207,48.2867363 34.8008349,48.0563998 L34.8008349,45.3910899 L37.6388963,45.3910899 L37.6388963,48.1304361 C38.8892948,48.4101305 39.8682106,48.9407193 40.5756729,49.7222184 C41.2831352,50.5037175 41.7355752,51.3798059 41.9330066,52.35051 L38.5026541,53.2636254 C38.2394123,51.8980586 37.4003417,51.2152855 35.9854171,51.2152855 C35.3273126,51.2152855 34.8172893,51.375696 34.4553318,51.696522 C34.0933743,52.0173479 33.9123983,52.3916392 33.9123983,52.8194071 C33.9123983,53.5268694 34.3977431,53.9957618 35.3684472,54.2260984 L37.5155023,54.6949955 C39.0949531,55.0405004 40.2589579,55.6451248 41.0075518,56.5088869 C41.7561456,57.3726491 42.1304369,58.3968088 42.1304369,59.5813969 C42.1304369,60.7659849 41.727354,61.8189363 40.921176,62.7402826 C40.114998,63.6616288 39.0209157,64.2456878 37.6388963,64.492477 L37.6388963,67.1824656 Z" id="$" fill="#25C286"></path>
                    </g>
                    <circle id="Oval-2-Copy-16" fill="#006CFA" fill-rule="nonzero" cx="549.478396" cy="192.431726" r="3.96000024"></circle>
                    <circle id="Oval-2-Copy-17" fill="#25C286" fill-rule="nonzero" cx="473.803029" cy="205.770901" r="2.64000016"></circle>
                    <circle id="Oval-2-Copy-18" fill="#F82722" fill-rule="nonzero" cx="495.048215" cy="206.371727" r="1.98000012"></circle>
                    <circle id="Oval-2-Copy-23" fill="#F82722" fill-rule="nonzero" cx="295.119053" cy="23.3210028" r="2.64000016"></circle>
                    <circle id="Oval-2-Copy-24" fill="#25C286" fill-rule="nonzero" cx="575.119053" cy="233.321003" r="2.64000016"></circle>
                    <circle id="Oval-2-Copy-26" fill="#25C286" fill-rule="nonzero" cx="371.918823" cy="8.47707806" r="1.98000012"></circle>
                    <circle id="Oval-2-Copy-19" fill="#006CFA" fill-rule="nonzero" cx="384.689211" cy="62.2947781" r="3.91548471"></circle>
                    <g id="check-list" transform="translate(527.276643, 237.757765) rotate(-342.000000) translate(-527.276643, -237.757765) translate(499.276643, 201.257765)">
                        <polygon id="Rectangle-49-Copy" stroke="#666E78" stroke-width="3" fill="#FFFFFF" fill-rule="nonzero" stroke-linecap="round" stroke-linejoin="round" points="55.7464332 72.600006 0 72.600006 0 3.88928604 55.7464332 3.88928604"></polygon>
                        <path d="M20.7428589,50.9965546 L46.6714324,50.9965546" id="Line-9" stroke="#DADADC" stroke-width="2.64000016" fill="#FFFFFF" fill-rule="nonzero" stroke-linecap="round" stroke-linejoin="round"></path>
                        <path d="M20.7428589,56.8045551 L40.1892891,56.8045551" id="Line-9" stroke="#DADADC" stroke-width="2.64000016" fill="#FFFFFF" fill-rule="nonzero" stroke-linecap="round" stroke-linejoin="round"></path>
                        <rect id="Rectangle-58" stroke="#666E78" stroke-width="4.35600036" fill="#666E78" fill-rule="nonzero" stroke-linecap="round" stroke-linejoin="round" x="12.9642868" y="0" width="31.1142883" height="7.77857207" rx="3.88928604"></rect>
                        <rect id="Rectangle-59" fill="#77848C" opacity="0.543591486" x="7.77857207" y="49.7001259" width="6.4821434" height="6.4821434" rx="1.45200012"></rect>
                        <path d="M20.7428589,16.8535728 L46.6714324,16.8535728" id="Line-9" stroke="#DADADC" stroke-width="2.64000016" fill="#FFFFFF" fill-rule="nonzero" stroke-linecap="round" stroke-linejoin="round"></path>
                        <path d="M20.7428589,33.0567762 L46.6714324,33.0567762" id="Line-9-Copy" stroke="#DADADC" stroke-width="2.64000016" fill="#FFFFFF" fill-rule="nonzero" stroke-linecap="round" stroke-linejoin="round"></path>
                        <path d="M20.7428589,23.9293273 L40.1892891,23.9293273" id="Line-9" stroke="#DADADC" stroke-width="2.64000016" fill="#FFFFFF" fill-rule="nonzero" stroke-linecap="round" stroke-linejoin="round"></path>
                        <path d="M20.7428589,38.8064752 L40.1892891,38.8064752" id="Line-9-Copy-2" stroke="#DADADC" stroke-width="2.64000016" fill="#FFFFFF" fill-rule="nonzero" stroke-linecap="round" stroke-linejoin="round"></path>
                        <g id="Group-37" transform="translate(7.778572, 15.557144)" stroke-linecap="round" stroke-linejoin="round">
                            <g id="Line-21">
                                <use fill="#EBF1F5" fill-rule="evenodd" xlink:href="#path-1"></use>
                                <use fill="black" fill-opacity="1" filter="url(#filter-2)" xlink:href="#path-1"></use>
                                <use stroke="#006CFA" stroke-width="2.64000016" xlink:href="#path-1"></use>
                            </g>
                            <g id="Line-21" transform="translate(1.414286, 4.074490) scale(1, -1) translate(-1.414286, -4.074490) ">
                                <use fill="#EBF1F5" fill-rule="evenodd" xlink:href="#path-3"></use>
                                <use fill="black" fill-opacity="1" filter="url(#filter-4)" xlink:href="#path-3"></use>
                                <use stroke="#006CFA" stroke-width="2.64000016" xlink:href="#path-3"></use>
                            </g>
                        </g>
                        <g id="Group-37" transform="translate(7.778572, 31.760348)" stroke-linecap="round" stroke-linejoin="round">
                            <g id="Line-21">
                                <use fill="#EBF1F5" fill-rule="evenodd" xlink:href="#path-5"></use>
                                <use fill="black" fill-opacity="1" filter="url(#filter-6)" xlink:href="#path-5"></use>
                                <use stroke="#25C286" stroke-width="2.64000016" xlink:href="#path-5"></use>
                            </g>
                            <g id="Line-21" transform="translate(1.414286, 4.074490) scale(1, -1) translate(-1.414286, -4.074490) ">
                                <use fill="#EBF1F5" fill-rule="evenodd" xlink:href="#path-7"></use>
                                <use fill="black" fill-opacity="1" filter="url(#filter-8)" xlink:href="#path-7"></use>
                                <use stroke="#25C286" stroke-width="2.64000016" xlink:href="#path-7"></use>
                            </g>
                        </g>
                    </g>
                    <g id="Group-25" transform="translate(200.186315, 419.197534) rotate(5.000000) translate(-200.186315, -419.197534) translate(165.686315, 384.697534)">
                        <g id="Group-77" transform="translate(0.000000, 0.000000)">
                            <rect id="Rectangle-62" stroke="#DADADC" stroke-width="2.90400024" fill="#FFFFFF" fill-rule="nonzero" stroke-linecap="round" stroke-linejoin="round" x="0.132000354" y="9.00617235" width="63.8880053" height="13.6902869" rx="2.90400024"></rect>
                            <rect id="Rectangle-62" stroke="#666E78" stroke-width="3" fill="#FFFFFF" fill-rule="nonzero" x="0.132000354" y="9.00617235" width="63.8880053" height="50.1977185" rx="2.90400024"></rect>
                            <g id="Group-43" transform="translate(12.909601, 0.792000)" fill-rule="nonzero" stroke="#666E78" stroke-linecap="round" stroke-linejoin="round" stroke-width="3">
                                <path d="M0.91268579,0.8812512 L0.91268579,14.1466297" id="Line-28"></path>
                                <path d="M37.4201174,0.8812512 L37.4201174,14.1466297" id="Line-28"></path>
                            </g>
                            <g id="Group-82" transform="translate(7.392001, 28.380003)">
                                <circle id="Oval-41" fill="#77848C" opacity="0.543591486" cx="2.38822445" cy="2.17800018" r="2.17800018"></circle>
                                <circle id="Oval-41" fill="#77848C" opacity="0.543591486" cx="13.0317011" cy="2.17800018" r="2.17800018"></circle>
                                <circle id="Oval-41" fill="#77848C" opacity="0.543591486" cx="24.9018021" cy="2.17800018" r="2.17800018"></circle>
                                <circle id="Oval-41" fill="#77848C" opacity="0.543591486" cx="48.642004" cy="2.17800018" r="2.17800018"></circle>
                                <circle id="Oval-41" fill="#77848C" opacity="0.543591486" cx="36.7719031" cy="2.17800018" r="2.17800018"></circle>
                                <circle id="Oval-41" fill="#77848C" opacity="0.543591486" cx="2.38822445" cy="12.0008021" r="2.17800018"></circle>
                                <circle id="Oval-41" fill="#006CFA" fill-rule="nonzero" cx="13.0317011" cy="12.0008021" r="2.17800018"></circle>
                                <circle id="Oval-41" fill="#77848C" opacity="0.543591486" cx="24.9018021" cy="12.0008021" r="2.17800018"></circle>
                                <circle id="Oval-41" fill="#77848C" opacity="0.543591486" cx="48.642004" cy="12.342001" r="2.17800018"></circle>
                                <circle id="Oval-41" fill="#77848C" opacity="0.543591486" cx="36.7719031" cy="12.342001" r="2.17800018"></circle>
                                <circle id="Oval-41" fill="#77848C" opacity="0.543591486" cx="2.38822445" cy="21.823604" r="2.17800018"></circle>
                                <circle id="Oval-41" fill="#77848C" opacity="0.543591486" cx="13.0317011" cy="21.823604" r="2.17800018"></circle>
                                <circle id="Oval-41" fill="#77848C" opacity="0.543591486" cx="48.642004" cy="22.5060019" r="2.17800018"></circle>
                                <circle id="Oval-41" fill="#77848C" opacity="0.543591486" cx="36.7719031" cy="22.5060019" r="2.17800018"></circle>
                            </g>
                        </g>
                        <g id="watch" transform="translate(37.309489, 30.125560)">
                            <circle id="Oval-2-Copy-30" stroke="#666E78" stroke-width="3" fill="#FFFFFF" fill-rule="nonzero" cx="15.5722488" cy="22.1718241" r="15.0427201"></circle>
                            <circle id="Oval-6" fill="#006CFA" cx="16.5509266" cy="22.7303642" r="1.96722582"></circle>
                            <path d="M26.6821395,8.27125448 L29.0428105,10.6319255" id="Line-22" stroke="#666E78" stroke-width="2.43936002" fill="#FFFFFF" fill-rule="nonzero" stroke-linecap="round" stroke-linejoin="round" transform="translate(27.862475, 9.451590) scale(-1, 1) translate(-27.862475, -9.451590) "></path>
                            <path d="M2.09181679,8.27125448 L4.45248777,10.6319255" id="Line-22" stroke="#666E78" stroke-width="2.43936002" fill="#FFFFFF" fill-rule="nonzero" stroke-linecap="round" stroke-linejoin="round" transform="translate(3.272152, 9.451590) scale(-1, -1) translate(-3.272152, -9.451590) "></path>
                            <path d="M15.5673136,7.129104 L15.5673136,2.21103946" id="Line-23" stroke="#666E78" stroke-width="3.96000024" fill="#FFFFFF" fill-rule="nonzero" stroke-linecap="round" stroke-linejoin="round"></path>
                            <path d="M11.2162485,0.759039336 L19.9282492,0.759039336" id="Line-23" stroke="#666E78" stroke-width="3.96000024" fill="#FFFFFF" fill-rule="nonzero" stroke-linecap="round" stroke-linejoin="round"></path>
                            <path d="M19.2870852,10.9287109 C19.666218,10.9287109 20.0794588,14.8495314 20.5268075,22.6911722 L20.5268092,22.6911721 C20.5572991,23.2256327 20.14875,23.6836155 19.6142895,23.7141053 C19.5959059,23.7151541 19.5774962,23.7156788 19.5590827,23.7156788 L19.5590827,23.7156788 C19.000526,23.7156788 18.5477263,23.2628791 18.5477263,22.7043223 C18.5477263,22.6994317 18.5477618,22.6945412 18.5478327,22.6896511 C18.6615468,14.8490241 18.907977,10.9287109 19.2870852,10.9287109 Z" id="Rectangle-60" fill="#006CFA" transform="translate(19.538044, 17.322195) rotate(29.000000) translate(-19.538044, -17.322195) "></path>
                            <g id="Group-39" transform="translate(3.248733, 20.763138)" fill="#FFFFFF" fill-rule="nonzero" stroke="#DADADC" stroke-linecap="round" stroke-linejoin="round" stroke-width="2.90400024">
                                <path d="M24.0544338,1.40868567 L22.6819507,1.40868567" id="Line-26"></path>
                                <path d="M2.01108293,1.40868567 L0.638599805,1.40868567" id="Line-26"></path>
                            </g>
                            <g id="Group-39" transform="translate(15.269419, 22.412799) rotate(-270.000000) translate(-15.269419, -22.412799) translate(2.927418, 20.960799)" fill="#FFFFFF" fill-rule="nonzero" stroke="#DADADC" stroke-linecap="round" stroke-linejoin="round" stroke-width="2.90400024">
                                <path d="M23.7505444,1.14917065 L22.3780613,1.14917065" id="Line-26"></path>
                                <path d="M1.79169537,1.14917065 L0.419212239,1.14917065" id="Line-26"></path>
                            </g>
                        </g>
                    </g>
                    <g id="Group-23-Copy-2" transform="translate(506.039512, 129.377969)">
                        <circle id="Oval-23" fill="#25C286" fill-rule="nonzero" cx="9.24000057" cy="9.24000057" r="9.24000057"></circle>
                        <polyline id="Line-35" stroke="#FFFFFF" stroke-width="2.64000016" stroke-linecap="round" stroke-linejoin="round" points="12.8333341 7.18666711 8.07422097 11.293334 5.64666701 9.24000057"></polyline>
                    </g>
                    <g id="Group-23-Copy-3" transform="translate(89.220265, 409.755946)">
                        <circle id="Oval-23" fill="#25C286" fill-rule="nonzero" cx="9.24000057" cy="9.24000057" r="9.24000057"></circle>
                        <polyline id="Line-35" stroke="#FFFFFF" stroke-width="2.64000016" stroke-linecap="round" stroke-linejoin="round" points="12.8333341 7.18666711 8.07422097 11.293334 5.64666701 9.24000057"></polyline>
                    </g>
                </g>
                <g id="Group-24" transform="translate(55.865609, 98.104512)">
                    <rect id="Rectangle" stroke="#666E78" stroke-width="3" fill="#FFFFFF" fill-rule="nonzero" x="0.814742571" y="0.17423789" width="423.696053" height="272.376034" rx="12"></rect>
                    <path d="M32.2192093,47.2190574 L422.510795,47.2190574 L422.510795,261.096802 C422.510795,266.668251 417.994243,271.184803 412.422794,271.184803 L32.2192093,271.184803 L32.2192093,47.2190574 Z" id="Rectangle" fill="#F7F7F7" fill-rule="nonzero"></path>
                    <g id="Group-107" transform="translate(49.440004, 105.924009)">
                        <rect id="Rectangle" stroke="#DADADC" stroke-width="2.26980028" fill="#FFFFFF" fill-rule="nonzero" stroke-linecap="round" stroke-linejoin="round" x="0.983764121" y="0.522657953" width="357.115244" height="50.4400043" rx="6.05280075"></rect>
                        <path d="M19.7401589,27.7420023 L37.7217847,27.7420023" id="Line-39-Copy-4" stroke="#B6B6BA" stroke-width="3.02640038" fill="#FFFFFF" fill-rule="nonzero" opacity="0.599999964" stroke-linecap="round" stroke-linejoin="round"></path>
                        <circle id="Oval" fill="#D4D4D6" fill-rule="nonzero" cx="13.8710012" cy="27.7420023" r="2.52200021"></circle>
                        <path d="M19.7401589,39.0910033 L52.8878683,39.0910033" id="Line-39-Copy-11" stroke="#B6B6BA" stroke-width="3.02640038" fill="#FFFFFF" fill-rule="nonzero" opacity="0.599999964" stroke-linecap="round" stroke-linejoin="round"></path>
                        <circle id="Oval-Copy-45" fill="#D4D4D6" fill-rule="nonzero" cx="13.8710012" cy="39.0910033" r="2.52200021"></circle>
                        <path d="M75.2241636,27.7420023 L103.545106,27.7420023" id="Line-39-Copy-13" stroke="#B6B6BA" stroke-width="3.02640038" fill="#FFFFFF" fill-rule="nonzero" opacity="0.599999964" stroke-linecap="round" stroke-linejoin="round"></path>
                        <path d="M253.737804,31.5250027 L282.058747,31.5250027" id="Line-39-Copy-14" stroke="#B6B6BA" stroke-width="3.02640038" fill="#FFFFFF" fill-rule="nonzero" opacity="0.599999964" stroke-linecap="round" stroke-linejoin="round"></path>
                        <circle id="Oval-Copy-47" fill="#D4D4D6" fill-rule="nonzero" cx="69.3550059" cy="27.7420023" r="2.52200021"></circle>
                        <path d="M75.2241636,39.0910033 L129.725751,39.0910033" id="Line-39-Copy-12" stroke="#B6B6BA" stroke-width="3.02640038" fill="#FFFFFF" fill-rule="nonzero" opacity="0.599999964" stroke-linecap="round" stroke-linejoin="round"></path>
                        <circle id="Oval-Copy-46" fill="#D4D4D6" fill-rule="nonzero" cx="69.3550059" cy="39.0910033" r="2.52200021"></circle>
                        <path d="M12.7868168,13.1453415 L93.4908236,13.1453415" id="Line-39-Copy" stroke="#006CFA" stroke-width="3.78300032" stroke-linecap="round" stroke-linejoin="round" fill-rule="nonzero"></path>
                        <g id="Group-104" transform="translate(167.604795, 20.233655)" fill-rule="nonzero">
                            <circle id="Oval-Copy-48" fill="#DADADC" cx="19.8983287" cy="9.89939389" r="9.83580122"></circle>
                            <path d="M19.8983287,10.3038787 C22.5081157,10.3038787 24.623766,11.3678928 24.623766,12.6804207 L24.623766,14.4065354 L15.1728914,14.4065354 L15.1728914,12.6804207 C15.1728914,11.3678928 17.2885417,10.3038787 19.8983287,10.3038787 Z M19.8983287,9.48367066 C18.7685147,9.48367066 17.8526196,8.56777548 17.8526196,7.43796153 C17.8526196,6.30814758 18.7685147,5.39225241 19.8983287,5.39225241 C21.0281426,5.39225241 21.9440378,6.30814758 21.9440378,7.43796153 C21.9440378,8.56777548 21.0281426,9.48367066 19.8983287,9.48367066 Z" id="Combined-Shape" fill="#FFFFFF"></path>
                            <circle id="Oval" stroke="#FFFFFF" stroke-width="1.51320019" fill="#DADADC" stroke-linecap="round" stroke-linejoin="round" cx="10.0625275" cy="9.89939389" r="9.83580122"></circle>
                            <path d="M10.0625275,10.4113994 C12.6723144,10.4113994 14.7879648,11.4754135 14.7879648,12.7879415 L14.7879648,14.5140561 L5.33709014,14.5140561 L5.33709014,12.7879415 C5.33709014,11.4754135 7.4527405,10.4113994 10.0625275,10.4113994 Z M10.0625275,9.5911914 C8.93271352,9.5911914 8.01681834,8.67529623 8.01681834,7.54548228 C8.01681834,6.41566833 8.93271352,5.49977316 10.0625275,5.49977316 C11.1923414,5.49977316 12.1082366,6.41566833 12.1082366,7.54548228 C12.1082366,8.67529623 11.1923414,9.5911914 10.0625275,9.5911914 Z" id="Combined-Shape" fill="#FFFFFF"></path>
                        </g>
                        <g id="Group-23-Copy-5" transform="translate(152.433032, 27.637916)"></g>
                        <polyline id="Path-43" stroke="#25C286" stroke-width="3.78300032" fill="#FFFFFF" fill-rule="nonzero" stroke-linecap="round" stroke-linejoin="round" transform="translate(244.556639, 29.641419) rotate(-45.000000) translate(-244.556639, -29.641419) " points="240.773638 27.8081343 240.773638 31.4747039 248.339639 31.4747039"></polyline>
                        <g id="Group-105" transform="translate(297.487807, 16.285159)">
                            <g id="Group-106" transform="translate(0.000000, 0.630500)">
                                <g id="Group-108">
                                    <rect id="Rectangle" fill="#F5A84C" fill-rule="nonzero" x="0.498620256" y="12.0779492" width="29.5456512" height="5.06496878" rx="2.53248439"></rect>
                                    <path d="M3.30787346,8.63818237 L2.38179504,8.63818237 L2.38179504,7.66670795 C1.79467049,7.58802115 1.33617546,7.36709615 1.0062962,7.00392633 C0.676416947,6.6407565 0.487268834,6.24127569 0.438846191,5.8054719 L1.56466702,5.53309589 C1.59493117,5.84784307 1.71598596,6.10962406 1.92783503,6.31844671 C2.13968409,6.52726936 2.44232107,6.63167912 2.83575505,6.63167912 C3.12629091,6.63167912 3.35478183,6.56963854 3.52123467,6.44555552 C3.6876875,6.32147249 3.77091267,6.15653534 3.77091267,5.9507391 C3.77091267,5.61783343 3.54393494,5.40296117 3.08997266,5.30611589 L2.25468624,5.12453188 C1.75835414,5.01558093 1.36946562,4.81130097 1.08800901,4.51168587 C0.806552392,4.21207076 0.665826196,3.8473932 0.665826196,3.41764224 C0.665826196,2.94552147 0.827736981,2.54301428 1.15156341,2.21010861 C1.47538984,1.87720294 1.88546294,1.67140979 2.38179504,1.59272299 L2.38179504,0.62124857 L3.30787346,0.62124857 L3.30787346,1.6199606 C3.78604706,1.70470022 4.15829055,1.89082196 4.42461509,2.17833141 C4.69093963,2.46584085 4.86041634,2.78814924 4.9330503,3.14526623 L3.81630867,3.46303824 C3.77999169,3.25118918 3.68163467,3.05750151 3.52123467,2.88196943 C3.36083466,2.70643734 3.11418552,2.61867262 2.78127985,2.61867262 C2.50284965,2.61867262 2.28343784,2.68827913 2.12303783,2.82749423 C1.96263783,2.96670932 1.88243903,3.13315966 1.88243903,3.32685024 C1.88243903,3.64159742 2.09125854,3.8443642 2.50890384,3.93515665 L3.33511106,4.12581986 C3.88591863,4.24687647 4.30053129,4.46326191 4.57896149,4.77498267 C4.85739169,5.08670344 4.9966047,5.45440737 4.9966047,5.8781055 C4.9966047,6.31390929 4.8467994,6.69825826 4.54718429,7.03116393 C4.24756919,7.3640696 3.83446971,7.57288912 3.30787346,7.65762875 L3.30787346,8.63818237 Z M7.02126635,3.96239425 L5.83189112,3.92607745 C5.80162697,3.78686235 5.78649512,3.65067571 5.78649512,3.51751344 C5.78649512,2.97275871 5.98018279,2.50821094 6.36756394,2.12385621 C6.75494508,1.73950148 7.27850706,1.54732699 7.93826558,1.54732699 C8.5798656,1.54732699 9.09434847,1.73042237 9.48172962,2.09661861 C9.86911076,2.46281485 10.0627984,2.91223076 10.0627984,3.44487984 C10.0627984,4.19543081 9.68147583,4.80373114 8.9188192,5.26979909 L7.78391917,5.9598183 C7.51759464,6.12929755 7.34811793,6.30785337 7.27548396,6.49549112 L10.0991152,6.49549112 L10.0991152,7.57591594 L5.74109912,7.57591594 C5.74715195,7.02510838 5.85458808,6.54391558 6.06341073,6.13232311 C6.27223338,5.72073064 6.62783183,5.363619 7.13021676,5.06097748 L8.10169118,4.47990867 C8.56775912,4.20147847 8.8007896,3.86252505 8.8007896,3.46303824 C8.8007896,3.23908352 8.72361717,3.04842222 8.56926999,2.89104863 C8.41492282,2.73367504 8.19551101,2.65498942 7.91102798,2.65498942 C7.60838646,2.65498942 7.37686917,2.74578052 7.21646916,2.92736543 C7.05606915,3.10895034 6.97587035,3.34500719 6.97587035,3.63554305 C6.97587035,3.74449399 6.9910022,3.85344331 7.02126635,3.96239425 Z M10.6711048,6.31390711 L10.6711048,5.00650228 L13.1497265,1.683515 L14.6931905,1.683515 L14.6931905,5.24256149 L15.664665,5.24256149 L15.664665,6.31390711 L14.6931905,6.31390711 L14.6931905,7.57591594 L13.4584193,7.57591594 L13.4584193,6.31390711 L10.6711048,6.31390711 Z M13.4584193,5.24256149 L13.4584193,2.99091983 L11.7787673,5.24256149 L13.4584193,5.24256149 Z M17.7438018,3.13618703 C17.5319528,3.46909271 17.4260298,3.96844372 17.4260298,4.63425507 C17.4260298,5.30006642 17.5319528,5.79941743 17.7438018,6.13232311 C17.9435452,6.45312312 18.2401295,6.61352072 18.6335634,6.61352072 C19.0209446,6.61352072 19.3145025,6.45312312 19.5142459,6.13232311 C19.7321478,5.80547027 19.8410971,5.30611925 19.8410971,4.63425507 C19.8410971,3.96239089 19.7321478,3.46303988 19.5142459,3.13618703 C19.3145025,2.81538702 19.0209446,2.65498942 18.6335634,2.65498942 C18.2401295,2.65498942 17.9435452,2.81538702 17.7438018,3.13618703 Z M16.6906146,6.73155032 C16.3456033,6.20495408 16.1731002,5.50586265 16.1731002,4.63425507 C16.1731002,3.76264749 16.3456033,3.06355606 16.6906146,2.53695982 C17.1324712,1.8772013 17.7801144,1.54732699 18.6335634,1.54732699 C19.4870125,1.54732699 20.1316293,1.8772013 20.5674331,2.53695982 C20.9184973,3.06960889 21.0940267,3.76870032 21.0940267,4.63425507 C21.0940267,5.49980982 20.9184973,6.19890125 20.5674331,6.73155032 C20.1316293,7.39130884 19.4870125,7.72118315 18.6335634,7.72118315 C17.7801144,7.72118315 17.1324712,7.39130884 16.6906146,6.73155032 Z M22.2924811,7.40341114 C22.1290547,7.23998472 22.0473427,7.04327068 22.0473427,6.81326312 C22.0473427,6.58325557 22.1290547,6.38805472 22.2924811,6.22765471 C22.4559076,6.0672547 22.6495952,5.9870559 22.8735499,5.9870559 C23.1035575,5.9870559 23.3002715,6.0672547 23.463698,6.22765471 C23.6271244,6.38805472 23.7088364,6.58325557 23.7088364,6.81326312 C23.7088364,7.04327068 23.6271244,7.23847153 23.463698,7.39887154 C23.3002715,7.55927155 23.1035575,7.63947035 22.8735499,7.63947035 C22.6495952,7.63947035 22.4559076,7.56078473 22.2924811,7.40341114 Z M24.5804396,6.31390711 L24.5804396,5.00650228 L27.0590613,1.683515 L28.6025253,1.683515 L28.6025253,5.24256149 L29.5739997,5.24256149 L29.5739997,6.31390711 L28.6025253,6.31390711 L28.6025253,7.57591594 L27.3677541,7.57591594 L27.3677541,6.31390711 L24.5804396,6.31390711 Z M27.3677541,5.24256149 L27.3677541,2.99091983 L25.688102,5.24256149 L27.3677541,5.24256149 Z M30.0007221,6.31390711 L30.0007221,5.00650228 L32.4793438,1.683515 L34.0228078,1.683515 L34.0228078,5.24256149 L34.9942823,5.24256149 L34.9942823,6.31390711 L34.0228078,6.31390711 L34.0228078,7.57591594 L32.7880366,7.57591594 L32.7880366,6.31390711 L30.0007221,6.31390711 Z M32.7880366,5.24256149 L32.7880366,2.99091983 L31.1083846,5.24256149 L32.7880366,5.24256149 Z" id="$240.44" fill="#1F2140"></path>
                                </g>
                            </g>
                        </g>
                    </g>
                    <g id="Group-107-Copy" transform="translate(49.440004, 163.930014)">
                        <rect id="Rectangle" stroke="#DADADC" stroke-width="2.26980028" fill="#FFFFFF" fill-rule="nonzero" stroke-linecap="round" stroke-linejoin="round" x="0.983764121" y="0.522657953" width="357.115244" height="52.9620045" rx="6.05280075"></rect>
                        <path d="M19.7401589,27.7420023 L37.7217847,27.7420023" id="Line-39-Copy-4" stroke="#B6B6BA" stroke-width="3.02640038" fill="#FFFFFF" fill-rule="nonzero" opacity="0.599999964" stroke-linecap="round" stroke-linejoin="round"></path>
                        <circle id="Oval" fill="#D4D4D6" fill-rule="nonzero" cx="13.8710012" cy="27.7420023" r="2.52200021"></circle>
                        <path d="M19.7401589,39.0910033 L52.8878683,39.0910033" id="Line-39-Copy-11" stroke="#B6B6BA" stroke-width="3.02640038" fill="#FFFFFF" fill-rule="nonzero" opacity="0.599999964" stroke-linecap="round" stroke-linejoin="round"></path>
                        <circle id="Oval-Copy-45" fill="#D4D4D6" fill-rule="nonzero" cx="13.8710012" cy="39.0910033" r="2.52200021"></circle>
                        <path d="M75.2241636,27.7420023 L103.545106,27.7420023" id="Line-39-Copy-13" stroke="#B6B6BA" stroke-width="3.02640038" fill="#FFFFFF" fill-rule="nonzero" opacity="0.599999964" stroke-linecap="round" stroke-linejoin="round"></path>
                        <path d="M252.173867,30.3216556 L261.876867,30.3216556" id="Line-39-Copy-14" stroke="#B6B6BA" stroke-width="3.02640038" fill="#FFFFFF" fill-rule="nonzero" opacity="0.599999964" stroke-linecap="round" stroke-linejoin="round"></path>
                        <circle id="Oval" fill="#FAE900" fill-rule="nonzero" cx="243.969194" cy="29.9125476" r="3.59371206"></circle>
                        <circle id="Oval-Copy-47" fill="#D4D4D6" fill-rule="nonzero" cx="69.3550059" cy="27.7420023" r="2.52200021"></circle>
                        <path d="M75.2241636,39.0910033 L129.725751,39.0910033" id="Line-39-Copy-12" stroke="#B6B6BA" stroke-width="3.02640038" fill="#FFFFFF" fill-rule="nonzero" opacity="0.599999964" stroke-linecap="round" stroke-linejoin="round"></path>
                        <circle id="Oval-Copy-46" fill="#D4D4D6" fill-rule="nonzero" cx="69.3550059" cy="39.0910033" r="2.52200021"></circle>
                        <path d="M12.7868168,13.1453415 L63.226821,13.1453415" id="Line-39-Copy" stroke="#006CFA" stroke-width="3.78300032" stroke-linecap="round" stroke-linejoin="round" fill-rule="nonzero"></path>
                        <g id="Group-104" transform="translate(169.453385, 20.233655)" fill-rule="nonzero">
                            <circle id="Oval" stroke="#FFFFFF" stroke-width="1.51320019" fill="#DADADC" stroke-linecap="round" stroke-linejoin="round" cx="10.0625275" cy="9.89939389" r="9.83580122"></circle>
                            <path d="M10.0625275,10.4113994 C12.6723144,10.4113994 14.7879648,11.4754135 14.7879648,12.7879415 L14.7879648,14.5140561 L5.33709014,14.5140561 L5.33709014,12.7879415 C5.33709014,11.4754135 7.4527405,10.4113994 10.0625275,10.4113994 Z M10.0625275,9.5911914 C8.93271352,9.5911914 8.01681834,8.67529623 8.01681834,7.54548228 C8.01681834,6.41566833 8.93271352,5.49977316 10.0625275,5.49977316 C11.1923414,5.49977316 12.1082366,6.41566833 12.1082366,7.54548228 C12.1082366,8.67529623 11.1923414,9.5911914 10.0625275,9.5911914 Z" id="Combined-Shape" fill="#FFFFFF"></path>
                        </g>
                        <g id="Group-23-Copy-5" transform="translate(152.433032, 27.637916)"></g>
                        <path d="M300.79568,31.0121273 L299.869602,31.0121273 L299.869602,30.0406528 C299.282477,29.961966 298.823982,29.741041 298.494103,29.3778712 C298.164224,29.0147013 297.975075,28.6152205 297.926653,28.1794167 L299.052474,27.9070407 C299.082738,28.2217879 299.203793,28.4835689 299.415642,28.6923915 C299.627491,28.9012142 299.930128,29.005624 300.323562,29.005624 C300.614098,29.005624 300.842589,28.9435834 301.009042,28.8195003 C301.175494,28.6954173 301.25872,28.5304801 301.25872,28.3246839 C301.25872,27.9917782 301.031742,27.7769059 300.577779,27.6800606 L299.742493,27.4984766 C299.246161,27.3895257 298.857272,27.1852457 298.575816,26.8856306 C298.294359,26.5860155 298.153633,26.2213379 298.153633,25.7915869 C298.153633,25.3194661 298.315544,24.9169589 298.63937,24.5840532 C298.963197,24.2511475 299.37327,24.0453543 299.869602,23.9666675 L299.869602,22.9951931 L300.79568,22.9951931 L300.79568,23.9939051 C301.273854,24.0786448 301.646097,24.2647665 301.912422,24.552276 C302.178747,24.8397854 302.348223,25.1620938 302.420857,25.5192109 L301.304116,25.8369829 C301.267799,25.6251338 301.169442,25.4314461 301.009042,25.255914 C300.848641,25.080382 300.601992,24.9926172 300.269087,24.9926172 C299.990656,24.9926172 299.771245,25.0622237 299.610845,25.2014388 C299.450445,25.3406539 299.370246,25.5071043 299.370246,25.7007949 C299.370246,26.0155421 299.579065,26.2183089 299.996711,26.3091013 L300.822918,26.4997645 C301.373725,26.6208212 301.788338,26.8372066 302.066768,27.1489274 C302.345199,27.4606482 302.484412,27.8283521 302.484412,28.2520503 C302.484412,28.6878541 302.334606,29.0722031 302.034991,29.4051088 C301.735376,29.7380145 301.322277,29.946834 300.79568,30.0315736 L300.79568,31.0121273 Z M307.822982,24.1936476 L307.477972,25.210518 C307.151119,25.0713029 306.827298,25.0016964 306.506498,25.0016964 C305.992007,25.0016964 305.554696,25.1484754 305.194553,25.4420377 C304.83441,25.7356 304.621051,26.1517258 304.554469,26.6904278 C304.675526,26.5088428 304.858621,26.354498 305.103761,26.2273885 C305.348901,26.1002791 305.631866,26.0367253 305.952666,26.0367253 C306.564002,26.0367253 307.055787,26.2152811 307.428036,26.5723982 C307.800286,26.9295152 307.986407,27.410708 307.986407,28.0159911 C307.986407,28.6152213 307.770022,29.1100328 307.337244,29.5004404 C306.904467,29.890848 306.361234,30.0860489 305.707528,30.0860489 C305.029611,30.0860489 304.462166,29.8484788 304.005178,29.3733316 C303.548189,28.8981844 303.319698,28.2338962 303.319698,27.380447 C303.319698,26.3272545 303.619309,25.4874368 304.218539,24.8609688 C304.817769,24.2345008 305.607652,23.9212715 306.58821,23.9212715 C307.102701,23.9212715 307.514287,24.0120626 307.822982,24.1936476 Z M304.66342,28.0432287 C304.66342,28.3337646 304.764803,28.5713346 304.967573,28.7559459 C305.170343,28.9405573 305.413966,29.0328616 305.698449,29.0328616 C305.995037,29.0328616 306.2432,28.9420705 306.442943,28.7604855 C306.642687,28.5789006 306.742557,28.3398174 306.742557,28.0432287 C306.742557,27.74664 306.642687,27.5090699 306.442943,27.3305114 C306.2432,27.1519529 305.995037,27.062675 305.698449,27.062675 C305.407913,27.062675 305.162777,27.1519529 304.963033,27.3305114 C304.76329,27.5090699 304.66342,27.74664 304.66342,28.0432287 Z M310.165415,25.5101317 C309.953566,25.8430374 309.847643,26.3423884 309.847643,27.0081998 C309.847643,27.6740112 309.953566,28.1733622 310.165415,28.5062679 C310.365159,28.8270679 310.661743,28.9874656 311.055177,28.9874656 C311.442558,28.9874656 311.736116,28.8270679 311.93586,28.5062679 C312.153762,28.1794151 312.262711,27.680064 312.262711,27.0081998 C312.262711,26.3363356 312.153762,25.8369845 311.93586,25.5101317 C311.736116,25.1893316 311.442558,25.028934 311.055177,25.028934 C310.661743,25.028934 310.365159,25.1893316 310.165415,25.5101317 Z M309.112228,29.1054952 C308.767217,28.5788989 308.594714,27.8798074 308.594714,27.0081998 C308.594714,26.1365922 308.767217,25.4375007 309.112228,24.9109044 C309.554085,24.2511459 310.201728,23.9212715 311.055177,23.9212715 C311.908626,23.9212715 312.553243,24.2511459 312.989047,24.9109044 C313.340111,25.4435535 313.515641,26.142645 313.515641,27.0081998 C313.515641,27.8737546 313.340111,28.5728461 312.989047,29.1054952 C312.553243,29.7652537 311.908626,30.0951281 311.055177,30.0951281 C310.201728,30.0951281 309.554085,29.7652537 309.112228,29.1054952 Z M314.714095,29.777356 C314.550669,29.6139296 314.468957,29.4172155 314.468957,29.187208 C314.468957,28.9572004 314.550669,28.7619995 314.714095,28.6015995 C314.877521,28.4411995 315.071209,28.3610007 315.295164,28.3610007 C315.525171,28.3610007 315.721886,28.4411995 315.885312,28.6015995 C316.048738,28.7619995 316.13045,28.9572004 316.13045,29.187208 C316.13045,29.4172155 316.048738,29.6124164 315.885312,29.7728164 C315.721886,29.9332164 315.525171,30.0134152 315.295164,30.0134152 C315.071209,30.0134152 314.877521,29.9347296 314.714095,29.777356 Z M318.654468,27.335051 L318.100637,26.4634477 L319.644101,25.1378844 L317.065608,25.1378844 L317.065608,24.0574595 L321.232961,24.0574595 L321.232961,25.0652508 L319.707655,26.3363389 C320.173723,26.3544974 320.574717,26.5285137 320.91065,26.858393 C321.246582,27.1882723 321.414545,27.6134772 321.414545,28.1340207 C321.414545,28.6666698 321.208752,29.1251648 320.79716,29.5095196 C320.385567,29.8938744 319.837794,30.0860489 319.153824,30.0860489 C318.494066,30.0860489 317.958398,29.9029535 317.546806,29.5367572 C317.135213,29.1705609 316.911262,28.7271977 316.874945,28.2066543 L318.082479,27.9705951 C318.094584,28.2732366 318.198994,28.521399 318.395711,28.7150895 C318.592428,28.9087801 318.84513,29.005624 319.153824,29.005624 C319.456466,29.005624 319.698575,28.9208856 319.88016,28.7514063 C320.061745,28.5819271 320.152536,28.3700812 320.152536,28.1158623 C320.152536,27.8434849 320.063258,27.6301258 319.8847,27.4757786 C319.706141,27.3214314 319.474624,27.244259 319.190141,27.244259 C319.002503,27.244259 318.823947,27.2745227 318.654468,27.335051 Z M323.638949,25.5101317 C323.4271,25.8430374 323.321177,26.3423884 323.321177,27.0081998 C323.321177,27.6740112 323.4271,28.1733622 323.638949,28.5062679 C323.838693,28.8270679 324.135277,28.9874656 324.528711,28.9874656 C324.916092,28.9874656 325.20965,28.8270679 325.409394,28.5062679 C325.627295,28.1794151 325.736245,27.680064 325.736245,27.0081998 C325.736245,26.3363356 325.627295,25.8369845 325.409394,25.5101317 C325.20965,25.1893316 324.916092,25.028934 324.528711,25.028934 C324.135277,25.028934 323.838693,25.1893316 323.638949,25.5101317 Z M322.585762,29.1054952 C322.240751,28.5788989 322.068248,27.8798074 322.068248,27.0081998 C322.068248,26.1365922 322.240751,25.4375007 322.585762,24.9109044 C323.027619,24.2511459 323.675262,23.9212715 324.528711,23.9212715 C325.38216,23.9212715 326.026777,24.2511459 326.462581,24.9109044 C326.813645,25.4435535 326.989174,26.142645 326.989174,27.0081998 C326.989174,27.8737546 326.813645,28.5728461 326.462581,29.1054952 C326.026777,29.7652537 325.38216,30.0951281 324.528711,30.0951281 C323.675262,30.0951281 323.027619,29.7652537 322.585762,29.1054952 Z" id="$60.30" fill="#1F2140"></path>
                    </g>
                    <path d="M12.7000608,2.72564334 L410.640174,2.72564334 C416.490196,2.72564334 421.232575,7.46802295 421.232575,13.3180447 L421.232575,21.5146155 L2.10765948,21.5146155 L2.10765948,13.3180447 C2.10765948,7.46802295 6.85003909,2.72564334 12.7000608,2.72564334 Z" id="Rectangle" fill="#F5F7FA" fill-rule="nonzero"></path>
                    <g id="Rectangle" transform="translate(2.026400, 21.184803)">
                        <mask id="mask-10" fill="white">
                            <use xlink:href="#path-9"></use>
                        </mask>
                        <use id="Mask" fill="#B7C2C8" fill-rule="nonzero" xlink:href="#path-9"></use>
                        <rect fill="#899DA9" fill-rule="nonzero" mask="url(#mask-10)" x="-1.04603854" y="-1.1833873" width="33.182411" height="28.7508036"></rect>
                    </g>
                    <path d="M24.6342057,35.9533383 C24.2171981,39.5736216 21.0717901,42.3874685 17.2534419,42.3874685 C13.438458,42.3874685 10.295229,39.578578 9.87378659,35.9629059 C8.88478225,35.6394459 8.17209725,34.7272557 8.17209725,33.6525001 C8.17209725,32.3071557 9.28881959,31.2165386 10.6663664,31.2165386 C10.7751533,31.2165386 10.8823136,31.2233402 10.9874257,31.2365318 C12.3063411,29.2179776 14.6198249,27.8793659 17.2534419,27.8793659 C19.8857209,27.8793659 22.198192,29.2166179 23.5174472,31.2334559 C23.6143579,31.2222842 23.7129701,31.2165386 23.8129563,31.2165386 C25.1905031,31.2165386 26.3072255,32.3071557 26.3072255,33.6525001 C26.3072255,34.7168422 25.6082842,35.6217539 24.6342057,35.9533383 Z M10.0186833,34.79646 C10.6123222,34.79646 11.0935617,34.3264703 11.0935617,33.7467086 C11.0935617,33.1669469 10.6123222,32.6969572 10.0186833,32.6969572 C9.4250443,32.6969572 8.94380484,33.1669469 8.94380484,33.7467086 C8.94380484,34.3264703 9.4250443,34.79646 10.0186833,34.79646 Z M24.4606395,34.79646 C25.0542784,34.79646 25.5355179,34.3264703 25.5355179,33.7467086 C25.5355179,33.1669469 25.0542784,32.6969572 24.4606395,32.6969572 C23.8670005,32.6969572 23.385761,33.1669469 23.385761,33.7467086 C23.385761,34.3264703 23.8670005,34.79646 24.4606395,34.79646 Z M22.5546199,36.6786501 C22.5549596,36.6602473 22.55513,36.641814 22.55513,36.6233511 C22.55513,35.6451452 22.0767745,34.7499772 21.2844368,34.0600137 C21.6081973,33.6644256 21.8013471,33.1652805 21.8013471,32.6227389 C21.8013471,31.3384803 20.7190835,30.297383 19.3840436,30.297383 C18.4810403,30.297383 17.6936819,30.773684 17.2786501,31.4793677 C16.8636184,30.773684 16.07626,30.297383 15.1732567,30.297383 C13.8382168,30.297383 12.7559531,31.3384803 12.7559531,32.6227389 C12.7559531,33.147288 12.9365044,33.6312712 13.2410858,34.0203172 C12.4211803,34.715474 11.9241927,35.6262765 11.9241927,36.6233511 C11.9241927,36.6473907 11.9244816,36.6713801 11.925057,36.6953176 C13.0427993,37.3963595 14.9995673,37.8610406 17.2266651,37.8610406 C19.4713661,37.8610406 21.4414469,37.3889847 22.5546199,36.6786501 Z M22.44698,37.4201112 C21.3171584,38.0933363 19.4007142,38.5361439 17.2266651,38.5361439 C15.0724475,38.5361439 13.1711565,38.1013779 12.0374646,37.4384769 C12.5428829,39.22925 14.6799824,40.5739557 17.2396614,40.5739557 C19.8080833,40.5739557 21.9510342,39.2200482 22.44698,37.4201112 Z M18.8641933,33.9229379 C18.3043379,33.9229379 17.8504854,33.4863487 17.8504854,32.9477886 C17.8504854,32.4092286 18.3043379,31.9726394 18.8641933,31.9726394 C19.4240488,31.9726394 19.8779013,32.4092286 19.8779013,32.9477886 C19.8779013,33.4863487 19.4240488,33.9229379 18.8641933,33.9229379 Z M15.5631444,33.9229379 C15.0032889,33.9229379 14.5494364,33.4863487 14.5494364,32.9477886 C14.5494364,32.4092286 15.0032889,31.9726394 15.5631444,31.9726394 C16.1229998,31.9726394 16.5768523,32.4092286 16.5768523,32.9477886 C16.5768523,33.4863487 16.1229998,33.9229379 15.5631444,33.9229379 Z" id="Shape" fill="#FFFFFF"></path>
                    <path d="M32.2904041,47.6164078 L421.182852,47.6164078" id="Line-35" stroke="#DADADC" stroke-width="2.26980028" fill="#FFFFFF" fill-rule="nonzero"></path>
                    <circle id="Oval" fill="#D2DBE8" fill-rule="nonzero" cx="15.0052327" cy="12.4984295" r="3.02640038"></circle>
                    <circle id="Oval-Copy-10" fill="#D2DBE8" fill-rule="nonzero" cx="24.7822678" cy="12.4984295" r="3.02640038"></circle>
                    <circle id="Oval-Copy-12" fill="#D2DBE8" fill-rule="nonzero" cx="34.559303" cy="12.4984295" r="3.02640038"></circle>
                    <g id="Group-22" transform="translate(48.000673, 34.981937) rotate(-45.000000) translate(-48.000673, -34.981937) translate(42.956673, 27.415936)" fill="#FFFFFF" fill-rule="nonzero" stroke="#B6B6BA" stroke-width="2.26980028">
                        <circle id="Oval" cx="5.29620066" cy="5.29620066" r="4.65443812"></circle>
                        <path d="M5.29620066,9.95063877 L5.29620066,14.246547" id="Line-38" stroke-linecap="round" stroke-linejoin="round"></path>
                    </g>
                    <path d="M59.777803,33.4681195 L142.296471,33.4681195" id="Line-39" stroke="#B6B6BA" stroke-width="3" fill="#FFFFFF" fill-rule="nonzero" opacity="0.362211682" stroke-linecap="round" stroke-linejoin="round"></path>
                    <path d="M82.4758049,64.9931221 L124.70194,64.9931221" id="Line-39-Copy-3" stroke="#B6B6BA" stroke-width="3.02640038" fill="#FFFFFF" fill-rule="nonzero" stroke-linecap="round" stroke-linejoin="round"></path>
                    <path d="M82.4758049,75.081123 L102.651807,75.081123" id="Line-39-Copy-4" stroke="#B6B6BA" stroke-width="3.02640038" fill="#FFFFFF" fill-rule="nonzero" opacity="0.599999964" stroke-linecap="round" stroke-linejoin="round"></path>
                    <path d="M51.6847685,92.7351245 L74.3827704,92.7351245" id="Line-39-Copy-7" stroke="#006CFA" stroke-width="3.78300032" stroke-linecap="round" stroke-linejoin="round" fill-rule="nonzero"></path>
                    <path d="M86.5724381,92.7351245 L109.27044,92.7351245" id="Line-39-Copy-8" stroke="#B6B6BA" stroke-width="3.78300032" stroke-linecap="round" stroke-linejoin="round" fill-rule="nonzero"></path>
                    <path d="M166.435778,92.7351245 L184.08978,92.7351245" id="Line-39-Copy-10" stroke="#B6B6BA" stroke-width="3.78300032" stroke-linecap="round" stroke-linejoin="round" fill-rule="nonzero"></path>
                    <path d="M121.460108,92.7351245 L154.24611,92.7351245" id="Line-39-Copy-9" stroke="#B6B6BA" stroke-width="3.78300032" stroke-linecap="round" stroke-linejoin="round" fill-rule="nonzero"></path>
                    <path d="M114.000808,75.081123 L134.176809,75.081123" id="Line-39-Copy-5" stroke="#B6B6BA" stroke-width="3.02640038" fill="#FFFFFF" fill-rule="nonzero" opacity="0.599999964" stroke-linecap="round" stroke-linejoin="round"></path>
                    <path d="M339.695022,33.4681195 L366.707646,33.4681195" id="Line-39-Copy-2" stroke="#B6B6BA" stroke-width="3.02640038" fill="#FFFFFF" fill-rule="nonzero" stroke-linecap="round" stroke-linejoin="round"></path>
                    <path d="M339.695022,33.4681195 L366.707646,33.4681195" id="Line-39-Copy-6" stroke="#B6B6BA" stroke-width="3.02640038" fill="#FFFFFF" fill-rule="nonzero" stroke-linecap="round" stroke-linejoin="round"></path>
                    <path d="M401.405952,33.4681195 L410.485153,33.4681195" id="Line-40" stroke="#B6B6BA" stroke-width="2.26980028" fill="#FFFFFF" fill-rule="nonzero" stroke-linecap="round" stroke-linejoin="round"></path>
                    <g id="Group-23" transform="translate(323.680550, 28.171919)" fill="#FFFFFF" fill-rule="nonzero" stroke="#B6B6BA" stroke-width="2.26980028">
                        <circle id="Oval" cx="4.42681555" cy="1.58789561" r="2.33791288"></circle>
                        <path d="M4.42681555,6.78325856 C2.01197143,6.78325856 0.0543534871,7.76779419 0.0543534871,8.98228043 L0.0543534871,10.5861594 L8.79927762,10.5861594 L8.79927762,8.98228043 C8.79927762,7.76779419 6.84165967,6.78325856 4.42681555,6.78325856 Z" id="Path"></path>
                    </g>
                    <path d="M401.405952,33.4681195 L410.485153,33.4681195" id="Line-40-Copy" stroke="#B6B6BA" stroke-width="2.26980028" fill="#FFFFFF" fill-rule="nonzero" stroke-linecap="round" stroke-linejoin="round" transform="translate(405.945553, 33.468119) rotate(-270.000000) translate(-405.945553, -33.468119) "></path>
                    <path d="M387.892448,38.1922675 C387.957632,38.1922675 388.01816,38.1876115 388.078688,38.1736435 C388.381328,38.1084595 388.628096,37.9035955 388.749152,37.6242354 C388.795712,37.5124914 388.818992,37.3914354 388.818992,37.2610674 L386.956592,37.2610674 C386.961248,37.7732275 387.375632,38.1922675 387.892448,38.1922675 L387.892448,38.1922675 Z M390.686049,33.0706669 C390.686049,31.6412747 389.922465,30.4446825 388.590848,30.1280745 L388.590848,29.8114665 C388.590848,29.4250184 388.278896,29.1130664 387.892448,29.1130664 C387.506,29.1130664 387.194048,29.4250184 387.194048,29.8114665 L387.194048,30.1280745 C385.857776,30.4446825 385.098848,31.6366187 385.098848,33.0706669 L385.098848,35.3986672 L384.167648,36.3298673 L384.167648,36.7954673 L391.617249,36.7954673 L391.617249,36.3298673 L390.686049,35.3986672 L390.686049,33.0706669 L390.686049,33.0706669 Z" id="Icon" stroke="#B6B6BA" stroke-width="2.26980028" fill="#FFFFFF" fill-rule="nonzero"></path>
                    <circle id="Oval" fill="#899DA9" fill-rule="nonzero" cx="17.1480193" cy="64.2857124" r="5.04400043"></circle>
                    <circle id="Oval-Copy-41" fill="#899DA9" fill-rule="nonzero" cx="17.1480193" cy="89.5057146" r="5.04400043"></circle>
                    <circle id="Oval-Copy-42" fill="#899DA9" fill-rule="nonzero" cx="17.1480193" cy="114.725717" r="5.04400043"></circle>
                    <circle id="Oval-Copy-43" fill="#899DA9" fill-rule="nonzero" cx="17.1480193" cy="139.945719" r="5.04400043"></circle>
                    <circle id="Oval-Copy-44" fill="#899DA9" fill-rule="nonzero" cx="17.1480193" cy="255.957729" r="5.04400043"></circle>
                    <circle id="Oval" stroke="#B6B6BA" stroke-width="1.94000006" fill="#FFFFFF" fill-rule="nonzero" cx="62.5722869" cy="69.2865593" r="10.7185009"></circle>
                    <g id="Group-23-Copy-5" transform="translate(59.660790, 64.875708)" fill="#B6B6BA" fill-rule="nonzero" stroke="#B6B6BA">
                        <circle id="Oval" stroke-width="0.970000029" cx="2.94904037" cy="1.36899375" r="1.75170154"></circle>
                        <path d="M2.94904037,5.4888473 C1.34032804,5.4888473 0.0362090143,6.14472177 0.0362090143,6.95378393 L0.0362090143,8.02225034 L5.86187173,8.02225034 L5.86187173,6.95378393 C5.86187173,6.14472177 4.55775271,5.4888473 2.94904037,5.4888473 Z" id="Path" stroke-width="2.26980028"></path>
                    </g>
                    <rect id="Rectangle" fill="#006CFA" fill-rule="nonzero" x="295.257643" y="64.8730589" width="35.308003" height="15.1320013" rx="7.56600064"></rect>
                    <rect id="Rectangle-Copy-16" fill="#DADADC" fill-rule="nonzero" x="394.058464" y="64.8730589" width="15.1320013" height="15.1320013" rx="7.56600064"></rect>
                    <rect id="Rectangle-Copy-9" fill="#006CFA" fill-rule="nonzero" x="334.570053" y="64.8730589" width="55.4840047" height="15.1320013" rx="7.56600064"></rect>
                    <rect id="Rectangle" fill="#E8E8E8" fill-rule="nonzero" x="50.4237684" y="226.241677" width="357.115244" height="32.7860028" rx="6.05280075"></rect>
                    <g id="Group-110" transform="translate(206.283389, 233.847073)" fill-rule="nonzero">
                        <path d="M20.6653461,9.34467042 L43.9026465,9.34467042" id="Line-39-Copy-12" stroke="#B6B6BA" stroke-width="3.02640038" fill="#FFFFFF" opacity="0.599999964" stroke-linecap="round" stroke-linejoin="round"></path>
                        <g id="Group-109" transform="translate(0.630501, 1.221605)">
                            <rect id="Rectangle-Copy-16" fill="#006CFA" x="0.378918988" y="0.977283595" width="14.1232004" height="14.1232004" rx="7.06160018"></rect>
                            <path d="M4.9185191,8.03888377 L9.96251923,8.03888377" id="Line-43" stroke="#FFFFFF" stroke-width="1.00880003" stroke-linecap="round" stroke-linejoin="round"></path>
                            <path d="M4.9185191,8.03888377 L9.96251923,8.03888377" id="Line-43-Copy" stroke="#FFFFFF" stroke-width="1.00880003" stroke-linecap="round" stroke-linejoin="round" transform="translate(7.440519, 8.038884) rotate(-270.000000) translate(-7.440519, -8.038884) "></path>
                        </g>
                    </g>
                </g>
                <circle id="Oval-2-Copy-6" fill="#25C286" fill-rule="nonzero" cx="202.936884" cy="383.278836" r="2.14"></circle>
            </g>
        </g>
    </g>
</svg>