<?xml version="1.0" encoding="UTF-8"?>
<svg width="94px" height="96px" viewBox="0 0 94 96" version="1.1" xmlns="http://www.w3.org/2000/svg" xmlns:xlink="http://www.w3.org/1999/xlink">
    <!-- Generator: Sketch 52.5 (67469) - http://www.bohemiancoding.com/sketch -->
    <title>Group 12</title>
    <desc>Created with Sketch.</desc>
    <g id="illustration---2019" stroke="none" stroke-width="1" fill="none" fill-rule="evenodd">
        <g id="Artboard" transform="translate(-667.000000, -763.000000)">
            <g id="Group-12" transform="translate(667.500000, 762.762831)">
                <path d="M12.6292683,20.7913828 C12.6292683,18.1451752 14.7667689,16 17.4035095,16 L63.2362247,16 C65.8729653,16 68.0104659,18.1451752 68.0104659,20.7913828 L68.0104659,89.308157 C68.0104659,91.9543647 65.8729653,94.0995398 63.2362247,94.0995398 L17.4035095,94.0995398 C14.7667689,94.0995398 12.6292683,91.9543647 12.6292683,89.308157 L12.6292683,20.7913828 Z" id="Rectangle-2" stroke="#666E78" stroke-width="3" fill="#FFFFFF" fill-rule="nonzero" stroke-linecap="round" stroke-linejoin="round"></path>
                <path d="M14.1064084,85.2299982 L68.0104659,85.2299982" id="Line" stroke="#DADADC" stroke-width="2" fill="#FFFFFF" fill-rule="nonzero"></path>
                <path d="M14.1064084,25.8899997 L66.6387448,25.8899997" id="Line" stroke="#DADADC" stroke-width="2" fill="#FFFFFF" fill-rule="nonzero"></path>
                <circle id="Oval-2-Copy-16" fill="#006CFA" fill-rule="nonzero" cx="83.7031158" cy="23" r="3"></circle>
                <circle id="Oval-2-Copy-15" fill="#F82722" fill-rule="nonzero" cx="2.35085917" cy="34.6665547" r="2"></circle>
                <circle id="Oval-2-Copy-14" fill="#25C286" fill-rule="nonzero" cx="26.7460997" cy="2.10578658" r="1.5"></circle>
                <ellipse id="Oval" fill="#006CFA" cx="40.3198671" cy="89.2910731" rx="1.67745297" ry="1.68347576"></ellipse>
                <g id="Group-2" transform="translate(38.787804, 20.134146)" fill="#39454D" opacity="0.2">
                    <ellipse id="Oval-2" cx="1.61613615" cy="1.35775417" rx="1.05797349" ry="1.06177209"></ellipse>
                </g>
                <path d="M44.3999991,92.8267314 L44.3999991,42.0999993 C44.3999991,38.1235492 47.6235489,34.8999995 51.599999,34.8999995 L66.6387448,34.8999995 L66.2630669,92.8267314 L44.3999991,92.8267314 Z" id="Combined-Shape" fill="#666E78" opacity="0.28280785"></path>
                <g id="Group-3" stroke-linecap="round" stroke-linejoin="round" transform="translate(51.643901, 38.653658)">
                    <rect id="Rectangle-4" stroke="#979797" stroke-width="0.575999985" fill="#D8D8D8" x="0.606282737" y="8.43335077" width="30.1382849" height="37.2759242"></rect>
                    <path d="M0.318282745,4.79138281 C0.318282745,2.14517515 2.45578333,0 5.09252392,0 L27.0540333,0 C29.6907739,0 31.8282745,2.14517515 31.8282745,4.79138281 L31.8282745,50.628945 C31.8282745,53.2751527 29.6907739,55.4203279 27.0540333,55.4203279 L5.09252392,55.4203279 C2.45578333,55.4203279 0.318282745,53.2751527 0.318282745,50.628945 L0.318282745,4.79138281 Z" id="Rectangle-2" stroke="#666E78" stroke-width="3" fill="#FFFFFF" fill-rule="nonzero"></path>
                    <path d="M1.65249626,8.14535078 L31.8282745,8.14535078" id="Line" stroke="#DADADC" stroke-width="2" fill="#FFFFFF" fill-rule="nonzero"></path>
                    <path d="M1.65249626,46.8699988 L30.4722573,46.9040964" id="Line" stroke="#DADADC" stroke-width="2" fill="#FFFFFF" fill-rule="nonzero"></path>
                    <ellipse id="Oval" fill="#006CFA" cx="16.0732786" cy="51.1096773" rx="1.56500922" ry="1.57062829"></ellipse>
                </g>
                <g id="Group-5" stroke-linecap="round" stroke-linejoin="round" transform="translate(71.039023, 33.799999)">
                    <ellipse id="Oval-3-Copy-9" stroke="#666E78" stroke-width="3" fill="#42D691" cx="10.6892611" cy="10.7204594" rx="9.71163802" ry="9.74650709"></ellipse>
                    <g id="Group-4" transform="translate(5.817623, 7.344673)" fill="#FFFFFF">
                        <path d="M6.15490767,-0.650211211 L6.15490767,-0.650211211 C6.57236085,-0.650211211 6.91077352,-0.311798541 6.91077352,0.105654643 L6.91077352,6.82993161 C6.91077352,7.24738479 6.57236085,7.58579746 6.15490767,7.58579746 L6.15490767,7.58579746 C5.73745448,7.58579746 5.39904181,7.24738479 5.39904181,6.82993161 L5.39904181,0.105654643 C5.39904181,-0.311798541 5.73745448,-0.650211211 6.15490767,-0.650211211 Z" id="Rectangle-7" transform="translate(6.154908, 3.467793) rotate(45.000000) translate(-6.154908, -3.467793) "></path>
                        <path d="M2.48355923,2.1673707 L2.48355923,2.1673707 C2.90101242,2.1673707 3.23942509,2.50578337 3.23942509,2.92323656 L3.23942509,6.39645747 C3.23942509,6.81391065 2.90101242,7.15232332 2.48355923,7.15232332 L2.48355923,7.15232332 C2.06610605,7.15232332 1.72769338,6.81391065 1.72769338,6.39645747 L1.72769338,2.92323656 C1.72769338,2.50578337 2.06610605,2.1673707 2.48355923,2.1673707 Z" id="Rectangle-7-Copy" transform="translate(2.483559, 4.659847) scale(-1, 1) rotate(45.000000) translate(-2.483559, -4.659847) "></path>
                    </g>
                </g>
            </g>
        </g>
    </g>
</svg>