<svg xmlns="http://www.w3.org/2000/svg" xmlns:xlink="http://www.w3.org/1999/xlink" width="202px" height="108px" viewBox="0 0 202 108" version="1.1">
    <!-- Generator: Sketch 53.2 (72643) - https://sketchapp.com -->
    <title>MFM-Logo-White</title>
    <desc>Created with Sketch.</desc>
    <g id="MFM-Logo-White" stroke="none" stroke-width="1" fill="none" fill-rule="evenodd">
        <g id="Group" transform="translate(17.000000, 18.000000)">
            <path d="M18.888,57.272 C18.9840005,57.6026683 19.0453332,57.9706646 19.072,58.376 C19.0986668,58.7813354 19.1040001,59.1439984 19.088,59.464 C19.0719999,59.7840016 19.0213338,60.1946642 18.936,60.696 C18.8506662,61.1973358 18.778667,61.5706654 18.72,61.816 C18.661333,62.0613346 18.565334,62.4586639 18.432,63.008 C18.298666,63.5573361 18.2160002,63.9013326 18.184,64.04 C18.1306664,64.2640011 17.8800022,65.2106583 17.432,66.88 C16.9839978,68.5493417 16.6960006,69.8319955 16.568,70.728 C16.5466666,70.8560006 16.3706683,70.8133344 16.04,70.6 C15.7306651,70.3973323 15.5866666,70.2266674 15.608,70.088 C15.7573341,69.1173285 16.0666643,67.7520088 16.536,65.992 C17.0053357,64.2319912 17.2986661,63.1013358 17.416,62.6 C17.7360016,61.2773267 17.9493328,59.9386734 18.056,58.584 C18.0666667,58.5413331 18.0773333,58.4506674 18.088,58.312 C18.0986667,58.1733326 18.104,58.0640004 18.104,57.984 C18.104,57.9039996 18.1066666,57.7893341 18.112,57.64 C18.1173334,57.4906659 18.1146667,57.3706671 18.104,57.28 C18.0933333,57.1893329 18.0773334,57.0826673 18.056,56.96 C18.0346666,56.8373327 18.0026669,56.7413337 17.96,56.672 C17.9173331,56.6026663 17.8693336,56.5333337 17.816,56.464 C17.7626664,56.3946663 17.6906671,56.3440002 17.6,56.312 C17.5093329,56.2799998 17.4053339,56.2693333 17.288,56.28 C17.0426654,56.3013334 16.7973346,56.3813326 16.552,56.52 C16.3066654,56.6586674 16.0586679,56.8639986 15.808,57.136 C15.5573321,57.4080014 15.3706673,57.6186659 15.248,57.768 C15.1253327,57.9173341 14.9520011,58.1413318 14.728,58.44 C13.9386627,59.5280054 13.2453363,60.6799939 12.648,61.896 C11.7839957,63.570675 11.0213366,65.2933245 10.36,67.064 C10.3386666,67.1173336 10.2426675,67.1013338 10.072,67.016 C9.90133248,66.9306662 9.74400072,66.8160007 9.6,66.672 C9.45599928,66.5279993 9.39999984,66.4080005 9.432,66.312 C10.1146701,64.2639898 10.685331,62.1840106 11.144,60.072 C11.4640016,58.7599934 11.6773328,57.4320067 11.784,56.088 C11.8373336,55.5119971 11.8320003,54.9360029 11.768,54.36 C11.7359998,54.167999 11.7120001,54.0266671 11.696,53.936 C11.6799999,53.8453329 11.6453336,53.7573338 11.592,53.672 C11.5386664,53.5866662 11.474667,53.5333334 11.4,53.512 C10.866664,53.3839994 10.1146715,53.8693278 9.144,54.968 C8.31199584,55.9706717 7.59733632,57.0533275 7,58.216 C5.14399072,61.608017 3.43200784,65.7946418 1.864,70.776 C1.84266656,70.8293336 1.74933416,70.8160004 1.584,70.736 C1.41866584,70.6559996 1.26133408,70.549334 1.112,70.416 C0.96266592,70.282666 0.89866656,70.1733338 0.92,70.088 L5.592,52.648 C5.63466688,52.5093326 5.82133168,52.5519989 6.152,52.776 C6.44000144,52.9893344 6.57333344,53.1599994 6.552,53.288 L4.68,60.264 C5.03200176,59.5066629 5.3813316,58.7973366 5.728,58.136 C6.0746684,57.4746634 6.4746644,56.773337 6.928,56.032 C7.3813356,55.290663 7.82933112,54.6746691 8.272,54.184 C8.71466888,53.6933309 9.16799768,53.2960015 9.632,52.992 C10.0960023,52.6879985 10.5519978,52.5919994 11,52.704 C11.4480022,52.8160006 11.8639981,53.1439973 12.248,53.688 C12.4720011,53.9973349 12.6346662,54.3679978 12.736,54.8 C12.8373338,55.2320022 12.8906666,55.647998 12.896,56.048 C12.9013334,56.448002 12.8640004,56.9226639 12.784,57.472 C12.7039996,58.0213361 12.626667,58.4719982 12.552,58.824 C12.477333,59.1760018 12.3760006,59.618664 12.248,60.152 C12.4613344,59.7359979 12.6506658,59.3813348 12.816,59.088 C12.9813342,58.7946652 13.197332,58.448002 13.464,58.048 C13.730668,57.647998 13.9839988,57.3093347 14.224,57.032 C14.4640012,56.7546653 14.7439984,56.4853346 15.064,56.224 C15.3840016,55.9626654 15.7093317,55.7626674 16.04,55.624 C16.3600016,55.4959994 16.6719985,55.4506665 16.976,55.488 C17.2800015,55.5253335 17.5573321,55.6239992 17.808,55.784 C18.0586679,55.9440008 18.279999,56.1546654 18.472,56.416 C18.664001,56.6773346 18.8026662,56.9626651 18.888,57.272 Z M29.576,62.12 C29.7573342,61.927999 29.8586666,61.9013326 29.88,62.04 C29.88,62.1466672 29.8480003,62.2533328 29.784,62.36 C29.7306664,62.4453338 29.6453339,62.5786658 29.528,62.76 C29.1973317,63.2826693 28.9173345,63.7039984 28.688,64.024 C28.4586655,64.3440016 28.1333354,64.741331 27.712,65.216 C27.2906646,65.690669 26.8666688,66.0159991 26.44,66.192 C26.0133312,66.3680009 25.5920021,66.3866674 25.176,66.248 C24.2266619,65.9279984 23.7413334,65.2133389 23.72,64.104 C23.4426653,64.4346683 23.1760013,64.7359986 22.92,65.008 C22.6639987,65.2800014 22.3866682,65.5439987 22.088,65.8 C21.7893318,66.0560013 21.506668,66.250666 21.24,66.384 C20.973332,66.517334 20.7146679,66.5973332 20.464,66.624 C20.2133321,66.6506668 19.9813344,66.5840008 19.768,66.424 C19.5546656,66.2639992 19.3733341,66.0080018 19.224,65.656 C19.0959994,65.3786653 19.069333,65.0586685 19.144,64.696 C19.218667,64.3333315 19.3359992,63.981335 19.496,63.64 C19.6560008,63.298665 19.8666654,62.9493351 20.128,62.592 C20.3893346,62.2346649 20.6346655,61.9253346 20.864,61.664 C21.0933345,61.4026654 21.3146656,61.1706677 21.528,60.968 C21.6880008,60.8293326 21.8373326,60.7280003 21.976,60.664 C22.1146674,60.5999997 22.2346662,60.5626667 22.336,60.552 C22.4373338,60.5413333 22.5439994,60.5706663 22.656,60.64 C22.7680006,60.7093337 22.8586663,60.7786663 22.928,60.848 C22.9973337,60.9173337 23.0799995,61.0319992 23.176,61.192 C23.2720005,61.3520008 23.3439998,61.4799995 23.392,61.576 C23.4400002,61.6720005 23.5119995,61.8213323 23.608,62.024 C23.6613336,62.1306672 23.6986666,62.2159997 23.72,62.28 C23.9973347,61.9066648 24.2479989,61.5226686 24.472,61.128 C24.5360003,61.0106661 24.7226651,61.0799987 25.032,61.336 C25.3306682,61.5706678 25.4533336,61.7519994 25.4,61.88 C25.0373315,62.5733368 24.8080005,63.3093294 24.712,64.088 C24.6693331,64.4933354 24.7279992,64.8826648 24.888,65.256 C25.0053339,65.4693344 25.1439992,65.5653334 25.304,65.544 C25.6560018,65.4799997 25.9999983,65.3653342 26.336,65.2 C26.6720017,65.0346658 26.9999984,64.8080014 27.32,64.52 C27.6400016,64.2319986 27.903999,63.9786678 28.112,63.76 C28.320001,63.5413322 28.586665,63.2453352 28.912,62.872 C29.237335,62.4986648 29.4586661,62.2480006 29.576,62.12 Z M20.088,65.752 C20.162667,65.8160003 20.3919981,65.6960015 20.776,65.392 C21.1600019,65.0879985 21.6159974,64.6666694 22.144,64.128 C22.6720026,63.5893306 23.1439979,63.0426694 23.56,62.488 C23.485333,62.3493326 23.3280012,62.1546679 23.088,61.904 C22.8479988,61.6533321 22.6960003,61.5333333 22.632,61.544 C22.5679997,61.5546667 22.4080013,61.7093318 22.152,62.008 C21.8959987,62.3066682 21.6666677,62.5999986 21.464,62.888 C20.9946643,63.4853363 20.6160014,64.1306632 20.328,64.824 C20.3173333,64.8560002 20.2906669,64.9173329 20.248,65.008 C20.2053331,65.0986671 20.1733334,65.1706664 20.152,65.224 C20.1306666,65.2773336 20.1066668,65.3493329 20.08,65.44 C20.0533332,65.5306671 20.0426666,65.5946665 20.048,65.632 C20.0533334,65.6693335 20.0666666,65.7093331 20.088,65.752 Z M35.672,61.896 C35.746667,61.8319997 35.784,61.8586661 35.784,61.976 C35.7733333,62.0826672 35.7466669,62.1893328 35.704,62.296 C34.8719958,63.2560048 33.9760048,64.1519958 33.016,64.984 C32.7919989,65.1546675 32.6320005,65.277333 32.536,65.352 C32.4399995,65.426667 32.2666679,65.5493325 32.016,65.72 C31.7653321,65.8906675 31.5546675,66.013333 31.384,66.088 C31.2133325,66.162667 31.0133345,66.2399996 30.784,66.32 C30.5546655,66.4000004 30.3386677,66.4320001 30.136,66.416 C29.9333323,66.3999999 29.7413342,66.3440005 29.56,66.248 C29.1866648,66.055999 28.9653337,65.7440022 28.896,65.312 C28.8266663,64.8799978 28.8746658,64.426669 29.04,63.952 C29.2053342,63.477331 29.3973322,63.0160022 29.616,62.568 C29.8346678,62.1199978 30.039999,61.7520014 30.232,61.464 L30.52,61.032 C30.594667,60.9146661 30.8186648,60.9039995 31.192,61 C31.384001,61.0640003 31.4746667,61.133333 31.464,61.208 C31.0266645,61.8693366 30.6266685,62.562663 30.264,63.288 C29.9653318,63.8320027 29.7413341,64.407997 29.592,65.016 C29.517333,65.3040014 29.5013331,65.514666 29.544,65.648 C29.5866669,65.781334 29.7093323,65.8266669 29.912,65.784 C30.0933342,65.7519998 30.279999,65.7013337 30.472,65.632 C30.664001,65.5626663 30.8586657,65.4746672 31.056,65.368 C31.2533343,65.2613328 31.4293326,65.1626671 31.584,65.072 C31.7386674,64.9813329 31.9253322,64.8586674 32.144,64.704 C32.3626678,64.5493326 32.5279994,64.4293338 32.64,64.344 C32.7520006,64.2586662 32.9226655,64.1280009 33.152,63.952 C33.3813345,63.7759991 33.533333,63.6560003 33.608,63.592 C34.3546704,63.0159971 35.0426635,62.4506694 35.672,61.896 Z M31.784,59.784 C31.3039976,59.9333341 30.9360013,59.970667 30.68,59.896 C30.5199992,59.8533331 30.4666664,59.7573341 30.52,59.608 C30.6160005,59.3946656 30.7653323,59.2453338 30.968,59.16 C31.0320003,59.1386666 31.1173328,59.1493331 31.224,59.192 C31.3306672,59.2346669 31.4106664,59.2506667 31.464,59.24 C31.6666677,59.2506667 31.863999,59.2240003 32.056,59.16 C32.1413338,59.1386666 32.2026665,59.1439998 32.24,59.176 C32.2773335,59.2080002 32.2800002,59.2666662 32.248,59.352 C32.1519995,59.5653344 31.9973344,59.709333 31.784,59.784 Z M44.312,63.032 C44.5146677,62.7439986 44.7546653,62.5946667 45.032,62.584 C45.2346677,62.5733333 45.2933338,62.6746656 45.208,62.888 C45.1759998,62.9733338 45.122667,63.0746661 45.048,63.192 C44.7386651,63.5973354 44.1360045,64.1253301 43.24,64.776 C42.3439955,65.4266699 41.4453378,65.914665 40.544,66.24 C39.6426622,66.565335 39.0426682,66.3760035 38.744,65.672 C38.6479995,65.4693323 38.6426662,65.0960027 38.728,64.552 C38.8133338,64.0079973 38.8400002,63.6293344 38.808,63.416 C38.7866666,63.2879994 38.7573335,63.1840004 38.72,63.104 C38.6826665,63.0239996 38.634667,62.9786667 38.576,62.968 C38.517333,62.9573333 38.4613336,62.9573333 38.408,62.968 C38.3546664,62.9786667 38.2880004,63.013333 38.208,63.072 C38.1279996,63.130667 38.058667,63.1866664 38,63.24 C37.941333,63.2933336 37.8693338,63.3626662 37.784,63.448 C37.6986662,63.5333338 37.6293336,63.5973331 37.576,63.64 C36.8399963,64.2586698 35.938672,65.0906614 34.872,66.136 C34.6693323,66.328001 34.4613344,66.4346666 34.248,66.456 C34.0666658,66.4773334 34.013333,66.3600013 34.088,66.104 L35.368,62.104 C35.4320003,61.9013323 35.634665,61.6986677 35.976,61.496 C36.3386685,61.2719989 36.5146667,61.2719989 36.504,61.496 C36.504,61.5493336 36.4933334,61.6079997 36.472,61.672 L35.544,64.6 C36.1093362,64.066664 36.6159978,63.6080019 37.064,63.224 C37.0746667,63.2133333 37.2213319,63.074668 37.504,62.808 C37.7866681,62.541332 38.0133325,62.341334 38.184,62.208 C38.3546675,62.074666 38.5679987,61.9440006 38.824,61.816 C39.0800013,61.6879994 39.2986658,61.6453331 39.48,61.688 C39.6826677,61.7413336 39.8293329,61.8506658 39.92,62.016 C40.0106671,62.1813342 40.0506667,62.3706656 40.04,62.584 C40.0293333,62.7973344 40.0106668,63.0319987 39.984,63.288 C39.9573332,63.5440013 39.9280002,63.7839989 39.896,64.008 C39.8639998,64.2320011 39.8693331,64.4426657 39.912,64.64 C39.9546669,64.8373343 40.0453326,64.9839995 40.184,65.08 C40.4400013,65.2186674 40.767998,65.2320006 41.168,65.12 C41.568002,65.0079994 41.9786646,64.8266679 42.4,64.576 C42.8213354,64.3253321 43.2079982,64.0560014 43.56,63.768 C43.9120018,63.4799986 44.1626659,63.2346677 44.312,63.032 Z M42.4295612,60.0451744 C42.1808113,60.1673884 42.0669587,60.1443305 42.088,59.976 C42.1200002,59.7733323 42.2426656,59.576001 42.456,59.384 C42.4986669,59.3519998 42.5359998,59.3306667 42.568,59.32 C43.8373397,58.7333304 45.1706597,58.3866672 46.568,58.28 C47.0053355,57.4906627 47.4373312,56.7546701 47.864,56.072 C47.8960002,56.0079997 47.9999991,56.0213329 48.176,56.112 C48.3520009,56.2026671 48.5093326,56.3253326 48.648,56.48 C48.7866674,56.6346674 48.8293336,56.749333 48.776,56.824 C48.4986653,57.2720022 48.2213347,57.725331 47.944,58.184 C48.3386686,58.1626666 49.4853238,58.1413334 51.384,58.12 C51.6080011,58.12 51.624001,58.2586653 51.432,58.536 C51.2186656,58.8240014 51.016001,58.9839998 50.824,59.016 C49.5226602,59.0266667 48.376005,59.069333 47.384,59.144 C46.4986622,60.6586742 45.7946693,62.2586582 45.272,63.944 C45.2613333,63.9653334 45.2426668,64.0266662 45.216,64.128 C45.1893332,64.2293338 45.1680001,64.309333 45.152,64.368 C45.1359999,64.426667 45.1120002,64.5119994 45.08,64.624 C45.0479998,64.7360006 45.0266667,64.8319996 45.016,64.912 C45.0053333,64.9920004 44.9920001,65.0853328 44.976,65.192 C44.9599999,65.2986672 44.9546666,65.389333 44.96,65.464 C44.9653334,65.538667 44.9786666,65.613333 45,65.688 C45.0213334,65.762667 45.0479998,65.8266664 45.08,65.88 C45.2293341,66.0506675 45.5626641,66.0293344 46.08,65.816 C46.5973359,65.6026656 47.0319982,65.3733346 47.384,65.128 C48.4186718,64.3919963 49.3306627,63.528005 50.12,62.536 C50.2800008,62.3333323 50.4373326,62.2746662 50.592,62.36 C50.7466674,62.4453338 50.7333342,62.6159987 50.552,62.872 C50.3066654,63.2453352 50.1226673,63.5226658 50,63.704 C49.8773327,63.8853342 49.682668,64.1493316 49.416,64.496 C49.149332,64.8426684 48.912001,65.1173323 48.704,65.32 C48.495999,65.5226677 48.2453348,65.7333322 47.952,65.952 C47.6586652,66.1706678 47.3680014,66.3386661 47.08,66.456 C46.6746646,66.5946674 46.2666687,66.6480002 45.856,66.616 C45.4453313,66.5839998 45.0720017,66.434668 44.736,66.168 C44.3999983,65.901332 44.1893338,65.5546688 44.104,65.128 C44.0719998,64.9573325 44.0533334,64.7813342 44.048,64.6 C44.0426666,64.4186658 44.0479999,64.2400009 44.064,64.064 C44.0800001,63.8879991 44.1146664,63.7013343 44.168,63.504 C44.2213336,63.3066657 44.2746664,63.1200009 44.328,62.944 C44.3813336,62.7679991 44.4479996,62.576001 44.528,62.368 C44.6080004,62.159999 44.685333,61.9760008 44.76,61.816 C44.834667,61.6559992 44.9226662,61.4746677 45.024,61.272 L45.752,59.816 C45.7733334,59.7733331 45.8693325,59.5920016 46.04,59.272 C45.431997,59.346667 44.861336,59.4319995 44.328,59.528 C43.8159974,59.6240005 43.3093358,59.7519992 42.808,59.912 C42.7866666,59.912 42.7173339,59.9386664 42.6,59.992 L42.392,60.072 C42.4020825,60.0619175 42.4169298,60.0518352 42.4365424,60.0417528 L42.4295612,60.0451744 Z M57.4,62.616 C57.6240011,62.3813322 57.7946661,62.3066662 57.912,62.392 C58.0506674,62.4880005 58.0133344,62.6586654 57.8,62.904 C57.7893333,62.9253334 57.7733334,62.9466666 57.752,62.968 C56.8559955,63.9066714 55.8666721,64.6933302 54.784,65.328 C53.7013279,65.9626698 52.6213387,66.2693334 51.544,66.248 C50.935997,66.2373333 50.4506685,66.1226678 50.088,65.904 C49.7253315,65.6853322 49.5013338,65.4080017 49.416,65.072 C49.3306662,64.7359983 49.325333,64.3600021 49.4,63.944 C49.474667,63.5279979 49.6213322,63.1173354 49.84,62.712 C50.0586678,62.3066646 50.3173318,61.933335 50.616,61.592 C51.4373374,60.6426619 52.1946632,60.0933341 52.888,59.944 C53.2720019,59.8586662 53.5839988,59.9013325 53.824,60.072 C54.0640012,60.2426675 54.1360005,60.5146648 54.04,60.888 C53.9759997,61.1653347 53.8346678,61.4479986 53.616,61.736 C53.3973322,62.0240014 53.1760011,62.2693323 52.952,62.472 C52.7279989,62.6746677 52.4186686,62.909332 52.024,63.176 C51.6293314,63.442668 51.3333343,63.6346661 51.136,63.752 L50.248,64.28 C50.3760006,64.6320018 50.6479979,64.8959991 51.064,65.072 C51.4800021,65.2480009 51.9359975,65.3280001 52.432,65.312 C52.9280025,65.2959999 53.3946645,65.2080008 53.832,65.048 C55.2080069,64.514664 56.3973283,63.7040054 57.4,62.616 Z M50.424,62.856 C50.2959994,63.1120013 50.2160002,63.3786653 50.184,63.656 C50.5786686,63.4319989 50.8879989,63.2506674 51.112,63.112 C51.3360011,62.9733326 51.6079984,62.7840012 51.928,62.544 C52.2480016,62.3039988 52.5146656,62.0666678 52.728,61.832 C52.920001,61.6293323 53.0319998,61.4346676 53.064,61.248 C53.0960002,61.0613324 53.045334,60.930667 52.912,60.856 C52.778666,60.781333 52.5573349,60.7866662 52.248,60.872 C51.8853315,60.9893339 51.5360017,61.2426647 51.2,61.632 C50.8639983,62.0213353 50.6053342,62.4293312 50.424,62.856 Z M66.344,63.032 C66.5466677,62.7439986 66.7866653,62.5946667 67.064,62.584 C67.2666677,62.5733333 67.3253338,62.6746656 67.24,62.888 C67.2079998,62.9733338 67.154667,63.0746661 67.08,63.192 C66.7706651,63.5973354 66.1680045,64.1253301 65.272,64.776 C64.3759955,65.4266699 63.4773378,65.914665 62.576,66.24 C61.6746622,66.565335 61.0746682,66.3760035 60.776,65.672 C60.6799995,65.4693323 60.6746662,65.0960027 60.76,64.552 C60.8453338,64.0079973 60.8720002,63.6293344 60.84,63.416 C60.8186666,63.2879994 60.7893335,63.1840004 60.752,63.104 C60.7146665,63.0239996 60.666667,62.9786667 60.608,62.968 C60.549333,62.9573333 60.4933336,62.9573333 60.44,62.968 C60.3866664,62.9786667 60.3200004,63.013333 60.24,63.072 C60.1599996,63.130667 60.090667,63.1866664 60.032,63.24 C59.973333,63.2933336 59.9013338,63.3626662 59.816,63.448 C59.7306662,63.5333338 59.6613336,63.5973331 59.608,63.64 C58.8719963,64.2586698 57.970672,65.0906614 56.904,66.136 C56.7013323,66.328001 56.4933344,66.4346666 56.28,66.456 C56.0986658,66.4773334 56.045333,66.3600013 56.12,66.104 L57.4,62.104 C57.4640003,61.9013323 57.666665,61.6986677 58.008,61.496 C58.3706685,61.2719989 58.5466667,61.2719989 58.536,61.496 C58.536,61.5493336 58.5253334,61.6079997 58.504,61.672 L57.576,64.6 C58.1413362,64.066664 58.6479978,63.6080019 59.096,63.224 C59.1066667,63.2133333 59.2533319,63.074668 59.536,62.808 C59.8186681,62.541332 60.0453325,62.341334 60.216,62.208 C60.3866675,62.074666 60.5999987,61.9440006 60.856,61.816 C61.1120013,61.6879994 61.3306658,61.6453331 61.512,61.688 C61.7146677,61.7413336 61.8613329,61.8506658 61.952,62.016 C62.0426671,62.1813342 62.0826667,62.3706656 62.072,62.584 C62.0613333,62.7973344 62.0426668,63.0319987 62.016,63.288 C61.9893332,63.5440013 61.9600002,63.7839989 61.928,64.008 C61.8959998,64.2320011 61.9013331,64.4426657 61.944,64.64 C61.9866669,64.8373343 62.0773326,64.9839995 62.216,65.08 C62.4720013,65.2186674 62.799998,65.2320006 63.2,65.12 C63.600002,65.0079994 64.0106646,64.8266679 64.432,64.576 C64.8533354,64.3253321 65.2399982,64.0560014 65.592,63.768 C65.9440018,63.4799986 66.1946659,63.2346677 66.344,63.032 Z M76.12,62.12 C76.3013342,61.927999 76.4026666,61.9013326 76.424,62.04 C76.424,62.1466672 76.3920003,62.2533328 76.328,62.36 C76.2746664,62.4453338 76.1893339,62.5786658 76.072,62.76 C75.7413317,63.2826693 75.4613345,63.7039984 75.232,64.024 C75.0026655,64.3440016 74.6773354,64.741331 74.256,65.216 C73.8346646,65.690669 73.4106688,66.0159991 72.984,66.192 C72.5573312,66.3680009 72.1360021,66.3866674 71.72,66.248 C70.7706619,65.9279984 70.2853334,65.2133389 70.264,64.104 C69.9866653,64.4346683 69.7200013,64.7359986 69.464,65.008 C69.2079987,65.2800014 68.9306682,65.5439987 68.632,65.8 C68.3333318,66.0560013 68.050668,66.250666 67.784,66.384 C67.517332,66.517334 67.2586679,66.5973332 67.008,66.624 C66.7573321,66.6506668 66.5253344,66.5840008 66.312,66.424 C66.0986656,66.2639992 65.9173341,66.0080018 65.768,65.656 C65.6399994,65.3786653 65.613333,65.0586685 65.688,64.696 C65.762667,64.3333315 65.8799992,63.981335 66.04,63.64 C66.2000008,63.298665 66.4106654,62.9493351 66.672,62.592 C66.9333346,62.2346649 67.1786655,61.9253346 67.408,61.664 C67.6373345,61.4026654 67.8586656,61.1706677 68.072,60.968 C68.2320008,60.8293326 68.3813326,60.7280003 68.52,60.664 C68.6586674,60.5999997 68.7786662,60.5626667 68.88,60.552 C68.9813338,60.5413333 69.0879994,60.5706663 69.2,60.64 C69.3120006,60.7093337 69.4026663,60.7786663 69.472,60.848 C69.5413337,60.9173337 69.6239995,61.0319992 69.72,61.192 C69.8160005,61.3520008 69.8879998,61.4799995 69.936,61.576 C69.9840002,61.6720005 70.0559995,61.8213323 70.152,62.024 C70.2053336,62.1306672 70.2426666,62.2159997 70.264,62.28 C70.5413347,61.9066648 70.7919989,61.5226686 71.016,61.128 C71.0800003,61.0106661 71.2666651,61.0799987 71.576,61.336 C71.8746682,61.5706678 71.9973336,61.7519994 71.944,61.88 C71.5813315,62.5733368 71.3520005,63.3093294 71.256,64.088 C71.2133331,64.4933354 71.2719992,64.8826648 71.432,65.256 C71.5493339,65.4693344 71.6879992,65.5653334 71.848,65.544 C72.2000018,65.4799997 72.5439983,65.3653342 72.88,65.2 C73.2160017,65.0346658 73.5439984,64.8080014 73.864,64.52 C74.1840016,64.2319986 74.447999,63.9786678 74.656,63.76 C74.864001,63.5413322 75.130665,63.2453352 75.456,62.872 C75.781335,62.4986648 76.0026661,62.2480006 76.12,62.12 Z M66.632,65.752 C66.706667,65.8160003 66.9359981,65.6960015 67.32,65.392 C67.7040019,65.0879985 68.1599974,64.6666694 68.688,64.128 C69.2160026,63.5893306 69.6879979,63.0426694 70.104,62.488 C70.029333,62.3493326 69.8720012,62.1546679 69.632,61.904 C69.3919988,61.6533321 69.2400003,61.5333333 69.176,61.544 C69.1119997,61.5546667 68.9520013,61.7093318 68.696,62.008 C68.4399987,62.3066682 68.2106677,62.5999986 68.008,62.888 C67.5386643,63.4853363 67.1600014,64.1306632 66.872,64.824 C66.8613333,64.8560002 66.8346669,64.9173329 66.792,65.008 C66.7493331,65.0986671 66.7173334,65.1706664 66.696,65.224 C66.6746666,65.2773336 66.6506668,65.3493329 66.624,65.44 C66.5973332,65.5306671 66.5866666,65.5946665 66.592,65.632 C66.5973334,65.6693335 66.6106666,65.7093331 66.632,65.752 Z M85.176,63.032 C85.3786677,62.7439986 85.6186653,62.5946667 85.896,62.584 C86.0986677,62.5733333 86.1573338,62.6746656 86.072,62.888 C86.0399998,62.9733338 85.986667,63.0746661 85.912,63.192 C85.6026651,63.5973354 85.0000045,64.1253301 84.104,64.776 C83.2079955,65.4266699 82.3093378,65.914665 81.408,66.24 C80.5066622,66.565335 79.9066682,66.3760035 79.608,65.672 C79.5119995,65.4693323 79.5066662,65.0960027 79.592,64.552 C79.6773338,64.0079973 79.7040002,63.6293344 79.672,63.416 C79.6506666,63.2879994 79.6213335,63.1840004 79.584,63.104 C79.5466665,63.0239996 79.498667,62.9786667 79.44,62.968 C79.381333,62.9573333 79.3253336,62.9573333 79.272,62.968 C79.2186664,62.9786667 79.1520004,63.013333 79.072,63.072 C78.9919996,63.130667 78.922667,63.1866664 78.864,63.24 C78.805333,63.2933336 78.7333338,63.3626662 78.648,63.448 C78.5626662,63.5333338 78.4933336,63.5973331 78.44,63.64 C77.7039963,64.2586698 76.802672,65.0906614 75.736,66.136 C75.5333323,66.328001 75.3253344,66.4346666 75.112,66.456 C74.9306658,66.4773334 74.877333,66.3600013 74.952,66.104 L76.232,62.104 C76.2960003,61.9013323 76.498665,61.6986677 76.84,61.496 C77.2026685,61.2719989 77.3786667,61.2719989 77.368,61.496 C77.368,61.5493336 77.3573334,61.6079997 77.336,61.672 L76.408,64.6 C76.9733362,64.066664 77.4799978,63.6080019 77.928,63.224 C77.9386667,63.2133333 78.0853319,63.074668 78.368,62.808 C78.6506681,62.541332 78.8773325,62.341334 79.048,62.208 C79.2186675,62.074666 79.4319987,61.9440006 79.688,61.816 C79.9440013,61.6879994 80.1626658,61.6453331 80.344,61.688 C80.5466677,61.7413336 80.6933329,61.8506658 80.784,62.016 C80.8746671,62.1813342 80.9146667,62.3706656 80.904,62.584 C80.8933333,62.7973344 80.8746668,63.0319987 80.848,63.288 C80.8213332,63.5440013 80.7920002,63.7839989 80.76,64.008 C80.7279998,64.2320011 80.7333331,64.4426657 80.776,64.64 C80.8186669,64.8373343 80.9093326,64.9839995 81.048,65.08 C81.3040013,65.2186674 81.631998,65.2320006 82.032,65.12 C82.432002,65.0079994 82.8426646,64.8266679 83.264,64.576 C83.6853354,64.3253321 84.0719982,64.0560014 84.424,63.768 C84.7760018,63.4799986 85.0266659,63.2346677 85.176,63.032 Z M92.584,62.584 C92.7866677,62.391999 92.8773334,62.3759992 92.856,62.536 C92.8453333,62.6640006 92.7973338,62.7813328 92.712,62.888 C91.2293259,64.6160086 89.9866717,65.7359974 88.984,66.248 C88.525331,66.4826678 88.058669,66.6133332 87.584,66.64 C87.109331,66.6666668 86.672002,66.5520013 86.272,66.296 C85.871998,66.0399987 85.6080006,65.6346694 85.48,65.08 C85.4159997,64.7813318 85.4026665,64.4560018 85.44,64.104 C85.4773335,63.7519982 85.5653326,63.3786686 85.704,62.984 C85.8426674,62.5893314 86.0053324,62.2186684 86.192,61.872 C86.3786676,61.5253316 86.5973321,61.2133347 86.848,60.936 C87.0986679,60.6586653 87.3546654,60.453334 87.616,60.32 C87.8773346,60.186666 88.1359987,60.1439998 88.392,60.192 C88.6480013,60.2400002 88.8639991,60.3519991 89.04,60.528 C89.2160009,60.7040009 89.3679994,60.9173321 89.496,61.168 C89.6240006,61.4186679 89.6853334,61.677332 89.68,61.944 C89.6746666,62.210668 89.6186672,62.4613322 89.512,62.696 C89.4799998,62.7600003 89.3760009,62.7466671 89.2,62.656 C89.0239991,62.5653329 88.8666674,62.4453341 88.728,62.296 C88.5893326,62.1466659 88.5413331,62.0293338 88.584,61.944 C88.9360018,61.2933301 88.9573349,60.9946664 88.648,61.048 C88.6159998,61.048 88.5733336,61.0586666 88.52,61.08 C88.4133328,61.1226669 88.3093338,61.1866662 88.208,61.272 C88.1066662,61.3573338 87.9973339,61.4746659 87.88,61.624 C87.7626661,61.7733341 87.6853335,61.877333 87.648,61.936 C87.6106665,61.994667 87.5386672,62.1093325 87.432,62.28 C87.3359995,62.4293341 87.2293339,62.6106656 87.112,62.824 C86.9946661,63.0373344 86.8640007,63.2986651 86.72,63.608 C86.5759993,63.9173349 86.4640004,64.2133319 86.384,64.496 C86.3039996,64.7786681 86.2666666,65.0479987 86.272,65.304 C86.2773334,65.5600013 86.3493326,65.7466661 86.488,65.864 C86.7760014,66.1093346 87.4853277,65.9706693 88.616,65.448 C89.0000019,65.2666658 89.6719952,64.8293368 90.632,64.136 C91.5920048,63.4426632 92.242665,62.925335 92.584,62.584 Z M100.056,62.616 C100.280001,62.3813322 100.450666,62.3066662 100.568,62.392 C100.706667,62.4880005 100.669334,62.6586654 100.456,62.904 C100.445333,62.9253334 100.429333,62.9466666 100.408,62.968 C99.5119955,63.9066714 98.5226721,64.6933302 97.44,65.328 C96.3573279,65.9626698 95.2773387,66.2693334 94.2,66.248 C93.591997,66.2373333 93.1066685,66.1226678 92.744,65.904 C92.3813315,65.6853322 92.1573338,65.4080017 92.072,65.072 C91.9866662,64.7359983 91.981333,64.3600021 92.056,63.944 C92.130667,63.5279979 92.2773322,63.1173354 92.496,62.712 C92.7146678,62.3066646 92.9733318,61.933335 93.272,61.592 C94.0933374,60.6426619 94.8506632,60.0933341 95.544,59.944 C95.9280019,59.8586662 96.2399988,59.9013325 96.48,60.072 C96.7200012,60.2426675 96.7920005,60.5146648 96.696,60.888 C96.6319997,61.1653347 96.4906678,61.4479986 96.272,61.736 C96.0533322,62.0240014 95.8320011,62.2693323 95.608,62.472 C95.3839989,62.6746677 95.0746686,62.909332 94.68,63.176 C94.2853314,63.442668 93.9893343,63.6346661 93.792,63.752 L92.904,64.28 C93.0320006,64.6320018 93.3039979,64.8959991 93.72,65.072 C94.1360021,65.2480009 94.5919975,65.3280001 95.088,65.312 C95.5840025,65.2959999 96.0506645,65.2080008 96.488,65.048 C97.8640069,64.514664 99.0533283,63.7040054 100.056,62.616 Z M93.08,62.856 C92.9519994,63.1120013 92.8720002,63.3786653 92.84,63.656 C93.2346686,63.4319989 93.5439989,63.2506674 93.768,63.112 C93.9920011,62.9733326 94.2639984,62.7840012 94.584,62.544 C94.9040016,62.3039988 95.1706656,62.0666678 95.384,61.832 C95.576001,61.6293323 95.6879998,61.4346676 95.72,61.248 C95.7520002,61.0613324 95.701334,60.930667 95.568,60.856 C95.434666,60.781333 95.2133349,60.7866662 94.904,60.872 C94.5413315,60.9893339 94.1920017,61.2426647 93.856,61.632 C93.5199983,62.0213353 93.2613342,62.4293312 93.08,62.856 Z M109.544,62.728 C109.714668,62.5253323 109.911999,62.424 110.136,62.424 C110.328001,62.4133333 110.338668,62.5253322 110.168,62.76 L110.104,62.856 C109.239996,63.848005 108.264005,64.7119963 107.176,65.448 C106.717331,65.7573349 106.160003,66.0399987 105.504,66.296 C104.847997,66.5520013 104.285336,66.6320005 103.816,66.536 C103.88,67.1653365 103.928,67.6186653 103.96,67.896 C104.141334,69.2933403 104.168001,70.6906597 104.04,72.088 C103.879999,73.3040061 103.464003,74.1359978 102.792,74.584 C102.589332,74.7120006 102.370668,74.8026664 102.136,74.856 C101.901332,74.9093336 101.666668,74.8960004 101.432,74.816 C101.197332,74.7359996 101.021334,74.5893344 100.904,74.376 C100.84,74.2586661 100.789334,74.133334 100.752,74 C100.714666,73.866666 100.696,73.7146675 100.696,73.544 C100.696,73.3733325 100.698667,73.2240006 100.704,73.096 C100.709333,72.9679994 100.733333,72.800001 100.776,72.592 C100.818667,72.383999 100.850667,72.2373338 100.872,72.152 C100.893333,72.0666662 100.933333,71.9146678 100.992,71.696 C101.050667,71.4773322 101.08,71.3520002 101.08,71.32 C101.474669,69.8053258 101.959997,68.3280072 102.536,66.888 C102.568,66.8026662 102.613333,66.6906674 102.672,66.552 C102.730667,66.4133326 102.770667,66.3173336 102.792,66.264 C102.76,65.9546651 102.773333,65.7013343 102.832,65.504 C102.890667,65.3066657 103.042665,65.1440006 103.288,65.016 C103.885336,63.5439926 104.519997,62.0933405 105.192,60.664 C105.266667,60.5039992 105.453332,60.3440008 105.752,60.184 C105.976001,60.0666661 106.088,60.0666661 106.088,60.184 L106.04,60.328 C105.346663,61.7893406 104.648004,63.3893246 103.944,65.128 C104.360002,65.3626678 104.773331,65.4879999 105.184,65.504 C105.594669,65.5200001 105.981332,65.4480008 106.344,65.288 C106.706668,65.1279992 107.111998,64.8826683 107.56,64.552 C108.285337,64.018664 108.946664,63.4106701 109.544,62.728 Z M103,73.336 C103.149334,72.8133307 103.224,72.1920036 103.224,71.472 C103.224,70.7519964 103.192,70.125336 103.128,69.592 C103.106667,69.1866646 103.042667,68.5200046 102.936,67.592 C102.498664,68.658672 102.165334,69.629329 101.936,70.504 C101.706666,71.378671 101.618666,72.2053294 101.672,72.984 C101.693333,73.2933349 101.791999,73.5466657 101.968,73.744 C102.144001,73.9413343 102.335999,74.0133336 102.544,73.96 C102.752001,73.9066664 102.904,73.6986685 103,73.336 Z M115.576,62.408 C115.810668,62.2479992 115.917333,62.2533325 115.896,62.424 C115.864,62.6373344 115.746668,62.8453323 115.544,63.048 C115.512,63.0800002 115.48,63.1066666 115.448,63.128 C114.061326,64.0453379 112.909338,64.5893325 111.992,64.76 C111.597331,65.1760021 111.144003,65.5306652 110.632,65.824 C110.119997,66.1173348 109.693335,66.2853331 109.352,66.328 C108.519996,66.4133338 108.136,66.1413365 108.2,65.512 C108.264,64.903997 108.647996,64.1466712 109.352,63.24 L109.416,63.144 C109.458667,63.1013331 109.506666,63.0586669 109.56,63.016 C109.634667,62.7599987 109.786666,62.5253344 110.016,62.312 C110.245334,62.0986656 110.501332,61.9386672 110.784,61.832 C111.066668,61.7253328 111.362665,61.6906665 111.672,61.728 C111.981335,61.7653335 112.237332,61.8853323 112.44,62.088 C112.930669,62.5786691 113.005335,63.1706632 112.664,63.864 C112.984002,63.7999997 113.354665,63.6666677 113.776,63.464 C114.197335,63.2613323 114.501332,63.1013339 114.688,62.984 C114.874668,62.8666661 115.170665,62.674668 115.576,62.408 Z M109.48,65.432 C109.746668,65.5386672 110.037332,65.5306673 110.352,65.408 C110.666668,65.2853327 110.957332,65.0960013 111.224,64.84 C110.914665,64.84 110.621335,64.7600008 110.344,64.6 C110.066665,64.4399992 109.848001,64.226668 109.688,63.96 C109.656,63.8959997 109.629333,63.8373336 109.608,63.784 C108.978664,64.6693378 108.935997,65.2186656 109.48,65.432 Z M111.816,63.896 C111.890667,63.6186653 111.858667,63.3520013 111.72,63.096 C111.688,63.0319997 111.621334,62.962667 111.52,62.888 C111.418666,62.813333 111.309334,62.7520002 111.192,62.704 C111.074666,62.6559998 110.957334,62.6160002 110.84,62.584 C110.722666,62.5519998 110.621334,62.5439999 110.536,62.56 C110.450666,62.5760001 110.402667,62.6159997 110.392,62.68 C110.349333,62.872001 110.426666,63.0746656 110.624,63.288 C110.821334,63.5013344 111.021332,63.6559995 111.224,63.752 C111.405334,63.8373338 111.597332,63.8906666 111.8,63.912 L111.8,63.904 C111.8,63.8986666 111.805333,63.896 111.816,63.896 Z M121.608,63.16 C121.736001,62.9893325 121.938665,62.8560005 122.216,62.76 C122.386668,62.7066664 122.466667,62.7333328 122.456,62.84 C122.445333,62.8933336 122.408,62.9679995 122.344,63.064 C121.75733,63.9173376 121.104004,64.6639968 120.384,65.304 C119.663996,65.9440032 118.909337,66.3333326 118.12,66.472 C117.831999,66.5360003 117.592001,66.5546668 117.4,66.528 C117.207999,66.5013332 117.045334,66.458667 116.912,66.4 C116.778666,66.341333 116.682667,66.2480006 116.624,66.12 C116.565333,65.9919994 116.525333,65.8640006 116.504,65.736 C116.482667,65.6079994 116.488,65.4533342 116.52,65.272 C116.552,65.0906658 116.592,64.9200008 116.64,64.76 C116.688,64.5999992 116.752,64.4266676 116.832,64.24 C116.912,64.0533324 116.986666,63.8853341 117.056,63.736 C117.125334,63.5866659 117.202666,63.4373341 117.288,63.288 C117.341334,63.1813328 117.381333,63.0960003 117.408,63.032 C117.434667,62.9679997 117.442667,62.9146669 117.432,62.872 C117.421333,62.8293331 117.405333,62.8000001 117.384,62.784 C117.362667,62.7679999 117.32,62.7573334 117.256,62.752 C117.192,62.7466666 117.130667,62.744 117.072,62.744 C117.013333,62.744 116.930667,62.7466666 116.824,62.752 C116.717333,62.7573334 116.626667,62.76 116.552,62.76 L116.08,62.76 C116.010666,62.76 115.933334,62.7520001 115.848,62.736 C115.762666,62.7199999 115.688,62.6933335 115.624,62.656 C115.56,62.6186665 115.506667,62.5733336 115.464,62.52 C115.314666,62.2746654 115.354666,61.9653352 115.584,61.592 C115.813334,61.2186648 116.066665,60.9253344 116.344,60.712 C116.706668,60.4239986 117.031999,60.2853333 117.32,60.296 C117.544001,60.3173334 117.634667,60.4719986 117.592,60.76 C117.56,61.0693349 117.298669,61.4586643 116.808,61.928 C116.893334,61.928 117.133331,61.9093335 117.528,61.872 C117.922669,61.8346665 118.125333,61.8426664 118.136,61.896 C118.264001,61.9493336 118.352,62.0186662 118.4,62.104 C118.448,62.1893338 118.456,62.2906661 118.424,62.408 C118.392,62.5253339 118.354667,62.6266662 118.312,62.712 C118.269333,62.7973338 118.2,62.9119993 118.104,63.056 C118.008,63.2000007 117.949333,63.2933331 117.928,63.336 C117.906667,63.3680002 117.856,63.4559993 117.776,63.6 C117.696,63.7440007 117.64,63.8479997 117.608,63.912 C117.576,63.9760003 117.530667,64.0693327 117.472,64.192 C117.413333,64.3146673 117.373333,64.4266662 117.352,64.528 C117.330667,64.6293338 117.32,64.7279995 117.32,64.824 C117.32,65.0480011 117.378666,65.2239994 117.496,65.352 C117.613334,65.4800006 117.765332,65.5573332 117.952,65.584 C118.138668,65.6106668 118.327999,65.6133334 118.52,65.592 C118.712001,65.5706666 118.898666,65.5280003 119.08,65.464 C119.944004,65.1333317 120.786663,64.3653394 121.608,63.16 Z M143.448,57.272 C143.544,57.6026683 143.605333,57.9706646 143.632,58.376 C143.658667,58.7813354 143.664,59.1439984 143.648,59.464 C143.632,59.7840016 143.581334,60.1946642 143.496,60.696 C143.410666,61.1973358 143.338667,61.5706654 143.28,61.816 C143.221333,62.0613346 143.125334,62.4586639 142.992,63.008 C142.858666,63.5573361 142.776,63.9013326 142.744,64.04 C142.690666,64.2640011 142.440002,65.2106583 141.992,66.88 C141.543998,68.5493417 141.256001,69.8319955 141.128,70.728 C141.106667,70.8560006 140.930668,70.8133344 140.6,70.6 C140.290665,70.3973323 140.146667,70.2266674 140.168,70.088 C140.317334,69.1173285 140.626664,67.7520088 141.096,65.992 C141.565336,64.2319912 141.858666,63.1013358 141.976,62.6 C142.296002,61.2773267 142.509333,59.9386734 142.616,58.584 C142.626667,58.5413331 142.637333,58.4506674 142.648,58.312 C142.658667,58.1733326 142.664,58.0640004 142.664,57.984 C142.664,57.9039996 142.666667,57.7893341 142.672,57.64 C142.677333,57.4906659 142.674667,57.3706671 142.664,57.28 C142.653333,57.1893329 142.637333,57.0826673 142.616,56.96 C142.594667,56.8373327 142.562667,56.7413337 142.52,56.672 C142.477333,56.6026663 142.429334,56.5333337 142.376,56.464 C142.322666,56.3946663 142.250667,56.3440002 142.16,56.312 C142.069333,56.2799998 141.965334,56.2693333 141.848,56.28 C141.602665,56.3013334 141.357335,56.3813326 141.112,56.52 C140.866665,56.6586674 140.618668,56.8639986 140.368,57.136 C140.117332,57.4080014 139.930667,57.6186659 139.808,57.768 C139.685333,57.9173341 139.512001,58.1413318 139.288,58.44 C138.498663,59.5280054 137.805336,60.6799939 137.208,61.896 C136.343996,63.570675 135.581337,65.2933245 134.92,67.064 C134.898667,67.1173336 134.802668,67.1013338 134.632,67.016 C134.461332,66.9306662 134.304001,66.8160007 134.16,66.672 C134.015999,66.5279993 133.96,66.4080005 133.992,66.312 C134.67467,64.2639898 135.245331,62.1840106 135.704,60.072 C136.024002,58.7599934 136.237333,57.4320067 136.344,56.088 C136.397334,55.5119971 136.392,54.9360029 136.328,54.36 C136.296,54.167999 136.272,54.0266671 136.256,53.936 C136.24,53.8453329 136.205334,53.7573338 136.152,53.672 C136.098666,53.5866662 136.034667,53.5333334 135.96,53.512 C135.426664,53.3839994 134.674672,53.8693278 133.704,54.968 C132.871996,55.9706717 132.157336,57.0533275 131.56,58.216 C129.703991,61.608017 127.992008,65.7946418 126.424,70.776 C126.402667,70.8293336 126.309334,70.8160004 126.144,70.736 C125.978666,70.6559996 125.821334,70.549334 125.672,70.416 C125.522666,70.282666 125.458667,70.1733338 125.48,70.088 L130.152,52.648 C130.194667,52.5093326 130.381332,52.5519989 130.712,52.776 C131.000001,52.9893344 131.133333,53.1599994 131.112,53.288 L129.24,60.264 C129.592002,59.5066629 129.941332,58.7973366 130.288,58.136 C130.634668,57.4746634 131.034664,56.773337 131.488,56.032 C131.941336,55.290663 132.389331,54.6746691 132.832,54.184 C133.274669,53.6933309 133.727998,53.2960015 134.192,52.992 C134.656002,52.6879985 135.111998,52.5919994 135.56,52.704 C136.008002,52.8160006 136.423998,53.1439973 136.808,53.688 C137.032001,53.9973349 137.194666,54.3679978 137.296,54.8 C137.397334,55.2320022 137.450667,55.647998 137.456,56.048 C137.461333,56.448002 137.424,56.9226639 137.344,57.472 C137.264,58.0213361 137.186667,58.4719982 137.112,58.824 C137.037333,59.1760018 136.936001,59.618664 136.808,60.152 C137.021334,59.7359979 137.210666,59.3813348 137.376,59.088 C137.541334,58.7946652 137.757332,58.448002 138.024,58.048 C138.290668,57.647998 138.543999,57.3093347 138.784,57.032 C139.024001,56.7546653 139.303998,56.4853346 139.624,56.224 C139.944002,55.9626654 140.269332,55.7626674 140.6,55.624 C140.920002,55.4959994 141.231998,55.4506665 141.536,55.488 C141.840002,55.5253335 142.117332,55.6239992 142.368,55.784 C142.618668,55.9440008 142.839999,56.1546654 143.032,56.416 C143.224001,56.6773346 143.362666,56.9626651 143.448,57.272 Z M150.616,62.408 C150.850668,62.2479992 150.957333,62.2533325 150.936,62.424 C150.904,62.6373344 150.786668,62.8453323 150.584,63.048 C150.552,63.0800002 150.52,63.1066666 150.488,63.128 C149.101326,64.0453379 147.949338,64.5893325 147.032,64.76 C146.637331,65.1760021 146.184003,65.5306652 145.672,65.824 C145.159997,66.1173348 144.733335,66.2853331 144.392,66.328 C143.559996,66.4133338 143.176,66.1413365 143.24,65.512 C143.304,64.903997 143.687996,64.1466712 144.392,63.24 L144.456,63.144 C144.498667,63.1013331 144.546666,63.0586669 144.6,63.016 C144.674667,62.7599987 144.826666,62.5253344 145.056,62.312 C145.285334,62.0986656 145.541332,61.9386672 145.824,61.832 C146.106668,61.7253328 146.402665,61.6906665 146.712,61.728 C147.021335,61.7653335 147.277332,61.8853323 147.48,62.088 C147.970669,62.5786691 148.045335,63.1706632 147.704,63.864 C148.024002,63.7999997 148.394665,63.6666677 148.816,63.464 C149.237335,63.2613323 149.541332,63.1013339 149.728,62.984 C149.914668,62.8666661 150.210665,62.674668 150.616,62.408 Z M144.52,65.432 C144.786668,65.5386672 145.077332,65.5306673 145.392,65.408 C145.706668,65.2853327 145.997332,65.0960013 146.264,64.84 C145.954665,64.84 145.661335,64.7600008 145.384,64.6 C145.106665,64.4399992 144.888001,64.226668 144.728,63.96 C144.696,63.8959997 144.669333,63.8373336 144.648,63.784 C144.018664,64.6693378 143.975997,65.2186656 144.52,65.432 Z M146.856,63.896 C146.930667,63.6186653 146.898667,63.3520013 146.76,63.096 C146.728,63.0319997 146.661334,62.962667 146.56,62.888 C146.458666,62.813333 146.349334,62.7520002 146.232,62.704 C146.114666,62.6559998 145.997334,62.6160002 145.88,62.584 C145.762666,62.5519998 145.661334,62.5439999 145.576,62.56 C145.490666,62.5760001 145.442667,62.6159997 145.432,62.68 C145.389333,62.872001 145.466666,63.0746656 145.664,63.288 C145.861334,63.5013344 146.061332,63.6559995 146.264,63.752 C146.445334,63.8373338 146.637332,63.8906666 146.84,63.912 L146.84,63.904 C146.84,63.8986666 146.845333,63.896 146.856,63.896 Z M160.84,62.856 C160.989334,62.6426656 161.234665,62.4720006 161.576,62.344 C161.832001,62.2586662 161.949333,62.2906659 161.928,62.44 C161.917333,62.5040003 161.869334,62.5999994 161.784,62.728 C161.623999,62.9413344 161.501334,63.1093327 161.416,63.232 C161.330666,63.3546673 161.176001,63.5679985 160.952,63.872 C160.727999,64.1760015 160.528001,64.4213324 160.352,64.608 C160.175999,64.7946676 159.962668,65.021332 159.712,65.288 C159.461332,65.554668 159.224001,65.7573326 159,65.896 C158.775999,66.0346674 158.544001,66.1599994 158.304,66.272 C158.063999,66.3840006 157.826668,66.4293334 157.592,66.408 C157.357332,66.3866666 157.138668,66.3013341 156.936,66.152 C156.786666,66.0346661 156.68,65.8320014 156.616,65.544 C156.552,65.2559986 156.522667,64.9520016 156.528,64.632 C156.533333,64.3119984 156.533333,64.0053348 156.528,63.712 C156.522667,63.4186652 156.48,63.1893342 156.4,63.024 C156.32,62.8586658 156.186668,62.805333 156,62.864 C155.813332,62.922667 155.602668,63.0613322 155.368,63.28 C155.133332,63.4986678 154.946667,63.6959991 154.808,63.872 C154.669333,64.0480009 154.477335,64.3119982 154.232,64.664 C153.986665,65.0160018 153.848,65.2133331 153.816,65.256 C153.698666,65.4160008 153.490668,65.5546661 153.192,65.672 C152.957332,65.7680005 152.845333,65.7360008 152.856,65.576 C152.856,65.5226664 152.872,65.458667 152.904,65.384 C153.138668,64.8186638 153.319999,64.2426696 153.448,63.656 C153.501334,63.3466651 153.52,63.0986676 153.504,62.912 C153.488,62.7253324 153.413334,62.6373333 153.28,62.648 C153.146666,62.6586667 152.946668,62.7866654 152.68,63.032 C151.762662,63.9386712 150.93067,64.9199947 150.184,65.976 C150.088,66.1040006 149.890668,66.2373326 149.592,66.376 C149.314665,66.5040006 149.186667,66.4826675 149.208,66.312 C149.208,66.2906666 149.213333,66.2640002 149.224,66.232 L150.488,61.784 C150.552,61.5813323 150.775998,61.3573346 151.16,61.112 C151.522668,60.8773322 151.698667,60.8506658 151.688,61.032 C151.688,61.0533334 151.682667,61.0746666 151.672,61.096 L150.872,63.896 C151.864005,62.6479938 152.781329,61.853335 153.624,61.512 C153.997335,61.3519992 154.274666,61.338666 154.456,61.472 C154.637334,61.605334 154.722667,61.8293318 154.712,62.144 C154.701333,62.4586682 154.658667,62.8026648 154.584,63.176 C155.757339,61.8533267 156.674663,61.3413318 157.336,61.64 C157.560001,61.7466672 157.709333,61.903999 157.784,62.112 C157.858667,62.320001 157.88,62.5493321 157.848,62.8 C157.816,63.0506679 157.773334,63.3013321 157.72,63.552 C157.666666,63.8026679 157.645333,64.0533321 157.656,64.304 C157.666667,64.5546679 157.730666,64.7546659 157.848,64.904 C158.413336,65.6080035 159.389326,64.9520101 160.776,62.936 C160.808,62.9039998 160.829333,62.8773334 160.84,62.856 Z M167.944,61.464 C168.104001,61.3999997 168.178667,61.4213328 168.168,61.528 C168.146667,61.720001 168.008001,61.9386654 167.752,62.184 L167.576,62.296 C166.754663,62.6266683 165.880005,63.0053312 164.952,63.432 C164.759999,63.5173338 164.488002,63.6453325 164.136,63.816 C163.858665,64.7546714 163.36267,65.5599966 162.648,66.232 C162.338665,66.498668 161.864003,66.6906661 161.224,66.808 C160.445329,66.9466674 160.045333,66.7920022 160.024,66.344 C160.024,66.2373328 160.050666,66.1040008 160.104,65.944 C160.2,65.6879987 160.362666,65.4400012 160.592,65.2 C160.821334,64.9599988 161.111998,64.7306678 161.464,64.512 C161.816002,64.2933322 162.119999,64.117334 162.376,63.984 C162.632001,63.850666 162.962665,63.6933342 163.368,63.512 L163.368,63.448 C163.517334,62.3386611 163.384002,61.7626669 162.968,61.72 C162.872,61.7093333 162.744001,61.7653327 162.584,61.888 C162.423999,62.0106673 162.282667,62.1439993 162.16,62.288 C162.037333,62.4320007 161.893334,62.6053323 161.728,62.808 C161.562666,63.0106677 161.464,63.1226666 161.432,63.144 C161.261332,63.3466677 161.064001,63.448 160.84,63.448 C160.637332,63.4586667 160.621332,63.3466678 160.792,63.112 C160.824,63.0799998 160.850667,63.0480002 160.872,63.016 C160.914667,62.9733331 160.984,62.8933339 161.08,62.776 C162.136005,61.5493272 162.919997,60.8880005 163.432,60.792 C163.826669,60.717333 164.098666,60.9413307 164.248,61.464 C164.258667,61.4746667 164.264,61.4853333 164.264,61.496 C164.392001,62.0186693 164.408,62.5413307 164.312,63.064 C165.506673,62.4879971 166.717327,61.9546691 167.944,61.464 Z M162.168,65.896 C162.637336,65.6719989 162.989332,65.1280043 163.224,64.264 C162.882665,64.4453342 162.712,64.536 162.712,64.536 C162.701333,64.536 162.533335,64.6133326 162.208,64.768 C161.882665,64.9226674 161.621334,65.0639994 161.424,65.192 C161.226666,65.3200006 161.101334,65.4426661 161.048,65.56 C160.941333,65.8053346 161.069332,65.9493331 161.432,65.992 C161.709335,66.0240002 161.954666,65.9920005 162.168,65.896 Z" id="MaintenanceforMoms" fill="#FFFFFF" fill-rule="nonzero"/>
            <g id="logo" transform="translate(62.000000, 0.000000)" stroke="#FFFFFF">
                <circle id="Oval" cx="22" cy="22" r="22"/>
                <path d="M9,12 L13,12 C13.5522847,12 14,12.4477153 14,13 L14,31 C14,31.5522847 13.5522847,32 13,32 L12,32 C11.4477153,32 11,31.5522847 11,31 L11,12 L13.0350098,11.9999944 C13.6457047,11.9999944 14.2229344,12.2790103 14.6023037,12.7575782 C20.1721509,19.7838452 23.471383,24.5313192 24.5,27 C25,28.5 24,29.5 23,29.5 C22,29.5 21,28.5 21.5,27 C24,21 31.5,12.2155412 32,12 C32.5,11.7844588 33,12 33,13.2844588 C33,14.5689177 32.9676731,30.3534623 33,31 C33.0323269,31.6465377 33.5,32 34,32 C34.3333333,32 34.6666667,32 35,32" id="Path-2" stroke-linecap="round" stroke-linejoin="round"/>
            </g>
        </g>
    </g>
</svg>