<svg width="566" height="411" viewBox="0 0 566 411" fill="none" xmlns="http://www.w3.org/2000/svg">
<path opacity="0.75" d="M366.851 85.2662C389.724 133.375 414.648 166.734 441.624 185.345C482.088 213.261 618.161 283.567 544.515 369.07C470.869 454.572 372.233 374.235 297.921 364.403C223.61 354.571 64.4595 384.896 22.2597 326.81C-19.9401 268.723 -4.68889 190.289 96.8643 156.781C198.417 123.273 198.999 -1.12774 266.883 0.932519C312.14 2.30601 345.463 30.4172 366.851 85.2662Z" fill="#EBF4FF"/>
<rect x="191.383" y="328" width="61" height="25" fill="#7B848F"/>
<path d="M198.383 69.5H206.383C233.997 69.5 256.383 91.8858 256.383 119.5V162" stroke="#B9BEC5" stroke-width="2" stroke-linecap="round" stroke-dasharray="8 10"/>
<rect x="75.3828" y="116.523" width="283.5" height="211" rx="10" fill="#B9BEC5" stroke="#2C3641" stroke-width="3"/>
<path d="M83.3828 129C83.3828 126.239 85.6214 124 88.3828 124H342.383C345.144 124 347.383 126.239 347.383 129V300C347.383 302.761 345.144 305 342.383 305H88.3828C85.6214 305 83.3828 302.761 83.3828 300V129Z" fill="white"/>
<g filter="url(#filter0_i)">
<path d="M83.3828 124H347.383V144H83.3828V124Z" fill="#F0F2F5"/>
</g>
<path d="M108.633 204.561C108.633 202.769 110.086 201.316 111.878 201.316H242.388C244.18 201.316 245.633 202.769 245.633 204.561C245.633 206.354 244.18 207.807 242.388 207.807H111.878C110.086 207.807 108.633 206.354 108.633 204.561Z" fill="#F0F2F5"/>
<path d="M108.633 235.126C108.633 233.334 110.086 231.881 111.878 231.881H253.638C255.43 231.881 256.883 233.334 256.883 235.126C256.883 236.918 255.43 238.371 253.638 238.371H111.878C110.086 238.371 108.633 236.918 108.633 235.126Z" fill="#F0F2F5"/>
<path d="M108.633 193.269C108.633 191.476 110.086 190.023 111.878 190.023H204.888C206.68 190.023 208.133 191.476 208.133 193.269C208.133 195.061 206.68 196.514 204.888 196.514H111.878C110.086 196.514 108.633 195.061 108.633 193.269Z" fill="#F0F2F5"/>
<path d="M108.383 170C108.383 168.343 109.726 167 111.383 167H135.383C137.04 167 138.383 168.343 138.383 170C138.383 171.657 137.04 173 135.383 173H111.383C109.726 173 108.383 171.657 108.383 170Z" fill="#7B848F"/>
<path d="M108.633 266.126C108.633 264.334 110.086 262.881 111.878 262.881H204.888C206.68 262.881 208.133 264.334 208.133 266.126C208.133 267.918 206.68 269.371 204.888 269.371H111.878C110.086 269.371 108.633 267.918 108.633 266.126Z" fill="#F0F2F5"/>
<path d="M108.633 277.559C108.633 275.766 110.086 274.313 111.878 274.313H129.388C131.18 274.313 132.633 275.766 132.633 277.559C132.633 279.351 131.18 280.804 129.388 280.804H111.878C110.086 280.804 108.633 279.351 108.633 277.559Z" fill="#006CFA"/>
<path d="M108.633 223.833C108.633 222.041 110.086 220.588 111.878 220.588H231.888C233.68 220.588 235.133 222.041 235.133 223.833C235.133 225.625 233.68 227.078 231.888 227.078H111.878C110.086 227.078 108.633 225.625 108.633 223.833Z" fill="#F0F2F5"/>
<circle cx="487.383" cy="84" r="2" fill="#006CFA"/>
<circle cx="46.3828" cy="151" r="3" fill="#F52C2F"/>
<circle cx="486.383" cy="144" r="3" fill="#F52C2F"/>
<circle cx="51.956" cy="205.573" r="5.5" transform="rotate(-15 51.956 205.573)" stroke="#006CFA" stroke-width="3"/>
<path d="M65.8828 173V173C44.0676 173 26.3828 190.933 26.3828 212.748V212.748C26.3828 234.84 44.2914 253 66.3828 253H479.883C506.669 253 528.383 274.714 528.383 301.5V301.5C528.383 328.286 506.669 350 479.883 350H470.383" stroke="#B9BEC5" stroke-width="2" stroke-linecap="round" stroke-dasharray="8 10"/>
<path d="M516.521 306.514H561.721C563.047 306.514 564.121 307.588 564.121 308.914V321.114C564.121 322.439 563.047 323.514 561.721 323.514H516.521C515.196 323.514 514.121 322.439 514.121 321.114V308.914C514.121 307.588 515.196 306.514 516.521 306.514Z" fill="white" stroke="#DCDFE3" stroke-width="3" stroke-linecap="round" stroke-linejoin="round"/>
<path d="M497.383 307.014H508.861H497.383Z" fill="white"/>
<path d="M497.383 307.014H508.861" stroke="#DCDFE3" stroke-width="2" stroke-linecap="round" stroke-linejoin="round"/>
<path d="M500.385 312.014H508.841H500.385Z" fill="white"/>
<path d="M500.385 312.014H508.841" stroke="#DCDFE3" stroke-width="2" stroke-linecap="round" stroke-linejoin="round"/>
<path d="M504.521 282.514H549.721C551.047 282.514 552.121 283.588 552.121 284.914V297.114C552.121 298.439 551.047 299.514 549.721 299.514H504.521C503.196 299.514 502.121 298.439 502.121 297.114V284.914C502.121 283.588 503.196 282.514 504.521 282.514V282.514Z" fill="white" stroke="#4F5966" stroke-width="3" stroke-linecap="round" stroke-linejoin="round"/>
<path d="M520.921 311.514C520.479 311.514 520.121 311.872 520.121 312.314V317.714C520.121 318.156 520.479 318.514 520.921 318.514H526.321C526.763 318.514 527.121 318.156 527.121 317.714V312.314C527.121 311.872 526.763 311.514 526.321 311.514H520.921Z" fill="white" stroke="#DCDFE3" stroke-width="2"/>
<rect x="506.383" y="286" width="9" height="9" rx="2" fill="#006CFA"/>
<g clip-path="url(#clip0)">
<path fill-rule="evenodd" clip-rule="evenodd" d="M513.343 288.524C513.56 288.717 513.58 289.051 513.386 289.268L510.574 292.432C510.477 292.541 510.34 292.605 510.195 292.609C510.05 292.613 509.909 292.558 509.807 292.455L508.401 291.049C508.195 290.843 508.195 290.509 508.401 290.303C508.606 290.097 508.94 290.097 509.146 290.303L510.157 291.314L512.598 288.568C512.792 288.35 513.125 288.33 513.343 288.524Z" fill="white"/>
</g>
<path d="M532.418 312.514H556.817H532.418Z" fill="white"/>
<path d="M532.418 312.514H556.817" stroke="#DCDFE3" stroke-width="2" stroke-linecap="round" stroke-linejoin="round"/>
<path d="M519.418 288.514H543.817H519.418Z" fill="white"/>
<path d="M519.418 288.514H543.817" stroke="#DCDFE3" stroke-width="2" stroke-linecap="round" stroke-linejoin="round"/>
<path d="M532.42 316.514H550.816H532.42Z" fill="white"/>
<path d="M532.42 316.514H550.816" stroke="#DCDFE3" stroke-width="2" stroke-linecap="round" stroke-linejoin="round"/>
<path d="M519.42 292.514H537.816H519.42Z" fill="white"/>
<path d="M519.42 292.514H537.816" stroke="#DCDFE3" stroke-width="2" stroke-linecap="round" stroke-linejoin="round"/>
<path d="M546.02 276C547.124 276 548.02 275.105 548.02 274C548.02 272.895 547.124 272 546.02 272C544.915 272 544.02 272.895 544.02 274C544.02 275.105 544.915 276 546.02 276Z" fill="#006CFA"/>
<path d="M490.088 297.411C491.583 297.411 492.794 296.2 492.794 294.706C492.794 293.211 491.583 292 490.088 292C488.594 292 487.383 293.211 487.383 294.706C487.383 296.2 488.594 297.411 490.088 297.411Z" fill="#25C286"/>
<path d="M149.383 48C151.04 48 152.383 46.6569 152.383 45C152.383 43.3431 151.04 42 149.383 42C147.726 42 146.383 43.3431 146.383 45C146.383 46.6569 147.726 48 149.383 48Z" fill="#25C286"/>
<path d="M148.883 73C149.711 73 150.383 72.3284 150.383 71.5C150.383 70.6716 149.711 70 148.883 70C148.054 70 147.383 70.6716 147.383 71.5C147.383 72.3284 148.054 73 148.883 73Z" fill="#F82722"/>
<path d="M171.383 48C172.487 48 173.383 47.1046 173.383 46C173.383 44.8954 172.487 44 171.383 44C170.278 44 169.383 44.8954 169.383 46C169.383 47.1046 170.278 48 171.383 48Z" fill="#006CFA"/>
<path d="M159.143 57.7909C159.143 56.8859 159.876 56.1523 160.781 56.1523H201.44C202.345 56.1523 203.078 56.8859 203.078 57.7909V81.0584C203.078 81.9633 202.345 82.6969 201.44 82.6969H160.781C159.876 82.6969 159.143 81.9633 159.143 81.0584V57.7909Z" fill="white" stroke="#4F5966" stroke-width="3" stroke-linecap="round" stroke-linejoin="round"/>
<path d="M189.348 68.0527L200.883 80.6257L189.348 68.0527Z" fill="white"/>
<path d="M189.348 68.0527L200.883 80.6257" stroke="#DCDFE3" stroke-width="2" stroke-linecap="round" stroke-linejoin="round"/>
<path d="M172.871 68.0527L160.626 80.6257L172.871 68.0527Z" fill="white"/>
<path d="M172.871 68.0527L160.626 80.6257" stroke="#DCDFE3" stroke-width="2" stroke-linecap="round" stroke-linejoin="round"/>
<path d="M159.143 57.7909C159.143 56.8859 159.876 56.1523 160.781 56.1523H201.44C202.345 56.1523 203.078 56.8859 203.078 57.7909V81.0584C203.078 81.9633 202.345 82.6969 201.44 82.6969H160.781C159.876 82.6969 159.143 81.9633 159.143 81.0584V57.7909Z" stroke="#4F5966" stroke-width="3" stroke-linecap="round" stroke-linejoin="round"/>
<path d="M160.627 57.7785L181.075 73.5442L201.091 57.6729" fill="white"/>
<path d="M160.627 57.7785L181.075 73.5442L201.091 57.6729" stroke="#4F5966" stroke-width="3" stroke-linecap="round" stroke-linejoin="round"/>
<g filter="url(#filter1_d)">
<rect x="59.3828" y="149" width="40" height="40" rx="20" fill="#25C286"/>
<path fill-rule="evenodd" clip-rule="evenodd" d="M89.8776 160.568C90.8064 161.394 90.8901 162.816 90.0645 163.745L78.0645 177.245C77.6528 177.708 77.0683 177.981 76.4489 177.999C75.8295 178.017 75.23 177.779 74.7918 177.341L68.7918 171.341C67.9131 170.462 67.9131 169.038 68.7918 168.159C69.6705 167.28 71.0951 167.28 71.9738 168.159L76.2865 172.472L86.7011 160.755C87.5267 159.826 88.9489 159.743 89.8776 160.568Z" fill="white"/>
</g>
<rect x="167.633" y="352.273" width="108" height="10.5" rx="5.25" fill="#B9BEC5"/>
<path fill-rule="evenodd" clip-rule="evenodd" d="M532.383 331.344C533.332 331.344 534.102 332.113 534.102 333.062V333.432C535.818 333.796 537.155 334.708 537.958 335.97C538.468 336.771 538.232 337.833 537.431 338.343C536.63 338.853 535.568 338.616 535.058 337.816C534.738 337.313 533.962 336.696 532.383 336.696C531.682 336.696 531.01 336.919 530.553 337.249C530.111 337.568 529.977 337.893 529.977 338.17C529.977 338.759 530.178 339.073 530.586 339.383C531.113 339.782 531.88 340.082 532.966 340.474C533.018 340.492 533.071 340.511 533.125 340.531C534.062 340.868 535.268 341.301 536.223 341.989C537.357 342.805 538.227 344.036 538.227 345.83C538.227 347.232 537.704 348.55 536.561 349.478C535.87 350.04 535.032 350.395 534.102 350.581V350.938C534.102 351.887 533.332 352.656 532.383 352.656C531.434 352.656 530.664 351.887 530.664 350.938V350.579C528.88 350.221 527.612 349.293 526.808 348.03C526.298 347.229 526.534 346.167 527.335 345.657C528.136 345.147 529.198 345.384 529.708 346.184C530.042 346.708 530.695 347.304 532.383 347.304C533.518 347.304 534.113 347.038 534.393 346.811C534.625 346.622 534.789 346.344 534.789 345.83C534.789 345.343 534.628 345.076 534.215 344.779C533.678 344.392 532.905 344.106 531.8 343.707C531.782 343.701 531.764 343.694 531.747 343.688C530.777 343.338 529.51 342.881 528.508 342.121C527.37 341.257 526.539 339.983 526.539 338.17C526.539 336.531 527.436 335.26 528.541 334.462C529.17 334.008 529.899 333.677 530.664 333.479V333.062C530.664 332.113 531.434 331.344 532.383 331.344Z" fill="#25C286"/>
<circle cx="93.8828" cy="132.5" r="2.5" fill="#B9BEC5"/>
<circle cx="102.883" cy="132.5" r="2.5" fill="#B9BEC5"/>
<circle cx="111.883" cy="132.5" r="2.5" fill="#B9BEC5"/>
<rect x="133.383" y="131" width="175" height="6" rx="3" fill="white"/>
<rect x="302.387" y="57" width="164.655" height="348.268" rx="20" transform="rotate(0.173035 302.387 57)" fill="white" stroke="#2C3641" stroke-width="10"/>
<path d="M427.976 64.7234L428.013 52.4716L340.719 52.208L340.682 64.4598C340.664 70.3804 345.449 75.1946 351.37 75.2125L417.223 75.4113C423.144 75.4292 427.958 70.6441 427.976 64.7234Z" fill="#2C3641"/>
<rect x="348.572" y="387.523" width="70.5" height="3.5" rx="1.75" fill="#DCDFE3"/>
<rect width="133.502" height="33.7355" rx="7" transform="matrix(0.999996 0.00299737 -0.00284829 0.999996 316.881 322.02)" fill="#006CFA"/>
<path d="M352.681 332.086H348.109V344.686H349.783V340.186H352.681C355.003 340.186 356.749 338.422 356.749 336.136C356.749 333.832 355.003 332.086 352.681 332.086ZM352.681 338.62H349.783V333.652H352.681C354.067 333.652 355.093 334.696 355.093 336.136C355.093 337.558 354.067 338.62 352.681 338.62ZM365.33 335.686V337.234C364.61 336.136 363.458 335.452 361.928 335.452C359.426 335.452 357.374 337.522 357.374 340.186C357.374 342.85 359.426 344.92 361.928 344.92C363.458 344.92 364.61 344.236 365.33 343.138V344.686H366.896V335.686H365.33ZM362.126 343.408C360.326 343.408 358.94 342.022 358.94 340.186C358.94 338.35 360.326 336.964 362.126 336.964C363.944 336.964 365.33 338.35 365.33 340.186C365.33 342.022 363.944 343.408 362.126 343.408ZM375.551 335.686L372.959 342.742L369.899 335.686H368.225L372.149 344.65L371.987 344.992C371.519 346.18 370.763 346.918 369.557 346.828V348.286C371.393 348.412 372.797 347.26 373.553 345.244L377.225 335.686H375.551ZM391.025 332.086V341.482L384.545 332.086H383.195V344.686H384.869V335.272L391.349 344.686H392.699V332.086H391.025ZM399.462 344.92C402.09 344.92 404.214 342.85 404.214 340.186C404.214 337.522 402.09 335.452 399.462 335.452C396.834 335.452 394.728 337.522 394.728 340.186C394.728 342.85 396.834 344.92 399.462 344.92ZM399.462 343.39C397.68 343.39 396.294 342.004 396.294 340.186C396.294 338.368 397.68 336.982 399.462 336.982C401.262 336.982 402.648 338.368 402.648 340.186C402.648 342.004 401.262 343.39 399.462 343.39ZM416.31 335.686L414.33 342.544L412.206 335.686H410.694L408.57 342.526L406.59 335.686H404.952L407.742 344.686H409.344L411.45 338.026L413.556 344.686H415.158L417.948 335.686H416.31Z" fill="white"/>
<path d="M346.345 161.802V178.602H349.657V161.802H346.345ZM359.295 166.266C357.687 166.266 356.439 166.866 355.719 167.946V166.602H352.623V178.602H355.719V172.122C355.719 170.034 356.847 169.146 358.359 169.146C359.751 169.146 360.735 169.986 360.735 171.618V178.602H363.831V171.234C363.831 168.042 361.839 166.266 359.295 166.266ZM374.16 166.602L371.232 175.002L368.328 166.602H364.92L369.48 178.602H373.008L377.568 166.602H374.16ZM384.304 178.938C387.832 178.938 390.664 176.178 390.664 172.602C390.664 169.026 387.832 166.266 384.304 166.266C380.776 166.266 377.968 169.026 377.968 172.602C377.968 176.178 380.776 178.938 384.304 178.938ZM384.304 175.914C382.48 175.914 381.064 174.546 381.064 172.602C381.064 170.658 382.48 169.29 384.304 169.29C386.152 169.29 387.568 170.658 387.568 172.602C387.568 174.546 386.152 175.914 384.304 175.914ZM394.378 165.162C395.434 165.162 396.298 164.298 396.298 163.266C396.298 162.234 395.434 161.346 394.378 161.346C393.346 161.346 392.482 162.234 392.482 163.266C392.482 164.298 393.346 165.162 394.378 165.162ZM392.842 178.602H395.938V166.602H392.842V178.602ZM404.483 178.938C406.835 178.938 408.875 177.69 409.907 175.818L407.219 174.282C406.739 175.266 405.707 175.866 404.459 175.866C402.611 175.866 401.243 174.498 401.243 172.602C401.243 170.682 402.611 169.314 404.459 169.314C405.683 169.314 406.715 169.938 407.195 170.922L409.859 169.362C408.875 167.514 406.835 166.266 404.483 166.266C400.835 166.266 398.147 169.026 398.147 172.602C398.147 176.178 400.835 178.938 404.483 178.938ZM413.973 173.874H423.021C423.093 173.466 423.141 173.058 423.141 172.602C423.141 169.074 420.621 166.266 417.069 166.266C413.301 166.266 410.733 169.026 410.733 172.602C410.733 176.178 413.277 178.938 417.309 178.938C419.613 178.938 421.413 178.002 422.541 176.37L420.045 174.93C419.517 175.626 418.557 176.13 417.357 176.13C415.725 176.13 414.405 175.458 413.973 173.874ZM413.925 171.474C414.285 169.938 415.413 169.05 417.069 169.05C418.365 169.05 419.661 169.746 420.045 171.474H413.925Z" fill="#2C3641"/>
<path d="M316.785 222.701C316.785 220.232 318.787 218.23 321.256 218.23H437.69C440.159 218.23 442.161 220.232 442.161 222.701C442.161 225.171 440.159 227.172 437.69 227.172H321.256C318.787 227.172 316.785 225.171 316.785 222.701Z" fill="#F0F2F5"/>
<path d="M316.785 266.842C316.785 264.373 318.787 262.371 321.256 262.371H427.69C430.159 262.371 432.161 264.373 432.161 266.842C432.161 269.311 430.159 271.313 427.69 271.313H321.256C318.787 271.313 316.785 269.311 316.785 266.842Z" fill="#F0F2F5"/>
<path d="M316.785 207.143C316.785 204.674 318.787 202.672 321.256 202.672H408.814C411.283 202.672 413.285 204.674 413.285 207.143C413.285 209.612 411.283 211.614 408.814 211.614H321.256C318.787 211.614 316.785 209.612 316.785 207.143Z" fill="#F0F2F5"/>
<path d="M316.785 251.283C316.785 248.814 318.787 246.812 321.256 246.812H397.19C399.659 246.812 401.661 248.814 401.661 251.283C401.661 253.753 399.659 255.754 397.19 255.754H321.256C318.787 255.754 316.785 253.753 316.785 251.283Z" fill="#F0F2F5"/>
<path d="M316.785 295.584C316.785 293.115 318.787 291.113 321.256 291.113H377.19C379.659 291.113 381.661 293.115 381.661 295.584C381.661 298.053 379.659 300.055 377.19 300.055H321.256C318.787 300.055 316.785 298.053 316.785 295.584Z" fill="#F0F2F5"/>
<g filter="url(#filter2_d)">
<rect x="445.514" y="92.5234" width="40" height="40" rx="20" fill="#25C286"/>
<path fill-rule="evenodd" clip-rule="evenodd" d="M476.008 104.092C476.937 104.917 477.021 106.34 476.195 107.268L464.195 120.768C463.784 121.231 463.199 121.504 462.58 121.522C461.96 121.541 461.361 121.303 460.923 120.864L454.923 114.864C454.044 113.986 454.044 112.561 454.923 111.682C455.801 110.804 457.226 110.804 458.105 111.682L462.417 115.995L472.832 104.279C473.658 103.35 475.08 103.266 476.008 104.092Z" fill="white"/>
</g>
<path d="M412.909 114.089L405.841 110.012V96.2132C405.841 95.6101 405.358 95.1276 404.755 95.1276C404.562 95.1276 404.393 95.1759 404.225 95.2724L395.709 100.17C395.25 100.435 394.647 100.266 394.382 99.8078C394.285 99.663 394.261 99.4942 394.261 99.3253V89.4342C394.261 88.8311 393.779 88.3486 393.2 88.3486C393.031 88.3486 392.838 88.3969 392.693 88.4693L363.744 103.909C362.779 104.416 362.176 105.429 362.176 106.514V109.988L355.107 114.089C353.901 114.789 353.129 116.092 353.129 117.491V125.935C353.129 127.334 353.877 128.637 355.107 129.336L362.176 133.413V135.85C362.176 137.032 362.803 138.118 363.816 138.696L381.572 148.998C383.043 149.866 384.877 149.866 386.348 148.998L404.2 138.696C405.214 138.118 405.841 137.032 405.841 135.85V133.413L412.909 129.336C414.116 128.637 414.864 127.334 414.864 125.935V117.491C414.864 116.092 414.116 114.789 412.909 114.089ZM362.151 127.792L358.195 125.525C357.761 125.283 357.495 124.825 357.495 124.318V118.721C357.495 118.215 357.761 117.756 358.195 117.515L362.151 115.223V127.792ZM396.288 127.382V137.997L387 143.377C385.118 144.462 382.778 144.462 380.872 143.377L371.512 137.997V127.382L366.663 124.511V112.618L372.115 109.482C373.755 108.541 375.782 108.541 377.422 109.482L383.96 113.269L390.498 109.482C392.138 108.541 394.165 108.541 395.805 109.482L401.257 112.618L401.306 124.511L396.288 127.382ZM410.473 124.318C410.473 124.825 410.208 125.283 409.773 125.525L405.817 127.816V115.247L409.773 117.539C410.208 117.781 410.473 118.239 410.473 118.746V124.318ZM379.883 119.18C379.883 120.893 378.508 122.268 376.795 122.268C375.082 122.268 373.707 120.893 373.707 119.18C373.707 117.467 375.082 116.092 376.795 116.092C378.508 116.092 379.883 117.467 379.883 119.18ZM391.173 116.092C389.46 116.092 388.085 117.467 388.085 119.18C388.085 120.893 389.46 122.268 391.173 122.268C392.886 122.268 394.261 120.893 394.261 119.18C394.261 117.467 392.886 116.092 391.173 116.092ZM390.257 131.073L390.232 131.097C386.372 133.365 381.572 133.389 377.712 131.121C377.205 130.832 376.554 131.001 376.264 131.507C376.168 131.676 376.12 131.845 376.12 132.038V134.619L377.326 135.343C381.427 137.756 386.517 137.732 390.618 135.319L391.849 134.595V132.014C391.849 131.435 391.39 130.953 390.787 130.953C390.594 130.928 390.425 130.977 390.257 131.073Z" fill="#B9BEC5"/>
<defs>
<filter id="filter0_i" x="83.3828" y="124" width="264" height="20" filterUnits="userSpaceOnUse" color-interpolation-filters="sRGB">
<feFlood flood-opacity="0" result="BackgroundImageFix"/>
<feBlend mode="normal" in="SourceGraphic" in2="BackgroundImageFix" result="shape"/>
<feColorMatrix in="SourceAlpha" type="matrix" values="0 0 0 0 0 0 0 0 0 0 0 0 0 0 0 0 0 0 127 0" result="hardAlpha"/>
<feOffset dy="-1"/>
<feComposite in2="hardAlpha" operator="arithmetic" k2="-1" k3="1"/>
<feColorMatrix type="matrix" values="0 0 0 0 0.8 0 0 0 0 0.8 0 0 0 0 0.8 0 0 0 1 0"/>
<feBlend mode="normal" in2="shape" result="effect1_innerShadow"/>
</filter>
<filter id="filter1_d" x="43.3828" y="141" width="72" height="72" filterUnits="userSpaceOnUse" color-interpolation-filters="sRGB">
<feFlood flood-opacity="0" result="BackgroundImageFix"/>
<feColorMatrix in="SourceAlpha" type="matrix" values="0 0 0 0 0 0 0 0 0 0 0 0 0 0 0 0 0 0 127 0"/>
<feOffset dy="8"/>
<feGaussianBlur stdDeviation="8"/>
<feColorMatrix type="matrix" values="0 0 0 0 0 0 0 0 0 0 0 0 0 0 0 0 0 0 0.1 0"/>
<feBlend mode="normal" in2="BackgroundImageFix" result="effect1_dropShadow"/>
<feBlend mode="normal" in="SourceGraphic" in2="effect1_dropShadow" result="shape"/>
</filter>
<filter id="filter2_d" x="429.514" y="84.5234" width="72" height="72" filterUnits="userSpaceOnUse" color-interpolation-filters="sRGB">
<feFlood flood-opacity="0" result="BackgroundImageFix"/>
<feColorMatrix in="SourceAlpha" type="matrix" values="0 0 0 0 0 0 0 0 0 0 0 0 0 0 0 0 0 0 127 0"/>
<feOffset dy="8"/>
<feGaussianBlur stdDeviation="8"/>
<feColorMatrix type="matrix" values="0 0 0 0 0 0 0 0 0 0 0 0 0 0 0 0 0 0 0.1 0"/>
<feBlend mode="normal" in2="BackgroundImageFix" result="effect1_dropShadow"/>
<feBlend mode="normal" in="SourceGraphic" in2="effect1_dropShadow" result="shape"/>
</filter>
<clipPath id="clip0">
<rect width="5.625" height="5.625" fill="white" transform="translate(508.07 287.688)"/>
</clipPath>
</defs>
</svg>
