<svg width="529" height="411" viewBox="0 0 529 411" fill="none" xmlns="http://www.w3.org/2000/svg">
<rect y="36" width="529" height="375" fill="#F0F2F5"/>
<rect y="36" width="56" height="375" fill="#1452A4"/>
<path d="M56 36H529V92H56V36Z" fill="white"/>
<path d="M56 91H529V92H56V91Z" fill="#DCDFE3"/>
<path d="M83.5244 121.245V126H81.3008V113.203H86.1963C87.626 113.203 88.7598 113.575 89.5977 114.319C90.4414 115.063 90.8633 116.048 90.8633 117.272C90.8633 118.526 90.4502 119.502 89.624 120.199C88.8037 120.896 87.6523 121.245 86.1699 121.245H83.5244ZM83.5244 119.461H86.1963C86.9873 119.461 87.5908 119.276 88.0068 118.907C88.4229 118.532 88.6309 117.993 88.6309 117.29C88.6309 116.599 88.4199 116.048 87.998 115.638C87.5762 115.222 86.9961 115.008 86.2578 114.996H83.5244V119.461ZM98.1846 126C98.0908 125.818 98.0088 125.522 97.9385 125.112C97.2588 125.821 96.4268 126.176 95.4424 126.176C94.4873 126.176 93.708 125.903 93.1045 125.358C92.501 124.813 92.1992 124.14 92.1992 123.337C92.1992 122.323 92.5742 121.547 93.3242 121.008C94.0801 120.463 95.1582 120.19 96.5586 120.19H97.8682V119.566C97.8682 119.074 97.7305 118.682 97.4551 118.389C97.1797 118.09 96.7607 117.94 96.1982 117.94C95.7119 117.94 95.3135 118.063 95.0029 118.31C94.6924 118.55 94.5371 118.857 94.5371 119.232H92.4014C92.4014 118.711 92.5742 118.225 92.9199 117.773C93.2656 117.316 93.7344 116.959 94.3262 116.701C94.9238 116.443 95.5889 116.314 96.3213 116.314C97.4346 116.314 98.3223 116.596 98.9844 117.158C99.6465 117.715 99.9863 118.5 100.004 119.514V123.803C100.004 124.658 100.124 125.341 100.364 125.851V126H98.1846ZM95.8379 124.462C96.2598 124.462 96.6553 124.359 97.0244 124.154C97.3994 123.949 97.6807 123.674 97.8682 123.328V121.535H96.7168C95.9258 121.535 95.3311 121.673 94.9326 121.948C94.5342 122.224 94.335 122.613 94.335 123.117C94.335 123.527 94.4697 123.855 94.7393 124.102C95.0146 124.342 95.3809 124.462 95.8379 124.462ZM105.427 122.941L107.36 116.49H109.637L105.857 127.441C105.277 129.041 104.293 129.841 102.904 129.841C102.594 129.841 102.251 129.788 101.876 129.683V128.03L102.28 128.057C102.819 128.057 103.224 127.957 103.493 127.758C103.769 127.564 103.985 127.236 104.144 126.773L104.451 125.956L101.111 116.49H103.414L105.427 122.941ZM112.88 116.49L112.941 117.483C113.609 116.704 114.523 116.314 115.684 116.314C116.955 116.314 117.825 116.801 118.294 117.773C118.985 116.801 119.958 116.314 121.212 116.314C122.261 116.314 123.04 116.604 123.55 117.185C124.065 117.765 124.329 118.62 124.341 119.751V126H122.205V119.812C122.205 119.209 122.073 118.767 121.81 118.485C121.546 118.204 121.109 118.063 120.5 118.063C120.014 118.063 119.615 118.195 119.305 118.459C119 118.717 118.786 119.057 118.663 119.479L118.672 126H116.536V119.742C116.507 118.623 115.936 118.063 114.822 118.063C113.967 118.063 113.36 118.412 113.003 119.109V126H110.867V116.49H112.88ZM130.722 126.176C129.368 126.176 128.27 125.751 127.426 124.901C126.588 124.046 126.169 122.909 126.169 121.491V121.228C126.169 120.278 126.351 119.432 126.714 118.688C127.083 117.938 127.599 117.354 128.261 116.938C128.923 116.522 129.661 116.314 130.476 116.314C131.771 116.314 132.77 116.728 133.473 117.554C134.182 118.38 134.536 119.549 134.536 121.061V121.922H128.322C128.387 122.707 128.647 123.328 129.104 123.785C129.567 124.242 130.147 124.471 130.845 124.471C131.823 124.471 132.62 124.075 133.235 123.284L134.387 124.383C134.006 124.951 133.496 125.394 132.857 125.71C132.225 126.021 131.513 126.176 130.722 126.176ZM130.467 118.028C129.881 118.028 129.406 118.233 129.043 118.644C128.686 119.054 128.457 119.625 128.357 120.357H132.427V120.199C132.38 119.484 132.189 118.945 131.855 118.582C131.521 118.213 131.059 118.028 130.467 118.028ZM138.184 116.49L138.245 117.589C138.948 116.739 139.871 116.314 141.014 116.314C142.994 116.314 144.002 117.448 144.037 119.716V126H141.901V119.839C141.901 119.235 141.77 118.79 141.506 118.503C141.248 118.21 140.823 118.063 140.231 118.063C139.37 118.063 138.729 118.453 138.307 119.232V126H136.171V116.49H138.184ZM148.897 114.179V116.49H150.576V118.072H148.897V123.381C148.897 123.744 148.968 124.008 149.108 124.172C149.255 124.33 149.513 124.409 149.882 124.409C150.128 124.409 150.377 124.38 150.629 124.321V125.974C150.143 126.108 149.674 126.176 149.223 126.176C147.582 126.176 146.762 125.271 146.762 123.46V118.072H145.197V116.49H146.762V114.179H148.897ZM157.546 123.416C157.546 123.035 157.388 122.745 157.071 122.546C156.761 122.347 156.242 122.171 155.516 122.019C154.789 121.866 154.183 121.673 153.696 121.438C152.63 120.923 152.097 120.176 152.097 119.197C152.097 118.377 152.442 117.691 153.134 117.141C153.825 116.59 154.704 116.314 155.771 116.314C156.907 116.314 157.824 116.596 158.521 117.158C159.225 117.721 159.576 118.45 159.576 119.347H157.44C157.44 118.937 157.288 118.597 156.983 118.327C156.679 118.052 156.274 117.914 155.771 117.914C155.302 117.914 154.918 118.022 154.619 118.239C154.326 118.456 154.18 118.746 154.18 119.109C154.18 119.438 154.317 119.692 154.593 119.874C154.868 120.056 155.425 120.24 156.263 120.428C157.101 120.609 157.757 120.829 158.231 121.087C158.712 121.339 159.066 121.644 159.295 122.001C159.529 122.358 159.646 122.792 159.646 123.302C159.646 124.157 159.292 124.852 158.583 125.385C157.874 125.912 156.945 126.176 155.797 126.176C155.018 126.176 154.323 126.035 153.714 125.754C153.104 125.473 152.63 125.086 152.29 124.594C151.95 124.102 151.78 123.571 151.78 123.003H153.854C153.884 123.507 154.074 123.896 154.426 124.172C154.777 124.441 155.243 124.576 155.823 124.576C156.386 124.576 156.813 124.471 157.106 124.26C157.399 124.043 157.546 123.762 157.546 123.416Z" fill="#2C3641"/>
<rect x="74" y="59" width="108" height="8" rx="4" fill="#DCDFE3"/>
<rect x="455" y="59" width="61" height="8" rx="4" fill="#DCDFE3"/>
<circle cx="434" cy="63" r="10" fill="#DCDFE3"/>
<circle cx="386.75" cy="63" r="8.5" stroke="#DCDFE3" stroke-width="3"/>
<circle cx="346.5" cy="63" r="8.5" stroke="#DCDFE3" stroke-width="3"/>
<rect x="80" y="140" width="396" height="228" rx="6" fill="white"/>
<path d="M80 196H476V197H80V196Z" fill="#DCDFE3"/>
<path d="M80 253H476V254H80V253Z" fill="#DCDFE3"/>
<path d="M80 310H476V311H80V310Z" fill="#DCDFE3"/>
<rect x="99" y="164" width="32" height="8" rx="4" fill="#DCDFE3"/>
<rect x="99" y="220" width="32" height="8" rx="4" fill="#DCDFE3"/>
<rect x="99" y="279" width="32" height="8" rx="4" fill="#DCDFE3"/>
<rect x="99" y="334" width="32" height="8" rx="4" fill="#DCDFE3"/>
<rect x="316.5" y="164" width="60.25" height="8" rx="4" fill="#DCDFE3"/>
<rect x="316.5" y="220" width="60.25" height="8" rx="4" fill="#DCDFE3"/>
<rect x="316.5" y="279" width="60.25" height="8" rx="4" fill="#DCDFE3"/>
<rect x="316.5" y="334" width="60.25" height="8" rx="4" fill="#DCDFE3"/>
<rect x="425" y="164" width="35.5" height="8" rx="4" fill="#25C286"/>
<rect x="425" y="220" width="35.5" height="8" rx="4" fill="#FFB65D"/>
<rect x="425" y="279" width="35.5" height="8" rx="4" fill="#80BBFF"/>
<rect x="425" y="334" width="35.5" height="8" rx="4" fill="#25C286"/>
<rect x="145" y="164" width="49.5" height="8" rx="4" fill="#DCDFE3"/>
<rect x="145" y="220" width="49.5" height="8" rx="4" fill="#DCDFE3"/>
<rect x="145" y="279" width="49.5" height="8" rx="4" fill="#DCDFE3"/>
<rect x="145" y="334" width="49.5" height="8" rx="4" fill="#DCDFE3"/>
<rect x="208.5" y="164" width="94" height="8" rx="4" fill="#DCDFE3"/>
<rect x="208.5" y="220" width="94" height="8" rx="4" fill="#DCDFE3"/>
<rect x="208.5" y="279" width="94" height="8" rx="4" fill="#DCDFE3"/>
<rect x="208.5" y="334" width="94" height="8" rx="4" fill="#DCDFE3"/>
<path fill-rule="evenodd" clip-rule="evenodd" d="M418.75 167C418.75 171.832 414.832 175.75 410 175.75C405.168 175.75 401.25 171.832 401.25 167C401.25 162.168 405.168 158.25 410 158.25C414.832 158.25 418.75 162.168 418.75 167ZM411.133 161.961C411.133 161.443 410.713 161.023 410.195 161.023C409.678 161.023 409.258 161.443 409.258 161.961V162.327C408.823 162.449 408.406 162.652 408.048 162.923C407.429 163.394 406.914 164.135 406.914 165.086C406.914 165.302 406.947 165.505 406.996 165.687C407.193 166.423 407.678 166.927 408.186 167.265C408.685 167.596 409.256 167.801 409.742 167.94C410.152 168.058 410.511 168.199 410.776 168.375C411.033 168.546 411.149 168.711 411.193 168.876C411.207 168.929 411.211 168.967 411.211 168.992C411.211 169.586 410.815 170.008 410.195 170.008C409.246 170.008 408.866 169.707 408.69 169.354C408.459 168.891 407.895 168.703 407.432 168.935C406.969 169.166 406.781 169.73 407.013 170.193C407.475 171.117 408.288 171.616 409.258 171.799V172.033C409.258 172.551 409.678 172.971 410.195 172.971C410.713 172.971 411.133 172.551 411.133 172.033V171.739C412.318 171.359 413.086 170.264 413.086 168.992C413.086 168.776 413.053 168.573 413.004 168.391C412.807 167.655 412.322 167.151 411.814 166.813C411.315 166.482 410.744 166.277 410.258 166.138C409.848 166.021 409.489 165.879 409.224 165.703C408.967 165.532 408.851 165.368 408.807 165.203C408.793 165.149 408.789 165.111 408.789 165.086C408.789 164.865 408.902 164.629 409.182 164.416C409.471 164.198 409.858 164.07 410.195 164.07C410.519 164.07 410.824 164.189 411.046 164.343C411.136 164.405 411.197 164.463 411.232 164.502C411.323 164.925 411.699 165.242 412.148 165.242C412.666 165.242 413.086 164.822 413.086 164.305C413.086 163.901 412.886 163.576 412.741 163.387C412.574 163.169 412.356 162.969 412.114 162.802C411.841 162.613 411.509 162.444 411.133 162.333V161.961Z" fill="#25C286"/>
<path fill-rule="evenodd" clip-rule="evenodd" d="M418.75 223C418.75 227.832 414.832 231.75 410 231.75C405.168 231.75 401.25 227.832 401.25 223C401.25 218.168 405.168 214.25 410 214.25C414.832 214.25 418.75 218.168 418.75 223ZM411.133 217.961C411.133 217.443 410.713 217.023 410.195 217.023C409.678 217.023 409.258 217.443 409.258 217.961V218.327C408.823 218.449 408.406 218.652 408.048 218.923C407.429 219.394 406.914 220.135 406.914 221.086C406.914 221.302 406.947 221.505 406.996 221.687C407.193 222.423 407.678 222.927 408.186 223.265C408.685 223.596 409.256 223.801 409.742 223.94C410.152 224.058 410.511 224.199 410.776 224.375C411.033 224.546 411.149 224.711 411.193 224.876C411.207 224.929 411.211 224.967 411.211 224.992C411.211 225.586 410.815 226.008 410.195 226.008C409.246 226.008 408.866 225.707 408.69 225.354C408.459 224.891 407.895 224.703 407.432 224.935C406.969 225.166 406.781 225.73 407.013 226.193C407.475 227.117 408.288 227.616 409.258 227.799V228.033C409.258 228.551 409.678 228.971 410.195 228.971C410.713 228.971 411.133 228.551 411.133 228.033V227.739C412.318 227.359 413.086 226.264 413.086 224.992C413.086 224.776 413.053 224.573 413.004 224.391C412.807 223.655 412.322 223.151 411.814 222.813C411.315 222.482 410.744 222.277 410.258 222.138C409.848 222.021 409.489 221.879 409.224 221.703C408.967 221.532 408.851 221.368 408.807 221.203C408.793 221.149 408.789 221.111 408.789 221.086C408.789 220.865 408.902 220.629 409.182 220.416C409.471 220.198 409.858 220.07 410.195 220.07C410.519 220.07 410.824 220.189 411.046 220.343C411.136 220.405 411.197 220.463 411.232 220.502C411.323 220.925 411.699 221.242 412.148 221.242C412.666 221.242 413.086 220.822 413.086 220.305C413.086 219.901 412.886 219.576 412.741 219.387C412.574 219.169 412.356 218.969 412.114 218.802C411.841 218.613 411.509 218.444 411.133 218.333V217.961Z" fill="#FFB65D"/>
<path fill-rule="evenodd" clip-rule="evenodd" d="M418.75 282C418.75 286.832 414.832 290.75 410 290.75C405.168 290.75 401.25 286.832 401.25 282C401.25 277.168 405.168 273.25 410 273.25C414.832 273.25 418.75 277.168 418.75 282ZM411.133 276.961C411.133 276.443 410.713 276.023 410.195 276.023C409.678 276.023 409.258 276.443 409.258 276.961V277.327C408.823 277.449 408.406 277.652 408.048 277.923C407.429 278.394 406.914 279.135 406.914 280.086C406.914 280.302 406.947 280.505 406.996 280.687C407.193 281.423 407.678 281.927 408.186 282.265C408.685 282.596 409.256 282.801 409.742 282.94C410.152 283.058 410.511 283.199 410.776 283.375C411.033 283.546 411.149 283.711 411.193 283.876C411.207 283.929 411.211 283.967 411.211 283.992C411.211 284.586 410.815 285.008 410.195 285.008C409.246 285.008 408.866 284.707 408.69 284.354C408.459 283.891 407.895 283.703 407.432 283.935C406.969 284.166 406.781 284.73 407.013 285.193C407.475 286.117 408.288 286.616 409.258 286.799V287.033C409.258 287.551 409.678 287.971 410.195 287.971C410.713 287.971 411.133 287.551 411.133 287.033V286.739C412.318 286.359 413.086 285.264 413.086 283.992C413.086 283.776 413.053 283.573 413.004 283.391C412.807 282.655 412.322 282.151 411.814 281.813C411.315 281.482 410.744 281.277 410.258 281.138C409.848 281.021 409.489 280.879 409.224 280.703C408.967 280.532 408.851 280.368 408.807 280.203C408.793 280.149 408.789 280.111 408.789 280.086C408.789 279.865 408.902 279.629 409.182 279.416C409.471 279.198 409.858 279.07 410.195 279.07C410.519 279.07 410.824 279.189 411.046 279.343C411.136 279.405 411.197 279.463 411.232 279.502C411.323 279.925 411.699 280.242 412.148 280.242C412.666 280.242 413.086 279.822 413.086 279.305C413.086 278.901 412.886 278.576 412.741 278.387C412.574 278.169 412.356 277.969 412.114 277.802C411.841 277.613 411.509 277.444 411.133 277.333V276.961Z" fill="#80BBFF"/>
<path fill-rule="evenodd" clip-rule="evenodd" d="M418.75 337C418.75 341.832 414.832 345.75 410 345.75C405.168 345.75 401.25 341.832 401.25 337C401.25 332.168 405.168 328.25 410 328.25C414.832 328.25 418.75 332.168 418.75 337ZM411.133 331.961C411.133 331.443 410.713 331.023 410.195 331.023C409.678 331.023 409.258 331.443 409.258 331.961V332.327C408.823 332.449 408.406 332.652 408.048 332.923C407.429 333.394 406.914 334.135 406.914 335.086C406.914 335.302 406.947 335.505 406.996 335.687C407.193 336.423 407.678 336.927 408.186 337.265C408.685 337.596 409.256 337.801 409.742 337.94C410.152 338.058 410.511 338.199 410.776 338.375C411.033 338.546 411.149 338.711 411.193 338.876C411.207 338.929 411.211 338.967 411.211 338.992C411.211 339.586 410.815 340.008 410.195 340.008C409.246 340.008 408.866 339.707 408.69 339.354C408.459 338.891 407.895 338.703 407.432 338.935C406.969 339.166 406.781 339.73 407.013 340.193C407.475 341.117 408.288 341.616 409.258 341.799V342.033C409.258 342.551 409.678 342.971 410.195 342.971C410.713 342.971 411.133 342.551 411.133 342.033V341.739C412.318 341.359 413.086 340.264 413.086 338.992C413.086 338.776 413.053 338.573 413.004 338.391C412.807 337.655 412.322 337.151 411.814 336.813C411.315 336.482 410.744 336.277 410.258 336.138C409.848 336.021 409.489 335.879 409.224 335.703C408.967 335.532 408.851 335.368 408.807 335.203C408.793 335.149 408.789 335.111 408.789 335.086C408.789 334.865 408.902 334.629 409.182 334.416C409.471 334.198 409.858 334.07 410.195 334.07C410.519 334.07 410.824 334.189 411.046 334.343C411.136 334.405 411.197 334.463 411.232 334.502C411.323 334.925 411.699 335.242 412.148 335.242C412.666 335.242 413.086 334.822 413.086 334.305C413.086 333.901 412.886 333.576 412.741 333.387C412.574 333.169 412.356 332.969 412.114 332.802C411.841 332.613 411.509 332.444 411.133 332.333V331.961Z" fill="#25C286"/>
<path d="M0 6C0 2.68629 2.68629 0 6 0H523C526.314 0 529 2.68629 529 6V36H0V6Z" fill="#DCDFE3"/>
<circle cx="17.8496" cy="18" r="6" fill="#FF8789"/>
<circle cx="37.8496" cy="18" r="6" fill="#FFE974"/>
<circle cx="57.8496" cy="18" r="6" fill="#6FD9B4"/>
<rect x="71.8496" y="10" width="447.15" height="16" rx="5" fill="white"/>
<path d="M13.9144 64.8383V67.8121C13.9144 68.0684 14.0556 68.3119 14.2866 68.4529L16.3914 69.6706V63.0054L14.2866 64.2231C14.0556 64.3385 13.9144 64.582 13.9144 64.8383ZM41.7262 64.2103L39.6214 62.9926V69.6578L41.7262 68.4401C41.9572 68.3119 42.0984 68.0684 42.0984 67.7992V64.8255C42.0984 64.582 41.9572 64.3385 41.7262 64.2103ZM44.1775 61.0187L41.585 59.5318L41.2 59.3139V52.8922C41.2 51.713 40.2374 50.7517 39.0567 50.7517C38.6845 50.7517 38.3123 50.8542 37.9914 51.0337L36.1947 52.0591L35.0396 52.7256V51.3926V49.2905C35.0396 48.7137 34.7957 48.1497 34.385 47.7523C33.9872 47.3678 33.461 47.1499 32.8963 47.1499C32.5497 47.1499 32.2032 47.2396 31.8952 47.4063L16.4813 55.6096C15.4545 56.1608 14.8257 57.2118 14.8257 58.3782V59.3139L14.4406 59.5318L11.8353 61.0187C10.7059 61.6724 10 62.8772 10 64.1846V68.6708C10 69.9783 10.7059 71.1831 11.8353 71.8368L14.4278 73.3365L14.8128 73.5544V73.9902C14.8257 75.1566 15.4545 76.2333 16.4684 76.8229L25.9144 82.2961C26.5433 82.655 27.2492 82.8472 27.9807 82.8472C28.6995 82.8472 29.4053 82.655 30.0342 82.2961L39.5316 76.8229C40.5455 76.2461 41.1743 75.1566 41.1872 73.9902V73.5544L41.5722 73.3365L44.1647 71.8368C45.2941 71.1831 46 69.9783 46 68.6708V64.1846C46 62.8772 45.3069 61.6724 44.1775 61.0187ZM44.4342 68.6708C44.4342 69.4143 44.0364 70.1064 43.3818 70.4781L39.6214 72.6443V73.9389C39.6214 74.567 39.2877 75.1438 38.7487 75.4514L29.2513 80.9246C28.4684 81.3732 27.493 81.3732 26.7102 80.9246L17.2642 75.4514C16.7251 75.1438 16.3914 74.567 16.3914 73.9389V72.6443L12.631 70.4781C11.9893 70.1064 11.5786 69.4143 11.5786 68.6708V64.1846C11.5786 63.4412 11.9765 62.7491 12.6182 62.3773L16.3786 60.1983V58.3526C16.3786 57.7758 16.6995 57.2374 17.2128 56.9683L32.6267 48.7649C33.0118 48.5599 33.4738 48.8418 33.461 49.2648V54.5201C33.461 54.9174 33.8845 55.161 34.231 54.9687L38.7615 52.3667C39.1465 52.1488 39.6214 52.418 39.6214 52.8666V60.1983L43.3818 62.3645C44.0364 62.7362 44.4342 63.4284 44.4342 64.1718V68.6708ZM34.308 59.9292C33.4353 59.4293 32.3572 59.4293 31.4845 59.9292L28.0064 61.9415L24.5283 59.9292C23.6556 59.4293 22.5775 59.4293 21.7048 59.9292L18.8043 61.5955V67.9146L21.384 69.4271V75.0797L26.3636 77.9381C27.3775 78.5149 28.6096 78.5149 29.6235 77.9381L34.5647 75.0797V69.4271L37.2342 67.9018L37.2086 61.5826L34.308 59.9292ZM22.539 65.0819C22.539 64.1718 23.2706 63.4412 24.1818 63.4412C25.093 63.4412 25.8246 64.1718 25.8246 65.0819C25.8246 65.9919 25.093 66.7226 24.1818 66.7226C23.2706 66.7226 22.539 65.9791 22.539 65.0819ZM32.1904 73.2596L31.5358 73.6441C29.354 74.9259 26.646 74.9259 24.4642 73.6569L23.8225 73.2724V71.9137C23.8225 71.4779 24.2973 71.2088 24.6695 71.4267C26.723 72.6315 29.277 72.6315 31.3305 71.4138L31.3433 71.401C31.7155 71.1831 32.1904 71.4523 32.1904 71.8881V73.2596ZM31.831 66.7226C30.9198 66.7226 30.1882 65.9919 30.1882 65.0819C30.1882 64.1718 30.9198 63.4412 31.831 63.4412C32.7422 63.4412 33.4738 64.1718 33.4738 65.0819C33.4738 65.9791 32.7422 66.7226 31.831 66.7226Z" fill="white"/>
</svg>
