<svg id="Layer_1" data-name="Layer 1" xmlns="http://www.w3.org/2000/svg" viewBox="0 0 70 70"><defs><style>.cls-1{fill:#006cfa;}.cls-2{fill:#f52c2f;}.cls-3,.cls-7{fill:#25c286;}.cls-4,.cls-6,.cls-8{fill:none;}.cls-4{stroke:#dcdfe3;stroke-width:2px;stroke-dasharray:6 10;}.cls-4,.cls-5,.cls-6{stroke-linecap:round;stroke-linejoin:round;}.cls-5{fill:#fff;stroke:#4f5966;stroke-width:2.5px;}.cls-6{stroke:#fff;}.cls-6,.cls-8{stroke-width:3px;}.cls-7{fill-rule:evenodd;}.cls-8{stroke:#b9bec5;}</style></defs><circle class="cls-1" cx="6.15" cy="12.68" r="2.08"/><circle class="cls-2" cx="10.07" cy="42.13" r="1.87"/><circle class="cls-3" cx="2.94" cy="54.37" r="1.12"/><path class="cls-4" d="M48.74,25.09a24.26,24.26,0,1,1-32.13-12A24.26,24.26,0,0,1,48.74,25.09Z"/><rect class="cls-5" x="15.59" y="17.02" width="44.39" height="36.48" rx="3.22"/><circle class="cls-1" cx="60.19" cy="36.01" r="7.99"/><path class="cls-6" d="M56.37,36.52l2.69,2.62,5-5.56"/><path class="cls-7" d="M37.61,48.09A10.34,10.34,0,1,0,27.27,37.75,10.34,10.34,0,0,0,37.61,48.09Zm-7.8-10.71A4.2,4.2,0,0,0,34,41.54h.61V40H34a2.62,2.62,0,1,1,0-5.23H35.5v8.08a1.56,1.56,0,0,0,1.57,1.55V33.22H34A4.2,4.2,0,0,0,29.81,37.38ZM40.7,33.22h.6a4.16,4.16,0,1,1,0,8.32h-3V30.37a1.56,1.56,0,0,1,1.57,1.54V40H41.3a2.62,2.62,0,1,0,0-5.23h-.6Z"/><line class="cls-8" x1="16.5" y1="22.81" x2="59.15" y2="22.81"/></svg>