<?xml version="1.0" encoding="UTF-8"?>
<svg width="105px" height="109px" viewBox="0 0 105 109" version="1.1" xmlns="http://www.w3.org/2000/svg" xmlns:xlink="http://www.w3.org/1999/xlink">
    <!-- Generator: Sketch 52.5 (67469) - http://www.bohemiancoding.com/sketch -->
    <title>Group 44</title>
    <desc>Created with Sketch.</desc>
    <g id="illustration---2019" stroke="none" stroke-width="1" fill="none" fill-rule="evenodd">
        <g id="Artboard" transform="translate(-754.000000, -5814.000000)">
            <g id="Group-44" transform="translate(753.704615, 5814.474630)">
                <path d="M52.5799963,106.314682 C72.8389805,106.314682 82.5654294,96.5608601 91.7684787,80.5972402 C96.0842335,73.1111268 106.46416,63.4440182 106.46416,54.2674786 C106.46416,40.8553198 94.2713813,31.0426674 85.6452783,21.8145166 C75.7839573,11.2649374 68.4538689,2.22027545 52.5799963,2.22027545 C37.758885,2.22027545 25.9514054,5.03667011 16.2095416,14.3900556 C6.39065633,23.8173911 -1.30416695,39.8384481 -1.30416695,54.2674786 C-1.30416695,83.0123552 22.8205947,106.314682 52.5799963,106.314682 Z" id="Oval" fill-opacity="0.06" fill="#25C286" fill-rule="nonzero" transform="translate(52.579996, 54.267479) rotate(-90.000000) translate(-52.579996, -54.267479) "></path>
                <circle id="Oval-2-Copy-33" fill="#25C286" fill-rule="nonzero" cx="97.9536685" cy="48.8949643" r="1.73312883"></circle>
                <circle id="Oval-2-Copy-32" fill="#F82722" fill-rule="nonzero" cx="25.59256" cy="40.3680845" r="1.38650307"></circle>
                <circle id="Oval-2-Copy-31" fill="#006CFA" cx="44.477671" cy="14.854134" r="2.0797546"></circle>
                <g id="Group-6" transform="translate(7.018086, 25.800349)">
                    <g id="Group-4-Copy-2" transform="translate(0.119542, 31.155121)" fill-rule="nonzero" stroke-width="2">
                        <g id="Group-30" transform="translate(6.179796, 0.071818)" fill="#FFFFFF" stroke="#666E78" stroke-linecap="round" stroke-linejoin="round">
                            <polygon id="Rectangle-22" points="0.263702392 0.270913651 20.823 0.270913651 20.823 25.3585148 0.263702392 25.3585148"></polygon>
                        </g>
                        <g id="Group-21" transform="translate(0.073926, 8.806019)">
                            <polyline id="Path" stroke="#DADADC" points="10.744088 15.7631583 10.744088 0.896431715 10.744088 0.896431715 21.894133 0.896431715 21.894133 15.7631583"></polyline>
                            <path d="M1.08383102,16.7908478 L90.083831,16.7908478" id="Line-14" stroke="#666E78" fill="#FFFFFF" stroke-linecap="round" stroke-linejoin="round"></path>
                        </g>
                    </g>
                    <rect id="Rectangle" stroke="#666E78" stroke-width="2" fill="#FFFFFF" fill-rule="nonzero" stroke-linecap="round" stroke-linejoin="round" x="26.5590148" y="0.039748724" width="55.7502248" height="56.6793952"></rect>
                    <path d="M39.8577664,15.1496599 L41.9566473,8.67364137 L40.8377541,8.67364137 L41.2113768,7.52084227 L44.9706886,7.52084227 L44.5970658,8.67364137 L43.4993638,8.67364137 L41.4004828,15.1496599 L39.8577664,15.1496599 Z M42.8686064,15.1496599 L44.6611716,9.61876711 L46.0894558,9.61876711 L44.2968906,15.1496599 L42.8686064,15.1496599 Z M44.8177635,9.13560866 L45.2504516,7.80056558 L46.6787358,7.80056558 L46.2460477,9.13560866 L44.8177635,9.13560866 Z M44.9936559,15.1496599 L46.7862211,9.61876711 L48.2145053,9.61876711 L48.0881329,10.0086845 C48.4470562,9.71200821 48.9155043,9.49585838 49.3393275,9.49585838 C49.9538711,9.49585838 50.1109435,10.1358314 49.9310001,10.6910398 L48.4859591,15.1496599 L47.0576749,15.1496599 L48.4216728,10.9410955 C48.460134,10.822425 48.5411771,10.5723693 48.3038361,10.5723693 C48.1385451,10.5723693 47.9227825,10.767328 47.8120366,10.8605691 L46.4219401,15.1496599 L44.9936559,15.1496599 Z M49.8574384,13.2509319 L50.7255619,10.5723693 L50.3186916,10.5723693 L50.6277546,9.61876711 L51.0346249,9.61876711 L51.6239049,7.80056558 L53.0521891,7.80056558 L52.4629091,9.61876711 L53.1495026,9.61876711 L52.8404397,10.5723693 L52.1538461,10.5723693 L51.1744599,13.5942287 C51.0810542,13.8824285 51.1122479,14.0477196 51.4131624,14.0477196 C51.553024,14.0477196 51.6900211,14.0434813 51.8367508,14.0222902 L51.3934731,15.1284687 C51.0862776,15.2132334 50.8277454,15.2132334 50.5480221,15.2132334 C49.3443642,15.2132334 49.5442546,14.2172488 49.8574384,13.2509319 Z M53.4875465,12.9669704 L55.1489807,12.6660559 C54.9319498,13.3356966 54.7315548,14.1240077 55.265572,14.1240077 C55.6300599,14.1240077 55.8084651,13.8612374 55.9128597,13.5391317 C56.1189016,12.9033969 55.8452368,12.3354738 55.5265948,11.9455565 L55.1795415,11.5386862 C54.7425461,11.0300984 54.3008429,10.4706517 54.6566087,9.37294965 C55.0618246,8.12267121 56.1765389,7.36402768 57.4607232,7.36402768 C58.5457106,7.36402768 59.1189866,8.24981817 58.7687152,9.33056733 C58.7604735,9.35599673 58.7452464,9.38990258 58.7054116,9.51281131 L57.0404085,9.73319937 C57.0720016,9.63572004 57.1149358,9.54247893 57.153397,9.42380844 C57.2701541,9.06355872 57.3572085,8.54649441 56.9503382,8.54649441 C56.5858503,8.54649441 56.3291141,8.89402944 56.2247195,9.21613507 C56.0475234,9.762867 56.2258341,10.1019256 56.4914219,10.4070783 C56.6328097,10.5723693 56.7727064,10.7291839 56.8985149,10.8902367 C57.4559416,11.589545 57.8129152,12.3058062 57.4310508,13.4840347 C57.0766586,14.5774986 55.9418919,15.3064745 54.8780957,15.3064745 C53.4159056,15.3064745 53.1595229,14.1621518 53.4875465,12.9669704 Z M57.3760745,15.1496599 L59.8485783,7.52084227 L61.2768624,7.52084227 L60.4691779,10.0129227 C60.8281012,9.71624645 61.2992965,9.49162015 61.7231197,9.49162015 C62.3376633,9.49162015 62.4919885,10.1400696 62.3120452,10.695278 L60.8683777,15.1496599 L59.4400935,15.1496599 L60.762883,11.0682425 C60.8137067,10.9114279 60.9659781,10.5723693 60.7286371,10.5723693 C60.5463931,10.5723693 60.3081832,10.7842809 60.18484,10.8902367 L58.8043587,15.1496599 L57.3760745,15.1496599 Z M61.9248421,13.7128992 L62.6871974,11.3606805 C63.0539521,10.2290725 63.7916986,9.49585838 65.0123094,9.49585838 C66.2329202,9.49585838 66.5179613,10.2248343 66.149833,11.3606805 L65.3874777,13.7128992 C65.0797883,14.6622632 64.0640092,15.2725686 63.1400747,15.2725686 C62.2203783,15.2725686 61.6185264,14.658025 61.9248421,13.7128992 Z M63.9664137,13.7298522 L64.8537678,10.9919543 C64.9155804,10.8012338 64.9304203,10.5723693 64.6634117,10.5723693 C64.4048795,10.5723693 64.2926777,10.8139485 64.234986,10.9919543 L63.3476318,13.7298522 C63.2871929,13.9163344 63.2050109,14.1960577 63.4889724,14.1960577 C63.7814104,14.1960577 63.9032275,13.9248108 63.9664137,13.7298522 Z M68.052978,13.7976639 L68.9801669,10.9368573 C69.0337378,10.7715662 69.0771065,10.5723693 68.8609566,10.5723693 C68.6956656,10.5723693 68.4701704,10.7842809 68.3553036,10.8902367 L67.3827855,13.890905 C67.4247333,13.9968608 67.5169881,14.1960577 67.6865174,14.1960577 C67.9069054,14.1960577 67.9952863,13.9756696 68.052978,13.7976639 Z M65.0369277,16.722044 L67.3391034,9.61876711 L68.7673876,9.61876711 L68.6465096,9.99173153 C68.9533179,9.71200821 69.3553279,9.49162015 69.7282923,9.49162015 C70.3936947,9.49162015 70.6653168,10.1443079 70.4455386,10.822425 L69.3864829,14.0901019 C69.187309,14.7046455 68.5370393,15.2725686 67.8970663,15.2725686 C67.5113871,15.2725686 67.2269209,15.0648952 67.1094365,14.7343131 L66.4652119,16.722044 L65.0369277,16.722044 Z" id="Tint-Shop" fill="#25C286" fill-rule="nonzero"></path>
                    <polyline id="Path" stroke="#DADADC" stroke-width="2" fill-rule="nonzero" points="33.0632077 55.6580426 33.0632077 21.6651686 75.8050468 21.6651686 75.8050468 55.6580426"></polyline>
                    <g id="Group-26" transform="translate(39.625473, 33.376719)">
                        <path d="M26.4952703,12.6793859 L26.4952703,12.6793859 C27.7353494,12.6793859 28.7406321,13.6846686 28.7406321,14.9247478 L28.7406321,19.4154715 C28.7406321,20.6555507 27.7353494,21.6608334 26.4952703,21.6608334 L26.4952703,21.6608334 C25.2551911,21.6608334 24.2499084,20.6555507 24.2499084,19.4154715 L24.2499084,14.9247478 C24.2499084,13.6846686 25.2551911,12.6793859 26.4952703,12.6793859 Z" id="Rectangle-25-Copy" stroke="#666E78" stroke-width="2" fill="#FFFFFF" fill-rule="nonzero" stroke-linecap="round" stroke-linejoin="round" transform="translate(26.495270, 17.170110) scale(-1, 1) translate(-26.495270, -17.170110) "></path>
                        <path d="M3.14350664,12.6793859 L3.14350664,12.6793859 C4.38358577,12.6793859 5.38886853,13.6846686 5.38886853,14.9247478 L5.38886853,19.4154715 C5.38886853,20.6555507 4.38358577,21.6608334 3.14350664,21.6608334 L3.14350664,21.6608334 C1.90342751,21.6608334 0.898144755,20.6555507 0.898144755,19.4154715 L0.898144755,14.9247478 C0.898144755,13.6846686 1.90342751,12.6793859 3.14350664,12.6793859 Z" id="Rectangle-25" stroke="#666E78" stroke-width="2" fill="#FFFFFF" fill-rule="nonzero" stroke-linecap="round" stroke-linejoin="round"></path>
                        <path d="M15.2223908,18.8610398 L4.96127458,18.8610398 C1.65375819,16.7762325 1.54839117e-13,14.3426277 0,11.5602255 C-1.5429538e-13,8.77782324 1.86796762,7.31946743 5.60390286,7.18515804 L15.2223908,7.18515804 L24.9330188,7.18515804 C28.668954,7.31946743 30.5369217,8.77782324 30.5369217,11.5602255 C30.5369217,14.3426277 28.8831635,16.7762325 25.5756471,18.8610398 L15.2223908,18.8610398 Z" id="Combined-Shape" stroke="#666E78" stroke-width="2" fill="#FFFFFF" fill-rule="nonzero" stroke-linecap="round" stroke-linejoin="round"></path>
                        <circle id="Oval-13-Copy-2" fill="#666E78" fill-rule="nonzero" transform="translate(6.339693, 13.524851) scale(-1, 1) translate(-6.339693, -13.524851) " cx="6.33969305" cy="13.5248511" r="1.29453736"></circle>
                        <polygon id="Rectangle" fill="#006CFA" fill-rule="nonzero" points="9.60149099 8.17955089 20.7515364 8.17955089 20.7515364 17.9281715 9.60149099 17.9281715"></polygon>
                        <rect id="Rectangle" fill="#FFFFFF" fill-rule="nonzero" x="14.6486345" y="8.17955089" width="1.11500454" height="9.74862063"></rect>
                        <rect id="Rectangle-Copy-5" fill="#FFFFFF" fill-rule="nonzero" x="16.2573072" y="8.17955089" width="1" height="9.74862063"></rect>
                        <rect id="Rectangle-Copy-6" fill="#FFFFFF" fill-rule="nonzero" x="13.597464" y="8.17955089" width="1" height="9.74862063"></rect>
                        <circle id="Oval" fill="#FFFFFF" fill-rule="nonzero" cx="15.2684608" cy="13.3357555" r="3.17590984"></circle>
                        <path d="M15.763639,14.8833816 L15.1102499,14.8833816 L15.1102499,12.8135211 L14.3662448,12.8135211 L14.3662448,12.3699796 C14.5888115,12.3668001 14.7748109,12.3103643 14.9242486,12.2006707 C15.0736863,12.0909771 15.1643014,11.9534647 15.1960966,11.7881294 L15.763639,11.7881294 L15.763639,14.8833816 Z" id="1" fill="#666E78"></path>
                        <circle id="Oval-13-Copy" fill="#666E78" fill-rule="nonzero" transform="translate(25.200733, 13.524851) scale(-1, 1) translate(-25.200733, -13.524851) " cx="25.2007329" cy="13.5248511" r="1.29453736"></circle>
                        <path d="M15.2213924,7.18515804 L5.38886853,7.18515804 C5.41754401,5.52604428 5.67470643,4.0594153 6.16035579,2.78527109 C6.64600515,1.51112688 8.07390262,0.582703187 10.4440482,0 L15.2213924,0 L20.0928735,0 C22.463019,0.582703187 23.8909165,1.51112688 24.3765659,2.78527109 C24.8622152,4.0594153 25.1193776,5.52604428 25.1480531,7.18515804 L15.2213924,7.18515804 Z" id="Combined-Shape" stroke="#666E78" stroke-width="2" fill="#FFFFFF" fill-rule="nonzero" stroke-linecap="round" stroke-linejoin="round"></path>
                        <path d="M5.38886853,6.28701328 L5.17017342,5.98912273 L5.17017342,5.32869166 C5.1402434,4.77601053 4.79734369,4.4969106 4.14147429,4.49139186 C3.15767019,4.48311376 2.53910535,4.54622924 2.12204496,4.99474088 C1.84400471,5.29374865 1.74395007,5.62520926 1.82188107,5.98912273 L5.38886853,6.28701328 Z" id="Path-6" stroke="#666E78" stroke-width="2.8226882" fill="#FFFFFF" fill-rule="nonzero" stroke-linecap="round" stroke-linejoin="round"></path>
                        <path d="M28.7406321,6.28701328 L28.521937,5.98912273 L28.521937,5.32869166 C28.492007,4.77601053 28.1491073,4.4969106 27.4932379,4.49139186 C26.5094338,4.48311376 25.890869,4.54622924 25.4738086,4.99474088 C25.1957683,5.29374865 25.0957137,5.62520926 25.1736447,5.98912273 L28.7406321,6.28701328 Z" id="Path-6-Copy" stroke="#666E78" stroke-width="2.8226882" fill="#FFFFFF" fill-rule="nonzero" stroke-linecap="round" stroke-linejoin="round" transform="translate(26.944343, 5.388869) scale(-1, 1) translate(-26.944343, -5.388869) "></path>
                    </g>
                </g>
            </g>
        </g>
    </g>
</svg>