<?xml version="1.0" encoding="UTF-8"?>
<svg width="111px" height="107px" viewBox="0 0 111 107" version="1.1" xmlns="http://www.w3.org/2000/svg" xmlns:xlink="http://www.w3.org/1999/xlink">
    <!-- Generator: Sketch 52.5 (67469) - http://www.bohemiancoding.com/sketch -->
    <title>Group 51</title>
    <desc>Created with Sketch.</desc>
    <g id="illustration---2019" stroke="none" stroke-width="1" fill="none" fill-rule="evenodd">
        <g id="Artboard" transform="translate(-176.000000, -5817.000000)">
            <g id="Group-51" transform="translate(176.550384, 5817.207759)">
                <path d="M54.9618052,106.304546 C75.6053058,106.304546 85.516363,96.3655961 94.8940866,80.098986 C99.2917547,72.4707859 109.868692,62.6201951 109.868692,53.2694845 C109.868692,39.6027624 97.4444944,29.6038654 88.6546676,20.200564 C78.6061783,9.4507533 71.1369645,0.234423281 54.9618052,0.234423281 C39.8593887,0.234423281 36.6410944,10.6696508 26.7143295,20.200564 C16.7090814,29.8068307 0.0549183462,38.5665904 0.0549183462,53.2694845 C0.0549183462,82.55994 24.6375689,106.304546 54.9618052,106.304546 Z" id="Oval" fill-opacity="0.041311" fill="#006CFA" fill-rule="nonzero"></path>
                <circle id="Oval-2-Copy-33" fill="#006CFA" cx="83.6472924" cy="25.2102584" r="1.52777778"></circle>
                <circle id="Oval-2-Copy-32" fill="#25C286" fill-rule="nonzero" cx="99.5174484" cy="52.7898744" r="1.14583333"></circle>
                <circle id="Oval-2-Copy-31" fill="#F82722" fill-rule="nonzero" cx="9.14373073" cy="53.9357077" r="2.26590536"></circle>
                <g id="Group-4" transform="translate(8.838280, 25.501925)" fill-rule="nonzero">
                    <g id="Group-30" transform="translate(8.240986, 0.054323)">
                        <polygon id="Rectangle-22" stroke="#666E78" stroke-width="2" fill="#FFFFFF" stroke-linecap="round" stroke-linejoin="round" points="0.453759411 8.24492146 70.2068509 8.24492146 70.2068509 54.7469825 0.453759411 54.7469825"></polygon>
                        <path d="M12.0792747,20.731586 L12.0792747,54.3605403" id="Line-13" stroke="#DADADC" stroke-width="2" fill="#FFFFFF" stroke-linecap="round" stroke-linejoin="round"></path>
                        <g id="Group-13" transform="translate(16.637500, 37.434376)" fill="#FFFFFF" stroke="#666E78" stroke-linecap="round" stroke-linejoin="round" stroke-width="2">
                            <g id="Group-25" transform="translate(0.441612, 0.001798)">
                                <path d="M0.459848903,0 L0.459848903,16.1496826" id="Line-13"></path>
                                <path d="M37.7648356,0 L37.7648356,16.9815576" id="Line-13"></path>
                            </g>
                            <path d="M2.33096861,5.5992688 L4.91441645,5.5992688" id="Line-15"></path>
                            <path d="M34.1934919,5.5992688 L36.7769397,5.5992688" id="Line-15"></path>
                        </g>
                        <path d="M59.442485,20.731586 L59.442485,54.3605403" id="Line-13" stroke="#DADADC" stroke-width="2" fill="#FFFFFF" stroke-linecap="round" stroke-linejoin="round"></path>
                        <polygon id="Rectangle-23" stroke="#DADADC" stroke-width="2" fill="#FFFFFF" stroke-linecap="round" stroke-linejoin="round" points="6.48180436 18.4616157 65.0399553 18.4616157 65.0399553 22.1291806 6.48180436 22.1291806"></polygon>
                        <rect id="Rectangle-24" fill="#25C286" x="9.92640147" y="0.0279213002" width="50.8078074" height="12.0560899" rx="2.61360015"></rect>
                        <g id="Group-26" transform="translate(21.982491, 27.102383)">
                            <path d="M25.4039037,12.1571093 L25.4039037,12.1571093 C26.5929027,12.1571093 27.5567769,13.1209835 27.5567769,14.3099825 L27.5567769,18.6157289 C27.5567769,19.804728 26.5929027,20.7686021 25.4039037,20.7686021 L25.4039037,20.7686021 C24.2149047,20.7686021 23.2510305,19.804728 23.2510305,18.6157289 L23.2510305,14.3099825 C23.2510305,13.1209835 24.2149047,12.1571093 25.4039037,12.1571093 Z" id="Rectangle-25-Copy" stroke="#666E78" stroke-width="2" fill="#FFFFFF" stroke-linecap="round" stroke-linejoin="round" transform="translate(25.403904, 16.462856) scale(-1, 1) translate(-25.403904, -16.462856) "></path>
                            <path d="M3.01402247,12.1571093 L3.01402247,12.1571093 C4.20302151,12.1571093 5.16689567,13.1209835 5.16689567,14.3099825 L5.16689567,18.6157289 C5.16689567,19.804728 4.20302151,20.7686021 3.01402247,20.7686021 L3.01402247,20.7686021 C1.82502344,20.7686021 0.861149278,19.804728 0.861149278,18.6157289 L0.861149278,14.3099825 C0.861149278,13.1209835 1.82502344,12.1571093 3.01402247,12.1571093 Z" id="Rectangle-25" stroke="#666E78" stroke-width="2" fill="#FFFFFF" stroke-linecap="round" stroke-linejoin="round"></path>
                            <path d="M14.5953654,18.0841348 L4.75691474,18.0841348 C1.58563825,16.0852028 1.4846114e-13,13.7518406 0,11.0840483 C-1.479398e-13,8.41625596 1.79102417,7.01797128 5.37307252,6.88919423 L14.5953654,6.88919423 L23.9060029,6.88919423 C27.4880513,7.01797128 29.2790755,8.41625596 29.2790755,11.0840483 C29.2790755,13.7518406 27.6934372,16.0852028 24.5221607,18.0841348 L14.5953654,18.0841348 Z" id="Combined-Shape" stroke="#666E78" stroke-width="2" fill="#FFFFFF" stroke-linecap="round" stroke-linejoin="round"></path>
                            <path d="M14.5944081,6.88919423 L5.16689567,6.88919423 C5.19438998,5.29842102 5.44095963,3.89220395 5.9066046,2.67054301 C6.37224958,1.44888206 7.74133053,0.558701063 10.0138475,0 L14.5944081,0 L19.265228,0 C21.5377449,0.558701063 22.9068259,1.44888206 23.3724709,2.67054301 C23.8381158,3.89220395 24.0846855,5.29842102 24.1121798,6.88919423 L14.5944081,6.88919423 Z" id="Combined-Shape" stroke="#666E78" stroke-width="2" fill="#FFFFFF" stroke-linecap="round" stroke-linejoin="round"></path>
                            <path d="M5.16689567,6.02804495 L4.95720883,5.7424248 L4.95720883,5.10919755 C4.92851166,4.5792819 4.59973633,4.31167837 3.97088284,4.30638696 C3.02760261,4.29844984 2.43451708,4.35896554 2.03463582,4.78900254 C1.76804832,5.07569387 1.67211503,5.39350129 1.74683598,5.7424248 L5.16689567,6.02804495 Z" id="Path-6" stroke="#666E78" stroke-width="2.61360015" fill="#FFFFFF" stroke-linecap="round" stroke-linejoin="round"></path>
                            <circle id="Oval-13" fill="#006CFA" cx="6.07855478" cy="12.967749" r="1.77280839"></circle>
                            <path d="M27.5567769,6.02804495 L27.3470901,5.7424248 L27.3470901,5.10919755 C27.3183929,4.5792819 26.9896176,4.31167837 26.3607641,4.30638696 C25.4174838,4.29844984 24.8243983,4.35896554 24.4245171,4.78900254 C24.1579295,5.07569387 24.0619963,5.39350129 24.1367172,5.7424248 L27.5567769,6.02804495 Z" id="Path-6-Copy" stroke="#666E78" stroke-width="2.61360015" fill="#FFFFFF" stroke-linecap="round" stroke-linejoin="round" transform="translate(25.834478, 5.166896) scale(-1, 1) translate(-25.834478, -5.166896) "></path>
                            <circle id="Oval-13-Copy" fill="#006CFA" transform="translate(24.162690, 12.967749) scale(-1, 1) translate(-24.162690, -12.967749) " cx="24.1626896" cy="12.967749" r="1.77280839"></circle>
                        </g>
                    </g>
                    <g id="Group-21" transform="translate(0.076551, 52.905194)" fill="#FFFFFF" stroke="#666E78" stroke-linecap="round" stroke-linejoin="round" stroke-width="2">
                        <path d="M0.660214024,1.82390721 L85.3751581,1.82390721" id="Line-14"></path>
                    </g>
                </g>
            </g>
        </g>
    </g>
</svg>