<?xml version="1.0" encoding="UTF-8"?>
<svg width="110px" height="106px" viewBox="0 0 110 106" version="1.1" xmlns="http://www.w3.org/2000/svg" xmlns:xlink="http://www.w3.org/1999/xlink">
    <!-- Generator: Sketch 52.5 (67469) - http://www.bohemiancoding.com/sketch -->
    <title>Group 31</title>
    <desc>Created with Sketch.</desc>
    <defs>
        <circle id="path-1" cx="30.7472512" cy="21.9846755" r="2.11242604"></circle>
        <path d="M36.4198296,43.0549859 L37.9821756,35.8256213 L39.2754286,35.8256213 L40.8337583,43.0549859 L39.3919017,43.0549859 L39.0946945,41.5087051 L38.1508608,41.5087051 L37.8697188,43.0549859 L36.4198296,43.0549859 Z M38.2512686,40.6090509 L38.998303,40.6090509 L38.6328184,37.9261533 L38.2512686,40.6090509 Z M41.2916181,43.0549859 L41.2916181,35.8256213 L42.6451158,35.8256213 L42.6451158,43.0549859 L41.2916181,43.0549859 Z M43.416248,43.0549859 L43.416248,35.8256213 L44.7697457,35.8256213 L44.7697457,43.0549859 L43.416248,43.0549859 Z M46.7015926,43.0549859 L46.7015926,35.8256213 L48.4527054,35.8256213 L49.2238376,40.6451977 L50.0552145,35.8256213 L51.7460826,35.8256213 L51.7460826,43.0549859 L50.6697105,43.0549859 L50.63758,37.9703328 C50.4006175,39.5326788 50.0311166,41.4926399 49.7941541,43.0549859 L48.7017168,43.0549859 L47.8141115,37.9382023 L47.781981,43.0549859 L46.7015926,43.0549859 Z M54.6659426,43.0549859 L54.5334043,42.5127836 C54.3647191,43.0349043 53.9711204,43.171459 53.493179,43.171459 C52.6899163,43.171459 52.4087743,42.4967183 52.4087743,41.8862386 C52.4087743,40.5929856 53.3044123,40.1552074 54.388817,39.7093966 L54.388817,39.2676021 C54.388817,38.9181828 54.3165233,38.7173671 54.0875934,38.7173671 C53.774321,38.7173671 53.762272,39.010558 53.762272,39.2676021 L53.762272,39.5648093 L52.4489375,39.5648093 C52.4489375,38.3679478 53.0594171,37.6932071 54.2201318,37.6932071 C55.0153619,37.6932071 55.7302657,38.3599152 55.7302657,39.1712106 L55.7302657,41.6613251 C55.7302657,42.1432827 55.7945268,42.5850772 55.9029672,43.0549859 L54.6659426,43.0549859 Z M54.3928333,41.8701734 L54.388817,40.5809367 C54.0393977,40.8620786 53.7261252,41.2396121 53.7261252,41.7617329 C53.7261252,41.9384507 53.7823536,42.1513153 53.9992345,42.1513153 C54.1799687,42.1513153 54.3004581,41.9866465 54.3928333,41.8701734 Z M56.4732838,43.0549859 L56.4732838,37.8136965 L57.8187489,37.8136965 L57.8187489,38.2394258 C57.9914503,37.9582838 58.2324292,37.7373866 58.5416853,37.7373866 C58.666191,37.7373866 58.7826641,37.7574682 58.9071699,37.7775497 L58.8268436,38.9181828 C58.67824,38.9021176 58.537669,38.8780197 58.3810328,38.8780197 C58.0115319,38.8780197 57.8187489,39.1149822 57.8187489,39.5366951 L57.8187489,43.0549859 L56.4732838,43.0549859 Z M59.3489644,43.0549859 L59.3489644,37.8136965 L60.7024621,37.8136965 L60.7024621,43.0549859 L59.3489644,43.0549859 Z M59.3489644,37.3558368 L59.3489644,36.090698 L60.7024621,36.090698 L60.7024621,37.3558368 L59.3489644,37.3558368 Z M61.4655617,43.0549859 L61.4655617,37.8136965 L62.8190594,37.8136965 L62.8190594,38.1831974 C63.0680708,37.9020554 63.4456043,37.6972235 63.8472357,37.6972235 C64.4296012,37.6972235 64.7750041,38.3036868 64.7750041,38.8298239 L64.7750041,43.0549859 L63.4215064,43.0549859 L63.4215064,39.0667864 C63.4215064,38.9543296 63.4215064,38.7173671 63.1965929,38.7173671 C63.0399566,38.7173671 62.8953693,38.9021176 62.8190594,38.9904765 L62.8190594,43.0549859 L61.4655617,43.0549859 Z M65.4376959,41.6934556 L65.4376959,39.4644015 C65.4376959,38.3920457 65.9236699,37.6932071 67.0482377,37.6932071 C68.1768218,37.6932071 68.6587795,38.3880294 68.6587795,39.4644015 L68.6587795,40.5488062 L66.7911936,40.5488062 L66.7911936,41.7095208 C66.7911936,41.8822223 66.8112752,42.1513153 67.0482377,42.1513153 C67.2892165,42.1513153 67.3293796,41.9023039 67.3293796,41.6773903 L67.3293796,41.1030575 L68.6587795,41.1030575 L68.6587795,41.6934556 C68.6587795,42.5931098 67.9037125,43.171459 67.0482377,43.171459 C66.1967792,43.171459 65.4376959,42.5890935 65.4376959,41.6934556 Z M66.7911936,39.8379186 L67.3173307,39.8379186 L67.3173307,39.1149822 C67.3173307,38.9342481 67.2691349,38.7173671 67.0482377,38.7173671 C66.8353731,38.7173671 66.7911936,38.946297 66.7911936,39.1149822 L66.7911936,39.8379186 Z" id="path-2"></path>
    </defs>
    <g id="illustration---2019" stroke="none" stroke-width="1" fill="none" fill-rule="evenodd">
        <g id="Artboard" transform="translate(-180.000000, -6276.000000)">
            <g id="Group-31" transform="translate(180.550384, 6275.614239)">
                <path d="M54.4827748,105.589791 C74.8874624,105.589791 84.6838642,95.7658195 93.9531022,79.6873886 C98.2998961,72.1474349 108.754475,62.4108 108.754475,53.1682624 C108.754475,39.6596429 96.4740058,29.7764175 87.7858635,20.4818976 C77.8536195,9.8564454 70.4708129,0.746733894 54.4827748,0.746733894 C39.5550696,0.746733894 36.3740059,11.0612422 26.5620782,20.4818976 C16.6725752,29.9770348 0.21107469,38.6354579 0.21107469,53.1682624 C0.21107469,82.1198732 24.5093425,105.589791 54.4827748,105.589791 Z" id="Oval" fill-opacity="0.041311" fill="#006CFA" fill-rule="nonzero"></path>
                <circle id="Oval-2-Copy-33" fill="#F82722" fill-rule="nonzero" cx="89.2881699" cy="43.8857063" r="1.76035503"></circle>
                <circle id="Oval-2-Copy-32" fill="#006CFA" cx="17.198605" cy="61.9822719" r="1.40828402"></circle>
                <g id="Oval-2-Copy-31" fill-rule="nonzero">
                    <use fill="#000000" xlink:href="#path-1"></use>
                    <use fill="#25C286" xlink:href="#path-1"></use>
                </g>
                <g id="Group-12" transform="translate(10.532281, 23.412863)" fill-rule="nonzero">
                    <polygon id="Rectangle" stroke="#666E78" stroke-width="2" fill="#FFFFFF" stroke-linecap="round" stroke-linejoin="round" points="12.8682183 14.5694026 42.0070235 1.70530257e-13 71.1458287 14.5694026 71.1458287 54.4435571 12.8682183 54.4435571"></polygon>
                    <polyline id="Path" stroke="#DADADC" stroke-width="2" points="21.3031356 53.5939104 21.3031356 23.6846468 21.3031356 23.6846468 62.7109114 23.6846468 62.7109114 53.5939104"></polyline>
                    <g id="Group-11" transform="translate(28.020398, 30.551113)" stroke="#666E78" stroke-linecap="round" stroke-linejoin="round">
                        <path d="M2.66318747,14.3540576 L2.66318747,14.3540576 C3.86772023,14.3540576 4.84418696,15.3305243 4.84418696,16.5350571 L4.84418696,20.0843378 C4.84418696,21.2888705 3.86772023,22.2653373 2.66318747,22.2653373 L2.66318747,22.2653373 C1.45865472,22.2653373 0.482187988,21.2888705 0.482187988,20.0843378 L0.482187988,16.5350571 C0.482187988,15.3305243 1.45865472,14.3540576 2.66318747,14.3540576 Z" id="Rectangle-25" stroke-width="2" fill="#FFFFFF"></path>
                        <path d="M25.2265903,14.3540576 L25.2265903,14.3540576 C26.4311231,14.3540576 27.4075898,15.3305243 27.4075898,16.5350571 L27.4075898,20.0843378 C27.4075898,21.2888705 26.4311231,22.2653373 25.2265903,22.2653373 L25.2265903,22.2653373 C24.0220576,22.2653373 23.0455909,21.2888705 23.0455909,20.0843378 L23.0455909,16.5350571 C23.0455909,15.3305243 24.0220576,14.3540576 25.2265903,14.3540576 Z" id="Rectangle-25-Copy-2" stroke-width="2" fill="#FFFFFF"></path>
                        <g id="Group-10" transform="translate(1.227015, 0.169820)">
                            <g id="Group-9">
                                <path d="M14.3497456,0.150157449 L18.9189258,0.150157449 C19.7899867,0.150157449 20.5346399,0.777076573 20.6830876,1.63539489 L22.3172066,11.0838005 L22.3172066,12.3444629 L13.550586,10.0066974 L3.37268637,12.3444629 L3.37268637,11.0838005 L5.27937725,1.58805258 C5.4472858,0.751830363 6.1817805,0.150157449 7.03469367,0.150157449 L14.3497456,0.150157449 Z" id="Combined-Shape" stroke-width="2.17800004" fill="#006CFA"></path>
                                <path d="M12.8276542,24.211749 C8.20522547,22.1884637 5.68390072,20.9744925 5.26367993,20.5698355 C4.63334874,19.9628499 1.21820901,15.7139508 0.719619723,13.892994 C0.387226865,12.6790228 0.221030437,11.4650517 0.221030437,10.2510805 C2.32213439,9.44176636 4.42323835,8.83478078 6.5243423,8.43012372 C8.62544626,8.02546666 10.7265502,7.82313813 12.8276542,7.82313813" id="Path" stroke-width="2" fill="#FFFFFF"></path>
                                <path d="M6.94011423,8.19403689 C6.71570362,7.70159146 6.60349831,7.18320841 6.60349831,6.63888773 C6.60349831,6.09456706 6.71570362,5.55024639 6.94011423,5.00592572 L1.47200757,6.09954705 C1.24759696,6.69628431 1.13539165,7.31018804 1.13539165,7.94125826 C1.13539165,8.5185898 1.22930095,9.09592135 1.41711956,9.67325289" id="Path-33" stroke-width="2"></path>
                            </g>
                            <g id="Group-9-Copy" transform="translate(19.189893, 15.000000) scale(-1, 1) translate(-19.189893, -15.000000) translate(12.689893, 5.000000)" stroke-width="2">
                                <path d="M12.8276542,19.211749 C8.20522547,17.1884637 5.68390072,15.9744925 5.26367993,15.5698355 C4.63334874,14.9628499 1.21820901,10.7139508 0.719619723,8.892994 C0.387226865,7.67902283 0.221030437,6.46505165 0.221030437,5.25108048 C2.32213439,4.44176636 4.42323835,3.83478078 6.5243423,3.43012372 C8.62544626,3.02546666 10.7265502,2.82313813 12.8276542,2.82313813" id="Path" fill="#FFFFFF"></path>
                                <path d="M6.94011423,3.19403689 C6.71570362,2.70159146 6.60349831,2.18320841 6.60349831,1.63888773 C6.60349831,1.09456706 6.71570362,0.550246393 6.94011423,0.00592572155 L1.47200757,1.09954705 C1.24759696,1.69628431 1.13539165,2.31018804 1.13539165,2.94125826 C1.13539165,3.5185898 1.22930095,4.09592135 1.41711956,4.67325289" id="Path-33"></path>
                            </g>
                        </g>
                        <polyline id="Path-31" stroke-width="2.17800004" points="1.80507223 15.5380417 14.4405778 25.2589546 26.1735473 15.5380417"></polyline>
                        <path d="M14.3137882,22.6509895 L14.3137882,25.2589546" id="Line-5" stroke-width="2.76858645" fill="#FFFFFF"></path>
                        <path d="M14.3137882,18.7632656 L14.3137882,23.9805916" id="Line-5-Copy" stroke-width="2" fill="#FFFFFF"></path>
                        <path d="M12.959984,18.2456501 L15.6675924,18.2456501" id="Line-41" stroke-width="2" fill="#FFFFFF"></path>
                        <rect id="Rectangle" stroke-width="2" fill="#FFFFFF" x="11.2556953" y="16.8918459" width="1" height="2.70760834" rx="0.5"></rect>
                        <rect id="Rectangle-Copy-7" stroke-width="2" fill="#FFFFFF" x="16.670912" y="16.8918459" width="1" height="2.70760834" rx="0.5"></rect>
                    </g>
                    <path d="M0.739240993,54.6301785 L79.0422994,54.6301785" id="Line-14" stroke="#666E78" stroke-width="2" fill="#FFFFFF" stroke-linecap="round" stroke-linejoin="round"></path>
                </g>
                <g id="All-Marine" fill-rule="nonzero">
                    <use fill="#000000" xlink:href="#path-2"></use>
                    <use fill="#25C286" xlink:href="#path-2"></use>
                </g>
            </g>
        </g>
    </g>
</svg>